<?xml version="1.0" encoding="UTF-8" standalone="no"?>
<svg
   xmlns:dc="http://purl.org/dc/elements/1.1/"
   xmlns:cc="http://creativecommons.org/ns#"
   xmlns:rdf="http://www.w3.org/1999/02/22-rdf-syntax-ns#"
   xmlns:svg="http://www.w3.org/2000/svg"
   xmlns="http://www.w3.org/2000/svg"
   xmlns:sodipodi="http://sodipodi.sourceforge.net/DTD/sodipodi-0.dtd"
   xmlns:inkscape="http://www.inkscape.org/namespaces/inkscape"
   width="134.01019mm"
   height="60.304443mm"
   viewBox="0 0 134.01019 60.304443"
   version="1.1"
   id="svg1064"
   inkscape:version="1.0.2-2 (e86c870879, 2021-01-15)"
   sodipodi:docname="alternative.svg">
  <defs
     id="defs1058" />
  <sodipodi:namedview
     id="base"
     pagecolor="#ffffff"
     bordercolor="#666666"
     borderopacity="1.0"
     inkscape:pageopacity="0.0"
     inkscape:pageshadow="2"
     inkscape:zoom="1.9286178"
     inkscape:cx="242.16018"
     inkscape:cy="125.47033"
     inkscape:document-units="mm"
     inkscape:current-layer="layer1"
     inkscape:document-rotation="0"
     showgrid="false"
     inkscape:window-width="1920"
     inkscape:window-height="1017"
     inkscape:window-x="1912"
     inkscape:window-y="-8"
     inkscape:window-maximized="1"
     fit-margin-top="0"
     fit-margin-left="0"
     fit-margin-right="0"
     fit-margin-bottom="0" />
  <metadata
     id="metadata1061">
    <rdf:RDF>
      <cc:Work
         rdf:about="">
        <dc:format>image/svg+xml</dc:format>
        <dc:type
           rdf:resource="http://purl.org/dc/dcmitype/StillImage" />
        <dc:title></dc:title>
      </cc:Work>
    </rdf:RDF>
  </metadata>
  <g
     inkscape:label="Layer 1"
     inkscape:groupmode="layer"
     id="layer1"
     transform="translate(-4.1054537,-69.379838)">
    <path
       style="fill:none;stroke:#000000;stroke-width:3"
       d="M 18.108823,75.179054 V 126.21301"
       id="path1627" />
    <path
       style="fill:none;stroke:#000000;stroke-width:3"
       d="M 16.599754,126.21301 H 132.24929"
       id="path1631"
       sodipodi:nodetypes="cc" />
    <path
       style="fill:none;stroke:#000000;stroke-width:1;stroke-miterlimit:4;stroke-dasharray:1, 3;stroke-dashoffset:0"
       d="M 16.805536,90.681306 H 132.45508"
       id="path1631-3"
       sodipodi:nodetypes="cc" />
    <text
       xml:space="preserve"
       style="font-size:7.05556px;line-height:1.25;font-family:Alegreya;-inkscape-font-specification:Alegreya;stroke-width:0.264583"
       x="26.340107"
       y="84.828682"
       id="text1657"><tspan
         sodipodi:role="line"
         id="tspan1655"
         x="26.340107"
         y="84.828682"
         style="stroke-width:0.264583">0</tspan></text>
    <text
       xml:space="preserve"
       style="font-size:7.05556px;line-height:1.25;font-family:Alegreya;-inkscape-font-specification:Alegreya;stroke-width:0.264583"
       x="40.644405"
       y="84.828682"
       id="text1661"><tspan
         sodipodi:role="line"
         id="tspan1659"
         x="40.644405"
         y="84.828682"
         style="stroke-width:0.264583">2</tspan></text>
    <text
       xml:space="preserve"
       style="font-size:7.05556px;line-height:1.25;font-family:Alegreya;-inkscape-font-specification:Alegreya;stroke-width:0.264583"
       x="53.671654"
       y="84.82869"
       id="text1657-0"><tspan
         sodipodi:role="line"
         id="tspan1655-8"
         x="53.671654"
         y="84.82869"
         style="stroke-width:0.264583">1</tspan></text>
    <text
       xml:space="preserve"
       style="font-size:7.05556px;line-height:1.25;font-family:Alegreya;-inkscape-font-specification:Alegreya;stroke-width:0.264583"
       x="67.337425"
       y="84.828682"
       id="text1657-6"><tspan
         sodipodi:role="line"
         id="tspan1655-0"
         x="67.337425"
         y="84.828682"
         style="stroke-width:0.264583">3</tspan></text>
    <text
       xml:space="preserve"
       style="font-size:7.05556px;line-height:1.25;font-family:Alegreya;-inkscape-font-specification:Alegreya;stroke-width:0.264583"
       x="94.668968"
       y="84.82869"
       id="text1657-01"><tspan
         sodipodi:role="line"
         id="tspan1655-81"
         x="94.668968"
         y="84.82869"
         style="stroke-width:0.264583">0</tspan></text>
    <text
       xml:space="preserve"
       style="font-size:7.05556px;line-height:1.25;font-family:Alegreya;-inkscape-font-specification:Alegreya;stroke-width:0.264583"
       x="81.641724"
       y="84.82869"
       id="text1661-7"><tspan
         sodipodi:role="line"
         id="tspan1659-8"
         x="81.641724"
         y="84.82869"
         style="stroke-width:0.264583">2</tspan></text>
    <text
       xml:space="preserve"
       style="font-size:7.05556px;line-height:1.25;font-family:Alegreya;-inkscape-font-specification:Alegreya;stroke-width:0.264583"
       x="108.97327"
       y="84.828682"
       id="text1661-5"><tspan
         sodipodi:role="line"
         id="tspan1659-3"
         x="108.97327"
         y="84.828682"
         style="stroke-width:0.264583">2</tspan></text>
    <text
       xml:space="preserve"
       style="font-size:7.05556px;line-height:1.25;font-family:Alegreya;-inkscape-font-specification:Alegreya;stroke-width:0.264583"
       x="122.63904"
       y="84.82869"
       id="text1661-3"><tspan
         sodipodi:role="line"
         id="tspan1659-9"
         x="122.63904"
         y="84.82869"
         style="stroke-width:0.264583">3</tspan></text>
    <text
       xml:space="preserve"
       style="font-size:7.05556px;line-height:1.25;font-family:Alegreya;-inkscape-font-specification:Alegreya;stroke-width:0.264583"
       x="4.3900175"
       y="92.053185"
       id="text1789"><tspan
         sodipodi:role="line"
         id="tspan1787"
         x="4.3900175"
         y="92.053185"
         style="stroke-width:0.264583">+6v</tspan></text>
    <text
       xml:space="preserve"
       style="font-size:7.05556px;line-height:1.25;font-family:Alegreya;-inkscape-font-specification:Alegreya;stroke-width:0.264583"
       x="7.7984409"
       y="127.87772"
       id="text1789-2"><tspan
         sodipodi:role="line"
         id="tspan1787-6"
         x="7.7984409"
         y="127.87772"
         style="stroke-width:0.264583">0v</tspan></text>
    <path
       sodipodi:type="star"
       style="fill:#000000;fill-opacity:1;stroke:#000000;stroke-width:1;stroke-miterlimit:4;stroke-dasharray:none;stroke-dashoffset:0"
       id="path1815"
       sodipodi:sides="3"
       sodipodi:cx="18.140236"
       sodipodi:cy="73.434006"
       sodipodi:r1="3.054168"
       sodipodi:r2="1.527084"
       sodipodi:arg1="2.6179939"
       sodipodi:arg2="3.6651914"
       inkscape:flatsided="false"
       inkscape:rounded="0"
       inkscape:randomized="0"
       d="m 15.495249,74.96109 1.322493,-2.290626 1.322494,-2.290626 1.322493,2.290626 1.322494,2.290626 -2.644987,0 z"
       inkscape:transform-center-y="-0.7635429" />
    <path
       sodipodi:type="star"
       style="fill:#000000;fill-opacity:1;stroke:#000000;stroke-width:1;stroke-miterlimit:4;stroke-dasharray:none;stroke-dashoffset:0"
       id="path1815-3"
       sodipodi:sides="3"
       sodipodi:cx="-140.75494"
       sodipodi:cy="128.59843"
       sodipodi:r1="3.054168"
       sodipodi:r2="1.527084"
       sodipodi:arg1="2.6179939"
       sodipodi:arg2="3.6651914"
       inkscape:flatsided="false"
       inkscape:rounded="0"
       inkscape:randomized="0"
       d="m -143.39993,130.12552 1.32249,-2.29063 1.3225,-2.29062 1.32249,2.29062 1.32249,2.29063 -2.64498,0 z"
       transform="matrix(0,-1,-1,0,262.65992,-14.581674)"
       inkscape:transform-center-x="-0.76354364" />
    <path
       style="fill:none;fill-opacity:1;stroke:#6abed2;stroke-width:0;stroke-miterlimit:4;stroke-dasharray:none;stroke-dashoffset:0;stroke-opacity:1"
       d="m -28.294751,36.397592 c 0.64671,0 1.296333,-0.06132 1.940131,0 0.719788,0.06855 1.415216,0.310999 2.134145,0.388027 3.028393,0.324469 6.079824,0.376717 9.118621,0.582038 9.8440643,0.665142 8.754426,0.699046 19.5953341,0.970066 11.5485419,0.288716 23.0189379,0.261374 34.5343509,-0.776052 6.223842,-0.560705 12.420735,-1.389602 18.62527,-2.134145 6.811941,-0.817433 3.916709,-0.776052 6.984473,-0.776052"
       id="path1843" />
    <text
       xml:space="preserve"
       style="font-size:7.05556px;line-height:1.25;font-family:Alegreya;-inkscape-font-specification:Alegreya;stroke-width:0.264583"
       x="4.221364"
       y="103.46553"
       id="text1789-0"><tspan
         sodipodi:role="line"
         id="tspan1787-5"
         x="4.221364"
         y="103.46553"
         style="stroke-width:0.264583">+4v</tspan></text>
    <text
       xml:space="preserve"
       style="font-size:7.05556px;line-height:1.25;font-family:Alegreya;-inkscape-font-specification:Alegreya;stroke-width:0.264583"
       x="4.9073043"
       y="115.82685"
       id="text1789-1"
       inkscape:transform-center-x="-1.0975045"
       inkscape:transform-center-y="-3.2925134"><tspan
         sodipodi:role="line"
         id="tspan1787-8"
         x="4.9073043"
         y="115.82685"
         style="stroke-width:0.264583">+2v</tspan></text>
    <path
       style="fill:none;stroke:#000000;stroke-width:1;stroke-miterlimit:4;stroke-dasharray:1, 3;stroke-dashoffset:0"
       d="M 16.795344,102.57935 H 132.44489"
       id="path1631-3-9"
       sodipodi:nodetypes="cc" />
    <path
       style="fill:none;stroke:#000000;stroke-width:1;stroke-miterlimit:4;stroke-dasharray:1, 3;stroke-dashoffset:0"
       d="M 17.206907,115.61222 H 132.85645"
       id="path1631-3-1"
       sodipodi:nodetypes="cc" />
    <path
       style="fill:none;fill-opacity:1;stroke:#000000;stroke-width:1;stroke-miterlimit:4;stroke-dasharray:none;stroke-dashoffset:0;stroke-opacity:1"
       d="m 18.647388,123.15756 h 13.855993 v -20.57821 h 17.834448 v 13.30724 H 62.684753 V 90.369611 h 15.227874 v 12.484109 h 13.170054 v 20.30384 h 13.993179 v -20.44102 h 12.62131 V 90.369611 h 14.40474"
       id="path2632" />
    <path
       style="fill:none;fill-opacity:1;stroke:#dc555d;stroke-width:0.5;stroke-miterlimit:4;stroke-dasharray:none;stroke-dashoffset:0;stroke-opacity:1"
       d="m 18.647388,123.15756 c 0.812026,-0.11578 0.905158,-0.9704 1.440474,-1.37188 0.128558,-0.0964 0.333966,0.59933 0.342971,0.61734 0.168658,0.33732 0.387546,0.60447 0.617346,0.89173 0.03194,0.0399 0.03244,0.10103 0.06859,0.13718 0.0825,0.0825 0.556132,-1.03629 0.617346,-1.0975 0.01617,-0.0162 -0.0072,0.0469 0,0.0686 0.03894,0.11681 0.08718,0.23045 0.137188,0.34297 0.09817,0.22089 0.226,0.6819 0.548752,0.61735 0.451701,-0.0903 0.74361,-0.68048 1.166099,-0.89172 0.06316,-0.0316 0.419728,0.37931 0.548752,0.41156 0.257266,0.0643 0.555246,-0.34081 0.754534,-0.27438 0.291815,0.0973 0.326841,0.48891 0.68594,0.54876 0.403819,0.0673 1.104748,-0.54514 1.234693,-0.48016 0.16181,0.0809 0.221363,0.27957 0.411564,0.34297 0.316615,0.10554 1.699207,-0.22143 1.852039,-0.0686 0.03234,0.0323 -0.03234,0.10486 0,0.13719 0.102858,0.10286 0.473415,0.20916 0.617346,0.13719 0.02213,-0.0111 0.219744,-0.42553 0.274376,-0.48016 0.0666,-0.0666 0.207774,0.34098 0.274376,0.27438 0.01617,-0.0162 0,-0.0457 0,-0.0686 0.02287,-0.0457 0.03244,-0.10103 0.06859,-0.13718 0.03615,-0.0362 0.09146,-0.0457 0.137188,-0.0686 0.02286,-0.0457 0.03244,-0.10104 0.06859,-0.13719 0.15891,-0.15891 0.579833,0.54876 0.754535,0.54876 0.02609,0 -0.03167,-0.3271 0,-0.54876 0.07989,-0.55923 0.148529,-1.14232 0.205782,-1.71485 0.156932,-1.56933 0.324099,-3.15861 0.411562,-4.73299 0.04304,-0.77475 0.01701,-1.55848 0.0686,-2.33219 0.03218,-0.48264 0.171318,-0.95798 0.205782,-1.44048 0.07486,-1.04805 0.224338,-2.10451 0.274376,-3.15532 0.07752,-1.62791 0.209047,-3.25006 0.411564,-4.87018 0.109287,-0.8743 0.238766,-1.74258 0.411562,-2.60657 0.0418,-0.20898 0.07371,-0.6327 0.137189,-0.82313 0.02704,-0.0811 0.142487,0.21903 0.274376,0.54875 0.264194,0.66049 0.439163,1.35849 0.754536,1.98923 0.04573,0.0915 0.03493,0.27437 0.137187,0.27437 0.04152,0 0.24857,-1.25575 0.274375,-1.37188 0.180597,-0.81268 0.491755,-1.59167 0.68594,-2.400785 0.05966,-0.248576 0.07798,-0.505852 0.137189,-0.754533 0.09325,-0.39165 0.480158,-1.336128 0.480158,-1.714852 0,-0.02286 -0.0072,0.0469 0,0.06859 0.03894,0.116811 0.09511,0.227253 0.137189,0.342971 0.263457,0.724504 0.01521,0.09647 0.274376,0.960316 0.257276,0.857586 0.527825,1.719213 0.891723,2.537983 0.06229,0.14016 0.131294,0.27748 0.205782,0.41156 0.04004,0.0721 0.100319,0.13205 0.137186,0.20579 0.01024,0.0204 -0.02286,0.0686 0,0.0686 0.08406,0 0.136613,-0.8874 0.137189,-0.89172 0.08917,-0.6688 0.222227,-1.325143 0.342972,-1.989231 0.04967,-0.273193 0.109215,-1.275316 0.342969,-1.50907 0.01667,-0.01667 0.476991,1.494496 0.480158,1.50907 0.382875,1.761221 0.568415,3.567341 0.823129,5.350331 0.03701,0.25907 0.05151,0.72892 0.205782,0.96032 0.05712,0.0857 0.12001,-0.5058 0.137187,-0.54875 0.296942,-0.74235 0.512241,-1.49634 0.754536,-2.2636 0.06532,-0.20685 0.127913,-0.41489 0.205782,-0.61735 0.04104,-0.1067 0.124942,-0.35521 0.20578,-0.27438 0.09835,0.0983 0.02769,0.27864 0.0686,0.41157 0.05745,0.18671 0.137186,0.36583 0.205782,0.54875 0.06859,0.25151 0.132786,0.50427 0.205782,0.75454 0.153916,0.52771 0.358331,1.04162 0.480158,1.57766 0.06165,0.27124 0.06972,0.55327 0.137187,0.82312 0.315243,0.84065 0.130505,0.24096 0.274378,0.96032 0.0045,0.0224 -0.0045,-0.0462 0,-0.0686 0.151551,-0.75776 0.135908,-0.50711 0.274375,-1.30329 0.175036,-1.00645 0.380887,-2.01094 0.548752,-3.01814 0.05688,-0.34129 0.07184,-0.68913 0.137189,-1.02891 0.04923,-0.256 0.154654,-0.4989 0.205782,-0.75453 0.0077,-0.0385 0.205782,-1.06922 0.205782,-1.166103 0,-0.02286 -0.0056,0.04641 0,0.06859 0.04037,0.161488 0.08823,0.321064 0.137187,0.480153 0.128783,0.41855 0.244866,0.80958 0.342971,1.2347 0.390147,1.69063 -0.100695,-0.60856 0.274376,0.89172 0.110318,0.44127 0.230018,1.20245 0.480158,1.57766 0.01267,0.019 -0.0056,-0.0464 0,-0.0686 0.04037,-0.16148 0.104542,-0.31693 0.137189,-0.48015 0.03615,-0.18076 0.02638,-0.36931 0.06859,-0.54875 0.134207,-0.57039 0.376034,-1.15352 0.548751,-1.71486 0.226243,-0.73528 0.21595,-0.38614 0.342972,-0.0686 0.161734,0.40434 0.452712,0.75451 0.617347,1.1661 0.05696,0.14241 0.0524,0.41156 0.205779,0.41156 0.114324,0 0.154657,-0.17212 0.205783,-0.27437 0.114323,-0.22865 0.237188,-0.45322 0.342971,-0.68594 0.03032,-0.0667 0.53276,-1.609647 0.68594,-1.30329 0.233207,0.46641 0.191133,1.14679 0.274376,1.64626 0.125161,0.75096 0.25569,1.50719 0.342971,2.2636 0.123151,1.0673 0.03643,1.03281 0.06859,2.12642 0.06812,2.31619 0.273114,4.63101 0.548752,6.92799 0.08897,0.74138 0.006,1.7268 0.342971,2.40079 0.05488,0.10975 -0.05488,0.30182 0,0.41157 0.02045,0.0409 0.104852,0.0323 0.137186,0 0.03234,-0.0323 -0.01699,-0.0947 0,-0.13719 0.100521,-0.2513 0.349922,-0.52011 0.480161,-0.75453 0.13026,-0.11779 0.132614,-0.33383 0.205782,-0.48016 0.02761,-0.0552 0.237384,-0.51715 0.274376,-0.48016 0.236429,0.23643 0.614892,1.28286 0.754533,1.57766 0.158435,0.33448 0.82313,1.30214 0.82313,1.64626 0,0.0229 -0.0056,-0.0464 0,-0.0686 0.01754,-0.0701 0.05106,-0.13563 0.06859,-0.20578 0.06687,-0.26747 0.09847,-0.5521 0.137189,-0.82313 0.03427,-0.23988 0.512911,-2.53797 0.617344,-2.53797 0.02286,0 -0.008,0.0472 0,0.0686 0.06114,0.16304 0.132811,0.32205 0.205783,0.48016 0.25351,0.54927 0.391932,1.11704 0.68594,1.64625 0.04966,0.0894 0.09921,0.17944 0.137189,0.27438 0.0085,0.0212 -0.02286,0.0686 0,0.0686 0.02836,0 -0.04012,-0.27114 0,-0.41156 0.02809,-0.0983 0.110284,-0.17573 0.137186,-0.27438 0.138674,-0.50846 0.187569,-0.94768 0.411565,-1.44047 0.113615,-0.24995 0.212156,-0.49453 0.274376,-0.41156 0.458443,0.61125 0.653526,1.36754 0.960318,2.05782 0.05415,0.12183 0.07246,0.34296 0.205782,0.34296 0.09146,0 -0.02513,-0.18643 0,-0.27437 0.118166,-0.41359 0.303414,-0.83702 0.480158,-1.23469 0.142854,-0.32143 0.290833,-0.81856 0.411565,-0.61735 0.388226,0.64705 0.57517,1.44055 0.89172,2.12641 0.655055,1.41929 -0.211826,-0.49224 0.411565,0.75454 0.04573,0.0915 0.09146,0.18292 0.137189,0.27438 0.02045,0.0409 -0.03234,0.10485 0,0.13718 0.01617,0.0162 0.05243,-0.0162 0.06859,0 0.06666,0.0667 0.02183,0.19253 0.06859,0.27438 0.107021,0.18728 0.246504,0.35582 0.342972,0.54875 0.189798,0.3796 0.405595,1.22873 0.68594,1.50907 0.01617,0.0162 -0.0032,-0.046 0,-0.0686 0.01966,-0.13769 0.05704,-0.27297 0.06859,-0.41157 0.05179,-0.62153 0.138411,-1.22323 0.205782,-1.85204 0.202108,-1.88631 0.580081,-3.75485 0.891723,-5.62471 0.05316,-0.31895 0.0935,-0.63992 0.137189,-0.96031 0.02848,-0.20887 -0.07362,-0.61735 0.137186,-0.61735 0.02286,0 -0.0056,0.0464 0,0.0686 0.01754,0.0701 0.05671,0.13446 0.0686,0.20578 0.03404,0.20423 0.05271,0.4109 0.06859,0.61734 0.105822,1.37569 0.195878,2.74965 0.411564,4.11565 0.106363,0.67362 0.142775,0.46185 0.205783,1.0289 0.01011,0.0909 -0.09146,0.27438 0,0.27438 0.02286,0 0,-0.0457 0,-0.0686 0,-0.18292 0,-0.36584 0,-0.54875 0,-0.22865 0,-0.4573 0,-0.68594 0,-1.84198 0.240953,-3.65123 0.342968,-5.48753 0.317389,-5.71297 0.611349,-11.430435 0.82313,-17.148501 0.0576,-1.555311 0.114382,-3.110595 0.205782,-4.664394 0.02998,-0.509665 0.137186,-1.120899 0.137186,-1.646257 0,-0.02286 0,0.04573 0,0.06859 0,0.400677 -0.0097,0.05958 0.0686,0.68594 0.08149,0.651921 0.08878,0.851613 0.137187,1.577663 0.07655,1.14817 0.163552,2.284501 0.274375,3.429701 0.02119,0.218962 0.115504,1.898948 0.342972,2.126415 0.153381,0.153381 0.137189,-0.411564 0.205782,-0.617346 0.277085,-0.831253 0.562904,-1.668684 1.166098,-2.332197 0.06431,-0.07074 0.408387,-0.402294 0.548751,-0.205782 0.208021,0.291226 0.326951,0.636879 0.480161,0.960316 0.733359,1.548204 1.178962,3.208932 1.577663,4.870177 0.188896,0.787077 0.31928,1.667476 0.68594,2.40079 0.05112,0.102253 0,-0.228645 0,-0.342969 0,-0.137189 -0.0091,-0.27468 0,-0.411565 0.0336,-0.503978 0.102436,-1.005168 0.137186,-1.509069 0.08748,-1.268435 0.243594,-2.453663 0.480158,-3.704077 0.448498,-2.370625 -0.05895,-0.08109 0.480158,-2.057821 0.07442,-0.272855 0.0793,-0.570166 0.205782,-0.823128 0.01024,-0.02045 -0.0045,0.04617 0,0.06859 0.0185,0.09244 0.04151,0.184078 0.0686,0.274376 0.231204,0.77068 0.06529,0.05043 0.20578,0.823128 0.129101,0.710041 -0.0131,-0.02543 0.205782,0.68594 0.196234,0.637755 0.312859,1.331192 0.411565,1.989227 0.0024,0.01652 0.05526,1.166099 0.205782,1.166099 0.02286,0 -0.009,-0.04758 0,-0.06859 0.563968,-1.315925 -0.245213,0.877207 0.411565,-1.166099 0.368189,-1.145475 0.777007,-2.267903 1.097505,-3.429701 0.344397,-1.248447 0.107706,-0.401353 0.274375,-1.234693 0.0045,-0.02242 -0.0038,0.04604 0,0.06859 0.163338,0.980029 -0.04905,-0.232105 0.205783,0.617347 0.09835,0.327828 0.532373,2.453007 0.617347,2.537979 0.01617,0.01617 0,-0.04573 0,-0.06859 0,-0.182918 0,-0.365835 0,-0.548753 0,-0.437209 -0.0263,-0.48046 0.06859,-0.891722 0.06357,-0.275472 0.274375,-0.610835 0.274375,-0.891722 0,-0.02287 -0.01024,0.04814 0,0.06859 0.150974,0.301949 0.156546,0.138381 0.342972,0.480158 0.325427,0.596616 0.07574,0.346009 0.411562,0.891722 0.692187,1.124802 0.04593,-0.145894 0.548754,0.960317 0.04231,0.09309 0.09921,0.179435 0.137186,0.274376 0.0085,0.02123 -0.02286,0.06859 0,0.06859 0.02286,0 -0.0038,-0.04604 0,-0.06859 0.01918,-0.115001 0.04573,-0.228647 0.0686,-0.34297 0.06336,-0.31679 0.13947,-1.30557 0.342969,-1.509069 0.01617,-0.01617 -0.0063,0.04661 0,0.06859 0.03973,0.139045 0.09746,0.272519 0.137189,0.411564 0.0518,0.181292 0.10346,0.363247 0.137186,0.548752 0.194115,1.067622 0.374754,2.143502 0.480161,3.22392 0.220438,2.259498 0.338614,4.526104 0.480158,6.790808 0.260323,4.16518 -0.137798,-0.87577 0.205782,3.01814 0.0044,0.0494 0.05452,1.0553 0.137187,1.30328 0.01617,0.0485 0.0686,-0.0861 0.0686,-0.13718 0,-0.36271 -0.02582,-0.73609 0,-1.09751 0.08501,-1.19021 0.303996,-2.41794 0.617345,-3.56689 0.06281,-0.2303 0.141893,-0.45593 0.205782,-0.68594 0.105839,-0.38102 0.131009,-0.66719 0.205782,-0.61735 0.16877,0.11252 0.617273,1.8322 0.685941,2.05782 0.285903,0.9394 0.262199,0.66224 0.480158,1.57767 0.232658,0.97716 0.02037,0.4041 0.342971,1.37188 0.172548,0.51764 0.432805,1.00158 0.617344,1.50907 0.10436,0.28699 0.01834,0.31105 0.137189,0.54875 8e-6,2e-5 -1.5e-5,-0.27424 0,-0.27438 0.04011,-0.32085 0.0935,-0.63992 0.13719,-0.96031 0.08432,-0.61836 0.164666,-1.23768 0.274375,-1.85204 0.636929,-3.5668 -0.194895,1.37014 0.411565,-1.78345 0.113585,-0.59065 0.171317,-1.19086 0.274375,-1.78344 0.234122,-1.346208 0.02323,-0.23011 0.274376,-1.234692 0.02986,-0.119454 0.08212,-0.453101 0.137189,-0.342971 0.20941,0.418822 0.25005,1.063053 0.342969,1.509073 0.133538,0.64098 0.28316,1.2786 0.411564,1.92063 0.145992,0.72996 0.255588,1.46711 0.411565,2.19501 0.03382,0.15783 0.438256,1.96253 0.548751,1.85203 0.03483,-0.0348 -0.0038,-0.38521 0,-0.41156 0.01333,-0.0933 0.04573,-0.18292 0.0686,-0.27438 0,-0.13718 -0.0114,-0.27484 0,-0.41156 0.08966,-1.07592 0.609844,-2.2461 1.028909,-3.22392 0.07695,-0.17956 0.06765,-0.41061 0.205782,-0.54875 0.01617,-0.0162 -0.0056,0.0464 0,0.0686 0.119873,0.47949 0.0095,-0.10877 0.205783,0.48016 0.163896,0.49169 0.267409,1.63929 0.617347,1.98923 0.01617,0.0162 -0.0056,-0.0464 0,-0.0686 0.01754,-0.0701 0.04873,-0.13626 0.06859,-0.20579 0.03795,-0.13282 0.337047,-0.96328 0.480158,-0.89172 0.116917,0.0585 0.917477,2.13508 0.960316,2.2636 0.606033,1.8181 0.117853,0.22322 0.617347,2.3322 0.651655,2.75144 1.11457,5.5233 1.646256,8.29988 0.233111,1.21736 0.397351,2.85252 0.960315,3.97845 0.01024,0.0204 0.05243,-0.0162 0.0686,0 0.01823,0.0182 -5.29e-4,0.27102 0,0.27438 0.03615,0.25306 0.07971,0.50544 0.137187,0.75453 0.103182,0.44712 0.280844,0.86755 0.411564,1.30329 0.216279,1.08139 -0.04391,-0.0631 0.13719,0.48016 0.0072,0.0217 -0.02286,0.0686 0,0.0686 0.02286,0 0,-0.0457 0,-0.0686 0,-0.15491 0.09247,-0.5369 0.137186,-0.68594 0.186137,-0.62046 0.376693,-1.25041 0.617347,-1.85204 0.04951,-0.12379 0.07246,-0.34297 0.205782,-0.34297 0.174133,0 0.143272,0.31763 0.205783,0.48016 0.202782,0.52723 0.42704,1.0448 0.617347,1.57766 0.08029,0.2248 0.117125,0.4643 0.205782,0.68594 0.01201,0.03 0.03626,0.0686 0.06859,0.0686 0.02286,0 -0.0032,-0.046 0,-0.0686 0.01569,-0.10981 0.101735,-0.62455 0.137187,-0.75454 0.194413,-0.71284 0.445878,-1.53195 0.891722,-2.12641 0.02479,-0.0331 0.453986,0.63359 0.480161,0.68594 0.292526,0.58505 0.466473,1.23754 0.68594,1.85204 0.07613,0.21316 0.342969,0.63935 0.342969,0.89172"
       id="path2634" />
    <path
       style="fill:none;fill-opacity:1;stroke:#dc555d;stroke-width:0.5;stroke-miterlimit:4;stroke-dasharray:none;stroke-dashoffset:0;stroke-opacity:1"
       d="m 98.456539,122.95177 c -0.0284,-0.85719 0.225186,-1.55377 0.48016,-2.36649 0.05087,-0.16216 0.11774,-0.31893 0.171485,-0.48016 0.0036,-0.0109 -0.0047,-0.0447 0,-0.0343 1.406056,3.09333 -1.00252,-2.07928 0.857424,1.81775 0.075,0.15715 0.125452,0.32566 0.205782,0.48015 0.0688,0.13225 0.16497,0.24852 0.24008,0.37727 0.0851,0.14581 0.15732,0.29875 0.24008,0.44586 0.0202,0.0359 0.0502,0.066 0.0686,0.1029 0.005,0.0102 -0.0114,0.0343 0,0.0343 0.004,0 0.29903,-0.79955 0.30868,-0.82313 0.3341,-0.8167 0.56472,-1.6782 0.96031,-2.46938 0.005,-0.0102 -0.003,0.0232 0,0.0343 0.0202,0.0808 0.0435,0.16072 0.0686,0.24008 0.0435,0.1379 0.0915,0.27438 0.13718,0.41157 0.22637,0.6791 0.46894,1.35338 0.72024,2.02352 0.10984,0.29292 0.12495,0.39548 0.27438,0.65165 0.0288,0.0494 0.0735,0.0882 0.10289,0.13718 0.006,0.01 -0.004,0.0449 0,0.0343 0.11892,-0.2973 0.0326,-0.12884 0.10289,-0.48016 0.15043,-0.75214 0.0737,-0.062 0.20578,-0.96031 0.1469,-0.99893 -0.0212,-0.2367 0.17149,-1.2004 0.0299,-0.14957 0.0628,-0.29871 0.10289,-0.44586 0.0352,-0.1291 0.0426,-0.28265 0.13719,-0.37727 0.008,-0.008 -0.002,0.0231 0,0.0343 0.0207,0.10335 0.0409,0.20699 0.0686,0.30867 0.16786,0.61551 0.33223,1.23072 0.48016,1.85204 0.052,0.21825 0.0938,0.37727 0.10289,0.37727 0.0343,0 0,-0.0686 0,-0.10289 0,-0.39023 0.007,-0.35687 -0.0343,-0.82313 -0.10678,-1.21024 -0.15456,-2.41933 -0.13719,-3.63549 0.0352,-2.46503 0.39927,-4.92044 0.61735,-7.37385 0.0198,-0.22269 0.1904,-2.71008 0.20578,-2.91525 0.0824,-1.09868 0.21092,-2.19251 0.27438,-3.29251 0.0339,-0.58833 0.0814,-1.16332 0.13719,-1.74915 0.01,-0.10306 0.0269,-0.20541 0.0343,-0.30867 0.006,-0.0798 -0.0358,-0.1685 0,-0.24008 0.0323,-0.0647 0.0439,0.13783 0.0686,0.20578 0.0262,0.0721 0.076,0.13397 0.10289,0.20578 0.11736,0.31296 0.10494,0.42321 0.20578,0.75454 0.0705,0.23175 0.16348,0.45612 0.24008,0.68594 0.0102,0.0305 0.10322,0.41156 0.17148,0.41156 0.0114,0 -10e-4,-0.0229 0,-0.0343 0.0104,-0.11442 0.0144,-0.22982 0.0343,-0.34297 0.0672,-0.38081 0.23416,-1.12588 0.51446,-1.40617 0.13452,-0.13453 0.27675,0.21452 0.30867,0.27437 0.30181,0.56589 0.44989,1.20685 0.78883,1.74915 0.20576,0.32922 0.0952,0.19811 0.30867,0.41156 0.0114,0.0114 0.0214,0.044 0.0343,0.0343 0.19109,-0.14332 0.35924,-0.60772 0.44586,-0.78883 0.19158,-0.40057 0.38412,-0.78881 0.54876,-1.2004 0.0686,-0.17148 0.13077,-0.34567 0.20578,-0.51445 0.0208,-0.0467 0.11972,-0.13719 0.0686,-0.13719 -0.0723,0 0.0408,0.13904 0.0686,0.20578 0.19908,0.47778 0.0178,-0.008 0.17149,0.51446 0.0341,0.11611 0.37727,0.9358 0.37727,0.96032"
       id="path2636" />
    <path
       style="fill:none;fill-opacity:1;stroke:#dc555d;stroke-width:0.5;stroke-miterlimit:4;stroke-dasharray:none;stroke-dashoffset:0;stroke-opacity:1"
       d="m 110.42625,104.22563 c 1.12971,-0.44593 1.15434,-2.09788 1.89007,-2.83361 0.0114,-0.0114 -0.004,0.0329 0,0.0485 0.0444,0.16285 0.0952,0.32392 0.14551,0.48503 0.0932,0.29828 0.44501,2.04138 0.72755,2.18265 0.1708,0.0854 0.33461,-0.10665 0.43653,-0.19401 0.54237,-0.46489 0.6578,-1.19335 1.01857,-1.79462 0.0485,-0.0808 0.0789,-0.17586 0.14551,-0.24252 0.12153,-0.12153 0.2511,0.24065 0.33952,0.38803 0.16878,0.28129 0.36181,0.54549 0.53354,0.82455 0.1412,0.22945 0.239,0.50401 0.38803,0.72755 0.0254,0.0381 0.0561,0.0766 0.097,0.097 0.0145,0.007 -0.005,-0.0332 0,-0.0485 0.0114,-0.0343 0.0323,-0.0647 0.0485,-0.097 0.0162,-0.0808 0.0268,-0.16298 0.0485,-0.24252 0.0471,-0.17274 0.4967,-1.21647 0.63054,-1.26108 0.0366,-0.0122 0.0626,0.0973 0.14551,0.24251 0.18952,0.33165 0.32612,0.65054 0.43653,1.01857 0.025,0.0834 0.01,0.24252 0.097,0.24252 0.0162,0 0,-0.0323 0,-0.0485 0,-0.097 0,-0.19402 0,-0.29102 0,-0.12934 -0.0123,-0.25927 0,-0.38803 0.0202,-0.2117 0.0689,-0.41975 0.097,-0.63054 0.0366,-0.27432 0.0569,-0.55073 0.097,-0.82456 0.057,-0.38923 0.11973,-0.77778 0.19401,-1.16408 0.47495,-2.469708 0.99055,-4.93225 1.60061,-7.3725 0.097,-0.388027 0.19402,-0.776053 0.29102,-1.16408 0.0647,-0.307187 0.12006,-0.616478 0.19402,-0.921562 0.0555,-0.22878 0.12379,-0.454356 0.19401,-0.679047 0.0108,-0.03451 0.0452,-0.13301 0.0485,-0.09701 0.0896,0.985003 -0.0179,2.020084 0,3.007204 0.0441,2.426186 0.23187,4.825829 0.58204,7.226995 5.3e-4,0.003 0.18206,1.28193 0.24252,1.5036 0.039,0.14307 0.0654,-0.28346 0.14551,-0.63054 0.17612,-0.76317 0.25151,-1.554564 0.38803,-2.328161 0.29848,-1.691391 0.54047,-3.392745 1.01856,-5.044344 0.0797,-0.275195 0.1687,-0.547736 0.24252,-0.824556 0.0948,-0.355289 0.0938,-0.575611 0.24252,-0.873059 0.007,-0.01446 -0.003,0.03255 0,0.0485 0.0297,0.178302 0.0746,0.354171 0.097,0.533536 0.0844,0.67546 0.11588,1.360059 0.19401,2.037139 0.0205,0.177402 0.0249,0.356524 0.0485,0.533536 0.009,0.06608 -0.0147,0.215093 0.0485,0.194013 0.0826,-0.02753 0.0746,-0.15839 0.097,-0.242516 0.49772,-1.866464 -0.4364,1.296993 0.24252,-1.164079 0.13466,-0.488156 0.29267,-0.969574 0.43653,-1.455099 0.0581,-0.196082 0.12683,-0.388883 0.19401,-0.58204 0.0622,-0.178736 0.12757,-0.356346 0.19401,-0.533536 0.17691,-0.471751 0.0948,-0.327195 0.24252,0.145509 0.0915,0.292798 0.17422,0.589404 0.29102,0.87306 0.0935,0.227138 0.25308,0.522973 0.29102,0.485033 0.0583,-0.05829 0.0312,-0.161907 0.0485,-0.242517 0.0312,-0.14575 0.0609,-0.29192 0.097,-0.436529 0.20265,-0.810595 0.40056,-1.57717 0.77605,-2.328159 0.0485,-0.09701 0.10146,-0.191911 0.14551,-0.29102 0.0208,-0.04672 0.0124,-0.109357 0.0485,-0.145509 0.0616,-0.06157 0.0799,0.157141 0.097,0.242516 0.0822,0.41103 0.21688,0.809606 0.33953,1.212583 0.22772,0.748243 0.47096,1.463992 0.87305,2.134145 0.0263,0.04384 0.0124,0.109357 0.0485,0.14551 0.0767,0.07669 0.1192,-0.185802 0.14551,-0.29102 0.18357,-0.734302 -0.15914,0.239013 0.24251,-0.679046 0.3338,-0.762965 0.66353,-1.525186 1.01857,-2.279656 0.0841,-0.178645 0.23196,-0.52298 0.38803,-0.679046 0.0114,-0.01143 -0.004,0.03296 0,0.0485 0.0281,0.09832 0.0603,0.195581 0.097,0.291019 0.13016,0.338436 0.21806,0.800104 0.48503,1.067073 0.0114,0.01143 -0.006,-0.03364 0,-0.0485 0.0427,-0.09969 0.0936,-0.195806 0.14551,-0.29102 0.0838,-0.153541 0.22005,-0.498052 0.38803,-0.58204 0.0289,-0.01446 0.0768,-0.02525 0.097,0 0.0544,0.06799 0.0581,0.164643 0.097,0.242517 0.0783,0.156657 0.23497,0.268367 0.29102,0.436529 0.005,0.01534 -0.0152,0.05387 0,0.0485 0.24674,-0.08682 0.48252,-0.202118 0.72379,-0.303177"
       id="path2638" />
  </g>
</svg>
