<?xml version="1.0" encoding="UTF-8" standalone="no"?>
<svg
   xmlns:dc="http://purl.org/dc/elements/1.1/"
   xmlns:cc="http://creativecommons.org/ns#"
   xmlns:rdf="http://www.w3.org/1999/02/22-rdf-syntax-ns#"
   xmlns:svg="http://www.w3.org/2000/svg"
   xmlns="http://www.w3.org/2000/svg"
   xmlns:sodipodi="http://sodipodi.sourceforge.net/DTD/sodipodi-0.dtd"
   xmlns:inkscape="http://www.inkscape.org/namespaces/inkscape"
   width="213.92203mm"
   height="58.664482mm"
   viewBox="0 0 213.92203 58.664482"
   version="1.1"
   id="svg10279"
   inkscape:version="1.0.2-2 (e86c870879, 2021-01-15)"
   sodipodi:docname="andornot.svg">
  <defs
     id="defs10273" />
  <sodipodi:namedview
     id="base"
     pagecolor="#ffffff"
     bordercolor="#666666"
     borderopacity="1.0"
     inkscape:pageopacity="0.0"
     inkscape:pageshadow="2"
     inkscape:zoom="0.5588964"
     inkscape:cx="301.12786"
     inkscape:cy="512.25706"
     inkscape:document-units="mm"
     inkscape:current-layer="layer1"
     inkscape:document-rotation="0"
     showgrid="false"
     fit-margin-top="0"
     fit-margin-left="0"
     fit-margin-right="0"
     fit-margin-bottom="0"
     inkscape:window-width="1346"
     inkscape:window-height="1040"
     inkscape:window-x="130"
     inkscape:window-y="0"
     inkscape:window-maximized="0" />
  <metadata
     id="metadata10276">
    <rdf:RDF>
      <cc:Work
         rdf:about="">
        <dc:format>image/svg+xml</dc:format>
        <dc:type
           rdf:resource="http://purl.org/dc/dcmitype/StillImage" />
        <dc:title></dc:title>
      </cc:Work>
    </rdf:RDF>
  </metadata>
  <g
     inkscape:label="Layer 1"
     inkscape:groupmode="layer"
     id="layer1"
     transform="translate(5.0953886,-2.252495)">
    <g
       id="g11220">
      <text
         xml:space="preserve"
         style="font-size:12.7px;line-height:1.25;font-family:Alegreya;-inkscape-font-specification:Alegreya;stroke-width:0.264583"
         x="10.639175"
         y="10.651571"
         id="text11055"><tspan
           sodipodi:role="line"
           id="tspan11053"
           x="10.639175"
           y="10.651571"
           style="font-size:12.7px;stroke-width:0.264583">AND</tspan></text>
      <g
         id="g11195"
         transform="translate(-1.5464375)">
        <g
           id="g11041"
           transform="translate(-70.537074,-10.167366)">
          <path
             id="path10856"
             style="fill:#366e9c;fill-opacity:1;stroke:none;stroke-width:2;stroke-miterlimit:4;stroke-dasharray:none"
             d="m 95.111014,31.211198 a 15.73309,15.73309 0 0 0 -5.54695,11.990483 15.73309,15.73309 0 0 0 5.54747,11.990482 15.73309,15.73309 0 0 0 5.546426,-11.990482 15.73309,15.73309 0 0 0 -5.546946,-11.990483 z" />
          <path
             id="path10856-7"
             style="fill:none;stroke:#ffd040;stroke-width:2;stroke-miterlimit:4;stroke-dasharray:none"
             d="M 84.917327,27.468273 A 15.73309,15.73309 0 0 0 69.192187,43.201681 15.73309,15.73309 0 0 0 84.925076,58.93457 15.73309,15.73309 0 0 0 95.111534,55.192164 15.73309,15.73309 0 0 1 89.564071,43.201681 15.73309,15.73309 0 0 1 95.111534,31.211198 15.73309,15.73309 0 0 0 84.925076,27.468273 a 15.73309,15.73309 0 0 0 -0.0077,0 z" />
          <path
             id="path10856-7-1"
             style="fill:none;stroke:#ffd040;stroke-width:2;stroke-miterlimit:4;stroke-dasharray:none"
             d="m 105.30574,27.468273 a 15.73309,15.73309 0 0 1 15.72514,15.733408 15.73309,15.73309 0 0 1 -15.73289,15.732889 15.73309,15.73309 0 0 1 -10.186456,-3.742407 15.73309,15.73309 0 0 0 5.547456,-11.990482 15.73309,15.73309 0 0 0 -5.547456,-11.990483 15.73309,15.73309 0 0 1 10.186456,-3.742925 15.73309,15.73309 0 0 1 0.008,0 z" />
        </g>
        <text
           xml:space="preserve"
           style="font-size:7.05556px;line-height:1.25;font-family:Alegreya;-inkscape-font-specification:Alegreya;stroke-width:0.264583"
           x="3.1800926"
           y="34.981018"
           id="text11095"><tspan
             sodipodi:role="line"
             id="tspan11093"
             x="3.1800926"
             y="34.981018"
             style="stroke-width:0.264583">chat</tspan></text>
        <text
           xml:space="preserve"
           style="font-size:7.05556px;line-height:1.25;font-family:Alegreya;-inkscape-font-specification:Alegreya;stroke-width:0.264583"
           x="33.139915"
           y="34.981022"
           id="text11099"><tspan
             sodipodi:role="line"
             id="tspan11097"
             x="33.139915"
             y="34.981022"
             style="stroke-width:0.264583">chien</tspan></text>
      </g>
      <text
         xml:space="preserve"
         style="font-size:7.05556px;line-height:1.25;font-family:Alegreya;-inkscape-font-specification:Alegreya;stroke-width:0.264583"
         x="-5.5751667"
         y="60.122204"
         id="text11167"><tspan
           sodipodi:role="line"
           id="tspan11165"
           x="-5.5751667"
           y="60.122204"
           style="stroke-width:0.264583">Les deux conditions</tspan></text>
    </g>
    <g
       id="g11235"
       transform="translate(1.9123671)">
      <text
         xml:space="preserve"
         style="font-size:12.7px;line-height:1.25;font-family:Alegreya;-inkscape-font-specification:Alegreya;stroke-width:0.264583"
         x="92.131348"
         y="11.83378"
         id="text11055-0"><tspan
           sodipodi:role="line"
           id="tspan11053-2"
           x="92.131348"
           y="11.83378"
           style="font-size:12.7px;stroke-width:0.264583">OR</tspan></text>
      <g
         id="g11185"
         transform="translate(-1.8803315)">
        <g
           id="g11051"
           transform="translate(-39.216287,52.809118)">
          <circle
             style="fill:#366e9c;fill-opacity:1;stroke:#ffd040;stroke-width:2;stroke-miterlimit:4;stroke-dasharray:none"
             id="path10856-7-5"
             cx="131.51913"
             cy="-18.429081"
             r="15.73309" />
          <circle
             style="fill:#366e9c;fill-opacity:1;stroke:#ffd040;stroke-width:2;stroke-miterlimit:4;stroke-dasharray:none"
             id="path10856-9-5-5"
             cx="151.8913"
             cy="-18.429081"
             r="15.73309" />
          <path
             id="path10856-7-3"
             style="fill:none;stroke:#ffd040;stroke-width:2;stroke-miterlimit:4;stroke-dasharray:none"
             d="m 151.82811,-34.176164 a 15.73309,15.73309 0 0 1 15.72514,15.733408 15.73309,15.73309 0 0 1 -15.73288,15.7328895 15.73309,15.73309 0 0 1 -10.18646,-3.742407 15.73309,15.73309 0 0 0 5.54746,-11.9904825 15.73309,15.73309 0 0 0 -5.54746,-11.990483 15.73309,15.73309 0 0 1 10.18646,-3.742925 15.73309,15.73309 0 0 1 0.008,0 z" />
        </g>
        <text
           xml:space="preserve"
           style="font-size:7.05556px;line-height:1.25;font-family:Alegreya;-inkscape-font-specification:Alegreya;fill:#ffffff;fill-opacity:1;stroke-width:0.264583"
           x="80.195122"
           y="36.719433"
           id="text11095-3"><tspan
             sodipodi:role="line"
             id="tspan11093-2"
             x="80.195122"
             y="36.719433"
             style="fill:#ffffff;fill-opacity:1;stroke-width:0.264583">chat</tspan></text>
        <text
           xml:space="preserve"
           style="font-size:7.05556px;line-height:1.25;font-family:Alegreya;-inkscape-font-specification:Alegreya;fill:#ffffff;fill-opacity:1;stroke-width:0.264583"
           x="110.15495"
           y="36.719433"
           id="text11099-5"><tspan
             sodipodi:role="line"
             id="tspan11097-3"
             x="110.15495"
             y="36.719433"
             style="fill:#ffffff;fill-opacity:1;stroke-width:0.264583">chien</tspan></text>
      </g>
      <text
         xml:space="preserve"
         style="font-size:7.05556px;line-height:1.25;font-family:Alegreya;-inkscape-font-specification:Alegreya;stroke-width:0.264583"
         x="64.889885"
         y="60.554993"
         id="text11171"><tspan
           sodipodi:role="line"
           id="tspan11169"
           x="64.889885"
           y="60.554993"
           style="stroke-width:0.264583">l'un ou l'autre des termes</tspan></text>
    </g>
    <g
       id="g11250">
      <text
         xml:space="preserve"
         style="font-size:12.7px;line-height:1.25;font-family:Alegreya;-inkscape-font-specification:Alegreya;stroke-width:0.264583"
         x="169.39012"
         y="10.494795"
         id="text11055-7"><tspan
           sodipodi:role="line"
           id="tspan11053-9"
           x="169.39012"
           y="10.494795"
           style="font-size:12.7px;stroke-width:0.264583">NOT</tspan></text>
      <g
         id="g11205">
        <g
           id="g11046"
           transform="translate(170.54579,42.530806)">
          <circle
             style="fill:none;fill-opacity:1;stroke:#ffd040;stroke-width:2;stroke-miterlimit:4;stroke-dasharray:none"
             id="path10856-9-5-5-2"
             cx="21.547756"
             cy="-8.5212574"
             r="15.73309" />
          <path
             id="path10856-7-3-5"
             style="fill:#366e9c;fill-opacity:1;stroke:#ffd040;stroke-width:2;stroke-miterlimit:4;stroke-dasharray:none"
             d="M 1.3805302,-24.254406 A 15.73309,15.73309 0 0 0 -14.34461,-8.5209978 15.73309,15.73309 0 0 0 1.3882702,7.2118912 15.73309,15.73309 0 0 0 11.57473,3.4694842 15.73309,15.73309 0 0 1 6.0272702,-8.5209978 15.73309,15.73309 0 0 1 11.57473,-20.511481 15.73309,15.73309 0 0 0 1.3882702,-24.254406 a 15.73309,15.73309 0 0 0 -0.008,0 z" />
          <circle
             style="fill:none;fill-opacity:1;stroke:#ffd040;stroke-width:2;stroke-miterlimit:4;stroke-dasharray:none"
             id="path10856-7-5-0"
             cx="1.4251406"
             cy="-8.5786905"
             r="15.73309" />
        </g>
        <text
           xml:space="preserve"
           style="font-size:7.05556px;line-height:1.25;font-family:Alegreya;-inkscape-font-specification:Alegreya;fill:#ffffff;fill-opacity:1;stroke-width:0.264583"
           x="159.94026"
           y="35.992508"
           id="text11095-3-0"><tspan
             sodipodi:role="line"
             id="tspan11093-2-4"
             x="159.94026"
             y="35.992508"
             style="fill:#ffffff;fill-opacity:1;stroke-width:0.264583">chat</tspan></text>
        <text
           xml:space="preserve"
           style="font-size:7.05556px;line-height:1.25;font-family:Alegreya;-inkscape-font-specification:Alegreya;fill:#000013;fill-opacity:1;stroke-width:0.264583"
           x="189.9001"
           y="35.992508"
           id="text11099-5-4"><tspan
             sodipodi:role="line"
             id="tspan11097-3-2"
             x="189.9001"
             y="35.992508"
             style="fill:#000013;fill-opacity:1;stroke-width:0.264583">chien</tspan></text>
      </g>
      <text
         xml:space="preserve"
         style="font-size:7.05556px;line-height:1.25;font-family:Alegreya;-inkscape-font-specification:Alegreya;stroke-width:0.264583"
         x="161.99731"
         y="60.83231"
         id="text11175"><tspan
           sodipodi:role="line"
           id="tspan11173"
           x="161.99731"
           y="60.83231"
           style="stroke-width:0.264583">Un seul terme</tspan></text>
    </g>
  </g>
</svg>
