<?xml version="1.0" encoding="UTF-8" standalone="no"?>
<svg
   xmlns:dc="http://purl.org/dc/elements/1.1/"
   xmlns:cc="http://creativecommons.org/ns#"
   xmlns:rdf="http://www.w3.org/1999/02/22-rdf-syntax-ns#"
   xmlns:svg="http://www.w3.org/2000/svg"
   xmlns="http://www.w3.org/2000/svg"
   xmlns:sodipodi="http://sodipodi.sourceforge.net/DTD/sodipodi-0.dtd"
   xmlns:inkscape="http://www.inkscape.org/namespaces/inkscape"
   width="192.6666mm"
   height="206.51039mm"
   viewBox="0 0 192.6666 206.51039"
   version="1.1"
   id="svg2462"
   inkscape:version="1.0.2-2 (e86c870879, 2021-01-15)"
   sodipodi:docname="argumentPassing.svg">
  <defs
     id="defs2456">
    <inkscape:path-effect
       effect="bspline"
       id="path-effect3607"
       is_visible="true"
       lpeversion="1"
       weight="33.333333"
       steps="2"
       helper_size="0"
       apply_no_weight="true"
       apply_with_weight="true"
       only_selected="false" />
    <inkscape:path-effect
       effect="bspline"
       id="path-effect3599"
       is_visible="true"
       lpeversion="1"
       weight="33.333333"
       steps="2"
       helper_size="0"
       apply_no_weight="true"
       apply_with_weight="true"
       only_selected="false" />
    <inkscape:path-effect
       effect="bspline"
       id="path-effect2438"
       is_visible="true"
       lpeversion="1"
       weight="33.333333"
       steps="2"
       helper_size="0"
       apply_no_weight="true"
       apply_with_weight="true"
       only_selected="false" />
  </defs>
  <sodipodi:namedview
     id="base"
     pagecolor="#ffffff"
     bordercolor="#666666"
     borderopacity="1.0"
     inkscape:pageopacity="0.0"
     inkscape:pageshadow="2"
     inkscape:zoom="0.68186937"
     inkscape:cx="277.85853"
     inkscape:cy="466.92824"
     inkscape:document-units="mm"
     inkscape:current-layer="layer1"
     inkscape:document-rotation="0"
     showgrid="false"
     inkscape:window-width="1920"
     inkscape:window-height="1017"
     inkscape:window-x="-8"
     inkscape:window-y="-8"
     inkscape:window-maximized="1"
     fit-margin-top="0"
     fit-margin-left="0"
     fit-margin-right="0"
     fit-margin-bottom="0"
     showguides="false" />
  <metadata
     id="metadata2459">
    <rdf:RDF>
      <cc:Work
         rdf:about="">
        <dc:format>image/svg+xml</dc:format>
        <dc:type
           rdf:resource="http://purl.org/dc/dcmitype/StillImage" />
        <dc:title></dc:title>
      </cc:Work>
    </rdf:RDF>
  </metadata>
  <g
     inkscape:label="Layer 1"
     inkscape:groupmode="layer"
     id="layer1"
     transform="translate(-24.626598,-10.361641)">
    <g
       id="g2450"
       transform="translate(173.57325,58.910853)"
       style="font-size:14.1111px;line-height:1.25;font-family:Alegreya;-inkscape-font-specification:Alegreya;fill:#ffffff;fill-opacity:1;stroke-width:0.264583">
      <path
         d="m -67.695498,121.60752 -0.15522,-0.0282 q 0.0282,-0.77611 0,-1.48166 -0.0141,-0.70556 -0.0564,-1.143 -0.0282,-0.45156 -0.0282,-0.45156 l 0.98777,-0.19755 0.0988,0.11288 q 0,0 -0.0705,0.45156 -0.0565,0.43744 -0.16934,1.12889 -0.0988,0.69144 -0.254,1.41111 z m 1.72156,0 -0.15522,-0.0282 q 0.0282,-0.77611 0,-1.48166 -0.0141,-0.70556 -0.0564,-1.143 -0.0282,-0.45156 -0.0282,-0.45156 l 0.98778,-0.19755 0.0988,0.11288 q 0,0 -0.0706,0.45156 -0.0564,0.43744 -0.16933,1.12889 -0.0988,0.69144 -0.254,1.41111 z"
         style="font-size:14.1111px;fill:#ffffff;fill-opacity:1;stroke-width:0.264583"
         id="path1263" />
      <path
         d="m -61.585408,127.63296 q -0.95956,0 -1.35467,-0.381 -0.39511,-0.39511 -0.39511,-1.32644 v -3.47133 q 0,-0.381 -0.16933,-0.53622 -0.16933,-0.15523 -0.635,-0.16934 l -0.0564,-0.0847 0.0705,-0.42334 q 0.33867,-0.16933 0.64911,-0.381 0.32456,-0.22577 0.56445,-0.42333 0.254,-0.21166 0.39511,-0.33866 0.14111,-0.14112 0.14111,-0.14112 l 0.28222,0.11289 q 0,0 -0.0423,0.26811 -0.0282,0.26811 -0.0706,0.79023 l 2.07433,-0.0423 0.0423,0.0423 -0.127,0.74788 -2.04611,-0.0423 q -0.0423,0.66322 -0.0706,1.55222 -0.0282,0.889 -0.0282,1.97556 0,0.71966 0.23989,1.01599 0.254,0.29634 0.86077,0.29634 0.35278,0 0.64911,-0.127 0.31045,-0.127 0.31045,-0.127 l 0.14111,0.36689 q 0,0 -0.16933,0.127 -0.16934,0.127 -0.42334,0.29633 -0.23988,0.16933 -0.47977,0.29633 -0.22578,0.127 -0.35278,0.127 z"
         style="font-size:14.1111px;fill:#ffffff;fill-opacity:1;stroke-width:0.264583"
         id="path1265" />
      <path
         d="m -56.364298,127.63296 q -0.889,0 -1.55223,-0.39511 -0.66322,-0.39511 -1.04422,-1.08655 -0.36689,-0.70556 -0.36689,-1.63689 0,-0.71967 0.23989,-1.36878 0.254,-0.64911 0.69145,-1.143 0.43744,-0.508 0.98777,-0.79022 0.56445,-0.29633 1.19945,-0.29633 2.10255,0 2.10255,2.04611 0,0.18344 -0.0282,0.381 -0.0282,0.19755 -0.0565,0.31044 l -0.18344,0.16934 h -3.89466 q -0.0141,1.25588 0.45155,1.98966 0.47978,0.71967 1.34056,0.84667 0.86077,0.11289 2.03199,-0.42334 l 0.0847,0.0282 0.15522,0.40922 q -0.28222,0.19755 -0.67733,0.42333 -0.381,0.22578 -0.77611,0.381 -0.39511,0.15522 -0.70555,0.15522 z m -1.84856,-4.33211 2.55411,-0.127 q 0.21167,-0.0282 0.28222,-0.0988 0.0706,-0.0706 0.0706,-0.28222 0,-0.56445 -0.31045,-0.86078 -0.29633,-0.29633 -0.86077,-0.29633 -0.64911,0 -1.12889,0.45155 -0.47978,0.43744 -0.60678,1.21355 z"
         style="font-size:14.1111px;fill:#ffffff;fill-opacity:1;stroke-width:0.264583"
         id="path1267" />
      <path
         d="m -50.183648,127.5483 -0.0282,-0.0706 0.0847,-0.43744 q 0.35278,-0.0141 0.49389,-0.0847 0.15522,-0.0706 0.15522,-0.21167 0,-0.0847 -0.0564,-0.21166 -0.0564,-0.127 -0.18344,-0.31045 l -1.03011,-1.43933 q -0.254,0.31044 -0.59267,0.73378 -0.33867,0.40922 -0.59267,0.762 -0.23989,0.33866 -0.23989,0.46566 0,0.14111 0.127,0.18345 0.127,0.0423 0.49389,0.0705 l 0.0282,0.0565 -0.0847,0.46566 q 0,0 -0.14111,-0.0141 -0.127,0 -0.32456,-0.0141 -0.19755,-0.0141 -0.39511,-0.0282 -0.18344,0 -0.31044,0 -0.18345,0 -0.381,0 -0.19756,0.0141 -0.33867,0.0282 -0.127,0.0141 -0.127,0.0141 l -0.0423,-0.0705 0.0847,-0.43745 q 0.254,-0.14111 0.43745,-0.28222 0.18344,-0.15522 0.381,-0.381 0.19755,-0.22578 0.49389,-0.57855 l 1.21355,-1.41111 -1.07244,-1.524 q -0.31045,-0.45156 -0.52211,-0.69145 -0.21167,-0.23989 -0.43745,-0.35277 -0.22578,-0.127 -0.56444,-0.18345 l -0.0282,-0.0564 0.0847,-0.47978 q 0,0 0.254,0.0141 0.26811,0 0.60678,0.0141 0.33867,0 0.56444,0 0.40923,0 0.73378,-0.0141 0.32456,-0.0141 0.508,-0.0282 0.19756,-0.0141 0.19756,-0.0141 l 0.0282,0.0705 -0.0847,0.43745 q -0.635,0 -0.635,0.26811 0,0.14111 0.0988,0.31044 0.0988,0.15522 0.23989,0.35278 l 0.77611,1.12889 0.86078,-1.08656 q 0.19755,-0.23989 0.31044,-0.40922 0.127,-0.16933 0.127,-0.31044 0,-0.11289 -0.127,-0.14111 -0.11289,-0.0423 -0.47978,-0.0423 l -0.0282,-0.0564 0.0706,-0.46567 h 1.03011 q 0.19755,0 0.42333,-0.0141 0.23989,-0.0141 0.40922,-0.0141 0.16933,-0.0141 0.16933,-0.0141 l 0.0423,0.0705 -0.0847,0.45156 q -0.22578,0.0706 -0.53622,0.36689 -0.29633,0.28222 -0.64911,0.69144 l -1.21356,1.42522 1.29823,1.84856 q 0.36688,0.52211 0.67733,0.77611 0.32455,0.23989 0.74789,0.28222 l 0.0282,0.0564 -0.0847,0.47978 q 0,0 -0.22578,-0.0141 -0.22577,0 -0.53622,-0.0141 -0.29633,0 -0.52211,0 -0.21166,0 -0.47977,0.0141 -0.26812,0.0141 -0.52212,0.0282 -0.254,0.0141 -0.42333,0.0282 -0.15522,0.0141 -0.15522,0.0141 z"
         style="font-size:14.1111px;fill:#ffffff;fill-opacity:1;stroke-width:0.264583"
         id="path1269" />
      <path
         d="m -44.186448,127.63296 q -0.95956,0 -1.35467,-0.381 -0.39511,-0.39511 -0.39511,-1.32644 v -3.47133 q 0,-0.381 -0.16933,-0.53622 -0.16934,-0.15523 -0.635,-0.16934 l -0.0564,-0.0847 0.0706,-0.42334 q 0.33866,-0.16933 0.64911,-0.381 0.32455,-0.22577 0.56444,-0.42333 0.254,-0.21166 0.39511,-0.33866 0.14111,-0.14112 0.14111,-0.14112 l 0.28223,0.11289 q 0,0 -0.0423,0.26811 -0.0282,0.26811 -0.0705,0.79023 l 2.07433,-0.0423 0.0423,0.0423 -0.127,0.74788 -2.04611,-0.0423 q -0.0423,0.66322 -0.0705,1.55222 -0.0282,0.889 -0.0282,1.97556 0,0.71966 0.23989,1.01599 0.254,0.29634 0.86078,0.29634 0.35278,0 0.64911,-0.127 0.31045,-0.127 0.31045,-0.127 l 0.14111,0.36689 q 0,0 -0.16934,0.127 -0.16933,0.127 -0.42333,0.29633 -0.23989,0.16933 -0.47978,0.29633 -0.22577,0.127 -0.35277,0.127 z"
         style="font-size:14.1111px;fill:#ffffff;fill-opacity:1;stroke-width:0.264583"
         id="path1271" />
      <path
         d="m -41.434788,121.60752 -0.15522,-0.0282 q 0.0282,-0.77611 0,-1.48166 -0.0141,-0.70556 -0.0564,-1.143 -0.0282,-0.45156 -0.0282,-0.45156 l 0.98778,-0.19755 0.0988,0.11288 q 0,0 -0.0705,0.45156 -0.0564,0.43744 -0.16933,1.12889 -0.0988,0.69144 -0.254,1.41111 z m 1.72155,0 -0.15522,-0.0282 q 0.0282,-0.77611 0,-1.48166 -0.0141,-0.70556 -0.0564,-1.143 -0.0282,-0.45156 -0.0282,-0.45156 l 0.98778,-0.19755 0.0988,0.11288 q 0,0 -0.0706,0.45156 -0.0564,0.43744 -0.16933,1.12889 -0.0988,0.69144 -0.254,1.41111 z"
         style="font-size:14.1111px;fill:#ffffff;fill-opacity:1;stroke-width:0.264583"
         id="path1273" />
    </g>
    <path
       style="font-size:14.1111px;line-height:1.25;font-family:Alegreya;-inkscape-font-specification:Alegreya;fill:none;fill-opacity:1;stroke:#000000;stroke-width:2;stroke-miterlimit:4;stroke-dasharray:none;stroke-opacity:1"
       d="m 30.372858,113.69088 -3.395237,3.97727"
       id="path1391" />
    <path
       style="font-size:14.1111px;line-height:1.25;font-family:Alegreya;-inkscape-font-specification:Alegreya;fill:#2e2f2e;fill-opacity:1;stroke:#000000;stroke-width:1.62;stroke-miterlimit:4;stroke-dasharray:none;stroke-opacity:1"
       d="m 153.62745,71.881506 -0.31431,19.486688"
       id="path1276-2" />
    <path
       style="font-size:14.1111px;line-height:1.25;font-family:Alegreya;-inkscape-font-specification:Alegreya;fill:none;fill-opacity:1;stroke:#000000;stroke-width:1.62;stroke-miterlimit:4;stroke-dasharray:none;stroke-opacity:1"
       d="m 153.31314,91.368194 11.68409,9.061456 -4.29689,16.2836"
       id="path1280-2"
       sodipodi:nodetypes="ccc" />
    <path
       style="font-size:14.1111px;line-height:1.25;font-family:Alegreya;-inkscape-font-specification:Alegreya;fill:none;fill-opacity:1;stroke:#000000;stroke-width:1.62;stroke-miterlimit:4;stroke-dasharray:none;stroke-opacity:1"
       d="m 131.89864,177.41395 5.73809,-5.05569 -4.45603,-24.86763 20.13244,-20.13375 V 91.368194 l -18.85808,-6.600334 -13.82926,9.114744 -4.63593,-0.10611"
       id="path1282-3"
       sodipodi:nodetypes="cccccccc" />
    <path
       style="font-size:14.1111px;line-height:1.25;font-family:Alegreya;-inkscape-font-specification:Alegreya;fill:none;fill-opacity:1;stroke:#000000;stroke-width:1.62;stroke-miterlimit:4;stroke-dasharray:none;stroke-opacity:1"
       d="m 153.31314,127.35688 -1.65307,19.64264 7.65007,25.9864 -5.74869,5.53699"
       id="path1284-8"
       sodipodi:nodetypes="cccc" />
    <path
       style="font-size:14.1111px;line-height:1.25;font-family:Alegreya;-inkscape-font-specification:Alegreya;fill:none;fill-opacity:1;stroke:#000000;stroke-width:1.62;stroke-miterlimit:4;stroke-dasharray:none;stroke-opacity:1"
       d="m 120.6258,93.882604 -2.75014,3.221589"
       id="path1391-1" />
    <path
       style="font-size:14.1111px;line-height:1.25;font-family:Alegreya;-inkscape-font-specification:Alegreya;fill:none;fill-opacity:1;stroke:#000000;stroke-width:1.62;stroke-miterlimit:4;stroke-dasharray:none;stroke-opacity:1"
       d="m 162.99918,120.35518 -2.29884,-3.64193 v 0 l -1.85322,3.55901"
       id="path1393-5"
       sodipodi:nodetypes="cccc" />
    <path
       style="fill:#000000;fill-opacity:1;stroke-width:0.214312"
       d="m 179.57748,45.4219 -5.40261,-7.165965 0.016,-0.01369 h -0.0268 l -0.0247,-0.03216 -0.0414,0.03216 h -24.73546 l -10.4173,8.179874 v 0.321473 l -2.08547,6.362939 2.08547,-1.518621 v 20.394407 h 25.55934 v -0.06213 l 9.66785,-8.598004 V 50.877064 Z m -1.27089,-0.08509 -8.55963,8.634867 -5.1075,-6.980369 8.82282,-8.081727 z m -28.60343,-6.132976 h 22.01354 l -7.87941,7.218906 h -23.05188 z m 13.83966,31.816403 h -23.63416 v -23.63416 h 23.63416 z m 9.667,-8.132303 -8.70623,7.742045 V 48.434703 l 5.13193,7.016382 3.57344,-3.604954 v 11.041596 h 8.1e-4 z"
       id="path2312-2" />
    <text
       xml:space="preserve"
       style="font-size:11.2889px;line-height:1.25;font-family:Alegreya;-inkscape-font-specification:Alegreya;stroke-width:0.264583"
       x="143.91457"
       y="63.909431"
       id="text3521"><tspan
         sodipodi:role="line"
         id="tspan3519"
         x="143.91457"
         y="63.909431"
         style="font-size:11.2889px;stroke-width:0.264583">box</tspan></text>
    <rect
       x="146.78288"
       y="50.415997"
       style="fill:#000000;fill-opacity:1;stroke-width:0.264583"
       width="10.595769"
       height="1.1863917"
       id="rect2310" />
    <g
       id="g3083"
       transform="matrix(0.396875,0,0,0.396875,49.180658,10.361404)"
       style="fill:#3776ab;fill-opacity:1">
      <g
         id="g3027"
         style="fill:#3776ab;fill-opacity:1">
	<path
   id="path3025"
   style="fill:#3776ab;fill-opacity:1;stroke-width:1.5"
   d="m 349.16211,39.162109 c -10.0215,0 -18.1582,8.13325 -18.1582,18.15625 V 674.68555 c 0,10.02 8.1352,18.1582 18.1582,18.1582 10.0245,0 18.1582,-8.1397 18.1582,-18.1582 V 223.16797 l -2.67187,5.86328 v 58.06836 l -33.48633,29.75 V 170.16797 l 33.13867,-0.0918 3.01953,3.54297 V 75.478516 H 784.95117 V 88.523438 L 594.29297,226.94141 v 592.73242 l 191.6875,-139.17188 c 2.4465,7.146 9.1489,12.33399 17.12891,12.33399 10.01849,0 18.15624,-8.13071 18.15624,-18.15821 V 57.310547 c 0.002,-10.0245 -8.13774,-18.148438 -18.15624,-18.148438 z M 666.32422,473.43555 c 9.948,0 18.00781,14.2462 18.00781,31.8457 0.009,17.5815 -8.05981,31.83984 -18.00781,31.83984 -8.556,0 -15.69361,-10.57001 -17.53711,-24.72851 h -20.44727 v -15.88672 h 20.73828 c 2.17201,-13.29 9.0186,-23.07031 17.2461,-23.07031 z"
   transform="matrix(0.66666667,0,0,0.66666667,-123.91977,-26.107475)" />

</g>
      <g
         id="g3029"
         style="fill:#3776ab;fill-opacity:1">
</g>
      <g
         id="g3031"
         style="fill:#3776ab;fill-opacity:1">
</g>
      <g
         id="g3033"
         style="fill:#3776ab;fill-opacity:1">
</g>
      <g
         id="g3035"
         style="fill:#3776ab;fill-opacity:1">
</g>
      <g
         id="g3037"
         style="fill:#3776ab;fill-opacity:1">
</g>
      <g
         id="g3039"
         style="fill:#3776ab;fill-opacity:1">
</g>
      <g
         id="g3041"
         style="fill:#3776ab;fill-opacity:1">
</g>
      <g
         id="g3043"
         style="fill:#3776ab;fill-opacity:1">
</g>
      <g
         id="g3045"
         style="fill:#3776ab;fill-opacity:1">
</g>
      <g
         id="g3047"
         style="fill:#3776ab;fill-opacity:1">
</g>
      <g
         id="g3049"
         style="fill:#3776ab;fill-opacity:1">
</g>
      <g
         id="g3051"
         style="fill:#3776ab;fill-opacity:1">
</g>
      <g
         id="g3053"
         style="fill:#3776ab;fill-opacity:1">
</g>
      <g
         id="g3055"
         style="fill:#3776ab;fill-opacity:1">
</g>
      <g
         id="g3057"
         style="fill:#3776ab;fill-opacity:1">
</g>
    </g>
    <path
       style="font-size:14.1111px;line-height:1.25;font-family:Alegreya;-inkscape-font-specification:Alegreya;fill:#2e2f2e;fill-opacity:1;stroke:#000000;stroke-width:2;stroke-miterlimit:4;stroke-dasharray:none;stroke-opacity:1"
       d="m 71.115633,86.529034 -0.38803,24.057636"
       id="path1276" />
    <path
       style="font-size:14.1111px;line-height:1.25;font-family:Alegreya;-inkscape-font-specification:Alegreya;fill:none;fill-opacity:1;stroke:#000000;stroke-width:2;stroke-miterlimit:4;stroke-dasharray:none;stroke-opacity:1"
       d="m 70.727603,155.01715 2.040836,24.25018 -9.444531,32.08197 10.779367,-5.21509"
       id="path1284"
       sodipodi:nodetypes="cccc" />
    <path
       style="font-size:14.1111px;line-height:1.25;font-family:Alegreya;-inkscape-font-specification:Alegreya;fill:none;fill-opacity:1;stroke:#000000;stroke-width:2;stroke-miterlimit:4;stroke-dasharray:none;stroke-opacity:1"
       d="m 116.22746,103.17907 -5.43236,0.77605 v 0 l 2.23115,4.2683"
       id="path1393" />
    <path
       style="fill:#000000;fill-opacity:1;stroke-width:0.264583"
       d="m 103.15269,53.862854 -6.669876,-8.84687 0.0198,-0.0169 h -0.0331 l -0.0304,-0.0397 -0.0511,0.0397 H 65.850415 l -12.860867,10.09861 v 0.39688 l -2.57466,7.85548 2.57466,-1.87484 v 25.17828 h 31.554737 v -0.0767 l 11.935619,-10.61482 v -15.36435 z m -1.56898,-0.10504 -10.567452,10.66033 -6.30555,-8.61774 10.892366,-9.97744 z m -35.312873,-7.57158 h 27.177207 l -9.727671,8.91223 H 55.261261 Z m 17.085999,39.27951 H 54.17885 v -29.17798 h 29.177986 z m 11.93456,-10.03988 -10.748433,9.55808 v -27.40158 l 6.335712,8.6622 4.411662,-4.45056 v 13.6316 h 0.0011 z"
       id="path2312" />
    <g
       id="g1389"
       transform="matrix(0.13546666,0,0,0.13546666,78.01109,89.91012)"
       style="font-size:14.1111px;line-height:1.25;font-family:Alegreya;-inkscape-font-specification:Alegreya;fill:#000000;fill-opacity:1;stroke-width:0.264583">
      <path
         style="fill:#3776ab;fill-opacity:1;stroke-width:0.265748;stroke-miterlimit:4;stroke-dasharray:none"
         d="m 454.028,227.293 v 166.725 c -21.682,0 -39.269,17.576 -39.269,39.269 H 114.452 c 0,-21.693 -17.587,-39.269 -39.269,-39.269 V 258.317 236.438 204.59 c 21.682,0 39.269,-17.576 39.269,-39.269 h 51.817 30.19 136.294 24.811 57.196 c 0,21.693 17.587,39.269 39.269,39.269 z"
         id="path1286" />
      <path
         style="fill:#264f98;fill-opacity:1"
         d="m 110.992,406.829 v -12.812 -135.7 -21.879 -31.848 -12.811 c 0,-14.612 11.845,-26.457 26.457,-26.457 h -22.997 -12.811 c -14.612,0 -26.457,11.845 -26.457,26.457 v 12.811 31.848 21.879 135.701 12.812 c 0,14.612 11.845,26.457 26.457,26.457 h 12.811 22.997 c -14.612,0 -26.457,-11.846 -26.457,-26.458 z"
         id="path1288" />
      <rect
         x="196.45399"
         y="104.239"
         style="fill:#3776ab;fill-opacity:1"
         width="136.29401"
         height="30.541"
         id="rect1290" />
      <rect
         x="196.45399"
         y="104.239"
         style="fill:#264f98;fill-opacity:1"
         width="26.611"
         height="30.541"
         id="rect1292" />
      <path
         style="fill:#f95428"
         d="m 454.028,394.018 v 12.812 c 0,14.612 -11.845,26.457 -26.457,26.457 h -12.812 c 0,-21.693 17.587,-39.269 39.269,-39.269 z"
         id="path1294" />
      <g
         id="g1300">
        <path
           style="fill:#e54728"
           d="m 114.452,433.287 h -12.811 c -14.612,0 -26.457,-11.845 -26.457,-26.457 v -12.812 c 21.681,0 39.268,17.576 39.268,39.269 z"
           id="path1296" />
        <path
           style="fill:#e54728"
           d="m 101.641,165.321 h 12.811 c 0,21.693 -17.587,39.269 -39.269,39.269 v -12.811 c 0,-14.613 11.846,-26.458 26.458,-26.458 z"
           id="path1298" />
      </g>
      <path
         style="fill:#f95428"
         d="m 454.028,191.778 v 12.811 c -21.682,0 -39.269,-17.576 -39.269,-39.269 h 12.812 c 14.612,0.001 26.457,11.846 26.457,26.458 z"
         id="path1302" />
      <polygon
         style="fill:#ffd94a;fill-opacity:1"
         points="75.183,236.437 75.183,258.317 8.238,213.592 32.182,177.748 "
         id="polygon1304" />
      <g
         id="g1310">
        <path
           style="fill:#ffd94a;fill-opacity:1"
           d="m 102.793,78.714 63.476,86.607 H 114.452 101.64 c -14.612,0 -26.457,11.845 -26.457,26.457 v 12.811 31.848 L 32.182,177.748 9.633,146.987 Z"
           id="path1306" />
        <path
           style="fill:#ffd94a;fill-opacity:1"
           d="m 503.77,161.259 -49.742,66.034 V 204.59 191.779 c 0,-14.612 -11.845,-26.457 -26.457,-26.457 H 414.759 357.563 L 412.432,92.46 Z"
           id="path1308" />
      </g>
      <g
         id="g1316" />
      <path
         style="fill:#333333"
         d="m 511.92,160.106 c -0.304,-2.163 -1.456,-4.116 -3.2,-5.429 L 417.381,85.882 c -1.744,-1.314 -3.937,-1.879 -6.102,-1.576 -2.163,0.304 -4.116,1.456 -5.429,3.2 l -52.393,69.578 h -12.47 v -52.848 c 0,-4.547 -3.686,-8.234 -8.234,-8.234 H 196.46 c -4.547,0 -8.234,3.686 -8.234,8.234 v 52.848 H 170.441 L 109.438,73.847 c -2.686,-3.668 -7.839,-4.463 -11.507,-1.774 L 4.765,140.349 c -1.761,1.291 -2.938,3.229 -3.27,5.387 -0.332,2.158 0.206,4.361 1.497,6.123 l 19.136,26.113 -20.74,31.044 c -2.526,3.781 -1.508,8.895 2.272,11.419 l 63.285,42.278 v 144.112 c 0,19.132 15.565,34.695 34.695,34.695 h 325.927 c 19.132,0 34.695,-15.565 34.695,-34.695 V 230.04 l 48.079,-63.834 c 1.317,-1.742 1.883,-3.937 1.579,-6.1 z m -66.122,35.135 c -10.505,-2.895 -18.792,-11.182 -21.686,-21.687 h 3.458 c 10.05,0 18.228,8.178 18.228,18.228 z m -38.542,-21.687 c 3.442,19.605 18.937,35.1 38.542,38.542 v 174.415 c -19.605,3.442 -35.1,18.937 -38.542,38.542 H 121.957 c -3.442,-19.605 -18.937,-35.1 -38.542,-38.542 V 212.096 c 19.605,-3.442 35.1,-18.937 38.542,-38.542 z M 83.414,195.241 v -3.458 c 0,-10.052 8.178,-18.228 18.228,-18.228 h 3.458 c -2.894,10.504 -11.18,18.791 -21.686,21.686 z m 241.105,-82.77 v 14.074 H 204.692 v -14.074 z m -119.827,30.541 h 119.826 v 14.073 H 204.692 Z m -103.67,-52.789 49.001,66.862 h -48.381 c -19.132,0 -34.695,15.565 -34.695,34.695 v 19.488 L 21.142,148.761 Z m -81.367,121.093 12.832,-19.21 34.459,47.023 v 3.781 z m 63.759,195.509 v -3.458 c 10.506,2.895 18.792,11.181 21.687,21.687 h -3.458 c -10.052,0 -18.229,-8.178 -18.229,-18.229 z m 344.156,18.229 h -3.458 c 2.895,-10.505 11.181,-18.792 21.686,-21.687 v 3.458 c 0,10.051 -8.178,18.229 -18.228,18.229 z M 462.265,202.67 v -10.888 c 0,-19.132 -15.564,-34.695 -34.695,-34.695 h -53.5 l 39.981,-53.095 78.185,58.887 z"
         id="path1318" />
      <g
         id="g1320" />
      <g
         id="g1322" />
      <g
         id="g1324" />
      <g
         id="g1326" />
      <g
         id="g1328" />
      <g
         id="g1330" />
      <g
         id="g1332" />
      <g
         id="g1334" />
      <g
         id="g1336" />
      <g
         id="g1338" />
      <g
         id="g1340" />
      <g
         id="g1342" />
      <g
         id="g1344" />
      <g
         id="g1346" />
      <g
         id="g1348" />
    </g>
    <path
       style="font-size:14.1111px;line-height:1.25;font-family:Alegreya;-inkscape-font-specification:Alegreya;fill:none;fill-opacity:1;stroke:#000000;stroke-width:2;stroke-miterlimit:4;stroke-dasharray:none;stroke-opacity:1"
       d="m 100.52737,206.1041 -8.649041,3.13131 5.545385,-35.72196 -26.696111,-18.4963 v -44.43048 l -23.281584,-8.14856 -17.073161,11.25277 -5.723377,-0.131"
       id="path1282"
       sodipodi:nodetypes="cccccccc" />
    <path
       d="m 94.056724,127.72059 -0.227258,-0.0412 q 0.04128,-1.1363 0,-2.1693 -0.02065,-1.03303 -0.08257,-1.67346 -0.04128,-0.66114 -0.04128,-0.66114 l 1.446201,-0.28924 0.144653,0.16528 q 0,0 -0.10329,0.66112 -0.08279,0.64046 -0.247938,1.65281 -0.144653,1.01235 -0.371881,2.066 z m 2.520541,0 -0.227268,-0.0412 q 0.04126,-1.1363 0,-2.1693 -0.02062,-1.03303 -0.08252,-1.67346 -0.04126,-0.66114 -0.04126,-0.66114 l 1.446207,-0.28924 0.144655,0.16528 q 0,0 -0.103455,0.66112 -0.08252,0.64046 -0.247905,1.65281 -0.144655,1.01235 -0.371881,2.066 z"
       style="font-size:14.1111px;line-height:1.25;font-family:Alegreya;-inkscape-font-specification:Alegreya;fill:#ffffff;fill-opacity:1;stroke-width:0.387376"
       id="path1263-3" />
    <path
       d="m 103.00251,136.54244 q -1.4049,0 -1.98337,-0.55782 -0.57848,-0.57849 -0.57848,-1.94204 v -5.08239 q 0,-0.55783 -0.24792,-0.78508 -0.247915,-0.22727 -0.929706,-0.24793 l -0.0825,-0.12404 0.10329,-0.61982 q 0.495836,-0.24791 0.950366,-0.55782 0.47518,-0.33054 0.8264,-0.6198 0.37189,-0.3099 0.57848,-0.49584 0.20662,-0.20661 0.20662,-0.20661 l 0.41319,0.16529 q 0,0 -0.0618,0.39253 -0.0412,0.39254 -0.10351,1.157 l 3.03703,-0.0619 0.0619,0.0619 -0.18595,1.09495 -2.99572,-0.0619 q -0.0618,0.97103 -0.1034,2.27262 -0.0412,1.30158 -0.0412,2.8924 0,1.05366 0.35123,1.48752 0.37188,0.43385 1.26026,0.43385 0.5165,0 0.95037,-0.18593 0.45452,-0.18594 0.45452,-0.18594 l 0.20659,0.53716 q 0,0 -0.24792,0.18594 -0.2479,0.18595 -0.61979,0.43388 -0.35121,0.24792 -0.70244,0.43385 -0.33056,0.18594 -0.5165,0.18594 z"
       style="font-size:14.1111px;line-height:1.25;font-family:Alegreya;-inkscape-font-specification:Alegreya;fill:#ffffff;fill-opacity:1;stroke-width:0.387376"
       id="path1265-3" />
    <path
       d="m 110.64672,136.54244 q -1.30157,0 -2.2726,-0.57849 -0.97102,-0.57848 -1.52885,-1.59082 -0.53715,-1.03301 -0.53715,-2.39656 0,-1.05368 0.35121,-2.00404 0.37188,-0.95035 1.01235,-1.67346 0.64045,-0.74376 1.4462,-1.15696 0.82641,-0.43387 1.75612,-0.43387 3.07835,0 3.07835,2.99571 0,0.26858 -0.0412,0.55782 -0.0413,0.28924 -0.0827,0.45453 l -0.26859,0.24793 h -5.70216 q -0.0206,1.83872 0.6611,2.91306 0.70245,1.05366 1.96272,1.23959 1.26025,0.16529 2.97504,-0.61979 l 0.12404,0.0412 0.22725,0.59913 q -0.41318,0.28924 -0.99166,0.61981 -0.55782,0.33055 -1.13632,0.55782 -0.57848,0.22725 -1.03299,0.22725 z m -2.70647,-6.34266 3.73947,-0.18594 q 0.30992,-0.0412 0.41322,-0.14464 0.1034,-0.10351 0.1034,-0.4132 0,-0.82642 -0.45454,-1.26026 -0.43387,-0.43387 -1.26026,-0.43387 -0.95037,0 -1.6528,0.66112 -0.70245,0.64046 -0.88839,1.77676 z"
       style="font-size:14.1111px;line-height:1.25;font-family:Alegreya;-inkscape-font-specification:Alegreya;fill:#ffffff;fill-opacity:1;stroke-width:0.387376"
       id="path1267-3" />
    <path
       d="m 119.69583,136.41847 -0.0413,-0.10351 0.12406,-0.64044 q 0.51649,-0.0206 0.72309,-0.12405 0.22728,-0.10351 0.22728,-0.30992 0,-0.12404 -0.0825,-0.30988 -0.0825,-0.18594 -0.26859,-0.45454 l -1.50818,-2.10732 q -0.37188,0.45452 -0.86773,1.07433 -0.49584,0.59914 -0.86773,1.11565 -0.35122,0.49582 -0.35122,0.68176 0,0.2066 0.18594,0.2686 0.18594,0.0619 0.7231,0.10329 l 0.0413,0.0827 -0.12404,0.68176 q 0,0 -0.20659,-0.0207 -0.18595,0 -0.47519,-0.0207 -0.28925,-0.0206 -0.57849,-0.0412 -0.26858,0 -0.45452,0 -0.26858,0 -0.55782,0 -0.28925,0.0207 -0.49585,0.0412 -0.18593,0.0207 -0.18593,0.0207 l -0.0619,-0.10329 0.12404,-0.64046 q 0.37188,-0.20659 0.64047,-0.4132 0.26858,-0.22725 0.55782,-0.55782 0.28924,-0.33057 0.7231,-0.84705 l 1.77677,-2.06601 -1.57016,-2.23129 q -0.45453,-0.66112 -0.76443,-1.01235 -0.3099,-0.35122 -0.64046,-0.51649 -0.33057,-0.18595 -0.82641,-0.2686 l -0.0413,-0.0825 0.12405,-0.70243 q 0,0 0.37189,0.0206 0.39253,0 0.88839,0.0207 0.49585,0 0.8264,0 0.59914,0 1.07431,-0.0207 0.4752,-0.0206 0.74377,-0.0413 0.28925,-0.0206 0.28925,-0.0206 l 0.0413,0.10329 -0.12406,0.64047 q -0.92969,0 -0.92969,0.39253 0,0.20659 0.14465,0.45452 0.14466,0.22725 0.35123,0.5165 l 1.1363,1.6528 1.26028,-1.59082 q 0.28922,-0.35123 0.45451,-0.59912 0.18594,-0.24793 0.18594,-0.45453 0,-0.16529 -0.18594,-0.2066 -0.16529,-0.0618 -0.70246,-0.0618 l -0.0412,-0.0825 0.10351,-0.6818 h 1.50818 q 0.28924,0 0.61981,-0.0206 0.35123,-0.0207 0.59914,-0.0207 0.24792,-0.0207 0.24792,-0.0207 l 0.0619,0.10329 -0.12406,0.66114 q -0.33057,0.10351 -0.78508,0.53716 -0.43384,0.4132 -0.95036,1.01234 l -1.77677,2.08665 1.90074,2.7065 q 0.53714,0.76441 0.99167,1.13629 0.47517,0.35123 1.095,0.41319 l 0.0412,0.0825 -0.12406,0.70246 q 0,0 -0.33057,-0.0206 -0.33054,0 -0.78507,-0.0207 -0.43388,0 -0.76441,0 -0.3099,0 -0.70245,0.0207 -0.39255,0.0206 -0.76443,0.0412 -0.37188,0.0207 -0.61981,0.0412 -0.22725,0.0207 -0.22725,0.0207 z"
       style="font-size:14.1111px;line-height:1.25;font-family:Alegreya;-inkscape-font-specification:Alegreya;fill:#ffffff;fill-opacity:1;stroke-width:0.387376"
       id="path1269-3" />
    <path
       d="m 128.47634,136.54244 q -1.4049,0 -1.98339,-0.55782 -0.57848,-0.57849 -0.57848,-1.94204 v -5.08239 q 0,-0.55783 -0.24793,-0.78508 -0.24792,-0.22727 -0.9297,-0.24793 l -0.0825,-0.12404 0.1034,-0.61982 q 0.49585,-0.24791 0.95037,-0.55782 0.47518,-0.33054 0.82641,-0.6198 0.37188,-0.3099 0.57848,-0.49584 0.20659,-0.20661 0.20659,-0.20661 l 0.4132,0.16529 q 0,0 -0.0618,0.39253 -0.0412,0.39254 -0.10329,1.157 l 3.03704,-0.0619 0.0619,0.0619 -0.18594,1.09495 -2.9957,-0.0619 q -0.0618,0.97103 -0.10329,2.27262 -0.0413,1.30158 -0.0413,2.8924 0,1.05366 0.35122,1.48752 0.37188,0.43385 1.26026,0.43385 0.5165,0 0.95035,-0.18593 0.45453,-0.18594 0.45453,-0.18594 l 0.20662,0.53716 q 0,0 -0.24793,0.18594 -0.24793,0.18595 -0.61981,0.43388 -0.35123,0.24792 -0.70244,0.43385 -0.33056,0.18594 -0.51649,0.18594 z"
       style="font-size:14.1111px;line-height:1.25;font-family:Alegreya;-inkscape-font-specification:Alegreya;fill:#ffffff;fill-opacity:1;stroke-width:0.387376"
       id="path1271-6" />
    <path
       d="m 132.50503,127.72059 -0.22726,-0.0412 q 0.0412,-1.1363 0,-2.1693 -0.0206,-1.03303 -0.0825,-1.67346 -0.0412,-0.66114 -0.0412,-0.66114 l 1.44622,-0.28924 0.14465,0.16528 q 0,0 -0.10329,0.66112 -0.0825,0.64046 -0.24793,1.65281 -0.14465,1.01235 -0.37188,2.066 z m 2.52052,0 -0.22726,-0.0412 q 0.0412,-1.1363 0,-2.1693 -0.0207,-1.03303 -0.0825,-1.67346 -0.0412,-0.66114 -0.0412,-0.66114 l 1.4462,-0.28924 0.14467,0.16528 q 0,0 -0.1034,0.66112 -0.0825,0.64046 -0.24792,1.65281 -0.14465,1.01235 -0.37189,2.066 z"
       style="font-size:14.1111px;line-height:1.25;font-family:Alegreya;-inkscape-font-specification:Alegreya;fill:#ffffff;fill-opacity:1;stroke-width:0.387376"
       id="path1273-4" />
    <path
       style="fill:none;fill-opacity:1;stroke:#ffd94a;stroke-width:1;stroke-opacity:1"
       d="m 71.301024,55.233188 c 0,-8.256817 0,-16.290737 7.085744,-20.363619 7.085744,-4.072882 21.033236,-4.072882 28.062782,8.2e-5 7.02955,4.072964 7.02955,12.218302 7.02955,27.951625 0,15.733324 0,39.053534 0,62.373954"
       id="path3597"
       inkscape:path-effect="#path-effect3599"
       inkscape:original-d="m 71.301024,55.233188 c 2.65e-4,-8.256817 2.65e-4,-16.290737 0,-24.436501 14.171488,2.65e-4 28.11898,2.65e-4 42.178076,0 2.6e-4,8.145928 2.6e-4,16.291266 0,24.436501 2.6e-4,23.321412 2.6e-4,46.641622 0,69.962042" />
    <path
       style="fill:none;fill-opacity:1;stroke:#ffd94a;stroke-width:1;stroke-opacity:1"
       d="m 154.32943,45.920109 c 0,-5.207172 0,-10.414606 -4.33948,-13.018457 -4.33948,-2.60385 -13.01837,-2.60385 -17.35803,0.197308 -4.33966,2.801159 -4.33966,8.402983 -4.33966,23.986093 0,15.58311 0,41.146371 0,66.709877"
       id="path3605"
       inkscape:path-effect="#path-effect3607"
       inkscape:original-d="m 154.32943,45.920109 c 2.7e-4,-5.207172 2.7e-4,-10.414606 0,-15.622307 -8.67896,2.65e-4 -17.35785,2.65e-4 -26.03717,0 2.7e-4,5.602317 2.7e-4,11.204141 0,16.805815 2.7e-4,25.564546 2.7e-4,51.127807 0,76.691313" />
    <path
       style="font-size:14.1111px;line-height:1.25;font-family:Alegreya;-inkscape-font-specification:Alegreya;fill:none;fill-opacity:1;stroke:#000000;stroke-width:2;stroke-miterlimit:4;stroke-dasharray:none;stroke-opacity:1"
       d="m 70.727603,110.58667 21.052454,1.71893 24.992983,-9.9579"
       id="path1280"
       sodipodi:nodetypes="ccc" />
    <text
       xml:space="preserve"
       style="font-size:16.9333px;line-height:1.25;font-family:Alegreya;-inkscape-font-specification:Alegreya;stroke-width:0.430261"
       x="237.09125"
       y="174.13286"
       id="text3619"
       transform="matrix(0.80164099,-0.54882649,-0.15995091,1.3569482,0,0)"><tspan
         sodipodi:role="line"
         id="tspan3617"
         x="237.09125"
         y="174.13286"
         style="font-size:16.9333px;fill:#ffffff;fill-opacity:1;stroke-width:0.430261">Function</tspan></text>
  </g>
</svg>
