<?xml version="1.0" encoding="UTF-8" standalone="no"?>
<svg
   xmlns:dc="http://purl.org/dc/elements/1.1/"
   xmlns:cc="http://creativecommons.org/ns#"
   xmlns:rdf="http://www.w3.org/1999/02/22-rdf-syntax-ns#"
   xmlns:svg="http://www.w3.org/2000/svg"
   xmlns="http://www.w3.org/2000/svg"
   xmlns:sodipodi="http://sodipodi.sourceforge.net/DTD/sodipodi-0.dtd"
   xmlns:inkscape="http://www.inkscape.org/namespaces/inkscape"
   width="243.29388mm"
   height="271.74222mm"
   viewBox="0 0 243.29388 271.74222"
   version="1.1"
   id="svg8"
   inkscape:version="1.0.2-2 (e86c870879, 2021-01-15)"
   sodipodi:docname="arguments.svg">
  <defs
     id="defs2">
    <inkscape:path-effect
       effect="bspline"
       id="path-effect2454"
       is_visible="true"
       lpeversion="1"
       weight="33.333333"
       steps="2"
       helper_size="0"
       apply_no_weight="true"
       apply_with_weight="true"
       only_selected="false" />
    <inkscape:path-effect
       effect="bspline"
       id="path-effect2438"
       is_visible="true"
       lpeversion="1"
       weight="33.333333"
       steps="2"
       helper_size="0"
       apply_no_weight="true"
       apply_with_weight="true"
       only_selected="false" />
    <inkscape:path-effect
       effect="bspline"
       id="path-effect2601"
       is_visible="true"
       lpeversion="1"
       weight="33.333333"
       steps="2"
       helper_size="0"
       apply_no_weight="true"
       apply_with_weight="true"
       only_selected="false" />
    <inkscape:path-effect
       effect="bspline"
       id="path-effect2577"
       is_visible="true"
       lpeversion="1"
       weight="33.333333"
       steps="2"
       helper_size="0"
       apply_no_weight="true"
       apply_with_weight="true"
       only_selected="false" />
    <inkscape:path-effect
       effect="bspline"
       id="path-effect2552"
       is_visible="true"
       lpeversion="1"
       weight="33.333333"
       steps="2"
       helper_size="0"
       apply_no_weight="true"
       apply_with_weight="true"
       only_selected="false" />
  </defs>
  <sodipodi:namedview
     id="base"
     pagecolor="#ffffff"
     bordercolor="#666666"
     borderopacity="1.0"
     inkscape:pageopacity="0.0"
     inkscape:pageshadow="2"
     inkscape:zoom="0.48215445"
     inkscape:cx="605.35211"
     inkscape:cy="398.69453"
     inkscape:document-units="mm"
     inkscape:current-layer="g1261"
     inkscape:document-rotation="0"
     showgrid="false"
     fit-margin-top="0"
     fit-margin-left="0"
     fit-margin-right="0"
     fit-margin-bottom="0"
     inkscape:window-width="1920"
     inkscape:window-height="1017"
     inkscape:window-x="-8"
     inkscape:window-y="-8"
     inkscape:window-maximized="1" />
  <metadata
     id="metadata5">
    <rdf:RDF>
      <cc:Work
         rdf:about="">
        <dc:format>image/svg+xml</dc:format>
        <dc:type
           rdf:resource="http://purl.org/dc/dcmitype/StillImage" />
        <dc:title></dc:title>
      </cc:Work>
    </rdf:RDF>
  </metadata>
  <g
     inkscape:label="Layer 1"
     inkscape:groupmode="layer"
     id="layer1"
     transform="translate(71.53802,-53.325855)">
    <g
       id="g1261"
       transform="translate(63.106507,-40.058912)">
      <g
         id="g2374"
         transform="matrix(0.26458333,0,0,0.26458333,-79.028008,148.81589)"
         style="fill:#ffffff;fill-opacity:1">
        <g
           id="g2316"
           style="fill:#ffffff;fill-opacity:1">
          <g
             id="g2314"
             style="fill:#ffffff;fill-opacity:1">
            <rect
               x="50.146999"
               y="79.405998"
               style="fill:#000000;fill-opacity:1"
               width="40.047001"
               height="4.4840002"
               id="rect2310" />
            <path
               style="fill:#000000;fill-opacity:1"
               d="m 199.324,54.522 -25.209,-33.437 0.075,-0.064 h -0.125 l -0.115,-0.15 -0.193,0.15 H 58.339 L 9.731,59.189 v 1.5 L 0,90.379 9.731,83.293 v 95.162 h 119.262 v -0.29 l 45.111,-40.119 v -58.07 z m -5.93,-0.397 -39.94,40.291 -23.832,-32.571 41.168,-37.71 z M 59.928,25.508 H 162.645 L 125.879,59.192 H 18.317 Z m 64.577,148.458 H 14.226 V 63.687 h 110.279 z m 45.107,-37.946 -40.624,36.125 V 68.58 l 23.946,32.739 16.674,-16.821 v 51.521 h 0.004 z"
               id="path2312" />
          </g>
        </g>
        <g
           id="g2318"
           style="fill:#ffffff;fill-opacity:1" />
        <g
           id="g2320"
           style="fill:#ffffff;fill-opacity:1" />
        <g
           id="g2322"
           style="fill:#ffffff;fill-opacity:1" />
        <g
           id="g2324"
           style="fill:#ffffff;fill-opacity:1" />
        <g
           id="g2326"
           style="fill:#ffffff;fill-opacity:1" />
        <g
           id="g2328"
           style="fill:#ffffff;fill-opacity:1" />
        <g
           id="g2330"
           style="fill:#ffffff;fill-opacity:1" />
        <g
           id="g2332"
           style="fill:#ffffff;fill-opacity:1" />
        <g
           id="g2334"
           style="fill:#ffffff;fill-opacity:1" />
        <g
           id="g2336"
           style="fill:#ffffff;fill-opacity:1" />
        <g
           id="g2338"
           style="fill:#ffffff;fill-opacity:1" />
        <g
           id="g2340"
           style="fill:#ffffff;fill-opacity:1" />
        <g
           id="g2342"
           style="fill:#ffffff;fill-opacity:1" />
        <g
           id="g2344"
           style="fill:#ffffff;fill-opacity:1" />
        <g
           id="g2346"
           style="fill:#ffffff;fill-opacity:1" />
      </g>
      <g
         aria-label="&quot;text&quot;"
         id="text2540"
         style="font-size:14.1111px;line-height:1.25;font-family:Alegreya;-inkscape-font-specification:Alegreya;fill:#000000;fill-opacity:1;stroke-width:0.264583">
        <path
           style="fill:#ffd94a;fill-opacity:1;stroke:#000000;stroke-width:0.036;stroke-miterlimit:4;stroke-dasharray:none;stroke-opacity:1"
           d="m 31.07834,202.48126 c -0.129349,4.78591 -0.258692,9.57157 -8.277975,14.35713 -8.019282,4.78555 -23.9280479,9.57111 -35.956941,12.9987 -12.028892,3.42759 -20.177286,5.49703 -25.739148,10.4122 -5.561862,4.91518 -8.536671,12.67555 -10.347449,20.95358 -1.810778,8.27804 -2.457475,17.07313 -10.800088,22.82874 -8.342612,5.75561 -24.380717,8.47174 -37.573805,13.6455 -13.193084,5.17377 -23.540244,12.8048 -30.654104,26.06249 -7.11387,13.25769 -10.99405,32.14127 9.36916,40.67418 20.363207,8.53291 64.967905,6.7147 91.294843,4.89097 26.3269379,-1.82372 34.3753067,-3.65289 40.777343,-8.68314 6.402036,-5.03025 11.15779,-13.26136 18.566085,-21.49278 7.408295,-8.23143 17.468546,-16.46254 13.21303,-27.13281 -4.255516,-10.67027 -22.998899,-23.90089 -31.138876,-35.15041 -8.1399766,-11.24953 -5.7620969,-20.57814 0.36583,-27.16332 6.127927,-6.58519 16.005265,-10.42637 23.870728,-14.45059 7.865462,-4.02421 13.718704,-8.23123 15.730821,-12.43819 2.012117,-4.20697 0.18298,-8.41399 -1.554738,-12.07237 -1.737718,-3.65838 -3.383941,-6.76791 -5.030367,-9.87782"
           id="path2436"
           inkscape:path-effect="#path-effect2438"
           inkscape:original-d="m 31.07834,202.48126 c -0.129077,4.78592 -0.258419,9.57158 -0.388028,14.35698 -15.909136,4.78601 -31.8178993,9.57158 -47.727247,14.35697 -8.148455,2.06978 -16.296847,4.13922 -24.445666,6.20843 -2.974664,7.76095 -5.949474,15.52132 -8.924608,23.28158 -0.646459,8.79571 -1.293157,17.5908 -1.940132,26.3858 -16.038481,2.7165 -32.076586,5.43263 -48.115279,8.14855 -10.34731,7.63161 -20.69448,15.26263 -31.04211,22.89356 -3.88,18.88422 -7.76018,37.7678 -11.64079,56.65186 44.606728,-1.81802 89.211426,-3.63624 133.8167301,-5.45475 8.0486299,-1.82891 16.0969988,-3.65808 24.1450999,-5.48751 4.756211,-8.23119 9.511969,-16.4623 14.267558,-24.69385 10.060921,-8.23119 20.121179,-16.4623 30.181372,-24.69386 C 40.607554,301.4479 21.950352,288.09519 3.2925127,274.92487 c 2.378239,-9.32871 4.7561155,-18.65732 7.1337773,-27.98637 9.878005,-3.84108 19.755345,-7.68226 29.632622,-11.52379 5.853739,-4.20692 11.706978,-8.41394 17.56007,-12.6213 -1.828946,-4.20692 -3.658082,-8.41394 -5.487522,-12.62131 -1.646026,-3.10939 -3.292247,-6.21892 -4.938771,-9.32878"
           sodipodi:nodetypes="ccccccccccccccccccc" />
        <g
           id="g1389"
           transform="matrix(0.13546666,0,0,0.13546666,-134.64453,204.23435)">
          <path
             style="fill:#3776ab;fill-opacity:1;stroke-width:0.265748;stroke-miterlimit:4;stroke-dasharray:none"
             d="m 454.028,227.293 v 166.725 c -21.682,0 -39.269,17.576 -39.269,39.269 H 114.452 c 0,-21.693 -17.587,-39.269 -39.269,-39.269 V 258.317 236.438 204.59 c 21.682,0 39.269,-17.576 39.269,-39.269 h 51.817 30.19 136.294 24.811 57.196 c 0,21.693 17.587,39.269 39.269,39.269 z"
             id="path1286" />
          <path
             style="fill:#264f98;fill-opacity:1"
             d="m 110.992,406.829 v -12.812 -135.7 -21.879 -31.848 -12.811 c 0,-14.612 11.845,-26.457 26.457,-26.457 h -22.997 -12.811 c -14.612,0 -26.457,11.845 -26.457,26.457 v 12.811 31.848 21.879 135.701 12.812 c 0,14.612 11.845,26.457 26.457,26.457 h 12.811 22.997 c -14.612,0 -26.457,-11.846 -26.457,-26.458 z"
             id="path1288" />
          <rect
             x="196.45399"
             y="104.239"
             style="fill:#3776ab;fill-opacity:1"
             width="136.29401"
             height="30.541"
             id="rect1290" />
          <rect
             x="196.45399"
             y="104.239"
             style="fill:#264f98;fill-opacity:1"
             width="26.611"
             height="30.541"
             id="rect1292" />
          <path
             style="fill:#f95428"
             d="m 454.028,394.018 v 12.812 c 0,14.612 -11.845,26.457 -26.457,26.457 h -12.812 c 0,-21.693 17.587,-39.269 39.269,-39.269 z"
             id="path1294" />
          <g
             id="g1300">
	<path
   style="fill:#e54728"
   d="m 114.452,433.287 h -12.811 c -14.612,0 -26.457,-11.845 -26.457,-26.457 v -12.812 c 21.681,0 39.268,17.576 39.268,39.269 z"
   id="path1296" />

	<path
   style="fill:#e54728"
   d="m 101.641,165.321 h 12.811 c 0,21.693 -17.587,39.269 -39.269,39.269 v -12.811 c 0,-14.613 11.846,-26.458 26.458,-26.458 z"
   id="path1298" />

</g>
          <path
             style="fill:#f95428"
             d="m 454.028,191.778 v 12.811 c -21.682,0 -39.269,-17.576 -39.269,-39.269 h 12.812 c 14.612,0.001 26.457,11.846 26.457,26.458 z"
             id="path1302" />
          <polygon
             style="fill:#ffd94a;fill-opacity:1"
             points="8.238,213.592 32.182,177.748 75.183,236.437 75.183,258.317 "
             id="polygon1304" />
          <g
             id="g1310">
	<path
   style="fill:#ffd94a;fill-opacity:1"
   d="m 102.793,78.714 63.476,86.607 H 114.452 101.64 c -14.612,0 -26.457,11.845 -26.457,26.457 v 12.811 31.848 L 32.182,177.748 9.633,146.987 Z"
   id="path1306" />

	<path
   style="fill:#ffd94a;fill-opacity:1"
   d="m 503.77,161.259 -49.742,66.034 V 204.59 191.779 c 0,-14.612 -11.845,-26.457 -26.457,-26.457 H 414.759 357.563 L 412.432,92.46 Z"
   id="path1308" />

</g>
          <g
             id="g1316">
	
	
</g>
          <path
             style="fill:#333333"
             d="m 511.92,160.106 c -0.304,-2.163 -1.456,-4.116 -3.2,-5.429 L 417.381,85.882 c -1.744,-1.314 -3.937,-1.879 -6.102,-1.576 -2.163,0.304 -4.116,1.456 -5.429,3.2 l -52.393,69.578 h -12.47 v -52.848 c 0,-4.547 -3.686,-8.234 -8.234,-8.234 H 196.46 c -4.547,0 -8.234,3.686 -8.234,8.234 v 52.848 H 170.441 L 109.438,73.847 c -2.686,-3.668 -7.839,-4.463 -11.507,-1.774 L 4.765,140.349 c -1.761,1.291 -2.938,3.229 -3.27,5.387 -0.332,2.158 0.206,4.361 1.497,6.123 l 19.136,26.113 -20.74,31.044 c -2.526,3.781 -1.508,8.895 2.272,11.419 l 63.285,42.278 v 144.112 c 0,19.132 15.565,34.695 34.695,34.695 h 325.927 c 19.132,0 34.695,-15.565 34.695,-34.695 V 230.04 l 48.079,-63.834 c 1.317,-1.742 1.883,-3.937 1.579,-6.1 z m -66.122,35.135 c -10.505,-2.895 -18.792,-11.182 -21.686,-21.687 h 3.458 c 10.05,0 18.228,8.178 18.228,18.228 z m -38.542,-21.687 c 3.442,19.605 18.937,35.1 38.542,38.542 v 174.415 c -19.605,3.442 -35.1,18.937 -38.542,38.542 H 121.957 c -3.442,-19.605 -18.937,-35.1 -38.542,-38.542 V 212.096 c 19.605,-3.442 35.1,-18.937 38.542,-38.542 z M 83.414,195.241 v -3.458 c 0,-10.052 8.178,-18.228 18.228,-18.228 h 3.458 c -2.894,10.504 -11.18,18.791 -21.686,21.686 z m 241.105,-82.77 v 14.074 H 204.692 v -14.074 z m -119.827,30.541 h 119.826 v 14.073 H 204.692 Z m -103.67,-52.789 49.001,66.862 h -48.381 c -19.132,0 -34.695,15.565 -34.695,34.695 v 19.488 L 21.142,148.761 Z m -81.367,121.093 12.832,-19.21 34.459,47.023 v 3.781 z m 63.759,195.509 v -3.458 c 10.506,2.895 18.792,11.181 21.687,21.687 h -3.458 c -10.052,0 -18.229,-8.178 -18.229,-18.229 z m 344.156,18.229 h -3.458 c 2.895,-10.505 11.181,-18.792 21.686,-21.687 v 3.458 c 0,10.051 -8.178,18.229 -18.228,18.229 z M 462.265,202.67 v -10.888 c 0,-19.132 -15.564,-34.695 -34.695,-34.695 h -53.5 l 39.981,-53.095 78.185,58.887 z"
             id="path1318" />
          <g
             id="g1320">
</g>
          <g
             id="g1322">
</g>
          <g
             id="g1324">
</g>
          <g
             id="g1326">
</g>
          <g
             id="g1328">
</g>
          <g
             id="g1330">
</g>
          <g
             id="g1332">
</g>
          <g
             id="g1334">
</g>
          <g
             id="g1336">
</g>
          <g
             id="g1338">
</g>
          <g
             id="g1340">
</g>
          <g
             id="g1342">
</g>
          <g
             id="g1344">
</g>
          <g
             id="g1346">
</g>
          <g
             id="g1348">
</g>
        </g>
        <g
           id="g2450"
           transform="translate(-46.175145,120.67622)"
           style="fill:#ffffff;fill-opacity:1">
          <path
             d="m -67.695498,121.60752 -0.15522,-0.0282 q 0.0282,-0.77611 0,-1.48166 -0.0141,-0.70556 -0.0564,-1.143 -0.0282,-0.45156 -0.0282,-0.45156 l 0.98777,-0.19755 0.0988,0.11288 q 0,0 -0.0705,0.45156 -0.0565,0.43744 -0.16934,1.12889 -0.0988,0.69144 -0.254,1.41111 z m 1.72156,0 -0.15522,-0.0282 q 0.0282,-0.77611 0,-1.48166 -0.0141,-0.70556 -0.0564,-1.143 -0.0282,-0.45156 -0.0282,-0.45156 l 0.98778,-0.19755 0.0988,0.11288 q 0,0 -0.0706,0.45156 -0.0564,0.43744 -0.16933,1.12889 -0.0988,0.69144 -0.254,1.41111 z"
             style="font-size:14.1111px;fill:#ffffff;fill-opacity:1;stroke-width:0.264583"
             id="path1263" />
          <path
             d="m -61.585408,127.63296 q -0.95956,0 -1.35467,-0.381 -0.39511,-0.39511 -0.39511,-1.32644 v -3.47133 q 0,-0.381 -0.16933,-0.53622 -0.16933,-0.15523 -0.635,-0.16934 l -0.0564,-0.0847 0.0705,-0.42334 q 0.33867,-0.16933 0.64911,-0.381 0.32456,-0.22577 0.56445,-0.42333 0.254,-0.21166 0.39511,-0.33866 0.14111,-0.14112 0.14111,-0.14112 l 0.28222,0.11289 q 0,0 -0.0423,0.26811 -0.0282,0.26811 -0.0706,0.79023 l 2.07433,-0.0423 0.0423,0.0423 -0.127,0.74788 -2.04611,-0.0423 q -0.0423,0.66322 -0.0706,1.55222 -0.0282,0.889 -0.0282,1.97556 0,0.71966 0.23989,1.01599 0.254,0.29634 0.86077,0.29634 0.35278,0 0.64911,-0.127 0.31045,-0.127 0.31045,-0.127 l 0.14111,0.36689 q 0,0 -0.16933,0.127 -0.16934,0.127 -0.42334,0.29633 -0.23988,0.16933 -0.47977,0.29633 -0.22578,0.127 -0.35278,0.127 z"
             style="font-size:14.1111px;fill:#ffffff;fill-opacity:1;stroke-width:0.264583"
             id="path1265" />
          <path
             d="m -56.364298,127.63296 q -0.889,0 -1.55223,-0.39511 -0.66322,-0.39511 -1.04422,-1.08655 -0.36689,-0.70556 -0.36689,-1.63689 0,-0.71967 0.23989,-1.36878 0.254,-0.64911 0.69145,-1.143 0.43744,-0.508 0.98777,-0.79022 0.56445,-0.29633 1.19945,-0.29633 2.10255,0 2.10255,2.04611 0,0.18344 -0.0282,0.381 -0.0282,0.19755 -0.0565,0.31044 l -0.18344,0.16934 h -3.89466 q -0.0141,1.25588 0.45155,1.98966 0.47978,0.71967 1.34056,0.84667 0.86077,0.11289 2.03199,-0.42334 l 0.0847,0.0282 0.15522,0.40922 q -0.28222,0.19755 -0.67733,0.42333 -0.381,0.22578 -0.77611,0.381 -0.39511,0.15522 -0.70555,0.15522 z m -1.84856,-4.33211 2.55411,-0.127 q 0.21167,-0.0282 0.28222,-0.0988 0.0706,-0.0706 0.0706,-0.28222 0,-0.56445 -0.31045,-0.86078 -0.29633,-0.29633 -0.86077,-0.29633 -0.64911,0 -1.12889,0.45155 -0.47978,0.43744 -0.60678,1.21355 z"
             style="font-size:14.1111px;fill:#ffffff;fill-opacity:1;stroke-width:0.264583"
             id="path1267" />
          <path
             d="m -50.183648,127.5483 -0.0282,-0.0706 0.0847,-0.43744 q 0.35278,-0.0141 0.49389,-0.0847 0.15522,-0.0706 0.15522,-0.21167 0,-0.0847 -0.0564,-0.21166 -0.0564,-0.127 -0.18344,-0.31045 l -1.03011,-1.43933 q -0.254,0.31044 -0.59267,0.73378 -0.33867,0.40922 -0.59267,0.762 -0.23989,0.33866 -0.23989,0.46566 0,0.14111 0.127,0.18345 0.127,0.0423 0.49389,0.0705 l 0.0282,0.0565 -0.0847,0.46566 q 0,0 -0.14111,-0.0141 -0.127,0 -0.32456,-0.0141 -0.19755,-0.0141 -0.39511,-0.0282 -0.18344,0 -0.31044,0 -0.18345,0 -0.381,0 -0.19756,0.0141 -0.33867,0.0282 -0.127,0.0141 -0.127,0.0141 l -0.0423,-0.0705 0.0847,-0.43745 q 0.254,-0.14111 0.43745,-0.28222 0.18344,-0.15522 0.381,-0.381 0.19755,-0.22578 0.49389,-0.57855 l 1.21355,-1.41111 -1.07244,-1.524 q -0.31045,-0.45156 -0.52211,-0.69145 -0.21167,-0.23989 -0.43745,-0.35277 -0.22578,-0.127 -0.56444,-0.18345 l -0.0282,-0.0564 0.0847,-0.47978 q 0,0 0.254,0.0141 0.26811,0 0.60678,0.0141 0.33867,0 0.56444,0 0.40923,0 0.73378,-0.0141 0.32456,-0.0141 0.508,-0.0282 0.19756,-0.0141 0.19756,-0.0141 l 0.0282,0.0705 -0.0847,0.43745 q -0.635,0 -0.635,0.26811 0,0.14111 0.0988,0.31044 0.0988,0.15522 0.23989,0.35278 l 0.77611,1.12889 0.86078,-1.08656 q 0.19755,-0.23989 0.31044,-0.40922 0.127,-0.16933 0.127,-0.31044 0,-0.11289 -0.127,-0.14111 -0.11289,-0.0423 -0.47978,-0.0423 l -0.0282,-0.0564 0.0706,-0.46567 h 1.03011 q 0.19755,0 0.42333,-0.0141 0.23989,-0.0141 0.40922,-0.0141 0.16933,-0.0141 0.16933,-0.0141 l 0.0423,0.0705 -0.0847,0.45156 q -0.22578,0.0706 -0.53622,0.36689 -0.29633,0.28222 -0.64911,0.69144 l -1.21356,1.42522 1.29823,1.84856 q 0.36688,0.52211 0.67733,0.77611 0.32455,0.23989 0.74789,0.28222 l 0.0282,0.0564 -0.0847,0.47978 q 0,0 -0.22578,-0.0141 -0.22577,0 -0.53622,-0.0141 -0.29633,0 -0.52211,0 -0.21166,0 -0.47977,0.0141 -0.26812,0.0141 -0.52212,0.0282 -0.254,0.0141 -0.42333,0.0282 -0.15522,0.0141 -0.15522,0.0141 z"
             style="font-size:14.1111px;fill:#ffffff;fill-opacity:1;stroke-width:0.264583"
             id="path1269" />
          <path
             d="m -44.186448,127.63296 q -0.95956,0 -1.35467,-0.381 -0.39511,-0.39511 -0.39511,-1.32644 v -3.47133 q 0,-0.381 -0.16933,-0.53622 -0.16934,-0.15523 -0.635,-0.16934 l -0.0564,-0.0847 0.0706,-0.42334 q 0.33866,-0.16933 0.64911,-0.381 0.32455,-0.22577 0.56444,-0.42333 0.254,-0.21166 0.39511,-0.33866 0.14111,-0.14112 0.14111,-0.14112 l 0.28223,0.11289 q 0,0 -0.0423,0.26811 -0.0282,0.26811 -0.0705,0.79023 l 2.07433,-0.0423 0.0423,0.0423 -0.127,0.74788 -2.04611,-0.0423 q -0.0423,0.66322 -0.0705,1.55222 -0.0282,0.889 -0.0282,1.97556 0,0.71966 0.23989,1.01599 0.254,0.29634 0.86078,0.29634 0.35278,0 0.64911,-0.127 0.31045,-0.127 0.31045,-0.127 l 0.14111,0.36689 q 0,0 -0.16934,0.127 -0.16933,0.127 -0.42333,0.29633 -0.23989,0.16933 -0.47978,0.29633 -0.22577,0.127 -0.35277,0.127 z"
             style="font-size:14.1111px;fill:#ffffff;fill-opacity:1;stroke-width:0.264583"
             id="path1271" />
          <path
             d="m -41.434788,121.60752 -0.15522,-0.0282 q 0.0282,-0.77611 0,-1.48166 -0.0141,-0.70556 -0.0564,-1.143 -0.0282,-0.45156 -0.0282,-0.45156 l 0.98778,-0.19755 0.0988,0.11288 q 0,0 -0.0705,0.45156 -0.0564,0.43744 -0.16933,1.12889 -0.0988,0.69144 -0.254,1.41111 z m 1.72155,0 -0.15522,-0.0282 q 0.0282,-0.77611 0,-1.48166 -0.0141,-0.70556 -0.0564,-1.143 -0.0282,-0.45156 -0.0282,-0.45156 l 0.98778,-0.19755 0.0988,0.11288 q 0,0 -0.0706,0.45156 -0.0564,0.43744 -0.16933,1.12889 -0.0988,0.69144 -0.254,1.41111 z"
             style="font-size:14.1111px;fill:#ffffff;fill-opacity:1;stroke-width:0.264583"
             id="path1273" />
        </g>
        <path
           style="fill:#2e2f2e;stroke:#000000;stroke-width:2;stroke-miterlimit:4;stroke-dasharray:none;stroke-opacity:1"
           d="m -57.960508,195.4617 -0.38803,24.05764"
           id="path1276" />
        <path
           style="fill:none;stroke:#000000;stroke-width:2;stroke-miterlimit:4;stroke-dasharray:none;stroke-opacity:1"
           d="m -58.348538,219.51934 22.89356,-6.98448 17.46119,12.80487"
           id="path1280"
           sodipodi:nodetypes="ccc" />
        <path
           style="fill:none;stroke:#000000;stroke-width:2;stroke-miterlimit:4;stroke-dasharray:none;stroke-opacity:1"
           d="m -0.1445719,278.11133 -11.2527671,6.20842 -15.521057,-24.83368 -31.430142,4.46375 v -44.43048 l -23.281584,-8.14856 -17.073161,11.25277 -5.723377,-0.131"
           id="path1282"
           sodipodi:nodetypes="ccccccc" />
        <path
           style="fill:none;stroke:#000000;stroke-width:2;stroke-miterlimit:4;stroke-dasharray:none;stroke-opacity:1"
           d="m -58.348538,263.94982 10.08869,24.25018 -10.86474,34.92239 11.25277,-4.26828"
           id="path1284"
           sodipodi:nodetypes="cccc" />
        <path
           style="fill:none;stroke:#000000;stroke-width:2;stroke-miterlimit:4;stroke-dasharray:none;stroke-opacity:1"
           d="m -98.703283,222.62355 -3.395237,3.97727"
           id="path1391" />
        <path
           style="fill:none;stroke:#000000;stroke-width:2;stroke-miterlimit:4;stroke-dasharray:none;stroke-opacity:1"
           d="m -12.561418,224.56368 -5.432369,0.77605 v 0 l 2.231151,4.2683"
           id="path1393" />
      </g>
      <path
         style="fill:none;fill-opacity:1;stroke:#ffd94a;stroke-width:1;stroke-miterlimit:4;stroke-dasharray:none;stroke-opacity:1"
         d="m -57.427272,164.29659 c 0,-6.79019 0,-13.58066 -7.178501,-16.91135 -7.1785,-3.33069 -21.534918,-3.20135 -28.713673,0.24259 -7.178754,3.44393 -7.178754,10.20179 -7.178754,26.16778 0,15.96599 0,41.1387 0,66.31165"
         id="path2452"
         inkscape:path-effect="#path-effect2454"
         inkscape:original-d="m -57.427272,164.29659 c 2.65e-4,-6.79019 2.65e-4,-13.58066 0,-20.37138 -14.356999,0.12961 -28.713417,0.25895 -43.070928,0.38803 2.6e-4,6.75852 2.6e-4,13.51638 0,20.27438 2.6e-4,25.17398 2.6e-4,50.34669 0,75.51964"
         sodipodi:nodetypes="ccccc" />
    </g>
    <g
       id="g921"
       transform="matrix(0.26458333,0,0,0.26458333,44.024036,43.932088)">
      <g
         id="g855">
	<polygon
   style="fill:#f5d7b4"
   points="145.383,105.024 145.383,79.262 81.383,79.262 81.383,151.369 "
   id="polygon833" />

	<rect
   x="449.383"
   y="252.67799"
   style="fill:#ffe6d2"
   width="0.0020000001"
   height="146.584"
   id="rect835" />

	<path
   style="fill:#ffe6d2"
   d="M 241.387,102.059 81.383,217.92 v 181.342 h 320 V 217.918 Z m 0.044,258.03 c -40.629,-18.837 -85.692,-65.008 -85.692,-103.422 0,-27.743 22.49,-50.233 50.233,-50.233 13.842,0 26.373,5.601 35.459,14.657 9.086,-9.056 21.617,-14.657 35.459,-14.657 27.743,0 50.233,22.49 50.233,50.233 0,38.415 -45.063,84.585 -85.692,103.422 z"
   id="path837" />

	
	<path
   style="fill:#bea087"
   d="m 465.385,431.262 h -8.002 -432 -7.998 c -4.418,0 -8,3.582 -8,8 0,4.418 3.582,8 8,8 h 448 c 4.418,0 8,-3.582 8,-8 0,-4.418 -3.582,-8 -8,-8 z"
   id="path841" />

	<rect
   x="73.383003"
   y="47.262001"
   style="fill:#a03c3c"
   width="80"
   height="32"
   id="rect843" />

	<polygon
   style="fill:#d2b496"
   points="25.383,399.262 25.383,431.262 457.383,431.262 457.383,399.262 449.385,399.262 449.383,399.262 401.383,399.262 81.383,399.262 33.383,399.262 "
   id="polygon845" />

	<polygon
   style="fill:#f5d7b4"
   points="81.383,217.92 33.385,252.676 33.385,225.637 33.383,225.638 33.383,399.262 81.383,399.262 "
   id="polygon847" />

	<polygon
   style="fill:#f5d7b4"
   points="449.383,252.676 401.383,217.918 401.383,399.262 449.383,399.262 "
   id="polygon849" />

	<polygon
   style="fill:#d2b496"
   points="449.385,252.678 449.385,225.639 241.387,75.02 33.385,225.637 33.385,252.676 81.383,217.92 241.387,102.059 401.383,217.918 449.383,252.676 "
   id="polygon851" />

	<polygon
   style="fill:#a03c3c"
   points="0,210.301 18.766,236.223 33.383,225.638 33.385,225.637 241.387,75.02 449.385,225.639 464,236.223 482.766,210.301 241.387,35.504 145.383,105.024 81.383,151.369 "
   id="polygon853" />

</g>
      <g
         id="g857">
</g>
      <g
         id="g859">
</g>
      <g
         id="g861">
</g>
      <g
         id="g863">
</g>
      <g
         id="g865">
</g>
      <g
         id="g867">
</g>
      <g
         id="g869">
</g>
      <g
         id="g871">
</g>
      <g
         id="g873">
</g>
      <g
         id="g875">
</g>
      <g
         id="g877">
</g>
      <g
         id="g879">
</g>
      <g
         id="g881">
</g>
      <g
         id="g883">
</g>
      <g
         id="g885">
</g>
    </g>
    <text
       xml:space="preserve"
       style="font-size:14.1111px;line-height:1.25;font-family:Alegreya;-inkscape-font-specification:Alegreya;stroke-width:0.264583"
       x="82.038452"
       y="119.62799"
       id="text925"><tspan
         sodipodi:role="line"
         id="tspan923"
         x="82.038452"
         y="119.62799"
         style="font-size:14.1111px;stroke-width:0.264583">Function</tspan></text>
  </g>
</svg>
