<?xml version="1.0" encoding="UTF-8" standalone="no"?>
<svg
   xmlns:dc="http://purl.org/dc/elements/1.1/"
   xmlns:cc="http://creativecommons.org/ns#"
   xmlns:rdf="http://www.w3.org/1999/02/22-rdf-syntax-ns#"
   xmlns:svg="http://www.w3.org/2000/svg"
   xmlns="http://www.w3.org/2000/svg"
   xmlns:sodipodi="http://sodipodi.sourceforge.net/DTD/sodipodi-0.dtd"
   xmlns:inkscape="http://www.inkscape.org/namespaces/inkscape"
   width="203.12762mm"
   height="103.02946mm"
   viewBox="0 0 203.12763 103.02946"
   version="1.1"
   id="svg7247"
   inkscape:version="1.0.2-2 (e86c870879, 2021-01-15)"
   sodipodi:docname="argumentAssignment.svg"
   inkscape:export-filename="C:\Users\Kilian\Desktop\crlc\PHP\scissor.png"
   inkscape:export-xdpi="95.800003"
   inkscape:export-ydpi="95.800003">
  <defs
     id="defs7241">
    <inkscape:path-effect
       effect="powerclip"
       id="path-effect3886"
       is_visible="true"
       lpeversion="1"
       inverse="true"
       flatten="false"
       hide_clip="false"
       message="Use fill-rule evenodd on &lt;b&gt;fill and stroke&lt;/b&gt; dialog if no flatten result after convert clip to paths." />
    <rect
       x="-9.7334423"
       y="122.24946"
       width="176.46634"
       height="59.154068"
       id="rect3756" />
    <inkscape:path-effect
       effect="bspline"
       id="path-effect8149"
       is_visible="true"
       lpeversion="1"
       weight="33.333333"
       steps="2"
       helper_size="0"
       apply_no_weight="true"
       apply_with_weight="true"
       only_selected="false" />
    <inkscape:path-effect
       effect="powerclip"
       id="path-effect8143"
       is_visible="true"
       lpeversion="1"
       inverse="true"
       flatten="false"
       hide_clip="false"
       message="Use fill-rule evenodd on &lt;b&gt;fill and stroke&lt;/b&gt; dialog if no flatten result after convert clip to paths." />
    <inkscape:path-effect
       effect="bspline"
       id="path-effect8137"
       is_visible="true"
       lpeversion="1"
       weight="33.333333"
       steps="2"
       helper_size="0"
       apply_no_weight="true"
       apply_with_weight="true"
       only_selected="false" />
    <inkscape:path-effect
       effect="bspline"
       id="path-effect8133"
       is_visible="true"
       lpeversion="1"
       weight="33.333333"
       steps="2"
       helper_size="0"
       apply_no_weight="true"
       apply_with_weight="true"
       only_selected="false" />
    <inkscape:path-effect
       effect="powerclip"
       id="path-effect8092"
       is_visible="true"
       lpeversion="1"
       inverse="true"
       flatten="false"
       hide_clip="false"
       message="Use fill-rule evenodd on &lt;b&gt;fill and stroke&lt;/b&gt; dialog if no flatten result after convert clip to paths." />
    <clipPath
       clipPathUnits="userSpaceOnUse"
       id="clipPath8088">
      <path
         style="display:none;fill:#ffffff;fill-opacity:1;stroke:none;stroke-width:23.6221;stroke-miterlimit:4;stroke-dasharray:none;stroke-opacity:1"
         d="M 20.961371,240.27279 101.57288,174.24446 124.2575,185.9917 30.278309,263.36263 Z"
         id="path8090" />
      <path
         id="lpe_path-effect8092"
         style="fill:#ffffff;fill-opacity:1;stroke:none;stroke-width:23.6221;stroke-miterlimit:4;stroke-dasharray:none;stroke-opacity:1"
         class="powerclip"
         d="M -5.0000253,-3.3043235 H 402.86002 V 401.16485 H -5.0000253 Z M 20.961371,240.27279 30.278309,263.36263 124.2575,185.9917 101.57288,174.24446 Z" />
    </clipPath>
    <clipPath
       clipPathUnits="userSpaceOnUse"
       id="clipPath8139">
      <path
         style="display:block;fill:#777bb3;fill-opacity:1;stroke:none;stroke-width:0.2;stroke-miterlimit:4;stroke-dasharray:none;stroke-opacity:1"
         d="m 67.574631,123.19759 c 0.01894,-0.015 0.05686,-0.045 0.09291,-0.0786 0.03605,-0.0336 0.07032,-0.0707 0.09858,-0.0968 0.02826,-0.0261 0.05042,-0.0411 0.07589,-0.0489 0.02548,-0.008 0.05404,-0.008 0.07618,-0.006 0.02214,0.002 0.03796,0.007 0.06002,0.0359 0.02206,0.0287 0.05065,0.0808 0.07598,0.14265 0.02533,0.0618 0.04748,0.13327 0.05563,0.18681 0.0082,0.0535 0.0024,0.0893 -0.0072,0.11379 -0.0096,0.0245 -0.02322,0.0381 -0.05929,0.0703 -0.03607,0.0321 -0.09466,0.0829 -0.1393,0.11965 -0.04464,0.0368 -0.07537,0.0597 -0.130283,0.0696 -0.05491,0.01 -0.134179,0.007 -0.186414,-0.024 -0.05224,-0.031 -0.07726,-0.0903 -0.09196,-0.15002 -0.01471,-0.0597 -0.01899,-0.11968 -0.0072,-0.17302 0.01176,-0.0533 0.03961,-0.0998 0.05357,-0.12302 0.01396,-0.0233 0.01395,-0.023 0.03289,-0.038 z"
         id="path8141"
         inkscape:path-effect="#path-effect8137"
         inkscape:original-d="m 67.555689,123.2126 c 0.03813,-0.0297 0.076,-0.0598 0.11361,-0.09 0.03456,-0.0369 0.06886,-0.074 0.102888,-0.11147 0.02241,-0.0147 0.04457,-0.0297 0.06645,-0.045 0.02885,-4.5e-4 0.05742,-0.001 0.08574,-0.002 0.01598,0.005 0.03171,0.0103 0.04716,0.015 0.02884,0.0524 0.05742,0.10458 0.08574,0.15648 0.02241,0.0717 0.04456,0.14317 0.06645,0.21436 -0.0054,0.036 -0.01117,0.0717 -0.01714,0.10717 -0.01331,0.0138 -0.02689,0.0274 -0.04073,0.0407 -0.05833,0.051 -0.116917,0.10173 -0.175771,0.15219 -0.03046,0.0231 -0.06118,0.046 -0.09217,0.0686 -0.07905,-0.003 -0.158358,-0.005 -0.237934,-0.009 -0.02474,-0.059 -0.04975,-0.11834 -0.07502,-0.17791 -0.004,-0.0598 -0.0083,-0.11978 -0.01286,-0.18006 0.02813,-0.0462 0.056,-0.0926 0.0836,-0.13933 z" />
    </clipPath>
    <clipPath
       clipPathUnits="userSpaceOnUse"
       id="clipPath3882">
      <rect
         style="display:none;fill:#000000;fill-opacity:1;stroke:#000000;stroke-width:0.699111;stroke-miterlimit:4;stroke-dasharray:none;stroke-opacity:1"
         id="rect3884"
         width="6.3679023"
         height="27.594242"
         x="66.658493"
         y="98.226433"
         d="m 66.658493,98.226433 h 6.367902 v 27.594237 h -6.367902 z" />
      <path
         id="lpe_path-effect3886"
         style="fill:#000000;fill-opacity:1;stroke:#000000;stroke-width:0.699111;stroke-miterlimit:4;stroke-dasharray:none;stroke-opacity:1"
         class="powerclip"
         d="M 64.985878,74.592934 H 218.9089 V 187.62239 H 64.985878 Z m 1.672615,23.633499 v 27.594237 h 6.367902 V 98.226433 Z" />
    </clipPath>
  </defs>
  <sodipodi:namedview
     id="base"
     pagecolor="#2a3c35"
     bordercolor="#666666"
     borderopacity="1.0"
     inkscape:pageopacity="0"
     inkscape:pageshadow="2"
     inkscape:zoom="0.9150029"
     inkscape:cx="486.25812"
     inkscape:cy="224.75242"
     inkscape:document-units="mm"
     inkscape:current-layer="layer1"
     inkscape:document-rotation="0"
     showgrid="false"
     fit-margin-top="0"
     fit-margin-left="0"
     fit-margin-right="0"
     fit-margin-bottom="0"
     inkscape:window-width="1920"
     inkscape:window-height="1017"
     inkscape:window-x="-8"
     inkscape:window-y="-8"
     inkscape:window-maximized="1" />
  <metadata
     id="metadata7244">
    <rdf:RDF>
      <cc:Work
         rdf:about="">
        <dc:format>image/svg+xml</dc:format>
        <dc:type
           rdf:resource="http://purl.org/dc/dcmitype/StillImage" />
        <dc:title></dc:title>
      </cc:Work>
    </rdf:RDF>
  </metadata>
  <g
     inkscape:label="Layer 1"
     inkscape:groupmode="layer"
     id="layer1"
     transform="translate(-10.781268,-79.592934)">
    <path
       style="fill:#3776ab;fill-opacity:1;stroke:none;stroke-width:0.2;stroke-miterlimit:4;stroke-dasharray:none;stroke-opacity:1"
       d="m 89.999586,124.27047 c -0.09818,0.0435 -0.294203,0.13042 -0.561978,0.21527 -0.267775,0.0848 -0.607296,0.16771 -0.852841,0.21922 -0.245546,0.0515 -0.397115,0.0717 -0.587013,0.0332 -0.189898,-0.0384 -0.418244,-0.13545 -0.740533,-0.37795 -0.32229,-0.24249 -0.738602,-0.63051 -1.098339,-0.96398 -0.359736,-0.33346 -0.662875,-0.61235 -0.89729,-0.85788 -0.234415,-0.24553 -0.400128,-0.45772 -0.416442,-0.56484 -0.01631,-0.10712 0.117068,-0.10912 0.597057,-0.10912 0.479988,0 1.306549,0.002 1.752175,0.003 0.445625,0.001 0.510292,0.001 0.947968,0.37589 0.437676,0.3749 1.248066,1.12466 1.654316,1.50885 0.406249,0.38419 0.408257,0.40217 0.390911,0.42037 -0.01735,0.0182 -0.05369,0.0364 -0.07173,0.0454 -0.01804,0.009 -0.01808,0.009 -0.116262,0.0525 z"
       id="path8147"
       inkscape:path-effect="#path-effect8149"
       inkscape:original-d="m 90.097769,124.22694 c -0.196299,0.0872 -0.392332,0.17407 -0.588102,0.26071 -0.339794,0.0831 -0.67931,0.16598 -1.018569,0.24858 -0.151842,0.0205 -0.303411,0.0407 -0.454718,0.0606 -0.22864,-0.0968 -0.457005,-0.19375 -0.68511,-0.29102 -0.416594,-0.38777 -0.832906,-0.77579 -1.24896,-1.16408 -0.303416,-0.27864 -0.606555,-0.55753 -0.909437,-0.83669 -0.165989,-0.21194 -0.331705,-0.42413 -0.49716,-0.6366 0.133123,-0.002 0.266505,-0.004 0.400154,-0.006 0.826328,0.002 1.652889,0.004 2.47973,0.006 0.06441,2.6e-4 0.129077,2.6e-4 0.194014,0 0.810162,0.75006 1.620554,1.49982 2.431227,2.24934 0.0038,0.0184 0.0038,0.0366 0.0061,0.0546 -0.03664,0.0185 -0.07302,0.0366 -0.109133,0.0546 z" />
    <path
       style="fill:#00000a;fill-opacity:1;stroke-width:0.264583"
       d="m 63.519163,140.65964 -6.66988,-8.84687 0.0198,-0.0169 h -0.0331 l -0.0304,-0.0397 -0.0511,0.0397 H 26.216798 l -12.86087,10.09861 v 0.39688 l -2.57466,7.85548 2.57466,-1.87484 v 25.17828 h 31.554745 v -0.0767 l 11.93562,-10.61482 v -15.36435 z m -1.56898,-0.10504 -10.56746,10.66033 -6.30555,-8.61774 10.89237,-9.97744 z m -35.312885,-7.57158 h 27.177215 l -9.72768,8.91223 H 15.627718 Z m 17.086005,39.27951 H 14.545308 v -29.17798 h 29.177995 z m 11.93456,-10.03988 -10.74844,9.55808 v -27.40158 l 6.33572,8.6622 4.41166,-4.45056 v 13.6316 h 0.001 z"
       id="path2312" />
    <path
       style="fill:#00000a;fill-opacity:1;stroke-width:0.264583"
       d="m 140.22238,140.49226 -6.66989,-8.84687 0.0198,-0.0169 h -0.0331 l -0.0304,-0.0397 -0.0511,0.0397 H 102.92 L 90.059141,141.7271 v 0.39688 l -2.57466,7.85548 2.57466,-1.87484 v 25.17828 h 31.554829 v -0.0767 l 11.93561,-10.61482 v -15.36435 z m -1.56898,-0.10504 -10.56746,10.66033 -6.30555,-8.61774 10.89236,-9.97744 z m -35.31289,-7.57158 h 27.17721 l -9.72767,8.91223 H 92.330934 Z m 17.08601,39.27951 H 91.248523 v -29.17798 h 29.177997 z m 11.93456,-10.03988 -10.74844,9.55808 v -27.40158 l 6.33571,8.6622 4.41167,-4.45056 v 13.6316 h 0.001 z"
       id="path2312-3" />
    <text
       xml:space="preserve"
       style="font-size:8.46667px;line-height:1.25;font-family:Alegreya;-inkscape-font-specification:Alegreya;fill:#00000a;fill-opacity:1;stroke-width:0.264583"
       x="22.848032"
       y="160.36241"
       id="text2677"><tspan
         sodipodi:role="line"
         id="tspan2675"
         x="22.848032"
         y="160.36241"
         style="fill:#00000a;fill-opacity:1;stroke-width:0.264583">box</tspan></text>
    <text
       xml:space="preserve"
       style="font-size:8.46667px;line-height:1.25;font-family:Alegreya;-inkscape-font-specification:Alegreya;fill:#00000a;fill-opacity:1;stroke-width:0.264583"
       x="98.241371"
       y="160.14532"
       id="text2677-2"><tspan
         sodipodi:role="line"
         id="tspan2675-3"
         x="98.241371"
         y="160.14532"
         style="fill:#00000a;fill-opacity:1;stroke-width:0.264583">box2</tspan></text>
    <text
       xml:space="preserve"
       style="font-size:14.1111px;line-height:1.25;font-family:Alegreya;-inkscape-font-specification:Alegreya;fill:#000000;fill-opacity:1;stroke-width:0.264583"
       x="54.712509"
       y="110.45094"
       id="text2540"><tspan
         sodipodi:role="line"
         id="tspan2538"
         x="54.712509"
         y="110.45094"
         style="font-size:14.1111px;fill:#000000;fill-opacity:1;stroke-width:0.264583">&quot;text&quot;</tspan></text>
    <path
       style="fill:none;stroke:#ffd040;stroke-width:1;stroke-miterlimit:4;stroke-dasharray:none;stroke-opacity:1"
       d="m 72.554719,110.77611 37.241911,30.8217"
       id="path7934"
       sodipodi:nodetypes="cc" />
    <path
       style="fill:none;stroke:#ffd040;stroke-width:1;stroke-miterlimit:4;stroke-dasharray:none;stroke-opacity:1"
       d="M 69.196925,110.52299 31.80067,141.43044"
       id="path7934-2"
       sodipodi:nodetypes="cc" />
    <g
       id="g8084"
       transform="matrix(-0.05634566,0,0,0.05634567,91.994748,111.30476)"
       style="fill:#3776ab;fill-opacity:1"
       clip-path="url(#clipPath8088)"
       inkscape:path-effect="#path-effect8092">
      <g
         id="g8024"
         style="fill:#3776ab;fill-opacity:1">
        <g
           id="g8022"
           style="fill:#3776ab;fill-opacity:1">
          <path
             d="M 179.369,197.035 178.483,187.558 85.806,187.45 0,187.343 c -0.036,29.235 38.354,52.982 85.74,53.038 l 23.69,0.031 81.326,0.097 c -5.919,-13.025 -9.928,-27.935 -11.387,-43.474 z"
             id="path8014"
             style="fill:#3776ab;fill-opacity:1"
             inkscape:original-d="M 179.369,197.035 178.483,187.558 85.806,187.45 0,187.343 c -0.036,29.235 38.354,52.982 85.74,53.038 l 23.69,0.031 81.326,0.097 c -5.919,-13.025 -9.928,-27.935 -11.387,-43.474 z" />
          <path
             d="m 225.541,214.407 c 0,-4.378 -3.548,-7.931 -7.931,-7.931 -4.378,0 -7.931,3.548 -7.931,7.931 0,4.378 3.548,7.931 7.931,7.931 4.383,0 7.931,-3.553 7.931,-7.931 z"
             id="path8016"
             style="fill:#3776ab;fill-opacity:1"
             inkscape:original-d="m 225.541,214.407 c 0,-4.378 -3.548,-7.931 -7.931,-7.931 -4.378,0 -7.931,3.548 -7.931,7.931 0,4.378 3.548,7.931 7.931,7.931 4.383,0 7.931,-3.553 7.931,-7.931 z" />
          <path
             d="M 247.859,274.618 232.11,106.493 229.847,82.327 C 225.428,35.146 198.246,-0.888 169.139,1.841 l 8.003,85.427 10.214,109.01 c 2.376,25.334 11.341,47.38 23.613,62.013 -23.311,4.746 -38.574,35.738 -35.103,72.791 3.635,38.774 26.184,67.302 51.343,64.947 25.16,-2.355 42.02,-34.575 38.39,-73.354 -1.822,-19.482 -8.432,-36.368 -17.74,-48.057 z m -47.257,-60.211 c 0,-9.395 7.619,-17.014 17.009,-17.014 9.4,0.005 17.014,7.619 17.014,17.014 0,9.395 -7.619,17.009 -17.014,17.009 -9.396,0 -17.009,-7.619 -17.009,-17.009 z m 25.415,168.868 c -17.408,1.628 -34.529,-22.82 -37.391,-53.386 -2.867,-30.566 9.416,-57.774 26.824,-59.402 17.408,-1.633 34.534,22.815 37.396,53.386 2.862,30.566 -9.421,57.774 -26.829,59.402 z"
             id="path8018"
             style="fill:#3776ab;fill-opacity:1"
             inkscape:original-d="M 247.859,274.618 232.11,106.493 229.847,82.327 C 225.428,35.146 198.246,-0.888 169.139,1.841 l 8.003,85.427 10.214,109.01 c 2.376,25.334 11.341,47.38 23.613,62.013 -23.311,4.746 -38.574,35.738 -35.103,72.791 3.635,38.774 26.184,67.302 51.343,64.947 25.16,-2.355 42.02,-34.575 38.39,-73.354 -1.822,-19.482 -8.432,-36.368 -17.74,-48.057 z m -47.257,-60.211 c 0,-9.395 7.619,-17.014 17.009,-17.014 9.4,0.005 17.014,7.619 17.014,17.014 0,9.395 -7.619,17.009 -17.014,17.009 -9.396,0 -17.009,-7.619 -17.009,-17.009 z m 25.415,168.868 c -17.408,1.628 -34.529,-22.82 -37.391,-53.386 -2.867,-30.566 9.416,-57.774 26.824,-59.402 17.408,-1.633 34.534,22.815 37.396,53.386 2.862,30.566 -9.421,57.774 -26.829,59.402 z" />
          <path
             d="m 328.463,163.714 c -37.212,-0.046 -66.673,18.007 -69.253,41.656 -3.154,-2.186 -6.661,-4.157 -10.353,-5.995 l 3.866,41.201 26.148,0.031 c 12.498,8.192 29.921,13.215 49.485,13.235 38.948,0.046 69.473,-19.712 69.504,-44.984 0.031,-25.268 -30.454,-45.098 -69.397,-45.144 z m -0.092,77.317 c -30.7,-0.036 -56.622,-14.838 -56.602,-32.317 0.02,-17.485 25.979,-32.22 56.678,-32.184 30.705,0.036 56.622,14.838 56.602,32.317 -0.02,17.48 -25.978,32.225 -56.678,32.184 z"
             id="path8020"
             style="fill:#3776ab;fill-opacity:1"
             inkscape:original-d="m 328.463,163.714 c -37.212,-0.046 -66.673,18.007 -69.253,41.656 -3.154,-2.186 -6.661,-4.157 -10.353,-5.995 l 3.866,41.201 26.148,0.031 c 12.498,8.192 29.921,13.215 49.485,13.235 38.948,0.046 69.473,-19.712 69.504,-44.984 0.031,-25.268 -30.454,-45.098 -69.397,-45.144 z m -0.092,77.317 c -30.7,-0.036 -56.622,-14.838 -56.602,-32.317 0.02,-17.485 25.979,-32.22 56.678,-32.184 30.705,0.036 56.622,14.838 56.602,32.317 -0.02,17.48 -25.978,32.225 -56.678,32.184 z" />
        </g>
      </g>
      <g
         id="g8026"
         style="fill:#3776ab;fill-opacity:1" />
      <g
         id="g8028"
         style="fill:#3776ab;fill-opacity:1" />
      <g
         id="g8030"
         style="fill:#3776ab;fill-opacity:1" />
      <g
         id="g8032"
         style="fill:#3776ab;fill-opacity:1" />
      <g
         id="g8034"
         style="fill:#3776ab;fill-opacity:1" />
      <g
         id="g8036"
         style="fill:#3776ab;fill-opacity:1" />
      <g
         id="g8038"
         style="fill:#3776ab;fill-opacity:1" />
      <g
         id="g8040"
         style="fill:#3776ab;fill-opacity:1" />
      <g
         id="g8042"
         style="fill:#3776ab;fill-opacity:1" />
      <g
         id="g8044"
         style="fill:#3776ab;fill-opacity:1" />
      <g
         id="g8046"
         style="fill:#3776ab;fill-opacity:1" />
      <g
         id="g8048"
         style="fill:#3776ab;fill-opacity:1" />
      <g
         id="g8050"
         style="fill:#3776ab;fill-opacity:1" />
      <g
         id="g8052"
         style="fill:#3776ab;fill-opacity:1" />
      <g
         id="g8054"
         style="fill:#3776ab;fill-opacity:1" />
    </g>
    <path
       style="fill:none;stroke:#ffd040;stroke-width:1;stroke-miterlimit:4;stroke-dasharray:none;stroke-opacity:1"
       d="m 149.60428,110.68714 -37.39626,30.90745"
       id="path7934-2-3"
       sodipodi:nodetypes="cc" />
    <text
       xml:space="preserve"
       style="font-size:14.1111px;line-height:1.25;font-family:Alegreya;-inkscape-font-specification:Alegreya;fill:#000000;fill-opacity:1;stroke-width:0.264583"
       x="113.99218"
       y="109.69782"
       id="text2540-7"><tspan
         sodipodi:role="line"
         id="tspan2538-4"
         x="113.99218"
         y="109.69782"
         style="font-size:14.1111px;fill:#000000;fill-opacity:1;stroke-width:0.264583">&quot;nouveau texte&quot;</tspan></text>
    <text
       xml:space="preserve"
       id="text3754"
       style="font-size:7.05556px;line-height:1.25;font-family:Alegreya;-inkscape-font-specification:Alegreya;white-space:pre;shape-inside:url(#rect3756);" />
    <path
       style="fill:none;stroke:#000000;stroke-width:1;stroke-opacity:1"
       id="rect3863"
       width="142.92302"
       height="102.02946"
       x="70.485878"
       y="80.092934"
       sodipodi:type="rect"
       clip-path="url(#clipPath3882)"
       inkscape:path-effect="#path-effect3886"
       d="M 70.485878,80.092934 H 213.4089 V 182.12239 H 70.485878 Z" />
    <rect
       style="fill:none;stroke:#000000;stroke-width:1;stroke-miterlimit:4;stroke-dasharray:none;stroke-opacity:1"
       id="rect3865"
       width="56.745014"
       height="11.551547"
       x="70.856079"
       y="80.463135" />
    <text
       xml:space="preserve"
       style="font-size:14.1111px;line-height:1.25;font-family:Alegreya;-inkscape-font-specification:Alegreya;stroke-width:0.264583"
       x="72.160866"
       y="90.838287"
       id="text3869"><tspan
         sodipodi:role="line"
         id="tspan3867"
         x="72.160866"
         y="90.838287"
         style="font-size:14.1111px;stroke-width:0.264583">Function</tspan></text>
  </g>
  <style
     type="text/css"
     id="style7976">
	.puchipuchi_een{fill:#111918;}
</style>
</svg>
