<?xml version="1.0" encoding="UTF-8" standalone="no"?>
<svg
   xmlns:dc="http://purl.org/dc/elements/1.1/"
   xmlns:cc="http://creativecommons.org/ns#"
   xmlns:rdf="http://www.w3.org/1999/02/22-rdf-syntax-ns#"
   xmlns:svg="http://www.w3.org/2000/svg"
   xmlns="http://www.w3.org/2000/svg"
   xmlns:sodipodi="http://sodipodi.sourceforge.net/DTD/sodipodi-0.dtd"
   xmlns:inkscape="http://www.inkscape.org/namespaces/inkscape"
   width="134.01019mm"
   height="60.304443mm"
   viewBox="0 0 134.01019 60.304443"
   version="1.1"
   id="svg1064"
   inkscape:version="1.0.2-2 (e86c870879, 2021-01-15)"
   sodipodi:docname="binary.svg">
  <defs
     id="defs1058" />
  <sodipodi:namedview
     id="base"
     pagecolor="#ffffff"
     bordercolor="#666666"
     borderopacity="1.0"
     inkscape:pageopacity="0.0"
     inkscape:pageshadow="2"
     inkscape:zoom="1.3637387"
     inkscape:cx="305.96622"
     inkscape:cy="144.60067"
     inkscape:document-units="mm"
     inkscape:current-layer="layer1"
     inkscape:document-rotation="0"
     showgrid="false"
     inkscape:window-width="1920"
     inkscape:window-height="1017"
     inkscape:window-x="1912"
     inkscape:window-y="-8"
     inkscape:window-maximized="1"
     fit-margin-top="0"
     fit-margin-left="0"
     fit-margin-right="0"
     fit-margin-bottom="0" />
  <metadata
     id="metadata1061">
    <rdf:RDF>
      <cc:Work
         rdf:about="">
        <dc:format>image/svg+xml</dc:format>
        <dc:type
           rdf:resource="http://purl.org/dc/dcmitype/StillImage" />
        <dc:title></dc:title>
      </cc:Work>
    </rdf:RDF>
  </metadata>
  <g
     inkscape:label="Layer 1"
     inkscape:groupmode="layer"
     id="layer1"
     transform="translate(-4.1054537,-69.379838)">
    <path
       style="fill:none;stroke:#000000;stroke-width:3"
       d="M 18.108823,75.179054 V 126.21301"
       id="path1627" />
    <path
       style="fill:none;stroke:#000000;stroke-width:3"
       d="M 16.599754,126.21301 H 132.24929"
       id="path1631"
       sodipodi:nodetypes="cc" />
    <path
       style="fill:none;stroke:#000000;stroke-width:1;stroke-miterlimit:4;stroke-dasharray:1, 3;stroke-dashoffset:0"
       d="M 16.805536,90.681306 H 132.45508"
       id="path1631-3"
       sodipodi:nodetypes="cc" />
    <text
       xml:space="preserve"
       style="font-size:7.05556px;line-height:1.25;font-family:Alegreya;-inkscape-font-specification:Alegreya;stroke-width:0.264583"
       x="26.340107"
       y="84.828682"
       id="text1657"><tspan
         sodipodi:role="line"
         id="tspan1655"
         x="26.340107"
         y="84.828682"
         style="stroke-width:0.264583">0</tspan></text>
    <text
       xml:space="preserve"
       style="font-size:7.05556px;line-height:1.25;font-family:Alegreya;-inkscape-font-specification:Alegreya;stroke-width:0.264583"
       x="40.644405"
       y="84.828682"
       id="text1661"><tspan
         sodipodi:role="line"
         id="tspan1659"
         x="40.644405"
         y="84.828682"
         style="stroke-width:0.264583">1</tspan></text>
    <text
       xml:space="preserve"
       style="font-size:7.05556px;line-height:1.25;font-family:Alegreya;-inkscape-font-specification:Alegreya;stroke-width:0.264583"
       x="53.671654"
       y="84.82869"
       id="text1657-0"><tspan
         sodipodi:role="line"
         id="tspan1655-8"
         x="53.671654"
         y="84.82869"
         style="stroke-width:0.264583">0</tspan></text>
    <text
       xml:space="preserve"
       style="font-size:7.05556px;line-height:1.25;font-family:Alegreya;-inkscape-font-specification:Alegreya;stroke-width:0.264583"
       x="67.337425"
       y="84.828682"
       id="text1657-6"><tspan
         sodipodi:role="line"
         id="tspan1655-0"
         x="67.337425"
         y="84.828682"
         style="stroke-width:0.264583">0</tspan></text>
    <text
       xml:space="preserve"
       style="font-size:7.05556px;line-height:1.25;font-family:Alegreya;-inkscape-font-specification:Alegreya;stroke-width:0.264583"
       x="94.668968"
       y="84.82869"
       id="text1657-01"><tspan
         sodipodi:role="line"
         id="tspan1655-81"
         x="94.668968"
         y="84.82869"
         style="stroke-width:0.264583">0</tspan></text>
    <text
       xml:space="preserve"
       style="font-size:7.05556px;line-height:1.25;font-family:Alegreya;-inkscape-font-specification:Alegreya;stroke-width:0.264583"
       x="81.641724"
       y="84.82869"
       id="text1661-7"><tspan
         sodipodi:role="line"
         id="tspan1659-8"
         x="81.641724"
         y="84.82869"
         style="stroke-width:0.264583">1</tspan></text>
    <text
       xml:space="preserve"
       style="font-size:7.05556px;line-height:1.25;font-family:Alegreya;-inkscape-font-specification:Alegreya;stroke-width:0.264583"
       x="108.97327"
       y="84.828682"
       id="text1661-5"><tspan
         sodipodi:role="line"
         id="tspan1659-3"
         x="108.97327"
         y="84.828682"
         style="stroke-width:0.264583">1</tspan></text>
    <text
       xml:space="preserve"
       style="font-size:7.05556px;line-height:1.25;font-family:Alegreya;-inkscape-font-specification:Alegreya;stroke-width:0.264583"
       x="122.63904"
       y="84.82869"
       id="text1661-3"><tspan
         sodipodi:role="line"
         id="tspan1659-9"
         x="122.63904"
         y="84.82869"
         style="stroke-width:0.264583">1</tspan></text>
    <path
       style="fill:none;stroke:#000000;stroke-width:1;stroke-miterlimit:4;stroke-dasharray:none;stroke-dashoffset:0"
       d="m 19.000543,121.823 h 14.61053 V 96.168828 H 48.838947 V 121.96018 H 76.962499 V 95.757263 H 90.544117 V 121.82299 H 103.98855 V 95.482888 h 27.98636"
       id="path1785" />
    <text
       xml:space="preserve"
       style="font-size:7.05556px;line-height:1.25;font-family:Alegreya;-inkscape-font-specification:Alegreya;stroke-width:0.264583"
       x="3.9784536"
       y="91.916"
       id="text1789"><tspan
         sodipodi:role="line"
         id="tspan1787"
         x="3.9784536"
         y="91.916"
         style="stroke-width:0.264583">+5v</tspan></text>
    <text
       xml:space="preserve"
       style="font-size:7.05556px;line-height:1.25;font-family:Alegreya;-inkscape-font-specification:Alegreya;stroke-width:0.264583"
       x="5.6034322"
       y="127.87772"
       id="text1789-2"><tspan
         sodipodi:role="line"
         id="tspan1787-6"
         x="5.6034322"
         y="127.87772"
         style="stroke-width:0.264583">0v</tspan></text>
    <path
       sodipodi:type="star"
       style="fill:#000000;fill-opacity:1;stroke:#000000;stroke-width:1;stroke-miterlimit:4;stroke-dasharray:none;stroke-dashoffset:0"
       id="path1815"
       sodipodi:sides="3"
       sodipodi:cx="18.140236"
       sodipodi:cy="73.434006"
       sodipodi:r1="3.054168"
       sodipodi:r2="1.527084"
       sodipodi:arg1="2.6179939"
       sodipodi:arg2="3.6651914"
       inkscape:flatsided="false"
       inkscape:rounded="0"
       inkscape:randomized="0"
       d="m 15.495249,74.96109 1.322493,-2.290626 1.322494,-2.290626 1.322493,2.290626 1.322494,2.290626 -2.644987,0 z"
       inkscape:transform-center-y="-0.7635429" />
    <path
       sodipodi:type="star"
       style="fill:#000000;fill-opacity:1;stroke:#000000;stroke-width:1;stroke-miterlimit:4;stroke-dasharray:none;stroke-dashoffset:0"
       id="path1815-3"
       sodipodi:sides="3"
       sodipodi:cx="-140.75494"
       sodipodi:cy="128.59843"
       sodipodi:r1="3.054168"
       sodipodi:r2="1.527084"
       sodipodi:arg1="2.6179939"
       sodipodi:arg2="3.6651914"
       inkscape:flatsided="false"
       inkscape:rounded="0"
       inkscape:randomized="0"
       d="m -143.39993,130.12552 1.32249,-2.29063 1.3225,-2.29062 1.32249,2.29062 1.32249,2.29063 -2.64498,0 z"
       transform="matrix(0,-1,-1,0,262.65992,-14.581674)"
       inkscape:transform-center-x="-0.76354364" />
    <path
       style="fill:none;fill-opacity:1;stroke:#6abed2;stroke-width:0;stroke-miterlimit:4;stroke-dasharray:none;stroke-dashoffset:0;stroke-opacity:1"
       d="m -28.294751,36.397592 c 0.64671,0 1.296333,-0.06132 1.940131,0 0.719788,0.06855 1.415216,0.310999 2.134145,0.388027 3.028393,0.324469 6.079824,0.376717 9.118621,0.582038 9.8440643,0.665142 8.754426,0.699046 19.5953341,0.970066 11.5485419,0.288716 23.0189379,0.261374 34.5343509,-0.776052 6.223842,-0.560705 12.420735,-1.389602 18.62527,-2.134145 6.811941,-0.817433 3.916709,-0.776052 6.984473,-0.776052"
       id="path1843" />
    <path
       style="fill:none;fill-opacity:1;stroke:#6abed2;stroke-width:0;stroke-miterlimit:4;stroke-dasharray:none;stroke-dashoffset:0;stroke-opacity:1"
       d="m 19.000543,121.823 c 0.36244,-0.26395 0.727845,-0.52388 1.087319,-0.79186 0.117379,-0.0875 0.197696,-0.25622 0.342971,-0.27438 0.107616,-0.0134 0.500889,0.59022 0.548752,0.68594 0.01023,0.0205 -0.02287,0.0686 0,0.0686 0.08038,0 0.785926,-1.32479 0.891722,-1.1661 0.04891,0.0734 0.4702,0.96032 0.480158,0.96032 0.02286,0 -0.01023,-0.0482 0,-0.0686 0.166465,-0.33293 0.363502,-0.31093 0.617346,-0.48016 0.01902,-0.0127 -0.02286,-0.0686 0,-0.0686 0.135436,0 0.519583,0.57504 0.685941,0.68594 0.386097,0.2574 0.558256,-0.30392 0.754534,-0.20578 0.193777,0.0969 0.275477,0.34334 0.480158,0.41156 0.20414,0.068 0.486469,0.0574 0.68594,0.13719 0.106147,0.0425 0.161609,0.18699 0.274377,0.20578 0.458385,0.0764 0.925093,-0.0431 1.37188,0.0686 0.08873,0.0222 0.187611,0.0289 0.274376,0 0.113747,-0.0379 0.0671,-0.24953 0.137188,-0.34297 0.07972,-0.10629 0.432242,-0.55784 0.548753,-0.48016 0.319638,0.21309 -0.03009,0.0481 0.205782,0.34297 0.103364,0.1292 0.439815,0.37606 0.617346,0.41156 0.351563,0.0703 0.529517,-0.0905 0.891722,0 0.108309,0.0271 0.336484,0.27438 0.411565,0.27438 0.05705,0 -0.06134,-0.64802 0.274376,-0.48016 0.05784,0.0289 0.07377,0.12451 0.137187,0.13719 0.178482,0.0357 0.432056,0.0686 0.617347,0.0686 0.04819,0 0.308956,0.034 0.342971,0 0.17575,-0.17575 0.124124,-0.84604 0.137187,-1.02891 0.160644,-2.24901 0.578035,-4.50498 0.960316,-6.72221 0.342944,-1.98907 0.543819,-3.98932 0.960318,-5.96768 0.177527,-0.84326 0.407135,-1.68829 0.548751,-2.53798 0.154252,-0.92552 0.01077,-0.29866 0.06859,-1.1661 0.02606,-0.39107 0.09869,-0.78113 0.137189,-1.1661 0.06247,-0.62472 0,-1.29194 0,-1.92063 0,-0.96032 0,-1.920633 0,-2.880951 0,-0.578866 0.02633,-0.95477 0.137189,-1.509067 0.01855,-0.09268 -0.04599,-0.319593 0,-0.411565 0.123762,-0.247528 0.622023,1.024234 0.823127,0.823129 0.166174,-0.166174 0.165838,-0.522123 0.411565,-0.68594 0.193966,-0.12931 0.393017,0.935292 0.754533,0.754534 0.256344,-0.128172 1.418664,-1.199605 1.646259,-1.028912 0.28688,0.215162 0.44278,0.472683 0.823127,0.548754 0.554529,0.110905 1.040775,-0.108823 1.509069,-0.342972 0.132847,-0.06642 0.221335,-0.0078 0.342969,-0.06859 0.16243,-0.08121 0.164502,-0.233095 0.274378,-0.342969 0.08129,-0.08129 0.224174,-0.155583 0.274376,-0.205782 0.03233,-0.03234 -0.03234,-0.104854 0,-0.137189 0.05113,-0.05113 0.04174,0.13865 0.06859,0.205782 0.02402,0.06005 0.108267,0.07934 0.137189,0.137189 0.03901,0.07803 0.159083,0.617345 0.342969,0.617345 0.0011,0 0.382656,-0.920631 0.480158,-0.823127 0.202671,0.202668 0.504872,0.76689 0.754536,0.891723 0.0439,0.02196 0.395483,-0.485249 0.480158,-0.548754 0.268925,-0.201695 0.444124,0.527045 0.617344,0.411564 0.388856,-0.259236 0.276,-0.707723 0.823129,-0.342971 0.436523,0.291015 0.891416,-0.343122 1.028912,-0.274376 0.18664,0.09332 0.2847,0.390174 0.411562,0.548754 0.0404,0.0505 0.08338,0.101314 0.137189,0.137187 0.02691,0.01794 0.100931,-0.06859 0.06859,-0.06859 -0.08244,0 0.100322,0.132046 0.137189,0.205783 0.106757,0.213511 0.130295,0.459475 0.205783,0.68594 0.32086,0.962581 0.554514,2.010542 0.68594,3.018141 0.03267,0.25043 0.02342,0.50606 0.06859,0.75453 0.145555,0.80055 0.393549,1.5989 0.548754,2.40079 0.294576,1.52199 0.111371,0.87132 0.480158,2.46939 0.425188,1.84248 0.99346,3.6498 1.440474,5.48752 0.262379,1.07867 0.554352,2.14882 0.823129,3.22392 0.219855,0.87943 0.34064,1.7907 0.548751,2.67517 0.123666,0.52557 0.305922,1.04944 0.411565,1.57766 0.01344,0.0673 -0.0217,0.14071 0,0.20578 0.0072,0.0217 0.06305,-0.0222 0.06859,0 0.02217,0.0887 -0.01135,0.18363 0,0.27438 0.03234,0.25868 0.147161,0.50051 0.205782,0.75453 0.07599,0.32928 0.04036,0.39545 0.137189,0.68594 0.01617,0.0485 0.05242,0.0887 0.06859,0.13719 0.0072,0.0217 -0.02286,0.0686 0,0.0686 0.06965,0 0.162165,-0.8481 0.411564,-1.0975 0.13035,-0.13035 0.191937,0.31528 0.274376,0.48016 0.07082,0.14163 0.311205,0.72277 0.411564,0.82313 0.03615,0.0362 0.101037,0.0324 0.13719,0.0686 0.01617,0.0162 -0.02286,0.0686 0,0.0686 0.101787,0 0.626043,-1.01394 0.960315,-1.09751 0.240012,-0.06 0.672018,0.67898 0.960316,0.82313 0.30847,0.15423 0.446286,-0.50577 0.823129,-0.41156 0.322623,0.0807 0.849723,0.85812 1.303285,0.48015 0.109596,-0.0913 0.635521,-0.81101 0.823129,-0.68594 0.380778,0.25385 0.607322,0.68093 1.028912,0.89173 0.02045,0.0102 0.05591,0.019 0.06859,0 0.223158,-0.33474 -0.118017,-0.0878 0.205783,-0.41157 0.444068,-0.44407 -0.03793,0.2189 0.411564,-0.34297 0.03194,-0.0399 0.02606,-0.10883 0.06859,-0.13719 0.03805,-0.0254 0.09629,-0.0204 0.137187,0 0.176411,0.0882 1.25404,1.24481 1.37188,1.09751 0.08439,-0.10549 0.622091,-1.02417 0.82313,-0.82313 0.399976,0.39997 0.920601,1.57766 1.646256,1.57766 0.558183,0 0.713933,-1.0611 1.234694,-1.23469 0.246189,-0.0821 0.552087,0.39918 0.754533,0.48016 0.464709,0.18588 1.142876,-0.4378 1.714852,-0.27438 0.37152,0.10615 0.724911,0.68594 1.097505,0.68594 0.02286,0 -0.01024,-0.0481 0,-0.0686 0.03151,-0.063 0.324681,-0.42986 0.411562,-0.34297 0.01617,0.0162 -0.01617,0.0524 0,0.0686 0.03615,0.0361 0.101036,0.0324 0.137189,0.0686 0.307724,0.30772 0.368475,0.49452 0.823129,0.34297 0.26883,-0.0896 0.695913,-1.55894 0.754534,-1.85204 0.0079,-0.0396 0.109164,-0.91975 0.274375,-0.75454 0.279379,0.27938 0.415256,0.70051 0.617347,1.02891 0.172826,0.28085 0.334148,0.57276 0.548751,0.82313 0.05365,0.0626 0.14749,0.0789 0.205783,0.13719 0.01617,0.0162 -0.01617,0.0848 0,0.0686 0.134395,-0.13439 0.203242,-0.51173 0.480158,-0.27437 0.345815,0.29641 0.708861,0.64026 1.028911,0.96031 0.01617,0.0162 -0.02286,0.0686 0,0.0686 0.02286,0 0,-0.0457 0,-0.0686 0,-0.22864 0,-0.45729 0,-0.68594 0,-0.3834 0.09014,-0.72109 0.137187,-1.0975 0.009,-0.0718 0.04174,-0.27292 0.0686,-0.20578 0.07002,0.17506 0.09146,0.36583 0.137186,0.54875 0.01241,0.0496 0.06137,0.1878 0.0686,0.13719 0.164764,-1.15335 0.41171,-2.28402 0.617344,-3.4297 0.191945,-1.06941 0.301541,-2.15221 0.480158,-3.22392 0.347575,-2.08544 0.862497,-4.15057 1.166101,-6.24206 0.263295,-1.81382 0.394943,-3.724 0.480158,-5.55612 0.07515,-1.61572 0,-3.251722 0,-4.870175 0,-0.118677 0.006,-1.51506 0.06859,-1.577663 0.07346,-0.07346 0.08367,0.118509 0.205782,0.411564 0.155782,0.373875 0.32303,0.871784 0.617347,1.166099 0.100643,0.100642 0.627928,-1.71485 0.754534,-1.71485 0.02437,0 0.269862,1.170612 0.411564,1.028909 0.139431,-0.13943 0.625923,-1.183245 0.960316,-0.960315 0.321289,0.21419 0.925854,1.492165 1.234692,1.028909 0.194119,-0.291174 0.361177,-0.566958 0.617347,-0.823127 0.02273,-0.02273 0.743637,-0.653254 0.754536,-0.68594 0.02368,-0.07107 0.223951,-0.736364 0.342968,-0.617347 0.209191,0.209191 0.145394,0.694145 0.342972,0.891722 0.06934,0.06934 0.270727,-0.60859 0.274375,-0.617346 0.119632,-0.287116 0.837229,-1.783445 1.097505,-1.783445 0.02365,0 0.117446,0.819341 0.137187,0.891722 0.198165,0.726605 0.426868,1.355209 0.823129,1.989227 0.07066,0.113057 0.131829,0.23204 0.205782,0.342972 0.210416,0.315624 0.277445,0.486007 0.548752,0.137186 0.10945,-0.140719 0.658791,-1.015336 0.823129,-1.097505 0.178332,-0.08916 0.657331,1.126114 0.823127,0.960319 0.04195,-0.04195 0.436861,-0.841129 0.48016,-0.754537 0.09778,0.19557 0.115771,0.437328 0.20578,0.617347 0.02708,0.05417 -0.01929,0.147934 0,0.205783 0.03234,0.09701 0.104854,0.177369 0.137189,0.274375 0.169669,0.509006 0.213363,1.059231 0.342971,1.577663 0.410065,1.640263 0.755185,3.295123 1.166098,4.938773 0.212545,0.85018 0.495835,1.6825 0.685941,2.53798 0.09051,0.4073 0.130193,0.82435 0.205782,1.23469 0.143552,0.77929 0.36957,1.74176 0.480158,2.53798 0.187153,0.81257 0.10333,1.64978 0.205782,2.46938 0.140489,1.12393 0.408509,2.24732 0.617345,3.36111 0.129807,0.69231 0.0686,1.42432 0.0686,2.12642 0,0.1357 -0.03435,0.34277 0,0.48016 0.167582,0.67032 0.480158,1.3499 0.480158,2.05782"
       id="path2565" />
  </g>
</svg>
