<?xml version="1.0" encoding="UTF-8" standalone="no"?>
<svg
   xmlns:dc="http://purl.org/dc/elements/1.1/"
   xmlns:cc="http://creativecommons.org/ns#"
   xmlns:rdf="http://www.w3.org/1999/02/22-rdf-syntax-ns#"
   xmlns:svg="http://www.w3.org/2000/svg"
   xmlns="http://www.w3.org/2000/svg"
   xmlns:sodipodi="http://sodipodi.sourceforge.net/DTD/sodipodi-0.dtd"
   xmlns:inkscape="http://www.inkscape.org/namespaces/inkscape"
   width="114.0206mm"
   height="114.01213mm"
   viewBox="0 0 114.0206 114.01213"
   version="1.1"
   id="svg4163"
   inkscape:version="1.0.2-2 (e86c870879, 2021-01-15)"
   sodipodi:docname="clock.svg"
   inkscape:export-filename="C:\Users\Kilian\Desktop\crlc\PHP\clock.png"
   inkscape:export-xdpi="95.800003"
   inkscape:export-ydpi="95.800003">
  <defs
     id="defs4157" />
  <sodipodi:namedview
     id="base"
     pagecolor="#3e7344"
     bordercolor="#666666"
     borderopacity="1.0"
     inkscape:pageopacity="0"
     inkscape:pageshadow="2"
     inkscape:zoom="0.89130349"
     inkscape:cx="312.65083"
     inkscape:cy="251.78273"
     inkscape:document-units="mm"
     inkscape:current-layer="layer1"
     inkscape:document-rotation="0"
     showgrid="false"
     fit-margin-top="0"
     fit-margin-left="0"
     fit-margin-right="0"
     fit-margin-bottom="0"
     inkscape:window-width="1920"
     inkscape:window-height="1017"
     inkscape:window-x="-8"
     inkscape:window-y="-8"
     inkscape:window-maximized="1" />
  <metadata
     id="metadata4160">
    <rdf:RDF>
      <cc:Work
         rdf:about="">
        <dc:format>image/svg+xml</dc:format>
        <dc:type
           rdf:resource="http://purl.org/dc/dcmitype/StillImage" />
        <dc:title />
      </cc:Work>
    </rdf:RDF>
  </metadata>
  <g
     inkscape:label="Layer 1"
     inkscape:groupmode="layer"
     id="layer1"
     transform="translate(-41.979295,-57.557509)">
    <g
       id="g4826"
       transform="matrix(4.2333332,0,0,4.2333332,41.979295,57.553276)"
       style="fill:#000000;fill-opacity:1;stroke:none;stroke-opacity:1">
      <g
         id="g4756"
         style="fill:#000000;fill-opacity:1;stroke:none;stroke-opacity:1">
        <g
           id="g4754"
           style="fill:#000000;fill-opacity:1;stroke:none;stroke-opacity:1">
          <path
             d="M 13.466,0.001 C 6.041,0.001 0,6.042 0,13.467 c 0,7.425 6.041,13.466 13.466,13.466 7.427,0 13.468,-6.041 13.468,-13.466 0,-7.425 -6.041,-13.466 -13.468,-13.466 z m 0,25.715 c -6.755,0 -12.248,-5.495 -12.248,-12.249 0,-6.755 5.493,-12.25 12.248,-12.25 6.755,0 12.249,5.495 12.249,12.25 0,6.755 -5.494,12.249 -12.249,12.249 z"
             id="path4726"
             style="fill:#ffd040;fill-opacity:1;stroke:none;stroke-opacity:1" />
          <path
             d="M 9.314,4.605 8.816,3.617 8.271,3.893 8.772,4.884 c 0.177,-0.1 0.36,-0.191 0.542,-0.279 z"
             id="path4728"
             style="fill:#366c99;fill-opacity:1;stroke:none;stroke-opacity:1" />
          <path
             d="m 3.628,13.67 c 0,-0.206 0.019,-0.407 0.03,-0.61 H 2.26 v 1.221 H 3.658 C 3.646,14.078 3.628,13.877 3.628,13.67 Z"
             id="path4730"
             style="fill:#366c99;fill-opacity:1;stroke:none;stroke-opacity:1" />
          <path
             d="M 14.323,3.616 V 2.218 h -1.221 v 1.398 c 0.203,-0.012 0.404,-0.03 0.611,-0.03 0.206,-10e-4 0.408,0.018 0.61,0.03 z"
             id="path4732"
             style="fill:#366c99;fill-opacity:1;stroke:none;stroke-opacity:1" />
          <path
             d="M 24.062,9.058 23.786,8.514 22.683,9.075 c 0.094,0.18 0.185,0.362 0.266,0.55 z"
             id="path4734"
             style="fill:#366c99;fill-opacity:1;stroke:none;stroke-opacity:1" />
          <path
             d="m 19.053,5.126 c 0.174,0.108 0.344,0.22 0.508,0.338 L 20.173,4.514 19.66,4.183 Z"
             id="path4736"
             style="fill:#366c99;fill-opacity:1;stroke:none;stroke-opacity:1" />
          <path
             d="M 4.113,7.722 5.117,8.414 C 5.224,8.24 5.331,8.067 5.448,7.9 L 4.461,7.218 Z"
             id="path4738"
             style="fill:#366c99;fill-opacity:1;stroke:none;stroke-opacity:1" />
          <path
             d="m 17.863,22.856 0.746,1.478 0.545,-0.276 -0.741,-1.466 c -0.179,0.095 -0.364,0.18 -0.55,0.264 z"
             id="path4740"
             style="fill:#366c99;fill-opacity:1;stroke:none;stroke-opacity:1" />
          <path
             d="m 21.68,19.844 1.287,0.888 0.346,-0.502 -1.269,-0.875 c -0.114,0.167 -0.241,0.328 -0.364,0.489 z"
             id="path4742"
             style="fill:#366c99;fill-opacity:1;stroke:none;stroke-opacity:1" />
          <path
             d="m 23.77,13.06 c 0.013,0.204 0.031,0.405 0.031,0.61 0,0.207 -0.02,0.408 -0.031,0.611 h 1.397 V 13.06 Z"
             id="path4744"
             style="fill:#366c99;fill-opacity:1;stroke:none;stroke-opacity:1" />
          <path
             d="m 13.103,23.726 v 1.399 h 1.221 v -1.399 c -0.202,0.014 -0.404,0.032 -0.609,0.032 -0.208,-10e-4 -0.409,-0.021 -0.612,-0.032 z"
             id="path4746"
             style="fill:#366c99;fill-opacity:1;stroke:none;stroke-opacity:1" />
          <path
             d="m 7.253,23.438 0.514,0.332 0.89,-1.381 C 8.48,22.286 8.304,22.184 8.136,22.071 Z"
             id="path4748"
             style="fill:#366c99;fill-opacity:1;stroke:none;stroke-opacity:1" />
          <path
             d="m 3.365,18.896 0.277,0.543 1.364,-0.693 C 4.903,18.57 4.804,18.392 4.713,18.21 Z"
             id="path4750"
             style="fill:#366c99;fill-opacity:1;stroke:none;stroke-opacity:1" />
        </g>
      </g>
      <g
         id="g4758"
         style="fill:#000000;fill-opacity:1;stroke:none;stroke-opacity:1" />
      <g
         id="g4760"
         style="fill:#000000;fill-opacity:1;stroke:none;stroke-opacity:1" />
      <g
         id="g4762"
         style="fill:#000000;fill-opacity:1;stroke:none;stroke-opacity:1" />
      <g
         id="g4764"
         style="fill:#000000;fill-opacity:1;stroke:none;stroke-opacity:1" />
      <g
         id="g4766"
         style="fill:#000000;fill-opacity:1;stroke:none;stroke-opacity:1" />
      <g
         id="g4768"
         style="fill:#000000;fill-opacity:1;stroke:none;stroke-opacity:1" />
      <g
         id="g4770"
         style="fill:#000000;fill-opacity:1;stroke:none;stroke-opacity:1" />
      <g
         id="g4772"
         style="fill:#000000;fill-opacity:1;stroke:none;stroke-opacity:1" />
      <g
         id="g4774"
         style="fill:#000000;fill-opacity:1;stroke:none;stroke-opacity:1" />
      <g
         id="g4776"
         style="fill:#000000;fill-opacity:1;stroke:none;stroke-opacity:1" />
      <g
         id="g4778"
         style="fill:#000000;fill-opacity:1;stroke:none;stroke-opacity:1" />
      <g
         id="g4780"
         style="fill:#000000;fill-opacity:1;stroke:none;stroke-opacity:1" />
      <g
         id="g4782"
         style="fill:#000000;fill-opacity:1;stroke:none;stroke-opacity:1" />
      <g
         id="g4784"
         style="fill:#000000;fill-opacity:1;stroke:none;stroke-opacity:1" />
      <g
         id="g4786"
         style="fill:#000000;fill-opacity:1;stroke:none;stroke-opacity:1" />
    </g>
  </g>
</svg>
