<?xml version="1.0" encoding="UTF-8" standalone="no"?>
<svg
   xmlns:dc="http://purl.org/dc/elements/1.1/"
   xmlns:cc="http://creativecommons.org/ns#"
   xmlns:rdf="http://www.w3.org/1999/02/22-rdf-syntax-ns#"
   xmlns:svg="http://www.w3.org/2000/svg"
   xmlns="http://www.w3.org/2000/svg"
   xmlns:sodipodi="http://sodipodi.sourceforge.net/DTD/sodipodi-0.dtd"
   xmlns:inkscape="http://www.inkscape.org/namespaces/inkscape"
   width="496.85403mm"
   height="216.73108mm"
   viewBox="0 0 496.85403 216.73108"
   version="1.1"
   id="svg8"
   inkscape:version="1.0.2-2 (e86c870879, 2021-01-15)"
   sodipodi:docname="dominance.svg">
  <defs
     id="defs2" />
  <sodipodi:namedview
     id="base"
     pagecolor="#ffffff"
     bordercolor="#666666"
     borderopacity="1.0"
     inkscape:pageopacity="0.0"
     inkscape:pageshadow="2"
     inkscape:zoom="0.48215445"
     inkscape:cx="1079.0623"
     inkscape:cy="367.50344"
     inkscape:document-units="mm"
     inkscape:current-layer="layer1"
     inkscape:document-rotation="0"
     showgrid="false"
     fit-margin-top="0"
     fit-margin-left="0"
     fit-margin-right="0"
     fit-margin-bottom="0"
     inkscape:window-width="1920"
     inkscape:window-height="1017"
     inkscape:window-x="-8"
     inkscape:window-y="-8"
     inkscape:window-maximized="1" />
  <metadata
     id="metadata5">
    <rdf:RDF>
      <cc:Work
         rdf:about="">
        <dc:format>image/svg+xml</dc:format>
        <dc:type
           rdf:resource="http://purl.org/dc/dcmitype/StillImage" />
        <dc:title></dc:title>
      </cc:Work>
    </rdf:RDF>
  </metadata>
  <g
     inkscape:label="Layer 1"
     inkscape:groupmode="layer"
     id="layer1"
     transform="translate(64.753057,-22.57485)">
    <g
       id="g912"
       transform="matrix(0.26458333,0,0,0.26458333,-64.753057,60.281655)">
      <g
         transform="translate(1,1)"
         id="g847">
	<path
   style="fill:#ffd94a;fill-opacity:1"
   d="m 267.8,20.493 c 0,9.387 -7.68,17.067 -17.067,17.067 -9.387,0 -17.067,-7.68 -17.067,-17.067 0,-9.387 7.68,-17.067 17.067,-17.067 9.387,10e-4 17.067,7.681 17.067,17.067 z m -128,17.067 c 0,9.387 -7.68,17.067 -17.067,17.067 -9.387,0 -17.067,-7.68 -17.067,-17.067 0,-9.387 7.68,-17.067 17.067,-17.067 9.387,0 17.067,7.68 17.067,17.067 z m 256,0 c 0,9.387 -7.68,17.067 -17.067,17.067 -9.387,0 -17.067,-7.68 -17.067,-17.067 0,-9.387 7.68,-17.067 17.067,-17.067 9.387,0 17.067,7.68 17.067,17.067 z"
   id="path833" />

	<path
   style="fill:#ffd0a1"
   d="m 395.8,242.36 v 17.067 c 0,9.387 -7.68,17.067 -17.067,17.067 l -17.067,34.133 v 0 c -17.067,17.067 -61.44,25.6 -61.44,25.6 v 0 c -4.267,-17.92 -16.213,-42.667 -48.64,-42.667 -32.427,0 -45.227,24.747 -48.64,42.667 v 0 c 0,0 -43.52,-8.533 -61.44,-24.747 0,0 0,0 0,-0.853 l -17.92,-34.133 c -9.387,0 -17.067,-7.68 -17.067,-17.067 V 242.36 c 0,-10.24 6.827,-17.067 17.067,-17.067 v -51.2 h 256 v 51.2 c 9.387,0 16.214,6.827 16.214,17.067"
   id="path835" />

	<polygon
   style="fill:#ffd94a;fill-opacity:1"
   points="250.733,37.56 301.933,105.827 378.733,54.627 378.733,174.093 122.733,174.093 122.733,54.627 199.533,105.827 "
   id="polygon837" />

	<path
   style="fill:#eed2ff"
   d="m 294.253,498.36 h -87.04 c 17.92,-25.6 43.52,-34.133 43.52,-34.133 0,0 25.6,8.533 43.52,34.133"
   id="path839" />

	<path
   style="fill:#ffd94a;fill-opacity:1"
   d="m 353.133,413.027 c 42.667,0 76.8,8.533 93.867,17.067 -68.267,59.733 -152.747,68.267 -152.747,68.267 -17.92,-25.6 -43.52,-34.133 -43.52,-34.133 0,0 -25.6,8.533 -43.52,34.133 0,0 -84.48,-8.533 -152.747,-68.267 17.067,-8.533 51.2,-17.067 93.867,-17.067 h 8.533 c 17.067,12.8 29.867,34.133 93.867,34.133 64,0 81.067,-21.333 96.427,-34.133 z"
   id="path841" />

	<path
   style="fill:#3776ab;fill-opacity:1"
   d="M 498.2,498.36 H 294.253 c 0,0 84.48,-8.533 152.747,-68.267 12.8,11.093 21.333,21.333 21.333,21.333 0,0 22.187,23.041 29.867,46.934 z m -290.987,0 H 3.267 c 7.68,-23.893 29.867,-46.933 29.867,-46.933 0,0 8.533,-10.24 21.333,-21.333 68.266,59.733 152.746,68.266 152.746,68.266 z"
   id="path843" />

	<path
   style="fill:#ecf4f7"
   d="m 202.093,336.227 c 4.267,-17.92 16.213,-42.667 48.64,-42.667 33.28,0 45.227,24.747 48.64,42.667 v 0 c 0,0 44.373,-8.533 61.44,-25.6 -5.12,51.2 -22.187,84.48 -48.64,102.4 -17.067,11.947 -38.4,17.067 -62.293,17.067 -22.187,0 -42.667,-5.973 -58.88,-17.92 -27.307,-19.627 -46.08,-53.76 -51.2,-101.547 17.92,17.066 61.44,25.6 62.293,25.6 z"
   id="path845" />

</g>
      <path
         style="fill:#51565f"
         d="m 4.267,503.627 c -0.853,0 -0.853,0 -1.707,0 C 0.853,502.774 0,500.214 0,498.507 8.533,473.76 29.867,450.72 30.72,449.867 c 1.707,-1.707 4.267,-1.707 5.973,0 1.707,1.707 2.56,3.413 0.853,5.973 L 7.68,502.773 c -0.853,0 -1.707,0.854 -3.413,0.854 z m 494.933,0 c -1.707,0 -2.56,-0.853 -3.413,-1.707 L 465.92,454.987 c -0.853,-1.707 -0.853,-4.267 0.853,-5.973 1.707,-1.707 4.267,-0.853 5.973,0 0.853,0.853 23.04,23.893 30.72,48.64 0.853,1.707 0,4.267 -2.56,5.12 -0.853,0.853 -0.853,0.853 -1.706,0.853 z m -203.947,0 c -1.707,0 -2.56,-0.853 -3.413,-1.707 -14.507,-20.48 -34.133,-29.867 -40.107,-32.427 -5.12,2.56 -25.6,11.093 -40.107,32.427 -0.853,1.707 -2.56,1.707 -4.267,1.707 -3.413,0 -87.04,-9.387 -155.307,-69.12 -0.853,-0.853 -1.707,-2.56 -1.707,-3.413 0,-1.707 0.853,-2.56 2.56,-3.413 17.067,-8.533 51.2,-17.92 95.573,-17.92 2.56,0 4.267,1.707 4.267,4.267 0,2.56 -1.707,4.267 -4.267,4.267 -38.4,0 -69.12,6.827 -86.187,13.653 58.88,48.64 128.853,60.587 143.36,62.293 17.92,-24.747 42.667,-33.28 44.373,-33.28 0.853,0 1.707,0 2.56,0 0.853,0 25.6,8.533 44.373,33.28 13.653,-1.707 83.627,-13.653 143.36,-62.293 -17.067,-6.827 -47.787,-13.653 -86.187,-13.653 -2.56,0 -4.267,-1.707 -4.267,-4.267 0,-2.56 1.707,-4.267 4.267,-4.267 44.373,0 78.507,9.387 95.573,17.92 0.853,0.853 2.56,1.707 2.56,3.413 0,1.706 0,2.56 -1.707,3.413 -68.263,59.733 -151.889,69.12 -155.303,69.12 z m -43.52,-68.267 c -63.147,0 -105.813,-45.227 -114.347,-121.173 -0.853,-0.853 -0.853,-1.707 -0.853,-2.56 L 121.173,281.76 C 110.933,280.053 102.4,271.52 102.4,260.427 V 243.36 c 0,-11.093 6.827,-18.773 17.067,-21.333 v -12.8 c 0,-2.56 1.707,-4.267 4.267,-4.267 2.56,0 4.267,1.707 4.267,4.267 v 17.067 c 0,2.56 -1.707,4.267 -4.267,4.267 -7.68,0 -12.8,5.12 -12.8,12.8 v 17.067 c 0,6.827 5.973,12.8 12.8,12.8 1.707,0 3.413,0.853 3.413,2.56 l 17.92,34.133 v 0 c 13.653,12.8 44.373,19.627 54.613,22.187 5.12,-18.773 18.773,-41.813 52.053,-41.813 33.28,0 46.933,23.04 52.053,41.813 10.24,-2.56 40.96,-10.24 54.613,-23.04 l 17.067,-34.133 c 0.853,-1.707 2.56,-2.56 3.413,-2.56 6.827,0 12.8,-5.973 12.8,-12.8 v -17.067 c 0,-7.68 -5.12,-12.8 -12.8,-12.8 -2.56,0 -4.267,-1.707 -4.267,-4.267 v -17.067 c 0,-2.56 1.707,-4.267 4.267,-4.267 2.56,0 4.267,1.707 4.267,4.267 v 12.8 c 10.24,1.707 17.067,9.387 17.067,21.333 v 17.067 c 0,11.093 -8.533,19.627 -18.773,21.333 l -15.36,30.72 v 0.853 C 355.84,414.027 298.667,435.36 251.733,435.36 Z M 146.773,321.867 c 10.24,65.707 48.64,104.96 104.96,104.96 60.587,0 95.573,-35.84 104.96,-104.96 -16.213,10.24 -41.813,17.067 -51.2,18.773 1.707,7.68 1.707,13.653 1.707,13.653 0,2.56 -1.707,4.267 -4.267,4.267 v 0 c -2.56,0 -4.267,-1.707 -4.267,-4.267 0,-0.853 0,-7.68 -1.707,-15.36 0,0 0,0 0,-0.853 v 0 c -4.267,-16.213 -14.507,-39.253 -45.227,-39.253 -30.72,0 -40.96,23.04 -45.227,39.253 v 0 c 0,0 0,0 0,0.853 -1.707,8.533 -1.707,15.36 -1.707,15.36 0,2.56 -1.707,4.267 -4.267,4.267 v 0 c -2.56,0 -4.267,-1.707 -4.267,-4.267 0,0 0,-5.973 1.707,-13.653 -10.238,-2.56 -34.131,-8.533 -51.198,-18.773 z M 260.267,332.96 H 243.2 c -2.56,0 -4.267,-1.707 -4.267,-4.267 0,-2.56 1.707,-4.267 4.267,-4.267 h 17.067 c 2.56,0 4.267,1.707 4.267,4.267 0,2.56 -1.707,4.267 -4.267,4.267 z m 42.666,-93.867 c -2.56,0 -4.267,-1.707 -4.267,-4.267 v -4.267 h -12.8 c -2.56,0 -4.267,-1.707 -4.267,-4.267 0,-2.56 1.707,-4.267 4.267,-4.267 H 320 c 2.56,0 4.267,1.707 4.267,4.267 0,2.56 -1.707,4.267 -4.267,4.267 h -12.8 v 4.267 c 0,2.561 -1.707,4.267 -4.267,4.267 z m -102.4,0 c -2.56,0 -4.267,-1.707 -4.267,-4.267 v -4.267 h -12.8 c -2.56,0 -4.267,-1.707 -4.267,-4.267 0,-2.56 1.707,-4.267 4.267,-4.267 H 217.6 c 2.56,0 4.267,1.707 4.267,4.267 0,2.56 -1.707,4.267 -4.267,4.267 h -12.8 v 4.267 c 0,2.561 -1.707,4.267 -4.267,4.267 z m 179.2,-59.733 h -256 c -2.56,0 -4.267,-1.707 -4.267,-4.267 V 59.04 C 110.08,57.333 102.4,48.8 102.4,38.56 c 0,-11.947 9.387,-21.333 21.333,-21.333 11.947,0 21.333,9.387 21.333,21.333 0,7.68 -4.267,15.36 -11.093,18.773 l 65.707,43.52 44.373,-59.733 C 236.373,37.707 230.4,30.027 230.4,21.493 230.4,9.546 239.787,0.16 251.733,0.16 c 11.947,0 21.333,9.387 21.333,21.333 0,9.387 -5.973,17.067 -13.653,19.627 l 44.373,59.733 65.707,-43.52 C 362.667,53.92 358.4,46.24 358.4,38.56 c 0,-11.947 9.387,-21.333 21.333,-21.333 11.947,0 21.333,9.387 21.333,21.333 0,10.24 -7.68,18.773 -17.067,20.48 v 116.053 c 10e-4,2.56 -1.706,4.267 -4.266,4.267 z M 128,170.827 H 375.467 V 63.307 l -69.973,46.933 c -1.707,0.853 -4.267,0.853 -5.973,-0.853 l -47.787,-64 -47.787,64 c -1.707,1.707 -4.267,2.56 -5.973,0.853 L 128,63.307 Z M 123.733,25.76 c -6.827,0 -12.8,5.973 -12.8,12.8 0,6.827 5.973,12.8 12.8,12.8 v 0 c 6.827,0 12.8,-5.973 12.8,-12.8 0,-6.827 -5.973,-12.8 -12.8,-12.8 z m 256,25.6 v 0 c 6.827,0 12.8,-5.973 12.8,-12.8 0,-6.827 -5.973,-12.8 -12.8,-12.8 -6.827,0 -12.8,5.973 -12.8,12.8 0,6.827 5.974,12.8 12.8,12.8 z m -128,-42.667 c -6.827,0 -12.8,5.973 -12.8,12.8 0,6.827 5.973,12.8 12.8,12.8 6.827,0 12.8,-5.973 12.8,-12.8 0,-6.827 -5.973,-12.8 -12.8,-12.8 z"
         id="path849" />
      <g
         id="g851">
</g>
      <g
         id="g853">
</g>
      <g
         id="g855">
</g>
      <g
         id="g857">
</g>
      <g
         id="g859">
</g>
      <g
         id="g861">
</g>
      <g
         id="g863">
</g>
      <g
         id="g865">
</g>
      <g
         id="g867">
</g>
      <g
         id="g869">
</g>
      <g
         id="g871">
</g>
      <g
         id="g873">
</g>
      <g
         id="g875">
</g>
      <g
         id="g877">
</g>
      <g
         id="g879">
</g>
    </g>
    <g
       id="g993"
       transform="matrix(0.26458333,0,0,0.26458333,116.96298,60.211143)">
      <g
         transform="translate(1,1)"
         id="g928">
	<g
   id="g918">
		<path
   style="fill:#aab1ba"
   d="m 353.449,47.64 c -44.373,5.973 -48.64,33.28 -102.4,33.28 -53.76,0 -58.88,-27.307 -102.4,-33.28 v -0.853 c 11.093,-16.213 29.867,-25.6 29.867,-25.6 C 194.729,11.8 217.769,4.12 251.049,4.12 c 76.8,0 102.4,43.52 102.4,43.52"
   id="path914" />

		<path
   style="fill:#aab1ba"
   d="m 354.302,47.64 c 13.653,-1.707 33.28,-0.853 33.28,-0.853 40.107,3.413 59.733,19.627 59.733,41.813 0,25.6 -68.267,72.533 -68.267,72.533 0,0 -17.067,-29.867 -51.2,-29.867 -34.133,0 -34.133,8.533 -76.8,8.533 -42.667,0 -42.667,-8.533 -68.267,-8.533 -34.133,0 -59.733,29.867 -59.733,29.867 0,0 -68.266,-46.933 -68.266,-72.533 0,-25.6 25.6,-42.667 76.8,-42.667 5.973,0 11.947,0 17.067,0.853 43.52,5.973 49.493,33.28 102.4,33.28 53.76,0.854 58.027,-26.453 103.253,-32.426 z"
   id="path916" />

	</g>

	<path
   style="fill:#3776ab;fill-opacity:1"
   d="m 204.969,493.08 c 10.24,2.56 18.773,0 23.893,-5.12 4.267,6.827 11.093,11.093 22.187,11.093 H 3.582 l 8.533,-34.133 c 8.533,-34.133 42.667,-42.667 76.8,-42.667 h 20.48 V 421.4 c 2.56,0.853 4.267,0.853 6.827,1.707 -0.853,7.68 0,15.36 7.68,23.893 7.68,7.68 16.213,9.387 23.893,7.68 0.853,7.68 4.267,15.36 13.653,20.48 9.386,5.12 17.92,4.267 24.747,1.707 2.561,6.827 7.681,12.8 18.774,16.213 z m 135.68,-17.92 c 9.387,-5.12 12.8,-13.653 13.653,-20.48 7.68,0.853 16.213,0 23.893,-7.68 7.68,-7.68 8.533,-16.213 7.68,-23.893 1.707,0 3.413,0 5.12,-0.853 v 0 h 23.04 c 34.133,0 68.267,8.533 76.8,42.667 l 8.533,34.133 H 251.902 c 11.093,0 17.92,-5.12 22.187,-11.093 5.973,5.12 13.653,7.68 24.747,5.12 10.24,-2.56 15.36,-9.387 18.773,-16.213 5.12,2.559 13.653,3.412 23.04,-1.708 z"
   id="path920" />

	<path
   style="fill:#ae938d"
   d="m 305.662,372.76 c -14.507,12.8 -33.28,23.893 -54.613,23.893 -21.333,0 -40.107,-11.093 -54.613,-23.893 l 3.413,-1.707 c 0,0 34.133,-8.533 51.2,-25.6 17.067,17.067 51.2,25.6 51.2,25.6 z"
   id="path922" />

	<path
   style="fill:#ecf4f7"
   d="m 385.022,423.107 c 0.853,7.68 0,16.213 -7.68,23.893 -7.68,7.68 -16.213,8.533 -23.893,7.68 -0.853,7.68 -4.267,15.36 -13.653,20.48 -9.386,5.12 -17.92,4.267 -24.747,0.853 -2.56,6.827 -7.68,13.653 -18.773,16.213 -10.24,2.56 -17.92,0 -24.747,-5.12 -4.267,5.973 -11.093,11.093 -22.187,11.093 -11.094,0 -17.92,-5.12 -22.187,-11.093 -5.973,5.12 -13.653,7.68 -24.747,5.12 -10.24,-2.56 -15.36,-9.387 -17.92,-16.213 -6.827,3.413 -15.36,4.267 -24.747,-0.853 -9.387,-5.12 -12.8,-12.8 -13.653,-20.48 -7.68,0.853 -16.213,0 -23.893,-7.68 -7.68,-7.68 -8.533,-16.213 -7.68,-23.893 -2.56,0 -4.267,-0.853 -6.827,-1.707 -5.12,-1.707 -10.24,-5.12 -14.507,-11.947 -6.827,-11.947 -3.413,-22.187 1.707,-30.72 l 67.413,-39.253 1.707,-0.853 c 5.12,8.533 16.213,22.187 29.867,34.133 14.507,12.8 33.28,23.893 54.613,23.893 21.333,0 40.107,-11.093 54.613,-23.893 13.653,-11.947 23.893,-26.453 29.867,-34.987 l 2.56,1.707 66.56,39.253 c 5.12,7.68 9.387,18.773 1.707,30.72 -4.267,7.68 -10.24,11.093 -16.213,12.8 0.854,0 -0.853,0.854 -2.56,0.854"
   id="path924" />

	<path
   style="fill:#ffd0a1"
   d="m 251.049,345.453 c -17.067,17.067 -51.2,25.6 -51.2,25.6 l -3.413,1.707 c -13.653,-11.947 -23.893,-26.453 -29.867,-34.133 -0.853,-0.853 -0.853,-0.853 -0.853,-1.707 -17.067,-25.6 -42.667,-76.8 -42.667,-76.8 -9.387,0 -17.067,-7.68 -17.067,-17.067 V 208.92 c 0,-9.387 7.68,-17.067 17.067,-17.067 v -28.16 -2.56 c 0,0 25.6,-29.867 59.733,-29.867 25.6,0 25.6,8.533 68.267,8.533 42.667,0 42.667,-8.533 76.8,-8.533 34.133,0 51.2,29.867 51.2,29.867 v 2.56 V 191 c 9.387,0 17.067,7.68 17.067,17.067 V 242.2 c 0,9.387 -7.68,17.067 -17.067,17.067 0,0 -25.6,51.2 -42.667,76.8 l -0.853,0.853 c -5.12,8.533 -16.213,22.187 -29.867,34.987 l -3.413,-1.707 c 0,0.853 -34.133,-7.68 -51.2,-24.747"
   id="path926" />

</g>
      <path
         style="fill:#51565f"
         d="m 499.516,504.32 c -1.707,0 -3.413,-1.707 -4.267,-3.413 l -8.533,-34.133 c -6.827,-26.453 -30.72,-39.253 -72.533,-39.253 -2.56,0 -4.267,-1.707 -4.267,-4.267 0,-2.56 1.707,-4.267 4.267,-4.267 46.08,0 73.387,15.36 81.067,46.08 l 8.533,34.133 c 0.853,2.56 -0.853,4.267 -3.413,5.12 z m -494.934,0 H 3.729 c -2.56,-0.853 -3.413,-2.56 -3.413,-5.12 l 8.533,-34.133 c 7.68,-30.72 34.987,-46.08 81.067,-46.08 2.56,0 4.267,1.707 4.267,4.267 0,2.56 -1.707,4.267 -4.267,4.267 -42.667,0 -65.707,12.8 -72.533,39.253 L 8.85,500.907 c -0.854,1.706 -2.561,3.413 -4.268,3.413 z m 247.467,0 c -9.387,0 -17.067,-3.413 -23.04,-9.387 -7.68,4.267 -15.36,5.973 -24.747,3.413 -9.387,-2.56 -15.36,-7.68 -19.627,-15.36 -8.533,2.56 -16.213,1.707 -24.747,-3.413 -8.533,-5.12 -12.8,-11.093 -15.36,-19.627 -8.533,0 -16.213,-2.56 -23.04,-9.387 -6.827,-6.827 -9.387,-14.507 -9.387,-23.04 -8.533,-1.707 -15.36,-6.827 -19.627,-15.36 -8.533,-15.36 -3.413,-27.307 1.707,-34.987 0,-0.853 0.853,-0.853 1.707,-1.707 l 42.667,-24.747 c 1.707,-0.853 4.267,-0.853 5.973,1.707 0.853,1.707 0.853,4.267 -1.707,5.973 l -41.813,23.893 c -5.973,9.387 -5.973,17.067 -1.707,25.6 3.413,6.827 8.533,10.24 16.213,11.093 l 31.573,-23.893 c 1.707,-1.707 4.267,-0.853 5.973,0.853 1.707,1.707 0.853,4.267 -0.853,5.973 l -31.573,23.893 c -0.853,6.827 1.707,12.8 6.827,17.92 5.12,5.12 11.093,7.68 17.92,6.827 l 23.893,-31.573 c 1.707,-1.707 4.267,-2.56 5.973,-0.853 1.707,1.707 2.56,4.267 0.853,5.973 l -23.893,31.573 c 0.853,6.827 4.267,11.947 11.093,16.213 6.827,3.413 12.8,4.267 19.627,1.707 l 15.36,-36.693 c 0.853,-2.56 3.413,-3.413 5.973,-2.56 2.56,0.853 3.413,3.413 2.56,5.973 l -15.36,36.693 c 2.56,6.827 7.68,10.24 14.507,12.8 6.827,1.707 13.653,0.853 18.773,-3.413 l 5.12,-39.253 c 0,-2.56 2.56,-4.267 5.12,-3.413 2.56,0 4.267,2.56 3.413,5.12 l -5.12,39.253 c 4.267,5.973 10.24,8.533 17.92,8.533 7.68,0 12.8,-2.56 17.92,-8.533 l -5.12,-39.253 c 0,-2.56 1.707,-4.267 3.413,-5.12 2.56,0 4.267,1.707 5.12,3.413 l 5.12,39.253 c 5.973,4.267 11.947,5.12 18.773,3.413 6.827,-1.707 11.947,-5.973 15.36,-12.8 l -15.36,-36.693 c -0.853,-2.56 0,-4.267 2.56,-5.973 2.56,-0.853 4.267,0 5.973,2.56 l 15.36,36.693 c 6.827,2.56 12.8,1.707 19.627,-1.707 6.827,-3.413 10.24,-8.533 11.093,-16.213 l -23.893,-31.573 c -1.707,-1.707 -0.853,-4.267 0.853,-5.973 1.707,-1.707 4.267,-0.853 5.973,0.853 l 23.893,31.573 c 6.827,0.853 12.8,-1.707 17.92,-6.827 5.12,-5.12 7.68,-11.093 6.827,-17.92 l -31.573,-23.893 c -1.707,-1.707 -2.56,-4.267 -0.853,-5.973 1.707,-1.707 4.267,-2.56 5.973,-0.853 l 31.573,23.893 c 6.827,-0.853 11.947,-4.267 16.213,-11.093 5.12,-8.533 4.267,-16.213 -1.707,-25.6 L 360.423,358.4 c -1.707,-0.853 -2.56,-3.413 -1.707,-5.973 0.853,-1.707 3.413,-2.56 5.973,-1.707 l 42.667,24.747 c 0.853,0 0.853,0.853 1.707,1.707 7.68,11.947 8.533,23.893 2.56,34.987 -5.12,8.533 -11.093,12.8 -19.627,15.36 0,8.533 -2.56,16.213 -9.387,23.04 -6.827,6.827 -14.507,9.387 -23.04,9.387 -1.707,8.533 -6.827,15.36 -15.36,19.627 -8.533,5.12 -16.213,5.973 -24.747,3.413 -4.267,7.68 -10.24,12.8 -19.627,15.36 -9.387,2.56 -17.067,1.707 -24.747,-3.413 -5.972,5.972 -13.652,9.385 -23.039,9.385 z m 0,-102.4 c -41.813,0 -73.387,-38.4 -88.747,-61.44 -15.36,-23.04 -36.693,-64.853 -41.813,-75.093 -10.24,-1.707 -18.773,-10.24 -18.773,-21.333 V 209.92 c 0,-11.947 9.387,-21.333 21.333,-21.333 2.56,0 4.267,1.707 4.267,4.267 0,2.56 -1.707,4.267 -4.267,4.267 -6.827,0 -12.8,5.973 -12.8,12.8 v 34.133 c 0,6.827 5.973,12.8 12.8,12.8 1.707,0 3.413,0.853 3.413,2.56 0,0.853 25.6,51.2 42.667,75.947 6.827,9.387 16.213,22.187 28.16,33.28 0.853,0 0.853,-0.853 1.707,-0.853 0,0 33.28,-8.533 49.493,-24.747 1.707,-1.707 4.267,-1.707 5.973,0 16.213,16.213 48.64,24.747 49.493,24.747 0.853,0 0.853,0.853 1.707,0.853 11.947,-11.093 21.333,-23.893 28.16,-33.28 17.067,-24.747 41.813,-75.947 42.667,-75.947 0.853,-1.707 2.56,-2.56 3.413,-2.56 6.827,0 12.8,-5.973 12.8,-12.8 V 209.92 c 0,-6.827 -5.973,-12.8 -12.8,-12.8 -2.56,0 -4.267,-1.707 -4.267,-4.267 0,-2.56 1.707,-4.267 4.267,-4.267 11.947,0 21.333,9.387 21.333,21.333 v 34.133 c 0,11.093 -8.533,19.627 -18.773,21.333 -5.12,10.24 -26.453,52.053 -41.813,75.093 -16.213,23.042 -47.787,61.442 -89.6,61.442 z m -46.08,-26.453 c 13.653,10.24 29.013,17.92 46.08,17.92 17.067,0 33.28,-7.68 46.08,-17.92 -8.533,-2.56 -31.573,-10.24 -46.08,-23.04 -14.507,12.8 -37.547,20.48 -46.08,23.04 z m 54.613,-50.347 h -17.067 c -2.56,0 -4.267,-1.707 -4.267,-4.267 0,-2.56 1.707,-4.267 4.267,-4.267 h 17.067 c 2.56,0 4.267,1.707 4.267,4.267 0,2.56 -1.707,4.267 -4.267,4.267 z m 51.2,-17.067 c -1.707,0 -40.107,0 -59.733,-23.04 -19.627,22.187 -58.027,23.04 -59.733,23.04 -2.56,0 -4.267,-1.707 -4.267,-4.267 0,-2.56 1.707,-4.267 4.267,-4.267 0,0 39.253,0 55.467,-23.04 v -23.893 c 0,-2.56 1.707,-4.267 4.267,-4.267 2.56,0 4.267,1.707 4.267,4.267 v 23.893 c 16.213,22.187 55.467,23.04 55.467,23.04 2.56,0 4.267,1.707 4.267,4.267 -0.002,2.561 -1.709,4.267 -4.269,4.267 z m -8.533,-85.333 c -2.56,0 -4.267,-1.707 -4.267,-4.267 v -4.267 h -12.8 c -2.56,0 -4.267,-1.707 -4.267,-4.267 0,-2.56 1.707,-4.267 4.267,-4.267 h 34.133 c 2.56,0 4.267,1.707 4.267,4.267 0,2.56 -1.707,4.267 -4.267,4.267 h -12.8 v 4.267 c 0.001,2.56 -1.706,4.267 -4.266,4.267 z m -102.4,0 c -2.56,0 -4.267,-1.707 -4.267,-4.267 v -4.267 h -12.8 c -2.56,0 -4.267,-1.707 -4.267,-4.267 0,-2.56 1.707,-4.267 4.267,-4.267 h 34.133 c 2.56,0 4.267,1.707 4.267,4.267 0,2.56 -1.707,4.267 -4.267,4.267 h -12.8 v 4.267 c 0.001,2.56 -1.706,4.267 -4.266,4.267 z m -76.8,-55.467 c -0.853,0 -1.707,0 -2.56,-0.853 -6.827,-5.12 -69.973,-48.64 -69.973,-75.947 0,-29.867 29.867,-46.933 81.067,-46.933 30.72,0 46.933,9.387 61.44,17.92 14.507,8.533 29.013,16.213 58.027,16.213 29.013,0 42.667,-7.68 57.173,-16.213 10.24,-5.973 21.333,-11.947 37.547,-15.36 -9.387,-11.093 -37.547,-36.693 -94.72,-36.693 -27.307,0 -51.2,5.973 -69.973,16.213 -1.707,0.853 -4.267,0.853 -5.973,-1.707 -0.853,-1.707 -0.853,-4.267 1.707,-5.973 C 198.289,5.973 223.889,0 252.049,0 c 78.507,0 104.96,44.373 105.813,46.08 0.853,0.853 0.853,2.56 0,4.267 -0.853,1.707 -1.707,2.56 -3.413,2.56 -18.773,2.56 -29.867,8.533 -41.813,15.36 -14.507,8.533 -30.72,17.92 -61.44,17.92 -30.72,0 -46.933,-9.387 -61.44,-17.92 -14.507,-8.533 -29.013,-16.213 -58.027,-16.213 -46.08,0 -72.533,13.653 -72.533,38.4 0,17.92 43.52,52.907 63.147,66.56 7.68,-7.68 30.72,-28.16 60.587,-28.16 11.947,0 18.773,1.707 25.6,3.413 9.387,2.56 18.773,5.12 42.667,5.12 22.187,0 32.427,-2.56 42.667,-4.267 9.387,-1.707 17.92,-4.267 34.133,-4.267 29.013,0 46.08,19.627 52.053,28.16 20.48,-14.507 63.147,-48.64 63.147,-66.56 0,-21.333 -19.627,-34.987 -56.32,-37.547 -2.56,0 -4.267,-2.56 -4.267,-4.267 0,-2.56 2.56,-4.267 4.267,-4.267 40.96,3.413 64,20.48 64,46.08 0,27.307 -63.147,70.827 -69.973,75.947 -0.853,0.853 -2.56,0.853 -3.413,0.853 -0.853,0 -2.56,-0.853 -2.56,-1.707 0,0 -16.213,-27.307 -47.787,-27.307 -15.36,0 -23.893,1.707 -32.427,3.413 -10.24,2.56 -21.333,5.12 -44.373,5.12 -24.747,0 -34.987,-2.56 -44.373,-5.12 -6.827,-1.707 -12.8,-3.413 -23.893,-3.413 -31.573,0 -56.32,28.16 -56.32,28.16 0.851,0.002 -0.856,0.855 -1.709,0.855 z"
         id="path930" />
      <g
         id="g932">
</g>
      <g
         id="g934">
</g>
      <g
         id="g936">
</g>
      <g
         id="g938">
</g>
      <g
         id="g940">
</g>
      <g
         id="g942">
</g>
      <g
         id="g944">
</g>
      <g
         id="g946">
</g>
      <g
         id="g948">
</g>
      <g
         id="g950">
</g>
      <g
         id="g952">
</g>
      <g
         id="g954">
</g>
      <g
         id="g956">
</g>
      <g
         id="g958">
</g>
      <g
         id="g960">
</g>
    </g>
    <g
       id="g1098"
       transform="matrix(0.26458333,0,0,0.26458333,298.83355,60.294355)">
      <g
         transform="translate(1,1)"
         id="g1025">
	<path
   style="fill:#ffd0a1"
   d="m 395.8,190.258 v 34.133 c 0,9.387 -7.68,17.067 -17.067,17.067 0,0 -25.6,68.267 -42.667,93.867 -2.56,3.413 -4.267,6.827 -7.68,11.093 -11.093,15.36 -30.72,31.573 -77.653,31.573 -46.933,0 -66.56,-16.213 -77.653,-31.573 -3.413,-4.267 -5.973,-7.68 -7.68,-11.093 -17.067,-25.6 -42.667,-93.867 -42.667,-93.867 -9.387,0 -17.067,-7.68 -17.067,-17.067 v -34.133 c 0,-9.387 7.68,-17.067 17.067,-17.067 v -34.133 c 0,0 51.2,8.533 128,8.533 76.8,0 128,-8.533 128,-8.533 v 34.133 c 9.387,0 17.067,7.68 17.067,17.067"
   id="path995" />

	<path
   style="fill:#f2edda"
   d="M 208.067,292.658 H 293.4 c 0,0 -8.533,34.133 -42.667,34.133 -34.134,0 -42.666,-34.133 -42.666,-34.133 z m 42.666,-51.2 c 5.12,0 8.533,4.267 8.533,8.533 0,4.267 -3.413,8.533 -8.533,8.533 -5.12,0 -8.533,-4.267 -8.533,-8.533 0,-4.266 3.413,-8.533 8.533,-8.533 z"
   id="path997" />

	<g
   id="g1003">
		<path
   style="fill:#3776ab;fill-opacity:1"
   d="m 429.933,121.991 c 9.387,0 17.067,7.68 17.067,17.067 0,9.387 -7.68,17.067 -17.067,17.067 -9.387,0 -17.067,-7.68 -17.067,-17.067 0,-9.387 7.681,-17.067 17.067,-17.067"
   id="path999" />

		<path
   style="fill:#3776ab;fill-opacity:1"
   d="m 429.933,19.591 c 8.533,42.667 0,102.4 0,102.4 0,0 -40.96,-56.32 -58.027,-81.92 l -0.853,-1.707 c 15.36,-10.239 34.987,-18.773 58.88,-18.773"
   id="path1001" />

	</g>

	<path
   style="fill:#3776ab;fill-opacity:1"
   d="M 250.733,497.458 H 3.267 L 11.8,463.325 c 8.533,-25.6 25.6,-51.2 68.267,-51.2 H 114.2 l 0.853,0.853 c -5.973,11.093 -7.68,17.92 -7.68,17.92 0,0 28.16,-3.413 75.093,-31.573 -15.36,52.907 -11.093,81.067 -11.093,81.067 0,0 23.893,-14.507 54.613,-59.733 9.387,53.759 24.747,76.799 24.747,76.799 z m 247.467,0 H 250.733 c 0,0 15.36,-23.893 24.747,-77.653 30.72,45.227 54.613,59.733 54.613,59.733 0,0 4.267,-28.16 -11.093,-81.067 46.933,28.16 75.093,31.573 75.093,31.573 0,0 -1.707,-6.827 -7.68,-17.92 l 0.853,-0.853 H 421.4 c 42.667,0 59.733,25.6 68.267,51.2 z"
   id="path1005" />

	<g
   id="g1011">
		<path
   style="fill:#ecf4f7"
   d="m 359.107,372.018 c 13.653,17.067 22.187,30.72 27.307,40.96 5.973,11.093 7.68,17.92 7.68,17.92 0,0 -28.16,-3.413 -75.093,-31.573 15.36,52.907 11.093,81.067 11.093,81.067 0,0 -23.893,-14.507 -54.613,-59.733 -8.533,54.613 -24.747,77.653 -24.747,77.653 0,0 -15.36,-23.893 -24.747,-77.653 -30.72,45.227 -54.613,59.733 -54.613,59.733 0,0 -4.267,-28.16 11.093,-81.067 -46.933,28.16 -75.093,31.573 -75.093,31.573 0,0 1.707,-6.827 7.68,-17.92 5.12,-10.24 13.653,-23.893 27.307,-40.96 0,0 10.24,-13.653 29.013,-23.893 l 1.707,-1.707 c 11.093,14.507 30.72,31.573 77.653,31.573 47.787,0 66.56,-17.067 77.653,-31.573 l 0.853,0.853 c 17.92,10.24 29.867,24.747 29.867,24.747"
   id="path1007" />

		<path
   style="fill:#ecf4f7"
   d="m 360.813,48.604 17.92,90.453 c 0,0 -51.2,8.533 -128,8.533 -76.8,0 -128,-8.533 -128,-8.533 l 18.773,-88.747 1.707,-1.707 c 20.48,18.773 30.72,39.253 30.72,39.253 L 208.066,2.523 250.733,70.79 c -9.387,0 -17.067,7.68 -17.067,17.067 0,9.387 7.68,17.067 17.067,17.067 9.387,0 17.067,-7.68 17.067,-17.067 0,-9.387 -7.68,-17.067 -17.067,-17.067 L 293.4,2.525 327.533,87.858 c 0,0 11.093,-21.333 32.427,-40.107 z"
   id="path1009" />

	</g>

	<g
   id="g1017">
		<path
   style="fill:#3776ab;fill-opacity:1"
   d="m 131.267,39.218 -1.707,1.707 c -17.067,25.6 -58.027,80.213 -58.027,80.213 0,0 -8.533,-59.733 0,-102.4 23.894,0.853 44.374,9.387 59.734,20.48"
   id="path1013" />

		<path
   style="fill:#3776ab;fill-opacity:1"
   d="m 71.533,121.991 c 9.387,0 17.067,7.68 17.067,17.067 0,9.387 -7.68,17.067 -17.067,17.067 -9.387,0 -17.067,-7.68 -17.067,-17.067 0,-9.387 7.681,-17.067 17.067,-17.067"
   id="path1015" />

	</g>

	<g
   id="g1023">
		<polygon
   style="fill:#ffd94a;fill-opacity:1"
   points="293.4,2.525 250.733,70.791 208.067,2.525 "
   id="polygon1019" />

		<path
   style="fill:#ffd94a;fill-opacity:1"
   d="m 250.733,70.791 c 9.387,0 17.067,7.68 17.067,17.067 0,9.387 -7.68,17.067 -17.067,17.067 -9.387,0 -17.067,-7.68 -17.067,-17.067 0,-9.387 7.681,-17.067 17.067,-17.067"
   id="path1021" />

	</g>

</g>
      <path
         style="fill:#51565f"
         d="m 499.2,502.725 c -1.707,0 -3.413,-1.707 -4.267,-3.413 L 486.4,465.179 c -11.093,-32.427 -31.573,-47.787 -64,-47.787 -2.56,0 -4.267,-1.707 -4.267,-4.267 0,-2.56 1.707,-4.267 4.267,-4.267 36.693,0 60.587,17.92 72.533,53.76 l 8.533,34.133 c 0.853,2.56 -0.853,4.267 -3.413,5.12 0,0.854 -0.853,0.854 -0.853,0.854 z m -494.933,0 H 3.413 C 0.853,501.872 0,500.165 0,497.605 l 8.533,-34.133 c 11.947,-36.693 35.84,-54.613 72.533,-54.613 2.56,0 4.267,1.707 4.267,4.267 0,2.56 -1.707,4.267 -4.267,4.267 -32.427,0 -52.907,15.36 -64,48.64 l -8.533,34.133 c -0.853,0.852 -2.56,2.559 -4.266,2.559 z m 247.466,0 c -1.707,0 -2.56,-0.853 -3.413,-1.707 -0.853,-0.853 -14.507,-22.187 -23.04,-69.12 -28.16,39.253 -49.493,52.053 -50.347,52.907 -0.853,0.853 -2.56,0.853 -4.267,0 -1.707,-0.853 -2.56,-1.707 -2.56,-3.413 0,-0.853 -3.413,-25.6 8.533,-72.533 -41.813,23.893 -66.56,26.453 -68.267,26.453 -1.707,0 -2.56,0 -3.413,-1.707 -0.853,-0.853 -0.853,-2.56 -0.853,-4.267 0,-0.853 6.827,-23.893 35.84,-59.733 1.707,-1.707 4.267,-1.707 5.973,-0.853 1.707,1.707 2.56,4.267 0.853,5.973 -18.773,23.04 -28.16,40.96 -31.573,50.347 11.093,-2.56 34.133,-10.24 66.56,-29.013 1.707,-0.853 3.413,-0.853 5.12,0 1.707,0.853 1.707,2.56 1.707,4.267 -10.24,35.84 -11.093,59.733 -11.093,71.68 8.533,-6.827 26.453,-23.893 47.787,-54.613 0.853,-1.707 2.56,-2.56 4.267,-1.707 1.707,0 3.413,1.707 3.413,3.413 5.973,36.693 15.36,58.88 20.48,69.12 5.12,-10.24 14.507,-32.427 20.48,-69.12 0,-1.707 1.707,-3.413 3.413,-3.413 1.707,0 3.413,0 4.267,1.707 21.333,30.72 38.4,46.933 47.787,54.613 0,-11.093 -0.853,-35.84 -11.093,-71.68 -0.853,-1.707 0,-3.413 1.707,-4.267 1.707,-0.854 3.413,-0.853 5.12,0 32.427,18.773 55.467,26.453 66.56,29.013 -4.267,-9.387 -12.8,-26.453 -31.573,-49.493 -1.707,-1.707 -0.853,-4.267 0.853,-5.973 1.707,-1.707 4.267,-0.853 5.973,0.853 29.013,35.84 35.84,58.88 35.84,59.733 0,1.707 0,2.56 -0.853,4.267 -0.853,0.853 -2.56,1.707 -3.413,1.707 -0.853,0 -25.6,-3.413 -68.267,-26.453 11.947,46.933 8.533,71.68 8.533,72.533 0,1.707 -0.853,2.56 -2.56,3.413 -1.707,0.853 -2.56,0.853 -4.267,0 -0.853,-0.853 -22.187,-13.653 -50.347,-52.907 -9.387,46.933 -23.04,68.267 -23.04,69.12 -4.267,-0.001 -5.12,0.853 -6.827,0.853 z m 0,-119.467 c -59.733,0 -76.8,-26.453 -87.893,-42.667 l -1.707,-1.707 c -15.36,-23.04 -37.547,-79.36 -41.813,-92.16 -10.24,-1.707 -17.92,-10.24 -17.92,-21.333 v -34.133 c 0,-11.947 9.387,-21.333 21.333,-21.333 2.56,0 4.267,1.707 4.267,4.267 0,2.56 -1.707,4.267 -4.267,4.267 -6.827,0 -12.8,5.973 -12.8,12.8 v 34.133 c 0,6.827 5.973,12.8 12.8,12.8 1.707,0 3.413,0.853 4.267,2.56 0,0.853 25.6,68.267 41.813,93.013 l 1.707,1.707 c 10.24,15.36 25.6,38.4 80.213,38.4 54.613,0 69.973,-23.04 80.213,-38.4 l 1.707,-1.707 c 16.213,-24.747 41.813,-92.16 41.813,-93.013 0.853,-1.707 2.56,-2.56 4.267,-2.56 6.827,0 12.8,-5.973 12.8,-12.8 v -34.133 c 0,-6.827 -5.973,-12.8 -12.8,-12.8 -2.56,0 -4.267,-1.707 -4.267,-4.267 0,-2.56 1.707,-4.267 4.267,-4.267 11.947,0 21.333,9.387 21.333,21.333 v 34.133 c 0,11.093 -7.68,19.627 -17.92,21.333 -5.12,12.8 -26.453,69.12 -41.813,92.16 l -1.707,1.707 c -11.093,16.214 -28.159,42.667 -87.893,42.667 z m 0,-51.2 c -36.693,0 -46.933,-36.693 -46.933,-37.547 0,-0.853 0,-2.56 0.853,-3.413 0.853,-0.853 1.707,-1.707 3.413,-1.707 H 294.4 c 1.707,0 2.56,0.853 3.413,1.707 0.853,0.853 0.853,2.56 0.853,3.413 10e-4,0.854 -10.239,37.547 -46.933,37.547 z M 215.04,297.925 c 3.413,8.533 13.653,25.6 36.693,25.6 23.04,0 33.28,-17.067 36.693,-25.6 z m 36.693,-34.134 c -6.827,0 -12.8,-5.973 -12.8,-12.8 0,-6.827 5.973,-12.8 12.8,-12.8 6.827,0 12.8,5.973 12.8,12.8 0,6.827 -5.973,12.8 -12.8,12.8 z m 0,-17.066 c -2.56,0 -4.267,1.707 -4.267,4.267 0,2.56 1.707,4.267 4.267,4.267 2.56,0 4.267,-1.707 4.267,-4.267 0,-2.561 -1.707,-4.267 -4.267,-4.267 z m 51.2,-25.6 c -2.56,0 -4.267,-1.707 -4.267,-4.267 v -4.267 h -12.8 c -2.56,0 -4.267,-1.707 -4.267,-4.267 0,-2.56 1.707,-4.267 4.267,-4.267 H 320 c 2.56,0 4.267,1.707 4.267,4.267 0,2.56 -1.707,4.267 -4.267,4.267 h -12.8 v 4.267 c 0,2.56 -1.707,4.267 -4.267,4.267 z m -102.4,0 c -2.56,0 -4.267,-1.707 -4.267,-4.267 v -4.267 h -12.8 c -2.56,0 -4.267,-1.707 -4.267,-4.267 0,-2.56 1.707,-4.267 4.267,-4.267 H 217.6 c 2.56,0 4.267,1.707 4.267,4.267 0,2.56 -1.707,4.267 -4.267,4.267 h -12.8 v 4.267 c 0,2.56 -1.707,4.267 -4.267,4.267 z m 230.4,-59.734 c -11.947,0 -21.333,-9.387 -21.333,-21.333 0,-9.387 5.973,-17.067 13.653,-19.627 -7.68,-11.093 -25.6,-34.987 -38.4,-54.613 -1.707,-1.707 -0.853,-4.267 0.853,-5.973 1.707,-1.707 4.267,-0.853 5.973,0.853 11.947,17.067 27.307,39.253 35.84,51.2 1.707,-17.92 5.12,-56.32 -0.853,-87.04 -62.293,2.56 -94.72,64.853 -94.72,65.707 v 0 0 0 0 c 0,0 0,0.853 -0.853,0.853 v 0 l -0.853,0.853 v 0 0 0 0 c -0.853,0 -0.853,0 -1.707,0 -0.853,0 -0.853,0 -1.707,0 v 0 0 c 0,0 0,0 -0.853,0 v 0 0 c 0,0 -0.853,0 -0.853,-0.853 v 0 0 l -0.853,-0.853 v 0 0 0 L 293.547,12.912 258.56,68.378 c 8.533,2.56 14.507,11.093 14.507,20.48 0,11.947 -9.387,21.333 -21.333,21.333 -11.946,0 -21.334,-9.387 -21.334,-21.333 0,-9.387 5.973,-17.067 14.507,-20.48 L 209.92,12.911 179.2,90.564 c -0.853,2.56 -3.413,3.413 -5.12,2.56 -0.853,0 -1.707,-0.853 -2.56,-1.707 C 170.667,90.564 139.093,28.27 76.8,25.71 c -5.12,30.72 -2.56,68.267 -0.853,87.04 8.533,-11.947 24.747,-33.28 35.84,-51.2 1.707,-1.707 4.267,-2.56 5.973,-0.853 1.707,1.707 2.56,4.267 0.853,5.973 -12.8,19.627 -30.72,43.52 -38.4,54.613 7.68,3.413 13.653,11.093 13.653,19.627 0,11.947 -9.387,21.333 -21.333,21.333 -11.946,0 -21.333,-9.385 -21.333,-21.332 0,-10.24 6.827,-18.773 16.213,-20.48 -1.707,-14.507 -6.827,-63.147 0.853,-99.84 0,-1.707 2.56,-3.413 4.267,-3.413 56.32,0 90.453,44.373 101.547,63.147 l 30.72,-76.8 c 0,0 0,-0.853 0.853,-0.853 v 0 0 c 0,0 0,0 0.853,-0.853 0.853,-0.853 1.707,-0.853 2.56,-0.853 v 0 H 294.4 v 0 c 0.853,0 1.707,0.853 2.56,0.853 0,0 0,0 0.853,0.853 v 0 0 l 0.853,0.853 30.72,76.8 c 11.947,-18.773 45.227,-63.147 101.547,-63.147 1.707,0 3.413,1.707 4.267,3.413 7.68,36.693 2.56,84.48 0.853,99.84 9.387,2.56 16.213,11.093 16.213,20.48 10e-4,11.093 -9.386,20.48 -21.333,20.48 z m 0,-34.133 c -6.827,0 -12.8,5.973 -12.8,12.8 0,6.827 5.973,12.8 12.8,12.8 6.827,0 12.8,-5.973 12.8,-12.8 0,-6.827 -5.973,-12.8 -12.8,-12.8 z m -358.4,0 c -6.827,0 -12.8,5.973 -12.8,12.8 0,6.827 5.973,12.8 12.8,12.8 6.827,0 12.8,-5.973 12.8,-12.8 0,-6.827 -5.973,-12.8 -12.8,-12.8 z m 179.2,-51.2 c -6.827,0 -12.8,5.973 -12.8,12.8 0,6.827 5.973,12.8 12.8,12.8 6.827,0 12.8,-5.973 12.8,-12.8 0,-6.827 -5.973,-12.8 -12.8,-12.8 z m -34.986,-68.267 34.987,56.32 34.987,-56.32 z m 34.986,145.067 c -75.947,0 -128,-8.533 -128.853,-8.533 -0.853,0 -2.56,-0.853 -2.56,-1.707 -0.853,-0.853 -0.853,-1.707 -0.853,-3.413 L 128,96.538 c 0.853,-2.56 2.56,-4.267 5.12,-3.413 2.56,0.853 3.413,2.56 3.413,5.12 l -7.68,38.4 c 13.653,1.707 59.733,7.68 122.88,7.68 63.147,0 109.227,-5.973 122.88,-7.68 l -7.68,-38.4 c -0.853,-2.56 0.853,-4.267 3.413,-5.12 2.56,-0.853 4.267,0.853 5.12,3.413 L 384,139.204 c 0,0.853 0,2.56 -0.853,3.413 -0.853,0.853 -1.707,1.707 -2.56,1.707 -0.854,10e-4 -52.907,8.534 -128.854,8.534 z"
         id="path1027" />
      <g
         id="g1029">
</g>
      <g
         id="g1031">
</g>
      <g
         id="g1033">
</g>
      <g
         id="g1035">
</g>
      <g
         id="g1037">
</g>
      <g
         id="g1039">
</g>
      <g
         id="g1041">
</g>
      <g
         id="g1043">
</g>
      <g
         id="g1045">
</g>
      <g
         id="g1047">
</g>
      <g
         id="g1049">
</g>
      <g
         id="g1051">
</g>
      <g
         id="g1053">
</g>
      <g
         id="g1055">
</g>
      <g
         id="g1057">
</g>
      <text
         xml:space="preserve"
         style="font-size:133.333px;line-height:1.25;font-family:Alegreya;-inkscape-font-specification:Alegreya"
         x="-1208.2194"
         y="-43.62883"
         id="text1928"><tspan
           sodipodi:role="line"
           id="tspan1926"
           x="-1208.2194"
           y="-43.62883"
           style="font-size:133.333px">not</tspan></text>
      <text
         xml:space="preserve"
         style="font-size:133.333px;line-height:1.25;font-family:Alegreya;-inkscape-font-specification:Alegreya"
         x="-520.23529"
         y="-43.62883"
         id="text1928-0"><tspan
           sodipodi:role="line"
           id="tspan1926-4"
           x="-520.23529"
           y="-43.62883"
           style="font-size:133.333px">and</tspan></text>
      <text
         xml:space="preserve"
         style="font-size:133.333px;line-height:1.25;font-family:Alegreya;-inkscape-font-specification:Alegreya"
         x="201.31056"
         y="-43.62883"
         id="text1928-7"><tspan
           sodipodi:role="line"
           id="tspan1926-5"
           x="201.31056"
           y="-43.62883"
           style="font-size:133.333px">or</tspan></text>
      <text
         xml:space="preserve"
         style="font-size:26.6667px;line-height:1.25;font-family:Alegreya;-inkscape-font-specification:Alegreya"
         x="-1273.1722"
         y="647.46362"
         id="text1968"><tspan
           sodipodi:role="line"
           id="tspan1966"
           x="-1273.1722"
           y="647.46362"> 	<tspan
   style="font-size:133.333px"
   id="tspan1970">Haut</tspan></tspan></text>
      <text
         xml:space="preserve"
         style="font-size:133.333px;line-height:1.25;font-family:Alegreya;-inkscape-font-specification:Alegreya"
         x="-606.89911"
         y="644.4364"
         id="text1968-3"><tspan
           sodipodi:role="line"
           id="tspan1966-7"
           x="-606.89911"
           y="644.4364"
           style="font-size:133.333px">Moyen</tspan></text>
      <text
         xml:space="preserve"
         style="font-size:133.333px;line-height:1.25;font-family:Alegreya;-inkscape-font-specification:Alegreya"
         x="111.00958"
         y="653.86359"
         id="text1968-3-3"><tspan
           sodipodi:role="line"
           id="tspan1966-7-9"
           x="111.00958"
           y="653.86359"
           style="font-size:133.333px">Faible</tspan></text>
    </g>
  </g>
</svg>
