<?xml version="1.0" encoding="UTF-8" standalone="no"?>
<svg
   xmlns:dc="http://purl.org/dc/elements/1.1/"
   xmlns:cc="http://creativecommons.org/ns#"
   xmlns:rdf="http://www.w3.org/1999/02/22-rdf-syntax-ns#"
   xmlns:svg="http://www.w3.org/2000/svg"
   xmlns="http://www.w3.org/2000/svg"
   xmlns:sodipodi="http://sodipodi.sourceforge.net/DTD/sodipodi-0.dtd"
   xmlns:inkscape="http://www.inkscape.org/namespaces/inkscape"
   width="292.00327mm"
   height="143.96031mm"
   viewBox="0 0 292.00327 143.96031"
   version="1.1"
   id="svg1893"
   inkscape:version="1.0.2-2 (e86c870879, 2021-01-15)"
   sodipodi:docname="floatingPoint.svg">
  <defs
     id="defs1887">
    <inkscape:path-effect
       effect="bspline"
       id="path-effect2673"
       is_visible="true"
       lpeversion="1"
       weight="33.333333"
       steps="2"
       helper_size="0"
       apply_no_weight="true"
       apply_with_weight="true"
       only_selected="false" />
    <inkscape:path-effect
       effect="bspline"
       id="path-effect2665"
       is_visible="true"
       lpeversion="1"
       weight="33.333333"
       steps="2"
       helper_size="0"
       apply_no_weight="true"
       apply_with_weight="true"
       only_selected="false" />
    <inkscape:path-effect
       effect="bspline"
       id="path-effect2660"
       is_visible="true"
       lpeversion="1"
       weight="33.333333"
       steps="2"
       helper_size="0"
       apply_no_weight="true"
       apply_with_weight="true"
       only_selected="false" />
    <inkscape:path-effect
       effect="bspline"
       id="path-effect2637"
       is_visible="true"
       lpeversion="1"
       weight="33.333333"
       steps="2"
       helper_size="0"
       apply_no_weight="true"
       apply_with_weight="true"
       only_selected="false" />
    <inkscape:path-effect
       effect="bspline"
       id="path-effect2586"
       is_visible="true"
       lpeversion="1"
       weight="33.333333"
       steps="2"
       helper_size="0"
       apply_no_weight="true"
       apply_with_weight="true"
       only_selected="false" />
    <inkscape:path-effect
       effect="bspline"
       id="path-effect2561"
       is_visible="true"
       lpeversion="1"
       weight="33.333333"
       steps="2"
       helper_size="0"
       apply_no_weight="true"
       apply_with_weight="true"
       only_selected="false" />
    <inkscape:path-effect
       effect="bspline"
       id="path-effect2542"
       is_visible="true"
       lpeversion="1"
       weight="33.333333"
       steps="2"
       helper_size="0"
       apply_no_weight="true"
       apply_with_weight="true"
       only_selected="false" />
    <inkscape:path-effect
       effect="bspline"
       id="path-effect2535"
       is_visible="true"
       lpeversion="1"
       weight="33.333333"
       steps="2"
       helper_size="0"
       apply_no_weight="true"
       apply_with_weight="true"
       only_selected="false" />
    <inkscape:path-effect
       effect="bspline"
       id="path-effect2512"
       is_visible="true"
       lpeversion="1"
       weight="33.333333"
       steps="2"
       helper_size="0"
       apply_no_weight="true"
       apply_with_weight="true"
       only_selected="false" />
    <inkscape:path-effect
       effect="bspline"
       id="path-effect2508"
       is_visible="true"
       lpeversion="1"
       weight="33.333333"
       steps="2"
       helper_size="0"
       apply_no_weight="true"
       apply_with_weight="true"
       only_selected="false" />
    <inkscape:path-effect
       effect="bspline"
       id="path-effect2500"
       is_visible="true"
       lpeversion="1"
       weight="33.333333"
       steps="2"
       helper_size="0"
       apply_no_weight="true"
       apply_with_weight="true"
       only_selected="false" />
    <inkscape:path-effect
       effect="bspline"
       id="path-effect2488"
       is_visible="true"
       lpeversion="1"
       weight="33.333333"
       steps="2"
       helper_size="0"
       apply_no_weight="true"
       apply_with_weight="true"
       only_selected="false" />
    <inkscape:path-effect
       effect="bspline"
       id="path-effect2484"
       is_visible="true"
       lpeversion="1"
       weight="33.333333"
       steps="2"
       helper_size="0"
       apply_no_weight="true"
       apply_with_weight="true"
       only_selected="false" />
    <inkscape:path-effect
       effect="bspline"
       id="path-effect2476"
       is_visible="true"
       lpeversion="1"
       weight="33.333333"
       steps="2"
       helper_size="0"
       apply_no_weight="true"
       apply_with_weight="true"
       only_selected="false" />
  </defs>
  <sodipodi:namedview
     id="base"
     pagecolor="#ffffff"
     bordercolor="#666666"
     borderopacity="1.0"
     inkscape:pageopacity="0.0"
     inkscape:pageshadow="2"
     inkscape:zoom="0.48215445"
     inkscape:cx="615.33833"
     inkscape:cy="91.800352"
     inkscape:document-units="mm"
     inkscape:current-layer="layer1"
     inkscape:document-rotation="0"
     showgrid="false"
     fit-margin-top="0"
     fit-margin-left="0"
     fit-margin-right="0"
     fit-margin-bottom="0"
     inkscape:window-width="1920"
     inkscape:window-height="1017"
     inkscape:window-x="1912"
     inkscape:window-y="-8"
     inkscape:window-maximized="1" />
  <metadata
     id="metadata1890">
    <rdf:RDF>
      <cc:Work
         rdf:about="">
        <dc:format>image/svg+xml</dc:format>
        <dc:type
           rdf:resource="http://purl.org/dc/dcmitype/StillImage" />
        <dc:title></dc:title>
      </cc:Work>
    </rdf:RDF>
  </metadata>
  <g
     inkscape:label="Layer 1"
     inkscape:groupmode="layer"
     id="layer1"
     transform="translate(45.840389,-7.4453961)">
    <path
       style="fill:none;fill-opacity:1;stroke:#366c99;stroke-width:1.99552;stroke-miterlimit:4;stroke-dasharray:none;stroke-opacity:1"
       d="m -17.015102,100.60554 c 9.6045956,2.04689 19.2088856,4.09371 31.726049,3.38511 12.517163,-0.70861 27.946696,-4.172378 45.974682,-3.14885 18.027986,1.02352 38.653176,6.53407 56.995901,7.95101 18.34272,1.41694 34.40204,-1.25962 45.50209,-3.93626 11.10005,-2.67664 17.24038,-5.353186 25.58528,-6.061643 8.34491,-0.708457 18.89366,0.551092 29.44234,1.810633"
       id="path2663"
       inkscape:path-effect="#path-effect2665"
       inkscape:original-d="m -17.015102,100.60554 c 9.6045541,2.04708 19.2088441,4.0939 28.812868,6.14046 15.430413,-3.46365 30.859945,-6.927426 46.289521,-10.391526 20.626281,5.511026 41.251472,11.021566 61.876803,16.531966 16.06021,-2.67639 32.11953,-5.35295 48.17889,-8.02982 6.14083,-2.67639 12.28116,-5.352936 18.42135,-8.029806 10.54945,1.25987 21.0982,2.51942 31.64691,3.778726" />
    <path
       style="fill:none;fill-opacity:1;stroke:#366c99;stroke-width:1.95985;stroke-miterlimit:4;stroke-dasharray:none;stroke-opacity:1"
       d="m -39.090245,121.82464 c 16.182499,-3.9363 32.3648313,-7.87257 47.8913311,-7.65378 15.5264999,0.21879 30.3964529,4.59231 46.2509019,8.30989 15.85445,3.71757 32.692486,6.77904 46.469382,6.66962 13.77689,-0.10942 24.49197,-3.38952 35.86346,-6.12303 11.3715,-2.7335 23.39867,-4.92026 35.42625,-5.35758 12.02757,-0.43732 24.05475,0.87473 35.97293,2.84288 11.91817,1.96815 23.72668,4.59226 35.53504,7.21633"
       id="path2635"
       inkscape:path-effect="#path-effect2637"
       inkscape:original-d="m -39.090245,121.82464 c 16.182582,-3.93596 32.3649008,-7.87228 48.5469646,-11.80878 14.8708044,4.374 29.7407494,8.74755 44.6107334,13.12082 16.838954,3.06181 33.676978,6.12335 50.515047,9.18458 10.71587,-3.27995 21.43092,-6.56014 32.14605,-9.84055 12.02782,-2.18665 24.055,-4.37337 36.08215,-6.5604 12.02793,1.31233 24.05511,2.62434 36.08227,3.93622 11.80916,2.6245 23.61769,5.24852 35.42608,7.87244" />
    <path
       style="fill:#ffcf3f;fill-opacity:1;stroke:none;stroke-width:1;stroke-opacity:1"
       d="m 48.997532,109.31688 c -3.313834,-2.16974 -7.101059,-5.08906 -7.588797,-8.42352 -0.487739,-3.334468 2.381027,-7.159492 5.576622,-9.72382 3.195594,-2.564328 6.746048,-3.905608 10.612293,-4.22115 3.866245,-0.315542 8.04789,0.394548 12.584728,1.499193 4.536839,1.104645 9.428575,2.603725 16.332432,3.234875 6.903858,0.63115 15.81943,0.394455 23.11685,-0.16384 7.29741,-0.558294 12.82218,-1.414246 17.79294,-2.518877 4.97075,-1.104632 9.31019,-2.445914 14.0049,-1.932935 4.6947,0.512978 9.74424,2.879947 12.50563,5.365415 2.76139,2.485468 3.23478,5.089137 3.12034,7.483586 -0.11445,2.394453 -0.81662,4.579693 -3.26246,6.788803 -2.44584,2.2091 -6.6355,4.44225 -11.49532,6.4156 -4.85982,1.97334 -10.53364,3.73143 -17.63472,4.59936 -7.10108,0.86793 -15.70107,0.86793 -24.41966,0.82812 -8.7186,-0.0398 -17.397488,-0.11799 -24.459117,-0.82807 -7.061629,-0.71009 -12.426757,-2.05137 -16.529611,-3.4321 -4.102855,-1.38073 -6.943215,-2.80091 -10.25705,-4.97064 z"
       id="path2474"
       inkscape:path-effect="#path-effect2476"
       inkscape:original-d="m 49.470633,110.06624 c -3.786963,-2.91906 -7.574187,-5.83838 -11.361677,-8.75796 2.761838,-3.78704 5.681102,-7.57419 8.521256,-11.36168 3.550859,-1.34107 7.101313,-2.68235 10.651572,-4.02392 4.182075,0.71038 8.36372,1.42047 12.545184,2.13031 4.892196,1.49941 9.783932,2.99849 14.675498,4.49733 8.916209,-0.23644 17.831784,-0.47314 26.747284,-0.7101 5.68122,-0.86766 11.20414,-1.73555 16.80581,-2.60372 4.33989,-1.34107 8.67933,-2.68235 13.01859,-4.02393 5.05,2.36733 10.09953,4.7343 15.1489,7.10105 0.47368,2.60403 0.94707,5.2077 1.42021,7.81115 -0.70192,2.18559 -1.40409,4.37083 -2.10653,6.55585 -4.18939,2.23341 -8.37905,4.46656 -12.56897,6.69944 -5.52288,1.73611 -11.20361,3.47189 -16.80581,5.20744 -8.60006,2.6e-4 -17.20005,2.6e-4 -25.80047,0 -8.836779,-0.0786 -17.51566,-0.15754 -26.273884,-0.23671 -5.365078,-1.34107 -10.730206,-2.68235 -16.095708,-4.02392 -2.840212,-1.41998 -5.680572,-2.84016 -8.521255,-4.26063 z"
       sodipodi:nodetypes="cccccccccccccccccc" />
    <path
       style="fill:#eab226;fill-opacity:1;stroke:none;stroke-width:1;stroke-opacity:1"
       d="m 43.305548,101.19905 c 1.897057,1.00433 5.690852,3.01281 10.907382,4.77019 5.21653,1.75739 11.855536,3.26372 21.898047,4.04476 10.042511,0.78105 23.487899,0.83684 32.972433,0.78104 9.48454,-0.0558 15.00775,-0.22316 20.64267,-1.25534 5.63491,-1.03218 11.38127,-2.92903 15.92823,-4.93753 4.54697,-2.0085 7.89437,-4.12852 9.5817,-5.142209 1.68732,-1.013688 1.71448,-0.921378 1.77024,0.05497 0.0558,0.976342 0.14019,2.836672 -0.94738,4.840002 -1.08757,2.00333 -3.2913,4.09688 -7.22004,6.3946 -3.92875,2.29772 -9.46101,4.73191 -15.37487,6.2104 -5.91386,1.47848 -12.16234,1.98059 -20.29954,2.18776 -8.1372,0.20716 -18.162633,0.11936 -25.759482,-0.0626 -7.596849,-0.18197 -12.764729,-0.45812 -18.682317,-1.5627 -5.917588,-1.10459 -12.58455,-3.03762 -17.298921,-5.64127 -4.714371,-2.60365 -7.475838,-5.87796 -8.830116,-7.87818 -1.354278,-2.00023 -1.301063,-2.72624 -1.264004,-3.14855 0.03706,-0.42231 0.05798,-0.54086 0.06846,-0.60025 0.01048,-0.0594 0.01045,-0.0594 1.907511,0.94493 z"
       id="path2482"
       inkscape:path-effect="#path-effect2484"
       inkscape:original-d="m 41.40849,100.19473 c 3.794062,2.00875 7.587856,4.01723 11.381386,6.02544 6.639539,1.50666 13.278545,3.01299 19.917423,4.51908 13.446188,0.0561 26.891576,0.11185 40.336971,0.16738 5.52369,-0.16712 11.0469,-0.33448 16.56996,-0.50212 5.74686,-1.89668 11.49322,-3.79353 17.23945,-5.69069 3.34779,-2.11985 6.69519,-4.23987 10.04239,-6.360188 0.0274,0.0926 0.0546,0.1849 0.0815,0.27696 0.0847,1.860668 0.16912,3.720998 0.25328,5.581098 -2.23143,2.17617 -4.46302,4.24039 -6.69493,6.36019 -5.63475,2.45512 -11.15796,4.90988 -16.73733,7.36442 -6.24847,0.5024 -12.49695,1.00451 -18.74581,1.50636 -10.02556,-0.0875 -20.050995,-0.17534 -30.076881,-0.26342 -5.167823,-0.27589 -10.335704,-0.55203 -15.503953,-0.82845 -6.666963,-1.93284 -13.333926,-3.86586 -20.001283,-5.79919 -2.761311,-3.27417 -5.522775,-6.54848 -8.284557,-9.82311 0.05348,-0.72578 0.106699,-1.45179 0.15965,-2.17809 0.02119,-0.11829 0.04211,-0.23684 0.06276,-0.35567 z" />
    <path
       style="fill:#ffe861;fill-opacity:1;stroke:none;stroke-width:1;stroke-opacity:1"
       d="m 53.02438,97.109305 c -1.807888,-1.20414 -2.812128,-2.20838 -2.365889,-3.408051 0.446238,-1.199671 2.343097,-2.594422 5.04911,-3.291797 2.706014,-0.697374 6.220784,-0.697374 9.822315,-0.06428 3.601532,0.6331 7.38937,1.933404 11.490047,2.826029 4.100677,0.892625 8.563875,1.394735 14.254625,1.645778 5.69075,0.251044 12.608702,0.251044 18.355212,-0.111622 5.7465,-0.362665 10.32128,-1.087934 14.67302,-1.89692 4.35174,-0.808985 8.48019,-1.701626 11.75968,-2.184211 3.27949,-0.482586 5.70976,-0.555127 7.51672,-0.216512 1.80695,0.338615 2.99043,1.088153 3.64122,2.251995 0.65079,1.163842 0.76914,2.741822 -0.88776,4.319681 -1.65689,1.577859 -5.08899,3.15583 -9.81441,4.74816 -4.72541,1.59232 -10.74389,3.19889 -16.6822,4.17038 -5.93831,0.9715 -11.74057,1.30464 -17.73119,1.40926 -5.990617,0.10461 -12.141463,-0.0209 -17.301932,-0.48236 -5.160469,-0.46144 -9.25419,-1.24425 -13.207997,-2.24891 -3.953807,-1.00467 -7.75249,-2.23133 -10.951872,-3.54485 -3.199382,-1.31353 -5.810811,-2.717635 -7.618699,-3.921775 z"
       id="path2486"
       inkscape:path-effect="#path-effect2488"
       inkscape:original-d="m 52.22047,96.909143 c -1.003977,-1.00398 -2.008216,-2.00822 -3.01272,-3.01272 1.8972,-1.39454 3.794059,-2.78929 5.690693,-4.18434 3.515172,2.7e-4 7.029942,2.7e-4 10.544516,0 3.682553,1.28349 7.476273,2.56666 11.214012,3.84959 4.463643,0.50239 8.926841,1.0045 13.389864,1.50636 6.918503,-0.0555 13.836455,2.6e-4 20.754295,0 4.57522,-0.72503 9.15,-1.4503 13.72461,-2.17585 4.12889,-0.89241 8.25734,-1.78505 12.38562,-2.67798 2.43064,-0.0723 4.86091,-0.14482 7.29097,-0.21763 1.1838,0.74983 2.36728,1.49937 3.55053,2.24867 0.11861,1.5783 0.23696,3.15628 0.35505,4.73403 -3.43198,1.5783 -6.86408,3.156277 -10.29652,4.734027 -6.01845,1.6069 -12.03693,3.21347 -18.05579,4.8198 -5.85792,0.33502 -11.66008,0.66976 -17.49051,1.00424 -6.150832,-0.12527 -12.301678,-0.2508 -18.45291,-0.37659 -4.171132,-0.78986 -8.263461,-1.57996 -12.395588,-2.37033 -3.787037,-1.18327 -7.574185,-2.44565 -11.361677,-3.66888 -2.611268,-1.403897 -5.2227,-2.807997 -7.834445,-4.212397 z" />
    <path
       style="fill:#be8c00;fill-opacity:1;stroke:none;stroke-width:1;stroke-opacity:1"
       d="m 58.613234,95.903828 c 0.02964,0.631278 0.20717,1.538628 2.909693,2.722042 2.702524,1.183415 7.92958,2.64305 12.594609,3.76737 4.665028,1.12433 8.767773,1.91332 14.468391,2.33738 5.700618,0.42407 12.998763,0.48324 19.184633,0.30522 6.18587,-0.17801 11.25912,-0.59318 15.77638,-1.44239 4.51726,-0.84921 8.47835,-2.13238 11.77005,-3.20637 3.29171,-1.073992 5.91384,-1.938738 7.11329,-2.900964 1.19946,-0.962227 0.9763,-2.022238 -0.18126,-2.901056 -1.15756,-0.878818 -3.24969,-1.576192 -5.69063,-1.645997 -2.44095,-0.06981 -5.23044,0.488092 -9.3172,1.297073 -4.08675,0.808982 -9.47048,1.86899 -16.01203,2.287445 -6.54155,0.418455 -14.240569,0.195296 -20.55475,-0.139893 -6.314181,-0.335188 -11.24319,-0.782403 -14.861672,-1.38076 -3.618481,-0.598357 -5.926276,-1.347895 -7.928408,-1.811474 -2.002132,-0.463578 -3.698461,-0.641101 -5.158238,-0.364981 -1.459777,0.27612 -2.682708,1.005934 -3.35343,1.548481 -0.670722,0.542547 -0.789072,0.897596 -0.759428,1.528874 z"
       id="path2498"
       inkscape:path-effect="#path-effect2500"
       inkscape:original-d="m 58.465292,95.627446 c 0.177792,0.90762 0.355317,1.81497 0.532579,2.72206 5.227529,1.45996 10.454585,2.919594 15.681479,4.378984 4.103174,0.78929 8.205919,1.57828 12.308482,2.36702 7.298711,0.0594 14.596858,0.11862 21.894898,0.17752 5.07372,-0.41491 10.14697,-0.83008 15.22006,-1.24552 3.96151,-1.28296 7.9226,-2.56613 11.88351,-3.84959 2.6225,-0.864514 5.24463,-1.729264 7.86654,-2.594284 -0.2229,-1.05979 -0.44606,-2.1198 -0.66949,-3.1801 -2.09194,-0.69714 -4.18407,-1.39451 -6.2765,-2.09216 -2.78935,0.55818 -5.57884,1.11608 -8.36866,1.67373 -5.38369,1.06032 -10.76742,2.12033 -16.15153,3.18009 -7.69906,-0.2229 -15.398077,-0.44606 -23.097511,-0.66949 -4.928941,-0.44697 -9.857951,-0.89418 -14.787324,-1.34167 -2.307622,-0.7493 -4.615416,-1.49884 -6.923521,-2.24866 -1.69613,-0.17727 -3.392459,-0.35479 -5.089086,-0.53258 -1.222716,0.73011 -2.44565,1.45992 -3.668874,2.18949 -0.118089,0.35532 -0.236437,0.71037 -0.355052,1.06516 z" />
    <path
       style="fill:#366c99;fill-opacity:1;stroke:none;stroke-width:1;stroke-opacity:1"
       d="m 79.875189,95.291903 7.33775,0.9468 -2.130314,8.284557 -8.994661,-1.53856"
       id="path2502" />
    <path
       style="fill:#366c99;fill-opacity:1;stroke:none;stroke-width:1;stroke-opacity:1"
       d="m 117.11866,104.50091 8.70341,-1.59005 -3.84959,-7.699171 -7.19705,1.17161"
       id="path2504" />
    <path
       style="fill:#000000;fill-opacity:1;stroke:none;stroke-width:1;stroke-opacity:1"
       d="m 101.9981,89.636872 -7.18981,2.426194 -4.171866,-0.118354 11.243326,-3.96475 z"
       id="path2563"
       sodipodi:nodetypes="ccccc" />
    <path
       style="fill:#366c99;fill-opacity:1;stroke:none;stroke-width:1;stroke-opacity:1"
       d="m 101.82775,87.455073 c 0.0251,0.720796 0.0752,2.16201 0.33567,2.922713 0.26043,0.760704 0.73107,0.841256 1.09528,0.685891 0.36421,-0.155364 0.62214,-0.546862 0.65212,-1.383277 0.03,-0.836415 -0.16823,-2.117782 -0.41762,-2.822373 -0.24939,-0.704591 -0.54996,-0.832075 -0.81473,-0.845939 -0.26476,-0.01386 -0.49348,0.0859 -0.63343,0.225351 -0.13995,0.139447 -0.19123,0.318324 -0.21683,0.407608 -0.0256,0.08928 -0.0255,0.08923 -4.6e-4,0.810026 z"
       id="path2540-7"
       inkscape:path-effect="#path-effect2586"
       inkscape:original-d="m 101.80267,86.734277 c 0.0501,1.441594 0.10027,2.882808 0.15046,4.323648 0.47065,0.08095 0.94131,0.161405 1.41199,0.241667 0.25792,-0.391191 0.51583,-0.782702 0.77384,-1.174568 -0.19824,-1.281027 -0.39645,-2.562394 -0.59464,-3.844127 -0.30063,-0.127181 -0.60122,-0.254611 -0.90178,-0.382487 -0.22867,0.100186 -0.45743,0.199863 -0.68608,0.299263 -0.0509,0.179349 -0.10266,0.358087 -0.15384,0.536659 z" />
    <g
       id="g2549"
       transform="translate(-16.73733,-60.254388)">
      <path
         style="fill:#000000;fill-opacity:1;stroke:none;stroke-width:1;stroke-opacity:1"
         d="m 120.59946,149.83211 -22.013248,27.57573 1.775258,1.06516 21.53985,-27.45739 z"
         id="path2538" />
      <path
         style="fill:#366c99;fill-opacity:1;stroke:none;stroke-width:1;stroke-opacity:1"
         d="m 85.339708,190.66357 c 0.202305,0.53017 0.60679,1.5902 1.562325,2.35723 0.955536,0.76702 2.461864,1.24124 3.23578,1.42258 0.773916,0.18134 0.815758,0.0698 2.008336,-1.32511 1.192578,-1.39487 3.535759,-4.07278 5.153691,-6.33229 1.617931,-2.25951 2.51057,-4.10058 2.90812,-5.64871 0.39755,-1.54813 0.29992,-2.80341 0.16058,-3.46601 -0.13933,-0.6626 -0.32064,-0.73234 -1.269164,-0.61386 -0.948521,0.11848 -2.664065,0.42532 -4.177527,1.34592 -1.513463,0.9206 -2.824524,2.45483 -4.430285,4.47729 -1.605761,2.02246 -3.506108,4.53301 -4.44753,5.82331 -0.941422,1.29031 -0.923988,1.36005 -0.915311,1.39476 0.0087,0.0347 0.0087,0.0347 0.210985,0.56489 z"
         id="path2506"
         inkscape:path-effect="#path-effect2508"
         inkscape:original-d="m 85.137404,190.13339 c 0.404752,1.0603 0.809236,2.12033 1.213459,3.1801 1.506653,0.4745 3.012982,0.94871 4.519077,1.42267 0.04211,-0.11132 0.08395,-0.2229 0.125529,-0.33475 2.343539,-2.67776 4.686718,-5.35568 7.02968,-8.03391 0.89294,-1.84088 1.785581,-3.68195 2.677971,-5.52332 -0.0974,-1.25506 -0.195,-2.51034 -0.2929,-3.7659 -0.18106,-0.0695 -0.36238,-0.13921 -0.543965,-0.20922 -1.715346,0.30712 -3.430889,0.61397 -5.146728,0.92055 -1.310854,1.53456 -2.621917,3.06878 -3.933274,4.60277 -1.900156,2.51091 -3.800504,5.02146 -5.701152,7.5318 0.0177,0.07 0.03513,0.13974 0.0523,0.20921 z" />
      <path
         style="fill:#152452;fill-opacity:1;stroke:none;stroke-width:1;stroke-opacity:1"
         d="m 89.595239,192.48089 c 0.04446,0.0914 0.133218,0.27384 0.259036,0.37233 0.125818,0.0985 0.288538,0.11329 1.089731,-0.8286 0.801192,-0.94188 2.2411,-2.84039 3.587342,-4.91892 1.346241,-2.07853 2.598759,-4.33702 3.19564,-5.47614 0.596881,-1.13912 0.537685,-1.15886 0.118336,-0.53753 -0.419349,0.62134 -1.198477,1.88372 -2.140358,3.31379 -0.941881,1.43008 -2.046469,3.02779 -3.067242,4.34937 -1.020772,1.32157 -1.957695,2.36698 -2.458214,2.92667 -0.500519,0.5597 -0.564643,0.63369 -0.596687,0.67066 -0.03204,0.037 -0.03204,0.037 0.01242,0.12837 z"
         id="path2510"
         inkscape:path-effect="#path-effect2512"
         inkscape:original-d="m 89.550779,192.3895 c 0.08903,0.18273 0.177789,0.36518 0.266287,0.54738 0.163002,0.0151 0.325731,0.0298 0.488198,0.0444 1.440228,-1.89832 2.880133,-3.79683 4.319805,-5.69563 1.252834,-2.25831 2.505355,-4.51679 3.757636,-6.77559 -0.05891,-0.0194 -0.118086,-0.0392 -0.177525,-0.0592 -0.778893,1.2627 -1.558023,2.52508 -2.337429,3.78722 -1.104363,1.59803 -2.208951,3.19574 -3.313822,4.79321 -0.936699,1.04572 -1.873623,2.09113 -2.81083,3.1363 -0.06384,0.0742 -0.12795,0.1482 -0.19232,0.2219 z" />
      <path
         style="fill:#152452;fill-opacity:1;stroke:none;stroke-width:1;stroke-opacity:1"
         d="m 87.588432,191.0194 c -0.100093,-0.0175 -0.299972,-0.0526 -0.429322,-0.14638 -0.12935,-0.0938 -0.188423,-0.24612 0.496135,-1.2759 0.684557,-1.02978 2.112622,-2.93721 3.739558,-4.80422 1.626937,-1.86701 3.452699,-3.69353 4.383152,-4.5813 0.930453,-0.88777 0.965802,-0.83623 0.484113,-0.26187 -0.48169,0.57436 -1.480407,1.67126 -2.595465,2.97084 -1.115057,1.29957 -2.346406,2.80176 -3.335422,4.14726 -0.989015,1.3455 -1.735681,2.53429 -2.135729,3.16969 -0.400048,0.63539 -0.453494,0.71743 -0.480204,0.75842 -0.02671,0.041 -0.02672,0.041 -0.126816,0.0235 z"
         id="path2510-6"
         inkscape:path-effect="#path-effect2535"
         inkscape:original-d="m 87.688526,191.03694 c -0.200185,-0.0351 -0.400035,-0.0703 -0.599574,-0.10509 -0.05945,-0.15253 -0.11843,-0.30489 -0.177246,-0.45704 1.427802,-1.90769 2.855875,-3.81511 4.28429,-5.72241 1.825501,-1.82675 3.651248,-3.65329 5.477372,-5.47966 0.03488,0.0512 0.07023,0.10274 0.10584,0.15432 -0.99909,1.09679 -1.997811,2.19369 -2.996225,3.29079 -1.23172,1.50206 -2.463075,3.00424 -3.694117,4.50664 -0.747022,1.18864 -1.493682,2.37743 -2.240035,3.56642 -0.05374,0.0818 -0.10719,0.16383 -0.160293,0.24603 z" />
      <path
         style="fill:#366c99;fill-opacity:1;stroke:none;stroke-width:1;stroke-opacity:1"
         d="m 119.94853,149.89128 c 0.60166,0.54241 1.70627,1.46949 2.44584,1.78496 0.73957,0.31546 1.11434,0.0196 1.24257,-0.35502 0.12824,-0.37461 0.01,-0.82828 -0.59162,-1.41023 -0.60152,-0.58196 -1.68638,-1.29205 -2.37686,-1.57819 -0.69048,-0.28614 -0.98635,-0.14807 -1.17382,0.0394 -0.18747,0.18749 -0.26637,0.42421 -0.25638,0.62154 0.01,0.19733 0.1086,0.35511 0.71027,0.89752 z"
         id="path2540"
         inkscape:path-effect="#path-effect2542"
         inkscape:original-d="m 119.4453,149.50637 c 1.10487,0.92735 2.20948,1.85443 3.31382,2.78124 0.37505,-0.29561 0.74982,-0.59149 1.12433,-0.88763 -0.11809,-0.45342 -0.23644,-0.90709 -0.35505,-1.36103 -1.08464,-0.70985 -2.1695,-1.41995 -3.25465,-2.13031 -0.29562,0.13834 -0.59149,0.27641 -0.88763,0.41422 -0.0786,0.23697 -0.15754,0.47367 -0.2367,0.71011 0.0989,0.15807 0.19751,0.31586 0.29588,0.4734 z" />
    </g>
    <path
       style="fill:#366c99;fill-opacity:1;stroke:none;stroke-width:1;stroke-opacity:1"
       d="m 90.274407,106.05934 c 0.007,-0.23699 0.02092,-0.71121 0.299932,-1.08447 0.279016,-0.37326 0.822972,-0.64523 1.401916,-0.64513 0.578944,1e-4 1.192633,0.27207 1.544683,0.66269 0.35205,0.39063 0.442708,0.89971 0.509066,1.15761 0.06636,0.2579 0.108235,0.26487 0.29303,0.26833 0.184794,0.003 0.51256,0.003 0.686751,-0.0139 0.17419,-0.0174 0.195124,-0.0523 0.181202,-0.42179 -0.01392,-0.36951 -0.06274,-1.07386 -0.613537,-1.64929 -0.550798,-0.57542 -1.603834,-1.02174 -2.587267,-1.01834 -0.983432,0.003 -1.896997,0.45669 -2.364303,1.04963 -0.467306,0.59294 -0.488225,1.32519 -0.482329,1.69773 0.0059,0.37253 0.04327,0.38746 0.241992,0.39785 0.198722,0.0104 0.561361,0.0173 0.735609,-0.0104 0.174248,-0.0277 0.160302,-0.0905 0.153294,-0.12204 -0.007,-0.0315 -0.007,-0.0315 -3.9e-5,-0.26844 z"
       id="path2559"
       inkscape:path-effect="#path-effect2561"
       inkscape:original-d="m 90.267437,106.29632 c 0.01421,-0.47396 0.02816,-0.94818 0.04184,-1.42267 0.544237,-0.27172 1.088191,-0.5437 1.631889,-0.81594 0.613979,0.27225 1.227669,0.54422 1.841105,0.81594 0.09093,0.50937 0.181587,1.01845 0.271982,1.52728 0.04211,0.007 0.08395,0.0142 0.125531,0.0209 0.328044,2.6e-4 0.65581,2.6e-4 0.983319,0 0.02119,-0.0346 0.04211,-0.0695 0.06276,-0.10461 -0.04855,-0.70411 -0.09737,-1.40846 -0.146452,-2.11309 -1.052814,-0.44607 -2.10585,-0.89239 -3.15917,-1.33898 -0.913334,0.45357 -1.826895,0.90687 -2.740739,1.3599 -0.02066,0.73254 -0.04158,1.46479 -0.06276,2.19678 0.03513,0.007 0.07,0.0282 0.104609,0.0418 0.362913,0.007 0.725548,0.0142 1.087927,0.0209 -0.01368,-0.0625 -0.02763,-0.12526 -0.04184,-0.18829 z" />
    <path
       style="fill:none;fill-opacity:1;stroke:#000000;stroke-width:2;stroke-miterlimit:4;stroke-dasharray:none;stroke-opacity:1"
       d="M 82.372154,99.76972 82.490505,77.046367 95.904901,59.752269 v 0"
       id="path2589" />
    <path
       style="fill:none;fill-opacity:1;stroke:#000000;stroke-width:2;stroke-miterlimit:4;stroke-dasharray:none;stroke-opacity:1"
       d="M 120.19302,99.997713 120.07467,77.27436 106.66027,59.980262 v 0"
       id="path2589-5" />
    <circle
       style="fill:#000000;fill-opacity:1;stroke:#000000;stroke-width:1;stroke-opacity:1"
       id="path2611"
       cx="101.25927"
       cy="53.957508"
       r="13.373639" />
    <path
       style="fill:none;fill-opacity:1;stroke:#000000;stroke-width:2;stroke-miterlimit:4;stroke-dasharray:none;stroke-opacity:1"
       d="M 87.579587,52.928116 71.483879,50.324399 63.909428,33.99199"
       id="path2613" />
    <path
       style="fill:none;fill-opacity:1;stroke:#000000;stroke-width:2;stroke-miterlimit:4;stroke-dasharray:none;stroke-opacity:1"
       d="m 115.13663,54.158144 16.09571,-2.603717 7.57445,-16.332409"
       id="path2613-4" />
    <path
       style="fill:none;fill-opacity:1;stroke:#366c99;stroke-width:1.9574;stroke-miterlimit:4;stroke-dasharray:none;stroke-opacity:1"
       d="m -45.590956,134.38465 c 19.923381,5.25111 39.8464567,10.50214 62.549725,10.96537 22.703268,0.46322 48.185767,-3.86108 67.491263,-5.79158 19.305498,-1.93051 32.432838,-1.46719 48.340588,1.1584 15.90776,2.6256 34.595,7.41324 50.11653,9.03481 15.52152,1.62158 27.87668,0.0772 37.8383,-2.00783 9.96162,-2.08503 17.52907,-4.71048 25.09663,-7.33597"
       id="path2671"
       inkscape:path-effect="#path-effect2673"
       inkscape:original-d="m -45.590956,134.38465 c 19.923342,5.25126 39.8464283,10.50225 59.769254,15.7531 25.483776,-4.32429 50.966282,-8.64855 76.449032,-12.97316 13.12819,0.46359 26.25553,0.92691 39.38288,1.38997 18.68813,4.78803 37.37536,9.57573 56.06258,14.36314 12.35592,-1.54418 24.71108,-3.08856 37.06621,-4.63324 7.56816,-2.6254 15.13561,-5.25085 22.70308,-7.87661" />
    <text
       xml:space="preserve"
       style="font-size:50.8px;line-height:1.25;font-family:Alegreya;-inkscape-font-specification:Alegreya;stroke-width:0.264583"
       x="53.49437"
       y="33.099396"
       id="text4733"><tspan
         sodipodi:role="line"
         id="tspan4731"
         x="53.49437"
         y="33.099396"
         style="font-size:50.8px;stroke-width:0.264583">1</tspan></text>
    <text
       xml:space="preserve"
       style="font-size:50.8px;line-height:1.25;font-family:Alegreya;-inkscape-font-specification:Alegreya;stroke-width:0.264583"
       x="115.19057"
       y="35.427551"
       id="text4737"><tspan
         sodipodi:role="line"
         id="tspan4735"
         x="115.19057"
         y="35.427551"
         style="font-size:50.8px;stroke-width:0.264583">23</tspan></text>
  </g>
</svg>
