<?xml version="1.0" encoding="UTF-8" standalone="no"?>
<svg
   xmlns:dc="http://purl.org/dc/elements/1.1/"
   xmlns:cc="http://creativecommons.org/ns#"
   xmlns:rdf="http://www.w3.org/1999/02/22-rdf-syntax-ns#"
   xmlns:svg="http://www.w3.org/2000/svg"
   xmlns="http://www.w3.org/2000/svg"
   xmlns:sodipodi="http://sodipodi.sourceforge.net/DTD/sodipodi-0.dtd"
   xmlns:inkscape="http://www.inkscape.org/namespaces/inkscape"
   width="123.69987mm"
   height="123.44505mm"
   viewBox="0 0 123.69987 123.44505"
   version="1.1"
   id="svg2043"
   inkscape:version="1.0.2-2 (e86c870879, 2021-01-15)"
   sodipodi:docname="handGivingMoney.svg"
   inkscape:export-filename="C:\Users\Kilian\Desktop\crlc\PHP\handGivingMoney.png"
   inkscape:export-xdpi="95.800003"
   inkscape:export-ydpi="95.800003">
  <defs
     id="defs2037" />
  <sodipodi:namedview
     id="base"
     pagecolor="#ffffff"
     bordercolor="#666666"
     borderopacity="1.0"
     inkscape:pageopacity="0.0"
     inkscape:pageshadow="2"
     inkscape:zoom="0.32350236"
     inkscape:cx="394.00534"
     inkscape:cy="553.52379"
     inkscape:document-units="mm"
     inkscape:current-layer="layer1"
     inkscape:document-rotation="0"
     showgrid="false"
     fit-margin-top="0"
     fit-margin-left="0"
     fit-margin-right="0"
     fit-margin-bottom="0"
     inkscape:window-width="1920"
     inkscape:window-height="1017"
     inkscape:window-x="-8"
     inkscape:window-y="-8"
     inkscape:window-maximized="1" />
  <metadata
     id="metadata2040">
    <rdf:RDF>
      <cc:Work
         rdf:about="">
        <dc:format>image/svg+xml</dc:format>
        <dc:type
           rdf:resource="http://purl.org/dc/dcmitype/StillImage" />
        <dc:title />
      </cc:Work>
    </rdf:RDF>
  </metadata>
  <g
     inkscape:label="Layer 1"
     inkscape:groupmode="layer"
     id="layer1"
     transform="translate(-1.5860875,-1.713498)">
    <g
       id="g2667"
       transform="matrix(0.26458333,0,0,0.26458333,1.5860875,1.5859688)"
       style="fill:#ffe959;fill-opacity:1">
      <g
         id="g2610"
         style="fill:#ffe959;fill-opacity:1">
        <path
           d="m 467.41,88.59 c -0.674,-3.525 -4.069,-5.837 -7.605,-5.163 l -42.146,8.064 c -11.53,2.212 -21.351,9.398 -26.949,19.729 l -0.194,0.362 c -11.818,21.783 -28.697,40.974 -48.814,55.499 -6.849,4.946 -13.351,10.483 -19.326,16.457 l -60.944,60.937 c -7.711,5.854 -18.597,5.133 -25.47,-1.74 -3.665,-3.665 -5.684,-8.54 -5.684,-13.726 0,-5.193 2.019,-10.071 5.684,-13.736 l 44.022,-44.023 c 14.996,-14.995 18.445,-38.141 8.387,-56.285 -8.266,-14.91 -23.963,-24.172 -40.966,-24.172 -0.918,0 -5.224,0.227 -5.224,0.227 -11.391,0.711 -22.112,5.55 -30.188,13.626 l -28.461,28.461 c -6.746,6.745 -10.606,15.712 -10.869,25.249 l -0.544,19.758 -29.168,29.168 3.268,-80.271 c 0.113,-2.885 1.281,-5.616 3.293,-7.69 l 94.112,-97.15 c 5.622,-5.604 13.09,-8.689 21.035,-8.689 h 113.539 c 3.59,0 6.5,-2.91 6.5,-6.5 0,-3.59 -2.91,-6.5 -6.5,-6.5 H 264.657 c -11.434,0 -22.182,4.451 -30.263,12.532 -0.024,0.024 -0.049,0.049 -0.073,0.074 l -94.146,97.187 c -4.243,4.375 -6.711,10.139 -6.948,16.22 L 129.386,220.846 1.904,348.327 C 0.685,349.546 0,351.199 0,352.923 c 0,1.724 0.685,3.377 1.904,4.596 l 107.623,107.623 c 1.269,1.269 2.933,1.904 4.596,1.904 1.663,0 3.327,-0.635 4.596,-1.904 L 339.92,243.941 c 2.539,-2.539 2.539,-6.654 0,-9.192 l -25.187,-25.187 16.833,-16.831 c 5.487,-5.486 11.458,-10.57 17.745,-15.111 21.688,-15.66 39.888,-36.352 52.64,-59.856 l 0.196,-0.364 c 3.727,-6.876 10.273,-11.667 17.958,-13.141 l 42.144,-8.063 c 3.524,-0.675 5.836,-4.08 5.161,-7.606 z M 226.768,206.08 c -6.121,6.121 -9.491,14.263 -9.491,22.929 0,8.659 3.371,16.798 9.491,22.918 6.29,6.29 14.594,9.493 22.936,9.493 7.059,0 14.145,-2.294 20.056,-6.953 0.201,-0.158 0.392,-0.328 0.573,-0.509 l 18.733,-18.731 7.791,7.791 -179.062,179.06 -72.832,-72.832 179.061,-179.061 19.32,19.319 z m -5.584,-92.243 c 5.835,-5.834 13.579,-9.331 21.788,-9.843 0,0 3.764,-0.202 4.432,-0.202 12.28,0 23.62,6.696 29.597,17.475 7.261,13.1 4.708,29.873 -6.21,40.79 l -1.781,1.781 -36.712,-36.711 c -2.538,-2.538 -6.654,-2.538 -9.192,0 l -12.725,12.725 v -15.21 z m -35.527,44.877 c 0.171,-6.2 2.68,-12.03 7.066,-16.415 l 4.657,-4.657 v 15.209 l -11.889,11.889 z m 140.475,80.631 -212.009,212.008 -98.431,-98.43 212.009,-212.009 32.116,32.115 -7.282,7.282 -23.915,-23.916 c -2.538,-2.538 -6.654,-2.538 -9.192,0 L 31.174,344.649 c -2.539,2.539 -2.539,6.654 0,9.192 l 82.024,82.024 c 1.269,1.269 2.933,1.904 4.596,1.904 1.663,0 3.327,-0.635 4.596,-1.904 L 310.642,247.612 c 2.539,-2.539 2.539,-6.654 10e-4,-9.192 l -12.386,-12.387 7.282,-7.281 z"
           id="path2606"
           style="fill:#ffd040;fill-opacity:1" />
        <path
           d="m 192.243,274.803 c -18.173,-18.173 -41.779,-23.039 -53.74,-11.078 -11.961,11.961 -7.095,35.566 11.078,53.74 11.455,11.455 25.067,17.623 36.562,17.622 6.742,0 12.757,-2.123 17.179,-6.544 6.146,-6.146 8.063,-15.431 5.399,-26.144 -2.374,-9.544 -8.226,-19.344 -16.478,-27.596 z m 1.886,44.548 c -5.741,5.742 -21.674,2.604 -35.355,-11.078 -13.682,-13.682 -16.819,-29.614 -11.078,-35.355 1.803,-1.803 4.611,-2.73 8.04,-2.73 7.487,0 17.931,4.424 27.316,13.809 6.51,6.51 11.268,14.361 13.054,21.541 1.497,6.023 0.777,11.059 -1.977,13.813 z"
           id="path2608"
           style="fill:#ffe959;fill-opacity:1" />
      </g>
      <g
         id="g2612"
         style="fill:#ffe959;fill-opacity:1" />
      <g
         id="g2614"
         style="fill:#ffe959;fill-opacity:1" />
      <g
         id="g2616"
         style="fill:#ffe959;fill-opacity:1" />
      <g
         id="g2618"
         style="fill:#ffe959;fill-opacity:1" />
      <g
         id="g2620"
         style="fill:#ffe959;fill-opacity:1" />
      <g
         id="g2622"
         style="fill:#ffe959;fill-opacity:1" />
      <g
         id="g2624"
         style="fill:#ffe959;fill-opacity:1" />
      <g
         id="g2626"
         style="fill:#ffe959;fill-opacity:1" />
      <g
         id="g2628"
         style="fill:#ffe959;fill-opacity:1" />
      <g
         id="g2630"
         style="fill:#ffe959;fill-opacity:1" />
      <g
         id="g2632"
         style="fill:#ffe959;fill-opacity:1" />
      <g
         id="g2634"
         style="fill:#ffe959;fill-opacity:1" />
      <g
         id="g2636"
         style="fill:#ffe959;fill-opacity:1" />
      <g
         id="g2638"
         style="fill:#ffe959;fill-opacity:1" />
      <g
         id="g2640"
         style="fill:#ffe959;fill-opacity:1" />
    </g>
  </g>
</svg>
