<?xml version="1.0" encoding="UTF-8" standalone="no"?>
<svg
   xmlns:dc="http://purl.org/dc/elements/1.1/"
   xmlns:cc="http://creativecommons.org/ns#"
   xmlns:rdf="http://www.w3.org/1999/02/22-rdf-syntax-ns#"
   xmlns:svg="http://www.w3.org/2000/svg"
   xmlns="http://www.w3.org/2000/svg"
   xmlns:sodipodi="http://sodipodi.sourceforge.net/DTD/sodipodi-0.dtd"
   xmlns:inkscape="http://www.inkscape.org/namespaces/inkscape"
   width="158.87462mm"
   height="141.17082mm"
   viewBox="0 0 158.87462 141.17082"
   version="1.1"
   id="svg2675"
   inkscape:version="1.0.2-2 (e86c870879, 2021-01-15)"
   sodipodi:docname="handRecieving.svg"
   inkscape:export-filename="C:\Users\Kilian\Desktop\crlc\PHP\handRecieving.png"
   inkscape:export-xdpi="95.800003"
   inkscape:export-ydpi="95.800003">
  <defs
     id="defs2669" />
  <sodipodi:namedview
     id="base"
     pagecolor="#ffffff"
     bordercolor="#666666"
     borderopacity="1.0"
     inkscape:pageopacity="0.0"
     inkscape:pageshadow="2"
     inkscape:zoom="0.17814263"
     inkscape:cx="396.06463"
     inkscape:cy="558.39345"
     inkscape:document-units="mm"
     inkscape:current-layer="layer1"
     inkscape:document-rotation="0"
     showgrid="false"
     fit-margin-top="0"
     fit-margin-left="0"
     fit-margin-right="0"
     fit-margin-bottom="0"
     inkscape:window-width="1346"
     inkscape:window-height="1040"
     inkscape:window-x="104"
     inkscape:window-y="0"
     inkscape:window-maximized="0" />
  <metadata
     id="metadata2672">
    <rdf:RDF>
      <cc:Work
         rdf:about="">
        <dc:format>image/svg+xml</dc:format>
        <dc:type
           rdf:resource="http://purl.org/dc/dcmitype/StillImage" />
        <dc:title />
      </cc:Work>
    </rdf:RDF>
  </metadata>
  <g
     inkscape:label="Layer 1"
     inkscape:groupmode="layer"
     id="layer1"
     transform="translate(-1.041232,-0.42506639)">
    <g
       id="g3317"
       transform="matrix(0.79374999,0,0,0.79374999,1.041232,-8.4268335)"
       style="fill:#ffd040;fill-opacity:1;stroke:none;stroke-opacity:1">
      <g
         id="g3254"
         style="fill:#ffd040;fill-opacity:1;stroke:none;stroke-opacity:1">
        <g
           id="g3252"
           style="fill:#ffd040;fill-opacity:1;stroke:none;stroke-opacity:1">
          <g
             id="g3246"
             style="fill:#ffd040;fill-opacity:1;stroke:none;stroke-opacity:1">
            <path
               style="fill:#ffd040;fill-opacity:1;stroke:none;stroke-opacity:1"
               d="m 136.222,42.807 c 0,-17.454 -14.19,-31.655 -31.633,-31.655 -17.45,0 -31.651,14.201 -31.651,31.655 0,17.443 14.197,31.641 31.651,31.641 17.443,-10e-4 31.633,-14.202 31.633,-31.641 z m -31.634,26.59 c -14.677,0 -26.602,-11.928 -26.602,-26.594 0,-14.67 11.925,-26.605 26.602,-26.605 14.67,0 26.598,11.935 26.598,26.605 -0.003,14.67 -11.932,26.594 -26.598,26.594 z"
               id="path3238" />
            <path
               style="fill:#ffd040;fill-opacity:1;stroke:none;stroke-opacity:1"
               d="m 106.46,39.693 c -4.166,-1.775 -4.842,-2.731 -4.842,-4.341 0,-1.371 0.619,-3.003 3.6,-3.003 2.745,0 4.495,1.002 5.343,1.492 l 1.066,0.608 1.915,-5.071 -0.784,-0.447 c -1.689,-0.948 -3.497,-1.503 -5.519,-1.7 V 22.65 h -5.035 v 4.842 c -4.277,1.045 -6.986,4.245 -6.986,8.367 -0.011,5.103 4.212,7.455 8.335,9.076 3.579,1.446 4.32,2.874 4.32,4.57 0,0.959 -0.319,1.786 -0.927,2.394 -1.818,1.829 -6.442,1.22 -9.359,-0.709 l -1.12,-0.73 -1.84,5.125 0.651,0.458 c 1.643,1.174 4.112,1.979 6.639,2.197 v 4.699 h 5.035 v -5.025 c 4.427,-1.034 7.358,-4.474 7.358,-8.783 0.009,-4.37 -2.346,-7.198 -7.85,-9.438 z"
               id="path3240" />
            <path
               style="fill:#ffd040;fill-opacity:1;stroke:none;stroke-opacity:1"
               d="m 145.731,59.158 c -13.439,0 -24.383,10.937 -24.383,24.365 0,13.439 10.948,24.361 24.383,24.361 13.435,0 24.365,-10.923 24.365,-24.361 -0.004,-13.428 -10.927,-24.365 -24.365,-24.365 z m 0,44.396 c -11.055,0 -20.045,-8.986 -20.045,-20.031 0,-11.045 8.99,-20.031 20.045,-20.031 11.044,0 20.024,8.986 20.024,20.031 0,11.045 -8.98,20.031 -20.024,20.031 z"
               id="path3242" />
            <path
               style="fill:#ffd040;fill-opacity:1;stroke:none;stroke-opacity:1"
               d="m 147.245,80.932 c -3.038,-1.296 -3.525,-1.968 -3.525,-3.089 0,-1.36 0.837,-2.047 2.48,-2.047 2.022,0 3.285,0.719 3.958,1.109 l 1.066,0.598 1.621,-4.32 -0.773,-0.447 c -1.242,-0.705 -2.58,-1.142 -4.069,-1.306 v -3.522 h -4.355 v 3.765 c -3.207,0.859 -5.307,3.407 -5.307,6.56 0,4.037 3.296,5.887 6.506,7.158 2.609,1.045 3.135,2.022 3.121,3.253 0,0.651 -0.208,1.217 -0.608,1.632 -1.292,1.281 -4.681,0.848 -6.832,-0.565 l -1.113,-0.73 -1.585,4.373 0.641,0.455 c 1.242,0.884 3.081,1.503 4.975,1.711 v 3.611 h 4.32 l 0.021,-3.883 c 3.386,-0.87 5.604,-3.547 5.604,-6.896 -0.001,-4.374 -3.298,-6.267 -6.146,-7.42 z"
               id="path3244" />
          </g>
          <path
             style="fill:#ffd040;fill-opacity:1;stroke:none;stroke-opacity:1"
             d="M 0,172.647 H 31.555 V 110.071 H 0 Z M 6.288,116.363 H 25.263 V 166.36 H 6.288 Z"
             id="path3248" />
          <path
             style="fill:#ffd040;fill-opacity:1;stroke:none;stroke-opacity:1"
             d="m 199.299,148.733 c -1.142,-2.416 -12.154,-24.558 -25.091,-22.253 -3.572,0.655 -6.682,3.919 -10.991,8.432 -7.333,7.712 -17.386,18.288 -33.426,18.288 -9.781,0 -20.825,-3.969 -32.936,-11.828 l 25.113,-0.011 c 0,0 0.251,0.021 0.666,0.021 6.585,0 10.837,-3.579 10.837,-9.13 v -10.411 l -0.064,-0.623 c -0.73,-3.686 -4.037,-10.654 -11.23,-10.654 H 37.191 v 60.239 l 2.197,0.694 c 2.283,0.705 55.973,17.476 75.603,17.476 v 0 c 0,0 0.565,0.032 1.621,0.032 8.453,0 52.13,-1.782 82.228,-36.898 l 1.317,-1.546 z m -82.686,33.992 c -0.837,0 -1.306,-0.021 -1.482,-0.021 -16.634,0 -61.216,-13.331 -71.652,-16.516 V 116.86 h 78.692 c 3.361,0 4.71,4.262 5.003,5.354 v 10.042 c 0,2.351 -2.469,2.842 -4.549,2.842 l -45.022,-0.011 7.444,5.644 c 16.388,12.451 31.444,18.76 44.743,18.76 18.725,0 30.327,-12.175 37.986,-20.238 2.806,-2.96 5.995,-6.302 7.559,-6.596 6.106,-0.998 13.417,9.323 17.368,16.924 -28.258,31.523 -68.256,33.144 -76.09,33.144 z"
             id="path3250" />
        </g>
      </g>
      <g
         id="g3256"
         style="fill:#ffd040;fill-opacity:1;stroke:none;stroke-opacity:1" />
      <g
         id="g3258"
         style="fill:#ffd040;fill-opacity:1;stroke:none;stroke-opacity:1" />
      <g
         id="g3260"
         style="fill:#ffd040;fill-opacity:1;stroke:none;stroke-opacity:1" />
      <g
         id="g3262"
         style="fill:#ffd040;fill-opacity:1;stroke:none;stroke-opacity:1" />
      <g
         id="g3264"
         style="fill:#ffd040;fill-opacity:1;stroke:none;stroke-opacity:1" />
      <g
         id="g3266"
         style="fill:#ffd040;fill-opacity:1;stroke:none;stroke-opacity:1" />
      <g
         id="g3268"
         style="fill:#ffd040;fill-opacity:1;stroke:none;stroke-opacity:1" />
      <g
         id="g3270"
         style="fill:#ffd040;fill-opacity:1;stroke:none;stroke-opacity:1" />
      <g
         id="g3272"
         style="fill:#ffd040;fill-opacity:1;stroke:none;stroke-opacity:1" />
      <g
         id="g3274"
         style="fill:#ffd040;fill-opacity:1;stroke:none;stroke-opacity:1" />
      <g
         id="g3276"
         style="fill:#ffd040;fill-opacity:1;stroke:none;stroke-opacity:1" />
      <g
         id="g3278"
         style="fill:#ffd040;fill-opacity:1;stroke:none;stroke-opacity:1" />
      <g
         id="g3280"
         style="fill:#ffd040;fill-opacity:1;stroke:none;stroke-opacity:1" />
      <g
         id="g3282"
         style="fill:#ffd040;fill-opacity:1;stroke:none;stroke-opacity:1" />
      <g
         id="g3284"
         style="fill:#ffd040;fill-opacity:1;stroke:none;stroke-opacity:1" />
    </g>
  </g>
</svg>
