<?xml version="1.0" encoding="UTF-8" standalone="no"?>
<svg
   xmlns:dc="http://purl.org/dc/elements/1.1/"
   xmlns:cc="http://creativecommons.org/ns#"
   xmlns:rdf="http://www.w3.org/1999/02/22-rdf-syntax-ns#"
   xmlns:svg="http://www.w3.org/2000/svg"
   xmlns="http://www.w3.org/2000/svg"
   xmlns:sodipodi="http://sodipodi.sourceforge.net/DTD/sodipodi-0.dtd"
   xmlns:inkscape="http://www.inkscape.org/namespaces/inkscape"
   width="116.59869mm"
   height="132.4483mm"
   viewBox="0 0 116.59869 132.4483"
   version="1.1"
   id="svg1610"
   inkscape:version="1.0.2-2 (e86c870879, 2021-01-15)"
   sodipodi:docname="history.svg">
  <defs
     id="defs1604" />
  <sodipodi:namedview
     id="base"
     pagecolor="#ffffff"
     bordercolor="#666666"
     borderopacity="1.0"
     inkscape:pageopacity="0.0"
     inkscape:pageshadow="2"
     inkscape:zoom="0.68186937"
     inkscape:cx="362.79793"
     inkscape:cy="498.60981"
     inkscape:document-units="mm"
     inkscape:current-layer="layer1"
     inkscape:document-rotation="0"
     showgrid="false"
     fit-margin-top="0"
     fit-margin-left="0"
     fit-margin-right="0"
     fit-margin-bottom="0"
     inkscape:window-width="1920"
     inkscape:window-height="1017"
     inkscape:window-x="-8"
     inkscape:window-y="-8"
     inkscape:window-maximized="1" />
  <metadata
     id="metadata1607">
    <rdf:RDF>
      <cc:Work
         rdf:about="">
        <dc:format>image/svg+xml</dc:format>
        <dc:type
           rdf:resource="http://purl.org/dc/dcmitype/StillImage" />
        <dc:title></dc:title>
      </cc:Work>
    </rdf:RDF>
  </metadata>
  <g
     inkscape:label="Layer 1"
     inkscape:groupmode="layer"
     id="layer1"
     transform="translate(-59.104647,-65.381939)">
    <g
       id="g2243"
       transform="matrix(4.2333332,0,0,4.2333332,51.175614,65.381939)">
      <g
         id="g2183">
	<g
   id="g2181">
		<path
   d="m 28.327,13.357 v -1.735 l -0.25,-0.099 c -0.079,-0.031 -1.804,-0.698 -4.188,-0.808 v 0.792 c 1.729,0.085 3.104,0.483 3.646,0.663 v 16.084 c -1.117,-0.449 -2.403,-0.676 -3.827,-0.676 -3.489,0 -6.812,1.338 -7.812,1.777 v -6.39 l 0.465,0.513 v -4.58 H 15.17 v 4.58 l 0.465,-0.513 v 6.398 c -1.013,-0.419 -4.5,-1.745 -7.993,-1.745 -1.381,0 -2.603,0.212 -3.645,0.63 v -16.08 c 0.608,-0.203 2.264,-0.682 4.305,-0.682 0.146,0 0.288,0.012 0.434,0.017 V 10.714 C 8.59,10.71 8.448,10.697 8.302,10.697 c -2.721,0 -4.76,0.792 -4.844,0.825 l -0.25,0.099 v 1.607 c -0.823,0.154 -1.335,0.431 -1.335,0.88 0,2.342 0,16.562 0,16.562 h 12.196 c 0.422,0.376 1.038,0.617 1.729,0.617 0.691,0 1.308,-0.24 1.729,-0.617 h 11.889 c 0,0 0,-15.739 0,-16.562 0,-0.366 -0.415,-0.604 -1.089,-0.751 z"
   id="path2173" />

		<polygon
   points="13.159,15.41 14.794,15.41 14.794,6.861 17.539,6.861 17.539,15.41 19.175,15.41 19.175,6.861 21.286,6.861 21.286,15.41 22.921,15.41 22.921,6.861 24.505,6.861 24.505,5.806 7.774,5.806 7.774,6.861 9.411,6.861 9.411,15.41 11.047,15.41 11.047,6.861 13.159,6.861 "
   id="polygon2175"
   style="fill:#f7df1e;fill-opacity:1" />

		<polygon
   points="25.455,5.317 16.273,0 6.932,5.317 "
   id="polygon2177"
   style="fill:#f7df1e;fill-opacity:1" />

		<polygon
   points="25.193,16.939 24.505,16.939 24.505,16.333 24.505,15.727 23.845,15.727 8.702,15.727 7.934,15.727 7.934,16.939 7.353,16.939 7.353,18.155 25.193,18.155 "
   id="polygon2179"
   style="fill:#f7df1e;fill-opacity:1" />

	</g>

</g>
      <g
         id="g2185">
</g>
      <g
         id="g2187">
</g>
      <g
         id="g2189">
</g>
      <g
         id="g2191">
</g>
      <g
         id="g2193">
</g>
      <g
         id="g2195">
</g>
      <g
         id="g2197">
</g>
      <g
         id="g2199">
</g>
      <g
         id="g2201">
</g>
      <g
         id="g2203">
</g>
      <g
         id="g2205">
</g>
      <g
         id="g2207">
</g>
      <g
         id="g2209">
</g>
      <g
         id="g2211">
</g>
      <g
         id="g2213">
</g>
    </g>
    <text
       xml:space="preserve"
       style="font-size:25.4px;line-height:1.25;font-family:Alegreya;-inkscape-font-specification:Alegreya;stroke-width:0.264583"
       x="81.008675"
       y="168.37755"
       id="text2247"><tspan
         sodipodi:role="line"
         id="tspan2245"
         x="81.008675"
         y="168.37755"
         style="font-size:25.4px;stroke-width:0.264583">JS</tspan></text>
  </g>
</svg>
