<?xml version="1.0" encoding="UTF-8" standalone="no"?>
<svg
   xmlns:dc="http://purl.org/dc/elements/1.1/"
   xmlns:cc="http://creativecommons.org/ns#"
   xmlns:rdf="http://www.w3.org/1999/02/22-rdf-syntax-ns#"
   xmlns:svg="http://www.w3.org/2000/svg"
   xmlns="http://www.w3.org/2000/svg"
   xmlns:sodipodi="http://sodipodi.sourceforge.net/DTD/sodipodi-0.dtd"
   xmlns:inkscape="http://www.inkscape.org/namespaces/inkscape"
   width="145.59875mm"
   height="126.65195mm"
   viewBox="0 0 145.59875 126.65195"
   version="1.1"
   id="svg15702"
   inkscape:version="1.0.2-2 (e86c870879, 2021-01-15)"
   sodipodi:docname="houseAdresse.svg">
  <defs
     id="defs15696" />
  <sodipodi:namedview
     id="base"
     pagecolor="#ffffff"
     bordercolor="#666666"
     borderopacity="1.0"
     inkscape:pageopacity="0.0"
     inkscape:pageshadow="2"
     inkscape:zoom="0.68186937"
     inkscape:cx="263.31871"
     inkscape:cy="229.74619"
     inkscape:document-units="mm"
     inkscape:current-layer="layer1"
     inkscape:document-rotation="0"
     showgrid="false"
     fit-margin-top="0"
     fit-margin-left="0"
     fit-margin-right="0"
     fit-margin-bottom="0"
     inkscape:window-width="1920"
     inkscape:window-height="1017"
     inkscape:window-x="-8"
     inkscape:window-y="-8"
     inkscape:window-maximized="1" />
  <metadata
     id="metadata15699">
    <rdf:RDF>
      <cc:Work
         rdf:about="">
        <dc:format>image/svg+xml</dc:format>
        <dc:type
           rdf:resource="http://purl.org/dc/dcmitype/StillImage" />
        <dc:title></dc:title>
      </cc:Work>
    </rdf:RDF>
  </metadata>
  <g
     inkscape:label="Layer 1"
     inkscape:groupmode="layer"
     id="layer1"
     transform="translate(-61.836944,-101.51447)">
    <g
       id="g921"
       transform="matrix(0.26458333,0,0,0.26458333,79.703859,92.120705)">
      <g
         id="g855">
        <polygon
           style="fill:#f5d7b4"
           points="145.383,105.024 145.383,79.262 81.383,79.262 81.383,151.369 "
           id="polygon833" />
        <rect
           x="449.383"
           y="252.67799"
           style="fill:#ffe6d2"
           width="0.0020000001"
           height="146.584"
           id="rect835" />
        <path
           style="fill:#ffe6d2"
           d="M 241.387,102.059 81.383,217.92 v 181.342 h 320 V 217.918 Z m 0.044,258.03 c -40.629,-18.837 -85.692,-65.008 -85.692,-103.422 0,-27.743 22.49,-50.233 50.233,-50.233 13.842,0 26.373,5.601 35.459,14.657 9.086,-9.056 21.617,-14.657 35.459,-14.657 27.743,0 50.233,22.49 50.233,50.233 0,38.415 -45.063,84.585 -85.692,103.422 z"
           id="path837" />
        <path
           style="fill:#bea087"
           d="m 465.385,431.262 h -8.002 -432 -7.998 c -4.418,0 -8,3.582 -8,8 0,4.418 3.582,8 8,8 h 448 c 4.418,0 8,-3.582 8,-8 0,-4.418 -3.582,-8 -8,-8 z"
           id="path841" />
        <rect
           x="73.383003"
           y="47.262001"
           style="fill:#a03c3c"
           width="80"
           height="32"
           id="rect843" />
        <polygon
           style="fill:#d2b496"
           points="33.383,399.262 25.383,399.262 25.383,431.262 457.383,431.262 457.383,399.262 449.385,399.262 449.383,399.262 401.383,399.262 81.383,399.262 "
           id="polygon845" />
        <polygon
           style="fill:#f5d7b4"
           points="33.385,225.637 33.383,225.638 33.383,399.262 81.383,399.262 81.383,217.92 33.385,252.676 "
           id="polygon847" />
        <polygon
           style="fill:#f5d7b4"
           points="449.383,252.676 401.383,217.918 401.383,399.262 449.383,399.262 "
           id="polygon849" />
        <polygon
           style="fill:#d2b496"
           points="449.383,252.676 449.385,252.678 449.385,225.639 241.387,75.02 33.385,225.637 33.385,252.676 81.383,217.92 241.387,102.059 401.383,217.918 "
           id="polygon851" />
        <polygon
           style="fill:#a03c3c"
           points="241.387,35.504 145.383,105.024 81.383,151.369 0,210.301 18.766,236.223 33.383,225.638 33.385,225.637 241.387,75.02 449.385,225.639 464,236.223 482.766,210.301 "
           id="polygon853" />
      </g>
      <g
         id="g857" />
      <g
         id="g859" />
      <g
         id="g861" />
      <g
         id="g863" />
      <g
         id="g865" />
      <g
         id="g867" />
      <g
         id="g869" />
      <g
         id="g871" />
      <g
         id="g873" />
      <g
         id="g875" />
      <g
         id="g877" />
      <g
         id="g879" />
      <g
         id="g881" />
      <g
         id="g883" />
      <g
         id="g885" />
    </g>
    <rect
       style="fill:#ffe6d2;fill-opacity:1;stroke:none;stroke-width:0.499999"
       id="rect16596"
       width="66.449524"
       height="41.22781"
       x="108.49635"
       y="146.18893" />
    <g
       id="g16625"
       transform="translate(0.51546486,-0.23419467)">
      <rect
         style="fill:none;stroke:#000000;stroke-width:0.885779;stroke-opacity:1"
         id="rect3213"
         width="8.0202208"
         height="8.0202208"
         x="101.98037"
         y="162.86133" />
      <rect
         style="fill:none;stroke:#000000;stroke-width:0.885779;stroke-opacity:1"
         id="rect3213-0"
         width="8.0202208"
         height="8.0202208"
         x="123.06422"
         y="162.86133" />
      <rect
         style="fill:none;stroke:#000000;stroke-width:0.885779;stroke-opacity:1"
         id="rect3213-6"
         width="8.0202208"
         height="8.0202208"
         x="112.52229"
         y="162.86133" />
      <rect
         style="fill:none;stroke:#000000;stroke-width:0.885779;stroke-opacity:1"
         id="rect3213-8"
         width="8.0202208"
         height="8.0202208"
         x="133.60612"
         y="162.86133" />
      <rect
         style="fill:none;stroke:#000000;stroke-width:0.885779;stroke-opacity:1"
         id="rect3213-67"
         width="8.0202208"
         height="8.0202208"
         x="165.2319"
         y="162.86133" />
      <rect
         style="fill:none;stroke:#000000;stroke-width:0.885779;stroke-opacity:1"
         id="rect3213-4"
         width="8.0202208"
         height="8.0202208"
         x="154.69"
         y="162.86133" />
      <rect
         style="fill:none;stroke:#000000;stroke-width:0.885779;stroke-opacity:1"
         id="rect3213-3"
         width="8.0202208"
         height="8.0202208"
         x="176.28159"
         y="162.86133" />
      <rect
         style="fill:none;stroke:#000000;stroke-width:0.885779;stroke-opacity:1"
         id="rect3213-48"
         width="8.0202208"
         height="8.0202208"
         x="144.14806"
         y="162.86133" />
    </g>
    <text
       xml:space="preserve"
       style="font-size:7.05556px;line-height:1.25;font-family:Alegreya;-inkscape-font-specification:Alegreya;stroke-width:0.264583"
       x="105.26416"
       y="168.37643"
       id="text16629"><tspan
         sodipodi:role="line"
         id="tspan16627"
         x="105.26416"
         y="168.37643"
         style="stroke-width:0.264583">1</tspan></text>
    <text
       xml:space="preserve"
       style="font-size:7.05556px;line-height:1.25;font-family:Alegreya;-inkscape-font-specification:Alegreya;stroke-width:0.264583"
       x="126.34801"
       y="168.37643"
       id="text16629-3"><tspan
         sodipodi:role="line"
         id="tspan16627-1"
         x="126.34801"
         y="168.37643"
         style="stroke-width:0.264583">1</tspan></text>
    <text
       xml:space="preserve"
       style="font-size:7.05556px;line-height:1.25;font-family:Alegreya;-inkscape-font-specification:Alegreya;stroke-width:0.264583"
       x="147.43185"
       y="168.37643"
       id="text16629-31"><tspan
         sodipodi:role="line"
         id="tspan16627-8"
         x="147.43185"
         y="168.37643"
         style="stroke-width:0.264583">1</tspan></text>
    <text
       xml:space="preserve"
       style="font-size:7.05556px;line-height:1.25;font-family:Alegreya;-inkscape-font-specification:Alegreya;stroke-width:0.264583"
       x="157.9738"
       y="168.37643"
       id="text16629-34"><tspan
         sodipodi:role="line"
         id="tspan16627-4"
         x="157.9738"
         y="168.37643"
         style="stroke-width:0.264583">1</tspan></text>
    <text
       xml:space="preserve"
       style="font-size:7.05556px;line-height:1.25;font-family:Alegreya;-inkscape-font-specification:Alegreya;stroke-width:0.264583"
       x="115.16756"
       y="168.37643"
       id="text16681"><tspan
         sodipodi:role="line"
         id="tspan16679"
         x="115.16756"
         y="168.37643"
         style="stroke-width:0.264583">0</tspan></text>
    <text
       xml:space="preserve"
       style="font-size:7.05556px;line-height:1.25;font-family:Alegreya;-inkscape-font-specification:Alegreya;stroke-width:0.264583"
       x="136.2514"
       y="168.37643"
       id="text16685"><tspan
         sodipodi:role="line"
         id="tspan16683"
         x="136.2514"
         y="168.37643"
         style="stroke-width:0.264583">0</tspan></text>
    <text
       xml:space="preserve"
       style="font-size:7.05556px;line-height:1.25;font-family:Alegreya;-inkscape-font-specification:Alegreya;stroke-width:0.264583"
       x="167.87718"
       y="168.37643"
       id="text16689"><tspan
         sodipodi:role="line"
         id="tspan16687"
         x="167.87718"
         y="168.37643"
         style="stroke-width:0.264583">0</tspan></text>
    <text
       xml:space="preserve"
       style="font-size:7.05556px;line-height:1.25;font-family:Alegreya;-inkscape-font-specification:Alegreya;stroke-width:0.264583"
       x="178.92685"
       y="168.37643"
       id="text16693"><tspan
         sodipodi:role="line"
         id="tspan16691"
         x="178.92685"
         y="168.37643"
         style="stroke-width:0.264583">0</tspan></text>
    <g
       id="g16742"
       transform="matrix(0.26458333,0,0,0.26458333,60.778611,166.34281)">
      <path
         fill="#c87d5e"
         d="M 63.13,84.17 H 81.44 V 233.66403 H 63.13 Z"
         id="path16695"
         style="stroke-width:1.93735" />
      <path
         d="M 81.45,94.23 C 79.81,91.57 77.64,89.3 74.9,87.82 73.2,86.9 71.32,86.37 69.41,86.18 h -3.19 c -1.04,0.1 -2.08,0.3 -3.08,0.6 v 20.13 c 0.89,-1.36 2.37,-2.34 3.97,-2.72 2.79,-0.65 5.75,0.42 8.01,2.17 2.26,1.75 3.95,4.13 5.6,6.46 l 0.74,1.04 V 94.23 Z"
         fill="#874d36"
         id="path16697" />
      <path
         d="M 97.55,25.09 H 28.94 c 0,0 23.58,2.89 23.58,22.78 l 0.12,50.48 h 66.52 c 2.67,0 4.83,-2.16 4.83,-4.83 V 51.54 C 124,36.93 112.16,25.09 97.55,25.09 Z"
         fill="#1976d2"
         id="path16699" />
      <ellipse
         cx="70.321205"
         cy="40.967724"
         rx="8.1400003"
         ry="9.1599998"
         fill="#0d47a1"
         id="ellipse16701" />
      <path
         d="m 107.29149,36.818096 -37.629996,0.03 v 8.17 h 28.25 v 14.08 c 0,3.25 1.41,3.63 7.549996,3.63 6.14,0 7.94,-0.38 7.94,-3.63 v -16.17 c -0.01,-3.37 -2.74,-6.11 -6.11,-6.11 z"
         fill="#0d47a1"
         id="path16703" />
      <path
         d="m 109.92149,33.648096 -37.629996,0.03 v 8.17 h 28.249996 v 14.08 c 0,3.25 1.41,3.63 7.55,3.63 6.14,0 7.94,-0.38 7.94,-3.63 v -16.17 c 0,-3.37 -2.74,-6.11 -6.11,-6.11 z"
         fill="#c62828"
         id="path16705" />
      <path
         d="m 112.24149,33.648096 -41.559996,0.03 v 8.17 h 32.179996 v 14.08 c 0,3.25 1.41,3.63 7.55,3.63 6.14,0 7.94,-0.38 7.94,-3.63 v -16.17 c -0.01,-3.37 -2.74,-6.11 -6.11,-6.11 z"
         fill="#f44336"
         id="path16707" />
      <path
         d="m 111.46149,38.928096 c -1.99,-0.07 -20.009996,-1.37 -23.389996,-1.6 -4.09,-0.28 -4.51,-2.64 -0.79,-2.64 h 24.369996 c 3.93,0 4.14,4.39 -0.19,4.24 z"
         fill="#ff7555"
         id="path16709" />
      <path
         d="m 72.221494,29.218096 0.07,18.31 h -3.48 c -4.05,0 -7.33,-4.1 -7.33,-9.16 0,-5.06 3.28,-9.16 7.33,-9.16 4.04,0.01 3.41,0.01 3.41,0.01 z"
         fill="#82aec0"
         id="path16711" />
      <ellipse
         cx="72.881493"
         cy="38.368095"
         rx="7.3299999"
         ry="9.1599998"
         fill="#e0e0e0"
         id="ellipse16713" />
      <path
         d="m 68.501494,38.638096 c 0.44,0.22 0.97,-0.02 1.35,-0.34 1.16,-0.97 1.6,-2.57 2.67,-3.63 0.94,-0.94 2.37,-1.86 1.25,-3.25 -0.81,-1 -2.22,-0.9 -3.25,-0.37 -2.49,1.26 -4.25,6.47 -2.02,7.59 z"
         fill="#ffffff"
         id="path16715" />
      <path
         d="m 28.94,28.97 c 11.86,0 21.51,8.02 21.51,17.89 v 47.6 H 7.43 v -47.6 c 0,-9.87 9.65,-17.89 21.51,-17.89"
         fill="#4e342e"
         id="path16717" />
      <path
         d="m 28.94,29.22 c 11.77,0 21.35,7.96 21.35,17.75 V 94.2 H 7.6 V 46.97 c 0,-9.78 9.57,-17.75 21.34,-17.75 m 0,-4.13 C 13.81,25.09 4,35.28 4,47.86 v 48.35 c 0,1.17 0.95,2.13 2.13,2.13 h 48.09 c 1.17,0 2.13,-0.95 2.13,-2.13 V 47.86 C 56.34,35.28 44.07,25.09 28.94,25.09 Z"
         fill="#4fc3f7"
         id="path16719" />
    </g>
    <text
       xml:space="preserve"
       style="font-size:7.05556px;line-height:1.25;font-family:Alegreya;-inkscape-font-specification:Alegreya;stroke-width:0.264583"
       x="75.755455"
       y="186.01471"
       id="text16746"><tspan
         sodipodi:role="line"
         id="tspan16744"
         x="75.755455"
         y="186.01471"
         style="font-size:5.64444px;stroke-width:0.264583">Adresse</tspan></text>
    <text
       xml:space="preserve"
       style="font-size:7.05556px;line-height:1.25;font-family:Alegreya;-inkscape-font-specification:Alegreya;stroke-width:0.264583"
       x="83.183167"
       y="190.47247"
       id="text16750"><tspan
         sodipodi:role="line"
         id="tspan16748"
         x="83.183167"
         y="190.47247"
         style="stroke-width:0.264583">5</tspan></text>
  </g>
</svg>
