<?xml version="1.0" encoding="UTF-8" standalone="no"?>
<svg
   xmlns:dc="http://purl.org/dc/elements/1.1/"
   xmlns:cc="http://creativecommons.org/ns#"
   xmlns:rdf="http://www.w3.org/1999/02/22-rdf-syntax-ns#"
   xmlns:svg="http://www.w3.org/2000/svg"
   xmlns="http://www.w3.org/2000/svg"
   xmlns:sodipodi="http://sodipodi.sourceforge.net/DTD/sodipodi-0.dtd"
   xmlns:inkscape="http://www.inkscape.org/namespaces/inkscape"
   width="135.46666mm"
   height="282.78864mm"
   viewBox="0 0 135.46666 282.78864"
   version="1.1"
   id="svg3837"
   inkscape:version="1.0.2-2 (e86c870879, 2021-01-15)"
   sodipodi:docname="knitting.svg">
  <defs
     id="defs3831">
    <inkscape:path-effect
       effect="bspline"
       id="path-effect4522"
       is_visible="true"
       lpeversion="1"
       weight="33.333333"
       steps="2"
       helper_size="0"
       apply_no_weight="true"
       apply_with_weight="true"
       only_selected="false" />
    <inkscape:path-effect
       effect="bspline"
       id="path-effect4499"
       is_visible="true"
       lpeversion="1"
       weight="33.333333"
       steps="2"
       helper_size="0"
       apply_no_weight="true"
       apply_with_weight="true"
       only_selected="false" />
    <inkscape:path-effect
       effect="bspline"
       id="path-effect4495"
       is_visible="true"
       lpeversion="1"
       weight="33.333333"
       steps="2"
       helper_size="0"
       apply_no_weight="true"
       apply_with_weight="true"
       only_selected="false" />
    <inkscape:path-effect
       effect="bspline"
       id="path-effect4483"
       is_visible="true"
       lpeversion="1"
       weight="33.333333"
       steps="2"
       helper_size="0"
       apply_no_weight="true"
       apply_with_weight="true"
       only_selected="false" />
  </defs>
  <sodipodi:namedview
     id="base"
     pagecolor="#ffffff"
     bordercolor="#666666"
     borderopacity="1.0"
     inkscape:pageopacity="0.0"
     inkscape:pageshadow="2"
     inkscape:zoom="0.34093468"
     inkscape:cx="1167.6808"
     inkscape:cy="646.94881"
     inkscape:document-units="mm"
     inkscape:current-layer="layer1"
     inkscape:document-rotation="0"
     showgrid="false"
     fit-margin-top="0"
     fit-margin-left="0"
     fit-margin-right="0"
     fit-margin-bottom="0"
     inkscape:window-width="1920"
     inkscape:window-height="1017"
     inkscape:window-x="1912"
     inkscape:window-y="-8"
     inkscape:window-maximized="1" />
  <metadata
     id="metadata3834">
    <rdf:RDF>
      <cc:Work
         rdf:about="">
        <dc:format>image/svg+xml</dc:format>
        <dc:type
           rdf:resource="http://purl.org/dc/dcmitype/StillImage" />
        <dc:title></dc:title>
      </cc:Work>
    </rdf:RDF>
  </metadata>
  <g
     inkscape:label="Layer 1"
     inkscape:groupmode="layer"
     id="layer1"
     transform="translate(-39.255787,-0.43672594)">
    <g
       id="g4479"
       transform="matrix(0.26458333,0,0,0.26458333,39.255787,0.43672594)">
      <g
         id="g4404">
	<g
   id="g4402">
		<path
   d="m 428.522,0 c -46.03,0 -83.478,37.448 -83.478,83.478 0,16.99 5.113,32.801 13.865,46.001 L 4.891,483.499 c -6.52,6.52 -6.52,17.091 0,23.611 3.259,3.26 7.532,4.89 11.805,4.89 4.273,0 8.546,-1.63 11.805,-4.891 L 382.52,153.09 c 13.2,8.753 29.013,13.866 46.002,13.866 46.03,0 83.478,-37.448 83.478,-83.478 C 512,37.448 474.552,0 428.522,0 Z"
   id="path4400" />

	</g>

</g>
      <g
         id="g4410">
	<g
   id="g4408">
		<path
   d="m 153.091,129.479 c 8.752,-13.2 13.865,-29.011 13.865,-46.001 C 166.957,37.448 129.508,0 83.478,0 37.448,0 0,37.448 0,83.478 c 0,46.03 37.448,83.478 83.478,83.478 16.99,0 32.801,-5.113 46.002,-13.866 l 79.298,79.298 23.611,-23.611 z"
   id="path4406" />

	</g>

</g>
      <g
         id="g4416">
	<g
   id="g4414">
		<path
   d="M 507.109,483.498 303.222,279.611 279.611,303.222 483.498,507.109 c 3.26,3.261 7.533,4.891 11.806,4.891 4.273,0 8.546,-1.63 11.805,-4.891 6.52,-6.52 6.52,-17.091 0,-23.611 z"
   id="path4412" />

	</g>

</g>
      <g
         id="g4418">
</g>
      <g
         id="g4420">
</g>
      <g
         id="g4422">
</g>
      <g
         id="g4424">
</g>
      <g
         id="g4426">
</g>
      <g
         id="g4428">
</g>
      <g
         id="g4430">
</g>
      <g
         id="g4432">
</g>
      <g
         id="g4434">
</g>
      <g
         id="g4436">
</g>
      <g
         id="g4438">
</g>
      <g
         id="g4440">
</g>
      <g
         id="g4442">
</g>
      <g
         id="g4444">
</g>
      <g
         id="g4446">
</g>
    </g>
    <path
       style="fill:none;stroke:#3776ab;stroke-width:3;stroke-miterlimit:4;stroke-dasharray:none"
       d="m 48.538256,120.84352 c 0,1.45083 0,2.9014 0.892835,3.96137 0.892834,1.05997 2.678115,1.72945 21.480048,2.3431 18.801934,0.61365 54.619101,1.17154 73.727571,1.38075 19.10846,0.20921 21.50743,0.0697 22.91601,-0.64153 1.40858,-0.71126 1.827,-1.99443 1.8969,-2.77546 0.0699,-0.78102 -0.20905,-1.05997 -0.40432,-1.19958 -0.19527,-0.13961 -0.30686,-0.13961 -0.4187,-0.13961"
       id="path4481"
       inkscape:path-effect="#path-effect4483"
       inkscape:original-d="m 48.538256,120.84352 c 2.65e-4,1.45083 2.65e-4,2.9014 0,4.35171 1.785615,0.66977 3.570896,1.33925 5.355948,2.00848 35.818865,0.55818 71.636036,1.11608 107.453656,1.67373 2.39933,-0.13922 4.7983,-0.27869 7.19705,-0.41843 0.41871,-1.28296 0.83713,-2.56613 1.2553,-3.84959 -0.27869,-0.27869 -0.55764,-0.55764 -0.83686,-0.83686 -0.11132,0.0281 -0.22291,2.6e-4 -0.33475,0" />
    <path
       style="fill:none;stroke:#3776ab;stroke-width:3;stroke-miterlimit:4;stroke-dasharray:none"
       d="m 61.897466,119.77101 c 0.592042,0.47363 1.1838,0.94703 1.077167,10.05255 -0.106634,9.10552 -0.911318,26.84242 -1.648424,36.10147 -0.737106,9.25906 -1.406586,10.04012 -2.243314,9.98443 -0.836728,-0.0557 -1.840948,-0.94833 -2.028555,-1.81431 -0.187607,-0.86599 0.522044,-1.81219 18.236215,-2.11906 17.714171,-0.30687 52.470845,-0.0279 70.226615,0.47434 17.75576,0.50226 18.50893,1.22753 18.64827,1.85505 0.13933,0.62753 -0.33488,1.15753 -1.67378,1.5899 -1.3389,0.43236 -3.54256,0.7671 -4.36834,-7.53697 -0.82578,-8.30408 -0.27334,-25.2466 0.27911,-42.1897"
       id="path4493"
       inkscape:path-effect="#path-effect4495"
       inkscape:original-d="m 61.897466,119.77101 c 0.592018,0.47366 1.183772,0.94707 1.775261,1.4202 -0.804452,17.73788 -1.609135,35.47478 -2.414101,53.21177 -0.669242,0.78135 -1.33872,1.56241 -2.008478,2.34322 -1.003996,-0.89241 -2.008214,-1.78505 -3.01272,-2.67797 0.558188,-0.89241 1.339252,-1.78505 2.008481,-2.67797 34.758815,0.27923 69.515491,0.55817 104.273561,0.83687 0.75346,0.72556 1.50663,1.45083 2.25954,2.17585 -0.47396,0.53028 -0.94817,1.06028 -1.42267,1.59004 -2.20353,0.33502 -4.40719,0.66976 -6.61125,1.00425 0.55272,-16.94293 1.10516,-33.88545 1.65734,-50.82856"
       sodipodi:nodetypes="ccccccccccc" />
    <path
       style="fill:none;stroke:#3776ab;stroke-width:3;stroke-miterlimit:4;stroke-dasharray:none"
       d="m 59.951841,178.27374 c -1.248279,-0.79133 -2.49683,-1.58283 -2.664769,-2.29797 -0.167939,-0.71514 0.744991,-1.35362 1.531428,-1.4634 0.786437,-0.10978 1.446059,0.30894 1.496755,9.3614 0.0507,9.05246 -0.507204,26.73788 -1.00935,35.97124 -0.502145,9.23335 -0.94846,10.0144 -1.562041,9.84713 -0.613582,-0.16727 -1.394641,-1.28307 -1.506322,-2.1201 -0.111682,-0.83702 0.446219,-1.39492 18.244064,-1.78476 17.797846,-0.38983 53.280274,-0.6144 71.002544,-0.49496 17.72226,0.11945 17.9839,0.77354 17.36153,1.36686 -0.62238,0.59332 -2.27877,1.3032 -3.2606,1.53763 -0.98183,0.23443 -1.47279,-0.0111 -1.47294,-8.82617 -1.6e-4,-8.81512 0.44616,-26.2216 0.94827,-35.25988 0.50212,-9.03828 1.06002,-9.70776 2.00866,-9.70769 0.94863,7e-5 2.28759,0.66955 2.73373,1.33901 0.44615,0.66945 -1.7e-4,1.33893 -0.89301,1.62213 -0.89284,0.2832 -2.4543,0.16309 -3.90516,0.0515"
       id="path4497"
       inkscape:path-effect="#path-effect4499"
       inkscape:original-d="m 59.951841,178.27374 c -1.248323,-0.79126 -2.496874,-1.58276 -3.745741,-2.37456 0.913244,-0.63825 1.826175,-1.27673 2.73889,-1.91551 0.659906,0.41899 1.319526,0.83771 1.978891,1.25617 -0.557657,17.6864 -1.115557,35.37182 -1.673733,53.05734 -0.446074,0.78136 -0.892392,1.56241 -1.338987,2.34323 -0.780826,-1.11558 -1.561886,-2.23138 -2.343225,-3.34747 0.558187,-0.55766 1.116087,-1.11556 1.673733,-1.67373 35.037776,-0.22291 70.520211,-0.44607 105.779921,-0.6695 0.22344,0.44661 0.4466,1.11609 0.6695,1.67374 -1.45034,0.66977 -3.12404,1.33925 -4.68646,2.00848 -0.44607,-0.11132 -0.89239,-0.44607 -1.33898,-0.6695 0.4466,-17.4069 0.89292,-34.81338 1.33898,-52.22047 0.55819,-0.66924 1.11609,-1.33872 1.67374,-2.00848 1.33927,0.66978 2.67823,1.33926 4.01696,2.00848 -0.44608,0.66977 -0.8924,1.33925 -1.33899,2.00848 -1.33875,-0.11132 -2.90087,-0.2229 -4.35171,-0.33474"
       sodipodi:nodetypes="ccccccccccccccccc" />
    <path
       style="fill:none;stroke:#3776ab;stroke-width:3;stroke-miterlimit:4;stroke-dasharray:none"
       d="m 59.322882,230.29008 c -1.248279,-0.79133 -2.49683,-1.58283 -2.664769,-2.29797 -0.167939,-0.71514 0.744991,-1.35362 1.531428,-1.4634 0.786437,-0.10978 1.446059,0.30894 1.496755,9.3614 0.0507,9.05246 -0.507204,26.73788 -1.00935,35.97124 -0.502145,9.23335 -0.94846,10.0144 -1.562041,9.84713 -0.613582,-0.16727 -1.394641,-1.28307 -1.506322,-2.1201 -0.111682,-0.83702 0.446219,-1.39492 18.244064,-1.78476 17.797846,-0.38983 53.280273,-0.6144 71.002543,-0.49496 17.72226,0.11945 17.9839,0.77354 17.36153,1.36686 -0.62238,0.59332 -2.27877,1.3032 -3.2606,1.53763 -0.98183,0.23443 -1.47279,-0.0111 -1.47294,-8.82617 -1.6e-4,-8.81512 0.44616,-26.2216 0.94827,-35.25988 0.50212,-9.03828 1.06002,-9.70776 2.00866,-9.70769 0.94863,7e-5 2.28759,0.66955 2.73373,1.33901 0.44615,0.66945 -1.7e-4,1.33893 -0.89301,1.62213 -0.89284,0.2832 -2.4543,0.16309 -3.90516,0.0515"
       id="path4497-0"
       inkscape:path-effect="#path-effect4522"
       inkscape:original-d="m 59.322882,230.29008 c -1.248323,-0.79126 -2.496874,-1.58276 -3.745741,-2.37456 0.913244,-0.63825 1.826175,-1.27673 2.73889,-1.91551 0.659906,0.41899 1.319526,0.83771 1.978891,1.25617 -0.557657,17.6864 -1.115557,35.37182 -1.673733,53.05734 -0.446074,0.78136 -0.892392,1.56241 -1.338987,2.34323 -0.780826,-1.11558 -1.561886,-2.23138 -2.343225,-3.34747 0.558187,-0.55766 1.116087,-1.11556 1.673733,-1.67373 35.037776,-0.22291 70.52021,-0.44607 105.77992,-0.6695 0.22344,0.44661 0.4466,1.11609 0.6695,1.67374 -1.45034,0.66977 -3.12404,1.33925 -4.68646,2.00848 -0.44607,-0.11132 -0.89239,-0.44607 -1.33898,-0.6695 0.4466,-17.4069 0.89292,-34.81338 1.33898,-52.22047 0.55819,-0.66924 1.11609,-1.33872 1.67374,-2.00848 1.33927,0.66978 2.67823,1.33926 4.01696,2.00848 -0.44608,0.66977 -0.8924,1.33925 -1.33899,2.00848 -1.33875,-0.11132 -2.90087,-0.2229 -4.35171,-0.33474"
       sodipodi:nodetypes="ccccccccccccccccc" />
    <text
       xml:space="preserve"
       style="font-size:50.8px;line-height:1.25;font-family:Alegreya;-inkscape-font-specification:Alegreya;stroke-width:0.264583"
       x="97.952271"
       y="161.33318"
       id="text4527"><tspan
         sodipodi:role="line"
         id="tspan4525"
         x="97.952271"
         y="161.33318"
         style="font-size:50.8px;stroke-width:0.264583">2</tspan></text>
    <text
       xml:space="preserve"
       style="font-size:50.8px;line-height:1.25;font-family:Alegreya;-inkscape-font-specification:Alegreya;stroke-width:0.264583"
       x="97.009689"
       y="213.36551"
       id="text4527-0"><tspan
         sodipodi:role="line"
         id="tspan4525-8"
         x="97.009689"
         y="213.36551"
         style="font-size:50.8px;stroke-width:0.264583">4</tspan></text>
    <text
       xml:space="preserve"
       style="font-size:50.8px;line-height:1.25;font-family:Alegreya;-inkscape-font-specification:Alegreya;stroke-width:0.264583"
       x="98.655952"
       y="262.7532"
       id="text4527-01"><tspan
         sodipodi:role="line"
         id="tspan4525-7"
         x="98.655952"
         y="262.7532"
         style="font-size:50.8px;stroke-width:0.264583">7</tspan></text>
  </g>
</svg>
