<?xml version="1.0" encoding="UTF-8" standalone="no"?>
<svg
   xmlns:dc="http://purl.org/dc/elements/1.1/"
   xmlns:cc="http://creativecommons.org/ns#"
   xmlns:rdf="http://www.w3.org/1999/02/22-rdf-syntax-ns#"
   xmlns:svg="http://www.w3.org/2000/svg"
   xmlns="http://www.w3.org/2000/svg"
   xmlns:xlink="http://www.w3.org/1999/xlink"
   xmlns:sodipodi="http://sodipodi.sourceforge.net/DTD/sodipodi-0.dtd"
   xmlns:inkscape="http://www.inkscape.org/namespaces/inkscape"
   width="205.28386mm"
   height="92.706558mm"
   viewBox="0 0 205.28386 92.706558"
   version="1.1"
   id="svg3792"
   sodipodi:docname="kurtcobain.svg"
   inkscape:version="1.0.2-2 (e86c870879, 2021-01-15)">
  <defs
     id="defs3786">
    <inkscape:path-effect
       effect="bspline"
       id="path-effect4428"
       is_visible="true"
       lpeversion="1"
       weight="33.333333"
       steps="2"
       helper_size="0"
       apply_no_weight="true"
       apply_with_weight="true"
       only_selected="false" />
  </defs>
  <sodipodi:namedview
     id="base"
     pagecolor="#ffffff"
     bordercolor="#666666"
     borderopacity="1.0"
     inkscape:pageopacity="0.0"
     inkscape:pageshadow="2"
     inkscape:zoom="0.5588964"
     inkscape:cx="420.92828"
     inkscape:cy="256.27752"
     inkscape:document-units="mm"
     inkscape:current-layer="layer1"
     inkscape:document-rotation="0"
     showgrid="false"
     inkscape:window-width="1346"
     inkscape:window-height="1040"
     inkscape:window-x="208"
     inkscape:window-y="0"
     inkscape:window-maximized="0"
     fit-margin-top="0"
     fit-margin-left="0"
     fit-margin-right="0"
     fit-margin-bottom="0" />
  <metadata
     id="metadata3789">
    <rdf:RDF>
      <cc:Work
         rdf:about="">
        <dc:format>image/svg+xml</dc:format>
        <dc:type
           rdf:resource="http://purl.org/dc/dcmitype/StillImage" />
        <dc:title></dc:title>
      </cc:Work>
    </rdf:RDF>
  </metadata>
  <g
     inkscape:label="Layer 1"
     inkscape:groupmode="layer"
     id="layer1"
     transform="translate(11.919989,-13.398984)">
    <g
       transform="matrix(0.03527778,0,0,-0.03527778,106.22776,111.01893)"
       fill="#000000"
       stroke="none"
       id="g4399">
      <path
         d="m 1130,2752 c -14,-9 -30,-23 -36,-31 -9,-12 -12,-11 -17,3 -7,17 -48,21 -82,6 -16,-7 -12,-9 18,-9 51,-1 38,-21 -14,-21 -47,0 -94,-22 -109,-50 -12,-23 -7,-25 23,-8 12,6 58,13 102,15 108,3 128,9 120,33 -10,30 55,21 107,-16 63,-45 65,-46 64,-25 -1,25 -55,68 -65,52 -5,-7 -19,3 -40,29 -36,45 -37,45 -71,22 z"
         id="path4371" />
      <path
         d="m 1315,2720 c 11,-13 63,-57 115,-99 52,-41 144,-119 203,-173 59,-54 111,-97 116,-95 4,1 22,-15 40,-36 19,-21 36,-35 39,-33 9,10 -61,87 -97,105 -20,11 -49,33 -66,51 -16,18 -76,70 -132,117 -57,47 -103,90 -103,95 0,12 -4,14 93,-61 37,-30 71,-51 74,-47 3,3 -23,34 -59,69 -65,64 -146,111 -210,124 l -33,6 z"
         id="path4373" />
      <path
         d="m 1050,2635 c -19,-7 -48,-17 -65,-21 l -30,-7 25,-7 c 23,-6 21,-8 -20,-19 -66,-18 -70,-19 -70,-31 0,-5 21,-11 48,-11 l 47,-2 -55,-9 c -73,-13 -91,-20 -66,-26 16,-3 15,-6 -10,-24 l -29,-20 28,6 c 33,8 34,1 5,-26 -18,-15 -19,-18 -5,-14 9,3 17,1 17,-4 0,-17 17,-11 48,15 17,14 37,23 45,19 10,-3 18,4 25,25 7,19 18,31 34,33 15,2 22,9 20,21 -3,20 2,21 31,5 19,-10 20,-9 9,4 -10,13 -10,17 3,22 8,3 15,12 15,20 0,21 19,30 35,16 24,-20 17,5 -8,28 -27,25 -30,26 -77,7 z"
         id="path4375" />
      <path
         d="m 1300,2575 c 0,-3 11,-21 25,-39 14,-18 25,-36 25,-40 0,-3 -25,8 -55,25 -31,17 -58,29 -61,26 -8,-7 189,-209 251,-257 30,-23 90,-60 132,-82 61,-31 70,-38 43,-33 -78,13 -159,62 -254,155 -51,50 -108,101 -127,112 -19,11 -54,38 -78,59 -24,22 -46,38 -47,36 -2,-2 5,-22 16,-44 13,-27 42,-58 88,-91 37,-28 77,-61 87,-73 l 20,-22 -25,13 c -44,23 -134,87 -155,110 -11,12 -29,27 -40,32 -19,11 -19,11 -1,-18 10,-16 30,-39 45,-51 27,-23 23,-30 -9,-13 -22,12 -37,-4 -22,-23 7,-8 6,-16 -4,-24 -15,-14 -38,12 -88,100 -46,81 -42,46 9,-77 7,-16 5,-17 -15,-11 -17,6 -21,4 -14,-6 4,-8 16,-20 26,-27 19,-14 26,-38 7,-26 -7,4 -10,1 -7,-7 8,-26 123,-95 193,-116 69,-21 158,-37 265,-47 l 55,-6 -40,15 -40,15 45,-5 c 84,-9 450,-18 450,-11 0,8 -51,30 -90,40 -14,3 -8,-3 15,-14 l 40,-19 -52,-1 c -109,0 -208,63 -398,254 -122,124 -215,206 -215,191 z"
         id="path4377" />
      <path
         d="m 865,2315 c -16,-13 -38,-31 -47,-40 -10,-8 -18,-12 -18,-8 0,4 -15,-8 -34,-26 -23,-22 -37,-47 -41,-72 -4,-22 -11,-39 -15,-39 -5,0 -11,-12 -13,-27 -3,-20 -5,-15 -6,17 -3,38 -4,41 -11,20 -4,-14 -8,-52 -8,-85 0,-45 2,-52 7,-30 6,26 9,22 20,-39 6,-37 19,-89 28,-115 19,-58 95,-223 100,-218 2,2 -13,45 -32,96 -54,140 -85,302 -67,351 9,23 9,23 22,-11 l 14,-34 5,66 c 6,61 9,69 54,120 27,30 62,61 78,70 15,9 26,19 22,23 -11,11 -27,6 -58,-19 z"
         id="path4379" />
      <path
         d="m 1132,2161 c 10,-26 99,-118 169,-172 43,-34 79,-65 79,-68 0,-3 -40,-4 -89,-3 -61,3 -106,-1 -144,-12 -30,-9 -62,-16 -71,-16 -26,0 -18,19 12,26 41,10 62,33 62,68 l -1,31 -14,-26 c -8,-15 -32,-34 -54,-43 -22,-8 -45,-25 -51,-36 -6,-11 -21,-20 -34,-20 -20,0 -23,-4 -19,-22 3,-13 17,-33 31,-45 25,-21 26,-24 13,-65 -7,-24 -20,-77 -28,-118 -17,-85 -37,-136 -56,-143 -23,-8 8,-42 42,-45 30,-3 31,-5 29,-45 -2,-33 1,-42 15,-45 14,-3 17,4 17,33 0,22 4,34 10,30 6,-3 10,-14 10,-23 0,-9 6,-29 14,-44 13,-25 13,-26 -18,-31 -17,-2 -44,0 -59,6 -15,5 -30,7 -32,5 -5,-5 43,-30 98,-52 44,-18 41,-32 -8,-42 -19,-3 -35,-9 -35,-13 0,-3 14,-18 32,-33 30,-24 32,-28 17,-45 -58,-67 -2,-123 123,-123 49,0 77,7 127,30 48,23 67,28 77,19 10,-8 27,-8 64,0 83,18 154,14 175,-9 31,-34 4,-80 -81,-138 -18,-13 -18,-13 1,-6 11,3 35,10 53,14 18,4 61,33 96,64 35,30 66,52 70,49 3,-3 6,-26 6,-50 0,-25 5,-43 11,-43 7,0 9,-10 7,-25 -6,-29 -7,-28 26,-15 20,7 29,23 46,80 35,117 110,177 97,76 -3,-22 -9,-52 -13,-65 -5,-16 -4,-22 4,-17 6,3 16,30 22,59 6,33 18,57 30,65 16,10 20,10 20,-2 0,-8 -4,-16 -9,-18 -5,-1 -12,-18 -16,-37 -5,-23 -4,-31 4,-27 6,4 11,18 11,32 0,25 15,33 24,12 6,-17 36,19 36,44 0,10 5,18 10,18 6,0 10,9 10,20 0,11 9,34 20,52 23,37 26,68 8,68 -8,1 -6,6 4,14 16,12 14,15 -21,31 -72,32 -128,111 -145,204 -6,33 -5,33 12,18 28,-26 34,-20 17,14 -21,40 -13,63 8,24 9,-16 16,-23 17,-15 0,10 7,7 20,-10 25,-32 25,-23 0,35 -24,56 -26,72 -5,55 13,-10 15,-9 15,11 0,16 3,20 8,11 7,-10 9,58 4,137 -2,24 -2,24 -17,5 -13,-17 -14,-17 -15,-1 0,21 2,21 -44,-3 -38,-19 -38,-19 -12,-26 29,-7 32,-14 14,-32 -17,-17 -31,-15 -24,3 6,17 -11,20 -34,6 -25,-17 -31,0 -10,30 15,20 30,29 49,29 32,0 59,26 63,60 3,25 -19,37 -98,54 l -32,7 -4,-70 c -2,-39 -9,-76 -15,-82 -8,-8 -9,1 -6,34 6,51 -16,71 -40,37 -8,-11 -17,-17 -21,-12 -8,7 1,-37 15,-74 4,-11 5,-70 3,-131 -4,-109 -5,-112 -37,-146 -17,-19 -41,-48 -53,-63 -14,-18 -26,-25 -37,-21 -22,8 -22,54 -1,166 16,83 14,176 -3,192 -5,4 -18,10 -30,14 -18,5 -23,2 -23,-13 0,-10 -7,-42 -16,-71 -18,-61 -51,-85 -79,-57 -9,9 -29,23 -45,31 -37,19 -43,38 -24,84 8,22 14,54 12,72 -2,28 -8,35 -35,42 -24,7 -33,16 -35,36 -2,20 -22,39 -87,83 -98,67 -131,96 -131,116 0,9 15,2 41,-20 141,-114 142,-115 202,-110 53,4 56,3 101,-38 36,-33 50,-40 58,-32 7,7 27,12 46,12 20,0 40,7 46,16 11,14 16,13 50,-10 40,-27 55,-30 94,-20 43,12 23,44 -55,87 -40,23 -73,45 -73,49 0,14 29,9 70,-12 22,-11 48,-20 58,-20 11,0 36,-7 56,-15 28,-12 41,-13 54,-5 13,9 14,11 1,7 -9,-3 -16,1 -16,9 0,16 39,10 73,-12 19,-11 23,-10 32,11 8,18 8,26 -3,35 -15,12 -65,10 -98,-5 -13,-5 -16,-3 -12,7 5,13 -18,16 -147,22 -190,9 -348,29 -453,57 -44,12 -93,23 -110,24 -16,1 -43,8 -58,14 -34,13 -40,14 -35,2 z m 192,-490 c 79,-28 96,-45 96,-94 0,-69 -79,-197 -120,-197 -26,0 -36,22 -48,103 -11,69 -56,172 -93,213 -11,11 -19,23 -19,26 0,7 92,-19 184,-51 z"
         id="path4381" />
      <path
         d="m 2185,1913 c 4,-43 7,-114 6,-157 -2,-83 10,-130 36,-141 23,-8 26,-1 31,65 2,33 9,63 14,66 5,3 6,-5 2,-20 -3,-14 -3,-34 0,-43 6,-15 8,-15 16,-3 5,8 7,25 3,37 -3,13 -1,23 5,23 22,0 21,-20 -2,-82 -15,-39 -21,-70 -16,-78 11,-18 37,34 46,91 4,24 11,52 16,61 6,13 3,22 -12,35 -22,19 -26,39 -9,45 18,6 -13,57 -72,122 -28,31 -56,56 -61,56 -7,0 -8,-27 -3,-77 z"
         id="path4383" />
      <path
         d="m 930,1936 c 0,-9 -9,-25 -20,-36 -19,-19 -22,-19 -58,-4 -20,9 -44,19 -52,22 -8,3 2,-15 23,-40 20,-26 37,-51 37,-57 0,-5 9,-13 20,-16 11,-3 20,-15 20,-26 0,-23 37,-26 65,-5 19,13 19,16 2,68 -9,30 -17,64 -17,76 0,11 -4,24 -10,27 -5,3 -10,-1 -10,-9 z"
         id="path4385" />
      <path
         d="m 550,743 c 0,-7 7,-13 16,-13 13,0 15,-31 12,-271 -3,-269 -3,-272 -25,-287 -37,-24 -27,-32 37,-32 33,0 60,3 60,6 0,3 -11,15 -25,26 l -25,19 1,237 c 0,140 4,225 9,207 4,-16 32,-135 61,-262 l 53,-233 h 38 38 v 279 c 0,241 2,282 16,295 8,9 20,16 26,16 5,0 8,5 6,12 -6,17 -118,18 -118,1 0,-7 7,-13 15,-13 29,0 36,-38 33,-202 l -3,-162 -45,193 -45,193 -68,1 c -48,2 -67,-2 -67,-10 z"
         id="path4387" />
      <path
         d="m 870,749 c 0,-4 7,-9 15,-13 23,-8 23,-576 0,-576 -8,0 -15,-4 -15,-10 0,-6 33,-10 80,-10 47,0 80,4 80,10 0,6 -7,10 -15,10 -13,0 -15,39 -15,290 0,251 2,290 15,290 8,0 15,3 15,8 0,4 -36,7 -80,7 -44,0 -80,-3 -80,-6 z"
         id="path4389" />
      <path
         d="m 1070,749 c 0,-4 7,-9 15,-13 23,-8 23,-576 0,-576 -8,0 -15,-4 -15,-10 0,-6 35,-10 85,-10 50,0 85,4 85,10 0,6 -7,10 -15,10 -13,0 -15,23 -15,145 v 144 l 23,-8 c 21,-8 22,-14 24,-117 4,-137 7,-150 43,-169 43,-22 68,-19 101,14 31,32 40,81 14,81 -10,0 -15,-11 -15,-35 0,-28 -4,-35 -20,-35 -19,0 -20,7 -20,91 0,104 -16,149 -58,169 l -27,12 26,13 c 71,38 77,216 8,267 -21,16 -45,20 -132,21 -59,1 -107,-1 -107,-4 z M 1255,600 V 475 l -27,-3 -28,-3 v 131 131 l 28,-3 27,-3 z"
         id="path4391" />
      <path
         d="m 1380,748 c 0,-3 4,-8 10,-10 6,-2 90,-551 90,-593 0,-3 13,-5 29,-5 35,0 27,-31 81,313 42,268 46,287 61,287 5,0 9,3 9,8 0,4 -20,7 -45,7 -25,0 -45,-3 -45,-7 0,-5 6,-8 14,-8 8,0 17,-4 20,-9 3,-5 -6,-84 -21,-177 -31,-191 -33,-190 -58,31 -12,105 -13,151 -6,153 30,10 3,17 -64,17 -41,0 -75,-3 -75,-7 z"
         id="path4393" />
      <path
         d="m 1726,741 c -3,-9 -23,-133 -46,-276 -49,-314 -47,-305 -65,-305 -8,0 -15,-4 -15,-10 0,-5 20,-10 45,-10 25,0 45,5 45,10 0,6 -7,10 -15,10 -16,0 -19,27 -9,79 6,28 10,31 44,31 h 37 l 6,-53 c 4,-31 3,-53 -3,-55 -6,-2 -10,-8 -10,-13 0,-5 58,-9 130,-9 72,0 130,4 130,8 0,5 -9,17 -20,27 -19,17 -20,30 -19,249 v 231 l 35,-145 c 19,-80 46,-196 60,-257 l 26,-113 h 39 39 v 279 c 0,241 2,282 16,295 8,9 20,16 26,16 5,0 8,5 6,11 -4,12 -106,20 -113,8 -3,-4 6,-19 20,-33 25,-25 25,-27 25,-187 0,-89 -2,-160 -5,-158 -2,3 -20,75 -40,160 -20,84 -40,170 -45,189 l -9,35 h -65 c -66,0 -97,-11 -59,-21 22,-6 22,-7 17,-262 -3,-142 -7,-267 -10,-279 -4,-21 -39,-41 -51,-29 -7,6 -17,74 -59,383 l -27,201 -28,4 c -20,3 -30,0 -33,-11 z"
         id="path4395" />
      <path
         d="m 2318,752 c -10,-2 -18,-6 -18,-8 0,-13 -91,-551 -96,-566 -3,-10 -12,-18 -20,-18 -8,0 -14,-4 -14,-10 0,-5 23,-10 50,-10 51,0 67,13 29,23 -18,5 -21,11 -15,38 3,17 6,40 6,51 0,16 6,19 43,16 l 42,-3 6,-50 c 3,-27 2,-52 -3,-53 -4,-2 -8,-8 -8,-13 0,-5 34,-9 75,-9 41,0 75,4 75,9 0,5 -4,11 -9,13 -5,2 -28,133 -51,293 -23,159 -44,292 -46,294 -6,7 -26,8 -46,3 z"
         id="path4397" />
    </g>
    <text
       xml:space="preserve"
       style="font-size:9.87778px;line-height:1.25;font-family:Alegreya;-inkscape-font-specification:Alegreya;stroke-width:0.264583"
       id="text4424"><textPath
         xlink:href="#path4426"
         id="textPath4437"><tspan
           id="tspan4422"
           style="font-size:9.87778px;stroke-width:0.264583">Here we are now, entertain us</tspan></textPath></text>
    <path
       style="fill:#000000;fill-opacity:0;stroke-width:1"
       d="m 21.466216,73.274183 c 12.778613,-5.13874 21.061242,-3.487469 29.506657,-1.569737 8.445414,1.917731 17.052933,4.101753 24.257948,5.193745 7.205014,1.091993 13.007176,1.091993 18.579077,1.032233 5.571901,-0.05976 10.913142,-0.179267 23.989662,-1.671082 13.07651,-1.491815 33.88677,-4.355734 30.32328,-1.171622 -3.56348,3.184113 -31.50078,12.416078 -51.327821,16.474268 -19.827037,4.05819 -31.542935,2.94239 -40.373222,3.201217 C 47.59151,95.022032 41.647533,96.655486 35.481732,96.958966 29.315931,97.262446 22.928931,96.235819 18.424834,91.123173 13.920736,86.010527 11.30025,76.812036 4.2330861,77.988933 -2.8340782,79.16583 -14.347083,90.717922 -11.466646,90.529739 -8.5862089,90.341555 8.6876041,78.412923 21.466216,73.274183 Z"
       id="path4426"
       inkscape:path-effect="#path-effect4428"
       inkscape:original-d="m 25.961724,66.484078 c 8.283064,1.651569 16.565694,3.302839 24.848391,4.953912 8.608125,2.184372 17.215644,4.368394 25.823067,6.552194 5.802653,2.65e-4 11.604815,2.65e-4 17.406825,0 5.341798,-0.119249 10.683043,-0.238756 16.024333,-0.358535 20.81177,-2.863826 41.62203,-5.727746 62.43329,-8.592104 -27.93817,9.232604 -55.87547,18.464569 -83.813573,27.69645 C 76.967959,95.620415 65.252061,94.504615 53.535665,93.388529 47.591596,95.022346 41.647619,96.6558 35.70302,98.289088 29.315896,97.262663 22.928896,96.236035 16.54124,95.20908 13.920911,86.010477 11.300425,76.811986 8.6796211,67.613041 -2.8338141,79.166093 -14.34682,90.718184 -25.860792,102.27072 -8.5860014,90.341856 8.6878122,78.413224 25.961724,66.484078 Z"
       sodipodi:nodetypes="ccccccccccccc" />
  </g>
</svg>
