<?xml version="1.0" encoding="UTF-8" standalone="no"?>
<svg
   xmlns:dc="http://purl.org/dc/elements/1.1/"
   xmlns:cc="http://creativecommons.org/ns#"
   xmlns:rdf="http://www.w3.org/1999/02/22-rdf-syntax-ns#"
   xmlns:svg="http://www.w3.org/2000/svg"
   xmlns="http://www.w3.org/2000/svg"
   xmlns:sodipodi="http://sodipodi.sourceforge.net/DTD/sodipodi-0.dtd"
   xmlns:inkscape="http://www.inkscape.org/namespaces/inkscape"
   width="221.51308mm"
   height="181.99469mm"
   viewBox="0 0 221.51308 181.99469"
   version="1.1"
   id="svg2387"
   inkscape:version="1.0.2-2 (e86c870879, 2021-01-15)"
   sodipodi:docname="magnifier.svg">
  <defs
     id="defs2381" />
  <sodipodi:namedview
     id="base"
     pagecolor="#ffffff"
     bordercolor="#666666"
     borderopacity="1.0"
     inkscape:pageopacity="0.0"
     inkscape:pageshadow="2"
     inkscape:zoom="0.2794482"
     inkscape:cx="806.35552"
     inkscape:cy="550.67847"
     inkscape:document-units="mm"
     inkscape:current-layer="layer1"
     inkscape:document-rotation="0"
     showgrid="false"
     inkscape:window-width="1346"
     inkscape:window-height="1040"
     inkscape:window-x="26"
     inkscape:window-y="0"
     inkscape:window-maximized="0"
     fit-margin-top="0"
     fit-margin-left="0"
     fit-margin-right="0"
     fit-margin-bottom="0" />
  <metadata
     id="metadata2384">
    <rdf:RDF>
      <cc:Work
         rdf:about="">
        <dc:format>image/svg+xml</dc:format>
        <dc:type
           rdf:resource="http://purl.org/dc/dcmitype/StillImage" />
        <dc:title></dc:title>
      </cc:Work>
    </rdf:RDF>
  </metadata>
  <g
     inkscape:label="Layer 1"
     inkscape:groupmode="layer"
     id="layer1"
     transform="translate(-51.667161,37.898849)">
    <text
       xml:space="preserve"
       style="font-size:7.05556px;line-height:1.25;font-family:Alegreya;-inkscape-font-specification:Alegreya;stroke-width:0.264583"
       x="141.59781"
       y="76.656975"
       id="text3005"><tspan
         sodipodi:role="line"
         id="tspan3003"
         x="141.59781"
         y="76.656975"
         style="stroke-width:0.264583">Local(function)</tspan></text>
    <text
       xml:space="preserve"
       style="font-size:7.05556px;line-height:1.25;font-family:Alegreya;-inkscape-font-specification:Alegreya;stroke-width:0.264583"
       x="141.2764"
       y="86.18042"
       id="text3009"><tspan
         sodipodi:role="line"
         id="tspan3007"
         x="141.2764"
         y="86.18042"
         style="font-size:5.64444px;stroke-width:0.264583">Noms attribués de quelque manière que </tspan><tspan
         sodipodi:role="line"
         x="141.2764"
         y="94.99987"
         style="font-size:5.64444px;stroke-width:0.264583"
         id="tspan3013">ce soit à l'intérieur d'une fonction, et non </tspan><tspan
         sodipodi:role="line"
         x="141.2764"
         y="103.81932"
         style="font-size:5.64444px;stroke-width:0.264583"
         id="tspan3015">déclarés gloabl dans cette fonction.</tspan><tspan
         sodipodi:role="line"
         x="141.2764"
         y="112.63877"
         style="stroke-width:0.264583"
         id="tspan3011" /></text>
    <rect
       style="fill:#000000;fill-opacity:0;stroke:#1a537f;stroke-width:1"
       id="rect3017"
       width="105.11044"
       height="42.17807"
       x="136.24187"
       y="66.949318" />
    <text
       xml:space="preserve"
       style="font-size:7.05556px;line-height:1.25;font-family:Alegreya;-inkscape-font-specification:Alegreya;stroke-width:0.264583"
       x="122.29119"
       y="41.739269"
       id="text3005-5"><tspan
         sodipodi:role="line"
         id="tspan3003-8"
         x="122.29119"
         y="41.739269"
         style="stroke-width:0.264583">Eclosing function locals (function)</tspan></text>
    <text
       xml:space="preserve"
       style="font-size:5.64444px;line-height:1.25;font-family:Alegreya;-inkscape-font-specification:Alegreya;stroke-width:0.264583"
       x="123.05099"
       y="53.234562"
       id="text3045"><tspan
         sodipodi:role="line"
         id="tspan3043"
         x="123.05099"
         y="53.234562"
         style="font-size:5.64444px;stroke-width:0.264583">Noms dans le local scope de toutes les fonctions </tspan><tspan
         sodipodi:role="line"
         x="123.05099"
         y="60.290112"
         style="font-size:5.64444px;stroke-width:0.264583"
         id="tspan3053">englobantes, de l'intérieur à l'extérieur.</tspan></text>
    <rect
       style="fill:#000000;fill-opacity:0;stroke:#1a537f;stroke-width:1"
       id="rect3055"
       width="131.84279"
       height="85.21257"
       x="116.45718"
       y="31.007906" />
    <text
       xml:space="preserve"
       style="font-size:5.64444px;line-height:1.25;font-family:Alegreya;-inkscape-font-specification:Alegreya;stroke-width:0.264583"
       x="102.76722"
       y="14.059357"
       id="text3059"><tspan
         sodipodi:role="line"
         id="tspan3057"
         x="102.76722"
         y="14.059357"
         style="font-size:5.64444px;stroke-width:0.264583">Noms attribués au niveau supérieur d'un fichier de </tspan><tspan
         sodipodi:role="line"
         x="102.76722"
         y="21.114906"
         style="font-size:5.64444px;stroke-width:0.264583"
         id="tspan3087">module, ou déclarés globaux dans une def du fichier</tspan></text>
    <text
       xml:space="preserve"
       style="font-size:7.05556px;line-height:1.25;font-family:Alegreya;-inkscape-font-specification:Alegreya;stroke-width:0.264583"
       x="102.3435"
       y="2.7681313"
       id="text3005-5-1"><tspan
         sodipodi:role="line"
         id="tspan3003-8-2"
         x="102.3435"
         y="2.7681313"
         style="stroke-width:0.264583">Global (module)</tspan></text>
    <rect
       style="fill:#000000;fill-opacity:0;stroke:#1a537f;stroke-width:1"
       id="rect3089"
       width="160.34361"
       height="130.88593"
       x="96.741768"
       y="-7.0296788" />
    <text
       xml:space="preserve"
       style="font-size:7.05556px;line-height:1.25;font-family:Alegreya;-inkscape-font-specification:Alegreya;stroke-width:0.264583"
       x="77.266342"
       y="-25.144802"
       id="text3005-5-1-2"><tspan
         sodipodi:role="line"
         id="tspan3003-8-2-8"
         x="77.266342"
         y="-25.144802"
         style="stroke-width:0.264583">Built-in (Python)</tspan></text>
    <text
       xml:space="preserve"
       style="font-size:5.64444px;line-height:1.25;font-family:Alegreya;-inkscape-font-specification:Alegreya;stroke-width:0.264583"
       x="78.15213"
       y="-13.917815"
       id="text3117"><tspan
         sodipodi:role="line"
         x="78.15213"
         y="-13.917815"
         style="font-size:5.64444px;stroke-width:0.264583"
         id="tspan3119">Noms pré-assignés dans le module des noms intégrés : open, range, SyntaxError....</tspan></text>
    <rect
       style="fill:#000000;fill-opacity:0;stroke:#1a537f;stroke-width:1"
       id="rect3123"
       width="203.08997"
       height="169.47833"
       x="69.590271"
       y="-37.398849" />
    <g
       id="analysis_x2C__analytics_x2C__magnifier"
       transform="matrix(2.0091796,0,0,2.0091797,47.648802,51.675576)">
      <g
         id="g2962">
        <g
           id="g2953">
          <rect
             fill="#b3e5fc"
             height="6"
             id="XMLID_7_"
             transform="matrix(0.707,-0.7072,0.7072,0.707,-13.014,31.4223)"
             width="4"
             x="29.417999"
             y="28.417999"
             style="fill:#376f9e;fill-opacity:1" />
          <path
             d="m 32.126,35.661 -4.95,-4.95 3.535,-3.536 4.95,4.95 z m -3.536,-4.95 3.536,3.536 2.121,-2.122 -3.536,-3.536 z"
             fill="#0277bd"
             id="path2951"
             style="fill:#ffd444;fill-opacity:1" />
        </g>
        <g
           id="g2958">
          <path
             d="m 45.207,42.379 -2.828,2.828 c -0.391,0.391 -1.023,0.391 -1.414,0 l -9.899,-9.899 c -0.391,-0.391 -0.391,-1.023 0,-1.414 l 2.828,-2.829 c 0.391,-0.39 1.023,-0.39 1.414,0 l 9.899,9.9 c 0.391,0.39 0.391,1.023 0,1.414 z"
             fill="#8c9eff"
             id="XMLID_6_"
             style="fill:#376f9e;fill-opacity:1" />
          <path
             d="m 41.672,45.999 c -0.384,0 -0.769,-0.146 -1.061,-0.438 l -9.899,-9.899 c -0.585,-0.585 -0.585,-1.536 0,-2.121 l 2.828,-2.829 c 0.584,-0.584 1.535,-0.583 2.121,0 l 9.899,9.9 c 0.585,0.585 0.585,1.537 0,2.122 l -2.828,2.828 c -0.292,0.291 -0.676,0.437 -1.06,0.437 z M 34.601,31.272 c -0.128,0 -0.256,0.049 -0.354,0.146 l -2.828,2.829 c -0.195,0.195 -0.195,0.512 0,0.707 l 9.899,9.899 c 0.195,0.195 0.512,0.195 0.707,0 l 2.828,-2.828 c 0.195,-0.195 0.195,-0.512 0,-0.708 l -9.899,-9.9 c -0.098,-0.096 -0.225,-0.145 -0.353,-0.145 z"
             fill="#0277bd"
             id="path2956"
             style="fill:#ffd444;fill-opacity:1" />
        </g>
        <path
           d="m 43.602,41.273 c -0.128,0 -0.256,-0.049 -0.354,-0.146 L 35.47,33.349 c -0.195,-0.195 -0.195,-0.512 0,-0.707 0.195,-0.195 0.512,-0.195 0.707,0 l 7.778,7.778 c 0.195,0.195 0.195,0.512 0,0.707 -0.098,0.097 -0.226,0.146 -0.353,0.146 z"
           fill="#e8eaf6"
           id="path2960" />
      </g>
      <g
         id="g2976">
        <circle
           cx="18.5"
           cy="18.5"
           fill="#e1f5fe"
           id="XMLID_1_"
           r="16" />
        <path
           d="M 18.5,35 C 9.402,35 2,27.598 2,18.5 2,9.402 9.402,2 18.5,2 27.598,2 35,9.402 35,18.5 c 0,3.703 -1.198,7.202 -3.466,10.119 -0.171,0.218 -0.485,0.256 -0.701,0.087 C 30.615,28.537 30.575,28.223 30.745,28.005 32.874,25.266 34,21.979 34,18.5 34,9.953 27.047,3 18.5,3 9.953,3 3,9.953 3,18.5 3,27.047 9.953,34 18.5,34 c 4.027,0 7.844,-1.538 10.745,-4.33 0.198,-0.19 0.515,-0.186 0.707,0.014 0.191,0.199 0.186,0.516 -0.014,0.707 C 26.85,33.363 22.788,35 18.5,35 Z"
           fill="#0277bd"
           id="path2965"
           style="fill:#ffd444;fill-opacity:1" />
        <g
           id="g2970">
          <circle
             cx="18.5"
             cy="18.5"
             fill="#b3e5fc"
             id="XMLID_9_"
             style="fill:#376f9e;fill-opacity:0.323529"
             r="13.5" />
          <path
             d="m 18.5,32.5 c -7.72,0 -14,-6.28 -14,-14 0,-7.72 6.28,-14 14,-14 7.72,0 14,6.28 14,14 0,7.72 -6.28,14 -14,14 z m 0,-27 c -7.168,0 -13,5.832 -13,13 0,7.168 5.832,13 13,13 7.168,0 13,-5.832 13,-13 0,-7.168 -5.832,-13 -13,-13 z"
             fill="#ffffff"
             id="path2968" />
        </g>
        <path
           d="M 17.627,8.536 C 17.369,8.536 17.15,8.338 17.13,8.077 17.108,7.802 17.313,7.56 17.587,7.538 17.889,7.513 18.192,7.5 18.5,7.5 18.776,7.5 19,7.724 19,8 c 0,0.276 -0.224,0.5 -0.5,0.5 -0.28,0 -0.557,0.012 -0.831,0.034 -0.015,10e-4 -0.028,0.002 -0.042,0.002 z"
           fill="#ffffff"
           id="path2972" />
        <path
           d="M 8,19 C 7.724,19 7.5,18.776 7.5,18.5 7.5,13.855 10.438,9.689 14.813,8.133 15.074,8.039 15.36,8.176 15.452,8.437 15.545,8.697 15.409,8.983 15.149,9.076 11.172,10.49 8.5,14.277 8.5,18.5 8.5,18.776 8.276,19 8,19 Z"
           fill="#ffffff"
           id="path2974" />
      </g>
    </g>
  </g>
</svg>
