<?xml version="1.0" encoding="UTF-8" standalone="no"?>
<svg
   xmlns:dc="http://purl.org/dc/elements/1.1/"
   xmlns:cc="http://creativecommons.org/ns#"
   xmlns:rdf="http://www.w3.org/1999/02/22-rdf-syntax-ns#"
   xmlns:svg="http://www.w3.org/2000/svg"
   xmlns="http://www.w3.org/2000/svg"
   xmlns:sodipodi="http://sodipodi.sourceforge.net/DTD/sodipodi-0.dtd"
   xmlns:inkscape="http://www.inkscape.org/namespaces/inkscape"
   width="170.29684mm"
   height="189.86723mm"
   viewBox="0 0 170.29684 189.86723"
   version="1.1"
   id="svg3720"
   inkscape:version="1.0.2-2 (e86c870879, 2021-01-15)"
   sodipodi:docname="pacman.svg">
  <defs
     id="defs3714" />
  <sodipodi:namedview
     id="base"
     pagecolor="#ffffff"
     bordercolor="#666666"
     borderopacity="1.0"
     inkscape:pageopacity="0.0"
     inkscape:pageshadow="2"
     inkscape:zoom="0.39519943"
     inkscape:cx="655.23694"
     inkscape:cy="555.85695"
     inkscape:document-units="mm"
     inkscape:current-layer="layer1"
     inkscape:document-rotation="0"
     showgrid="false"
     fit-margin-top="0"
     fit-margin-left="0"
     fit-margin-right="0"
     fit-margin-bottom="0"
     inkscape:window-width="1346"
     inkscape:window-height="1040"
     inkscape:window-x="234"
     inkscape:window-y="0"
     inkscape:window-maximized="0" />
  <metadata
     id="metadata3717">
    <rdf:RDF>
      <cc:Work
         rdf:about="">
        <dc:format>image/svg+xml</dc:format>
        <dc:type
           rdf:resource="http://purl.org/dc/dcmitype/StillImage" />
        <dc:title></dc:title>
      </cc:Work>
    </rdf:RDF>
  </metadata>
  <g
     inkscape:label="Layer 1"
     inkscape:groupmode="layer"
     id="layer1"
     transform="translate(-2.0937887,-0.65919267)">
    <path
       d="m 120.08198,95.592808 50.17936,-50.179315 c 2.71238,-2.71219 2.71238,-6.10285 0.67887,-8.81529 C 152.63142,13.542963 126.18582,0.65919267 97.027407,0.65919267 c -52.213318,0 -94.9336183,42.71993033 -94.9336183,94.93361533 0,52.213682 42.7203003,94.933612 94.9336183,94.933612 29.158413,0 55.604013,-12.88377 73.912803,-35.26091 2.03486,-2.7123 2.03486,-6.78084 -0.67887,-8.81536 z M 83.464767,82.030973 c -11.527708,0 -20.343008,-8.81531 -20.343008,-20.34306 0,-11.52759 8.8153,-20.34291 20.343008,-20.34291 11.52752,0 20.342783,8.81532 20.342783,20.34291 0,11.52775 -8.815263,20.34306 -20.342783,20.34306 z"
       id="path4285"
       style="fill:#ffd040;fill-opacity:1;stroke-width:6.78099" />
  </g>
  <style
     type="text/css"
     id="style4283">
	.st0{fill:none;stroke:#000000;stroke-width:2;stroke-linecap:round;stroke-linejoin:round;stroke-miterlimit:10;}
</style>
</svg>
