<?xml version="1.0" encoding="UTF-8" standalone="no"?>
<svg
   xmlns:dc="http://purl.org/dc/elements/1.1/"
   xmlns:cc="http://creativecommons.org/ns#"
   xmlns:rdf="http://www.w3.org/1999/02/22-rdf-syntax-ns#"
   xmlns:svg="http://www.w3.org/2000/svg"
   xmlns="http://www.w3.org/2000/svg"
   xmlns:sodipodi="http://sodipodi.sourceforge.net/DTD/sodipodi-0.dtd"
   xmlns:inkscape="http://www.inkscape.org/namespaces/inkscape"
   width="123.5991mm"
   height="112.30574mm"
   viewBox="0 0 123.5991 112.30574"
   version="1.1"
   id="svg8"
   inkscape:version="1.0.2-2 (e86c870879, 2021-01-15)"
   sodipodi:docname="pizza.svg">
  <defs
     id="defs2" />
  <sodipodi:namedview
     id="base"
     pagecolor="#ffffff"
     bordercolor="#666666"
     borderopacity="1.0"
     inkscape:pageopacity="0.0"
     inkscape:pageshadow="2"
     inkscape:zoom="0.5588964"
     inkscape:cx="155.19331"
     inkscape:cy="185.60342"
     inkscape:document-units="mm"
     inkscape:current-layer="layer1"
     inkscape:document-rotation="0"
     showgrid="false"
     fit-margin-top="0"
     fit-margin-left="0"
     fit-margin-right="0"
     fit-margin-bottom="0"
     inkscape:window-width="1346"
     inkscape:window-height="1040"
     inkscape:window-x="26"
     inkscape:window-y="0"
     inkscape:window-maximized="0" />
  <metadata
     id="metadata5">
    <rdf:RDF>
      <cc:Work
         rdf:about="">
        <dc:format>image/svg+xml</dc:format>
        <dc:type
           rdf:resource="http://purl.org/dc/dcmitype/StillImage" />
        <dc:title></dc:title>
      </cc:Work>
    </rdf:RDF>
  </metadata>
  <g
     inkscape:label="Layer 1"
     inkscape:groupmode="layer"
     id="layer1"
     transform="translate(-36.668309,-27.639488)">
    <g
       id="g936"
       transform="matrix(2.1166666,0,0,2.1166666,36.669673,21.993985)">
      <g
         id="g865">
	<circle
   cx="36.504002"
   cy="21.827"
   r="1"
   id="circle833" />

	<circle
   cx="41.722"
   cy="19.179001"
   r="1"
   id="circle835" />

	<circle
   cx="40.41"
   cy="21.695"
   r="1"
   id="circle837" />

	<circle
   cx="14.256"
   cy="17.059999"
   r="1"
   id="circle839" />

	<circle
   cx="20.087999"
   cy="15.736"
   r="1"
   id="circle841" />

	<circle
   cx="16.865"
   cy="14.736"
   r="1"
   id="circle843" />

	<circle
   cx="12.006"
   cy="33.124001"
   r="1"
   id="circle845" />

	<circle
   cx="15.256"
   cy="30.799999"
   r="1"
   id="circle847" />

	<circle
   cx="16.865"
   cy="32.799999"
   r="1"
   id="circle849" />

	<path
   d="m 26.184,11.787 c 0.188,-0.043 0.377,-0.009 0.53,0.087 0.079,0.049 0.218,0.161 0.259,0.358 0.289,1.4 1.701,2.294 3.153,2.001 0.189,-0.042 0.377,-0.009 0.53,0.087 0.079,0.049 0.218,0.161 0.259,0.358 0.142,0.689 0.555,1.276 1.163,1.653 0.43,0.267 0.921,0.404 1.423,0.404 0.188,0 0.378,-0.019 0.566,-0.058 0.541,-0.112 0.889,-0.642 0.776,-1.183 -0.112,-0.54 -0.64,-0.885 -1.182,-0.776 -0.19,0.04 -0.376,0.008 -0.53,-0.087 C 33.052,14.582 32.913,14.47 32.873,14.273 32.73,13.584 32.317,12.996 31.709,12.62 31.118,12.252 30.411,12.129 29.72,12.273 29.35,12.352 28.996,12.149 28.93,11.827 28.787,11.138 28.374,10.55 27.766,10.174 27.175,9.807 26.466,9.683 25.776,9.827 25.235,9.939 24.887,10.469 25,11.01 c 0.113,0.54 0.638,0.887 1.184,0.777 z"
   id="path851" />

	<path
   d="m 30.14,25.942 c -0.552,0.012 -0.99,0.47 -0.979,1.021 0.003,0.116 -0.064,0.192 -0.112,0.193 -1.166,0.026 -2.093,1.028 -2.067,2.235 0.003,0.116 -0.064,0.192 -0.112,0.193 -0.578,0.013 -1.111,0.261 -1.504,0.697 -0.376,0.42 -0.576,0.966 -0.563,1.539 0.012,0.544 0.457,0.978 0.999,0.978 0.008,0 0.015,0 0.023,0 0.552,-0.013 0.99,-0.47 0.977,-1.022 -0.001,-0.074 0.038,-0.19 0.112,-0.191 1.166,-0.026 2.094,-1.029 2.068,-2.236 -0.003,-0.116 0.064,-0.191 0.111,-0.192 1.166,-0.026 2.094,-1.029 2.068,-2.236 -0.012,-0.552 -0.442,-0.949 -1.021,-0.979 z"
   id="path853" />

	<path
   d="m 22.976,22.292 c -0.152,0.345 -0.521,0.517 -0.821,0.385 -0.644,-0.283 -1.362,-0.288 -2.021,-0.011 -0.641,0.269 -1.151,0.773 -1.436,1.421 -0.222,0.505 0.007,1.096 0.513,1.317 0.131,0.058 0.268,0.085 0.402,0.085 0.384,0 0.751,-0.223 0.916,-0.598 0.078,-0.176 0.212,-0.312 0.378,-0.382 0.086,-0.036 0.258,-0.083 0.442,-0.003 1.31,0.579 2.861,-0.055 3.458,-1.409 0.078,-0.176 0.212,-0.312 0.378,-0.382 0.086,-0.036 0.258,-0.083 0.442,-0.003 0.644,0.283 1.362,0.288 2.021,0.011 0.641,-0.269 1.151,-0.773 1.436,-1.421 0.222,-0.505 -0.007,-1.096 -0.513,-1.317 -0.506,-0.224 -1.095,0.006 -1.318,0.513 -0.078,0.176 -0.212,0.312 -0.378,0.382 -0.085,0.036 -0.257,0.082 -0.442,0.003 -0.646,-0.283 -1.363,-0.288 -2.022,-0.011 -0.642,0.269 -1.151,0.773 -1.435,1.42 z"
   id="path855" />

	<path
   d="M 57.51,18.848 C 57.503,18.829 57.488,18.817 57.48,18.798 57.204,17.692 56.851,16.654 56.421,15.687 56.407,15.64 56.379,15.598 56.358,15.552 54.068,10.526 49.788,7.332 44.623,5.389 44.591,5.373 44.568,5.347 44.533,5.334 44.509,5.326 44.485,5.33 44.461,5.324 42.256,4.509 39.895,3.917 37.466,3.501 37.46,3.499 37.457,3.494 37.451,3.492 37.321,3.446 37.187,3.429 37.057,3.438 32.066,2.626 26.816,2.542 22.038,2.791 c -0.013,0 -0.023,-0.007 -0.036,-0.007 -0.021,0 -0.039,0.011 -0.061,0.012 C 17.655,3.023 13.756,3.511 10.796,3.976 8.234,4.38 6.31,6.444 6.053,9.012 c 0,10e-4 0,0.003 0,0.003 -0.005,0.052 -0.02,0.099 -0.024,0.15 L 4.527,28.361 c -1.821,1.161 -5.663,4.307 -4.204,9.463 0.515,1.818 1.356,2.887 2.501,3.174 0.209,0.053 0.55,0.227 0.5,0.545 -0.386,2.448 -1.042,6.965 -1.091,9.713 -0.024,1.323 0.411,2.433 1.258,3.207 1.2,1.098 2.888,1.262 3.782,1.262 0.314,0 0.531,-0.021 0.594,-0.027 0.353,-0.023 3.474,-0.291 4.504,-2.447 0.627,-1.312 0.297,-2.912 -0.972,-4.751 l 16.396,-6.647 c 0.003,0.002 0.007,0.002 0.01,0.004 0.195,0.103 0.404,0.184 0.62,0.25 0.034,0.011 0.065,0.028 0.1,0.038 0.25,0.069 0.512,0.115 0.787,0.134 0.228,0.014 0.452,0.014 0.672,0.004 0.049,-0.002 0.098,-0.009 0.148,-0.012 0.187,-0.013 0.37,-0.034 0.549,-0.065 0.045,-0.008 0.09,-0.016 0.135,-0.025 0.211,-0.041 0.416,-0.094 0.613,-0.159 0.013,-0.004 0.027,-0.008 0.04,-0.012 0.731,-0.248 1.364,-0.653 1.838,-1.207 0.18,-0.21 0.329,-0.445 0.465,-0.691 0.004,-0.006 0.007,-0.013 0.01,-0.02 0.132,-0.242 0.242,-0.503 0.331,-0.78 0.003,-0.009 0.007,-0.015 0.01,-0.024 l 18.779,-7.615 c 0.125,-0.042 3.097,-1.074 4.619,-4.198 1.166,-2.391 1.162,-5.292 -0.011,-8.627 z m -2.506,2.045 c -0.348,-0.762 -0.727,-1.512 -1.135,-2.25 l 1.184,-1.013 c 0.284,0.787 0.522,1.615 0.698,2.495 0.176,0.879 0.024,1.76 -0.376,2.504 0.013,-0.547 -0.092,-1.127 -0.371,-1.736 z m -0.785,-5.18 -1.398,1.196 c -0.747,-1.131 -1.602,-2.214 -2.599,-3.226 l 1.218,-1.768 c 1.096,1.104 2.035,2.363 2.779,3.798 z M 44.111,9.435 44.78,7.589 c 1.893,0.791 3.633,1.774 5.156,2.982 l -1.201,1.744 c -1.308,-1.08 -2.837,-2.048 -4.624,-2.88 z M 37.2,7.252 37.786,5.571 c 1.769,0.329 3.49,0.758 5.123,1.311 L 42.266,8.657 C 40.757,8.093 39.071,7.623 37.2,7.252 Z M 30.003,6.414 V 4.721 c 1.935,0.084 3.876,0.25 5.78,0.521 L 35.202,6.91 C 33.6,6.673 31.874,6.504 30.003,6.414 Z M 26.78,4.651 c 0.406,0 0.814,0.003 1.223,0.01 v 1.687 c -1.57,-0.028 -3.239,-10e-4 -5,0.077 V 4.742 C 24.24,4.687 25.5,4.651 26.78,4.651 Z M 15.003,7.087 V 5.412 c 1.837,-0.224 3.859,-0.423 6,-0.562 v 1.681 c -1.888,0.123 -3.891,0.31 -6,0.556 z M 11.108,5.953 C 11.699,5.86 12.339,5.766 13.003,5.673 V 7.329 C 11.519,7.524 9.963,7.758 8.368,8.015 8.872,6.938 9.875,6.147 11.108,5.953 Z m -0.54,46.432 C 10.121,53.326 8.325,53.659 7.693,53.705 7.214,53.76 5.659,53.736 4.84,52.987 4.418,52.6 4.218,52.046 4.233,51.292 4.28,48.665 4.921,44.252 5.3,41.855 5.502,40.574 4.666,39.398 3.312,39.058 2.934,38.963 2.537,38.298 2.249,37.279 1.078,33.141 4.469,30.683 5.981,29.818 L 6.44,29.555 7.962,10.105 c 5.287,-0.874 9.931,-1.409 14.01,-1.651 0.011,0 0.02,0.006 0.031,0.006 0.018,0 0.033,-0.009 0.051,-0.01 5.398,-0.316 9.812,-0.124 13.451,0.452 0.019,0.008 0.031,0.023 0.051,0.03 0.109,0.038 0.22,0.056 0.329,0.056 0.032,0 0.062,-0.011 0.094,-0.015 2.441,0.416 4.515,1.012 6.305,1.741 0.076,0.056 0.151,0.115 0.245,0.149 0.067,0.024 0.135,0.026 0.203,0.035 2.203,0.951 3.947,2.115 5.365,3.414 0.07,0.11 0.162,0.208 0.276,0.287 0.023,0.016 0.048,0.021 0.072,0.035 2.218,2.143 3.61,4.619 4.74,7.09 0.883,1.929 -1.665,3.369 -1.956,3.525 l -18.954,7.881 -0.123,0.487 c -0.133,0.53 -0.137,1.102 -0.013,1.654 0.267,1.182 0.326,2.176 0.189,2.957 l -0.023,0.113 c -0.177,0.847 -0.6,1.343 -1.114,1.624 -0.505,0.264 -1.073,0.32 -1.465,0.321 -0.094,-0.001 -0.188,0 -0.279,-0.007 -0.176,-0.012 -0.335,-0.046 -0.482,-0.097 -0.014,-0.005 -0.028,-0.01 -0.042,-0.015 -0.145,-0.055 -0.278,-0.127 -0.397,-0.222 l -0.07,-0.056 c -0.057,-0.052 -0.114,-0.103 -0.165,-0.166 -0.581,-0.715 -0.7,-2.093 -0.564,-3.069 l 0.24,-1.732 -16.267,6.764 c -1.863,0.724 -2.96,1.707 -3.353,3.006 -0.417,1.381 0.027,2.976 1.36,4.873 0.6,0.853 1.234,2.033 0.861,2.82 z m -0.305,-7.113 c 0.2,-0.662 0.928,-1.241 2.185,-1.729 l 13.254,-5.511 c 0.052,0.706 0.21,1.527 0.595,2.269 L 10.42,46.738 C 10.204,46.164 10.142,45.67 10.263,45.272 Z M 55.737,26.569 c -1.142,2.372 -3.455,3.199 -3.529,3.227 L 34.389,37.02 C 34.363,36.346 34.271,35.622 34.092,34.833 34.071,34.741 34.058,34.649 34.053,34.559 L 54.327,26.13 c 0.77,-0.32 1.422,-0.811 1.961,-1.396 -0.101,0.653 -0.278,1.269 -0.551,1.835 z"
   id="path857"
   style="fill:#ffe959;fill-opacity:1" />

	<path
   d="m 14.046,36.921 c 4.228,0 7.667,-2.738 7.667,-6.104 0,-2.046 -1.002,-2.958 -1.844,-3.363 -0.936,-0.45 -1.988,-0.45 -2.823,-0.45 -1.573,0 -9.667,2.023 -9.667,5.813 0,4.104 3.09,4.104 6.667,4.104 z m 3.008,-7.917 c 0.004,0 0.008,0 0.012,0 0.632,0 1.414,0.002 1.936,0.253 0.213,0.103 0.711,0.342 0.711,1.561 0,2.225 -2.595,4.104 -5.667,4.104 -4.667,0 -4.667,-0.445 -4.667,-2.104 0,-1.78 6.132,-3.814 7.675,-3.814 z"
   id="path859"
   style="fill:#366c99;fill-opacity:1" />

	<path
   d="m 16.365,20.695 c 4.228,0 7.667,-2.738 7.667,-6.104 0,-2.046 -1.002,-2.958 -1.844,-3.363 -0.932,-0.448 -2.012,-0.45 -2.812,-0.45 -0.004,0 -0.007,0 -0.011,0 -1.573,0 -9.667,2.023 -9.667,5.813 0,4.104 3.09,4.104 6.667,4.104 z m 3.008,-7.917 c 0.004,0 0.008,0 0.012,0 0.632,0 1.414,0.002 1.936,0.253 0.213,0.103 0.711,0.342 0.711,1.561 0,2.225 -2.595,4.104 -5.667,4.104 -4.667,0 -4.667,-0.445 -4.667,-2.104 0,-1.78 6.132,-3.814 7.675,-3.814 z"
   id="path861"
   style="fill:#366c99;fill-opacity:1" />

	<path
   d="m 32.003,21.551 c 0,4.103 3.089,4.103 6.667,4.103 4.228,0 7.667,-2.737 7.667,-6.103 0,-2.047 -1.003,-2.959 -1.844,-3.363 -0.933,-0.449 -2.013,-0.451 -2.812,-0.451 -0.004,0 -0.007,0 -0.011,0 -1.574,-10e-4 -9.667,2.023 -9.667,5.814 z m 9.673,-3.815 c 0.004,0 0.008,0 0.012,0 0.632,0 1.415,0.002 1.938,0.253 0.213,0.103 0.711,0.343 0.711,1.562 0,2.224 -2.595,4.103 -5.667,4.103 -4.667,0 -4.667,-0.445 -4.667,-2.103 0,-1.781 6.132,-3.815 7.673,-3.815 z"
   id="path863"
   style="fill:#366c99;fill-opacity:1" />

</g>
      <g
         id="g867">
</g>
      <g
         id="g869">
</g>
      <g
         id="g871">
</g>
      <g
         id="g873">
</g>
      <g
         id="g875">
</g>
      <g
         id="g877">
</g>
      <g
         id="g879">
</g>
      <g
         id="g881">
</g>
      <g
         id="g883">
</g>
      <g
         id="g885">
</g>
      <g
         id="g887">
</g>
      <g
         id="g889">
</g>
      <g
         id="g891">
</g>
      <g
         id="g893">
</g>
      <g
         id="g895">
</g>
    </g>
  </g>
</svg>
