<?xml version="1.0" encoding="UTF-8" standalone="no"?>
<svg
   xmlns:dc="http://purl.org/dc/elements/1.1/"
   xmlns:cc="http://creativecommons.org/ns#"
   xmlns:rdf="http://www.w3.org/1999/02/22-rdf-syntax-ns#"
   xmlns:svg="http://www.w3.org/2000/svg"
   xmlns="http://www.w3.org/2000/svg"
   xmlns:xlink="http://www.w3.org/1999/xlink"
   xmlns:sodipodi="http://sodipodi.sourceforge.net/DTD/sodipodi-0.dtd"
   xmlns:inkscape="http://www.inkscape.org/namespaces/inkscape"
   width="688.16077mm"
   height="291.45502mm"
   viewBox="0 0 688.16076 291.45502"
   version="1.1"
   id="svg950"
   sodipodi:docname="pythonMeme.svg"
   inkscape:version="1.0.2-2 (e86c870879, 2021-01-15)">
  <defs
     id="defs944">
    <linearGradient
       x1="24.714943"
       y1="22.898216"
       x2="151.13554"
       y2="148.33669"
       id="linearGradient-1"
       gradientTransform="scale(0.99888681,1.0011144)"
       gradientUnits="userSpaceOnUse">
      <stop
         stop-color="#387EB8"
         offset="0%"
         id="stop918" />
      <stop
         stop-color="#366994"
         offset="100%"
         id="stop920" />
    </linearGradient>
    <linearGradient
       x1="102.48342"
       y1="103.26588"
       x2="238.25963"
       y2="231.90547"
       id="linearGradient-2"
       gradientTransform="scale(0.99888678,1.0011145)"
       gradientUnits="userSpaceOnUse">
      <stop
         stop-color="#FFE052"
         offset="0%"
         id="stop923" />
      <stop
         stop-color="#FFC331"
         offset="100%"
         id="stop925" />
    </linearGradient>
    <linearGradient
       inkscape:collect="always"
       xlink:href="#linearGradient-1"
       id="linearGradient2021"
       gradientUnits="userSpaceOnUse"
       gradientTransform="scale(0.99888681,1.0011144)"
       x1="24.714943"
       y1="22.898216"
       x2="151.13554"
       y2="148.33669" />
    <linearGradient
       inkscape:collect="always"
       xlink:href="#linearGradient-2"
       id="linearGradient2023"
       gradientUnits="userSpaceOnUse"
       gradientTransform="scale(0.99888678,1.0011145)"
       x1="102.48342"
       y1="103.26588"
       x2="238.25963"
       y2="231.90547" />
    <linearGradient
       inkscape:collect="always"
       xlink:href="#linearGradient-1"
       id="linearGradient2021-4-5"
       gradientUnits="userSpaceOnUse"
       gradientTransform="scale(0.99888681,1.0011144)"
       x1="24.714943"
       y1="22.898216"
       x2="151.13554"
       y2="148.33669" />
    <linearGradient
       inkscape:collect="always"
       xlink:href="#linearGradient-2"
       id="linearGradient2023-1-6"
       gradientUnits="userSpaceOnUse"
       gradientTransform="scale(0.99888678,1.0011145)"
       x1="102.48342"
       y1="103.26588"
       x2="238.25963"
       y2="231.90547" />
    <linearGradient
       inkscape:collect="always"
       xlink:href="#linearGradient-1"
       id="linearGradient2021-4-8"
       gradientUnits="userSpaceOnUse"
       gradientTransform="scale(0.99888681,1.0011144)"
       x1="24.714943"
       y1="22.898216"
       x2="151.13554"
       y2="148.33669" />
    <linearGradient
       inkscape:collect="always"
       xlink:href="#linearGradient-2"
       id="linearGradient2023-1-69"
       gradientUnits="userSpaceOnUse"
       gradientTransform="scale(0.99888678,1.0011145)"
       x1="102.48342"
       y1="103.26588"
       x2="238.25963"
       y2="231.90547" />
    <linearGradient
       inkscape:collect="always"
       xlink:href="#linearGradient-1"
       id="linearGradient2021-4-1"
       gradientUnits="userSpaceOnUse"
       gradientTransform="scale(0.99888681,1.0011144)"
       x1="24.714943"
       y1="22.898216"
       x2="151.13554"
       y2="148.33669" />
    <linearGradient
       inkscape:collect="always"
       xlink:href="#linearGradient-2"
       id="linearGradient2023-1-8"
       gradientUnits="userSpaceOnUse"
       gradientTransform="scale(0.99888678,1.0011145)"
       x1="102.48342"
       y1="103.26588"
       x2="238.25963"
       y2="231.90547" />
    <linearGradient
       inkscape:collect="always"
       xlink:href="#linearGradient-1"
       id="linearGradient2540"
       gradientUnits="userSpaceOnUse"
       gradientTransform="scale(0.99888681,1.0011144)"
       x1="24.714943"
       y1="22.898216"
       x2="151.13554"
       y2="148.33669" />
    <linearGradient
       inkscape:collect="always"
       xlink:href="#linearGradient-2"
       id="linearGradient2542"
       gradientUnits="userSpaceOnUse"
       gradientTransform="scale(0.99888678,1.0011145)"
       x1="102.48342"
       y1="103.26588"
       x2="238.25963"
       y2="231.90547" />
    <linearGradient
       inkscape:collect="always"
       xlink:href="#linearGradient-1"
       id="linearGradient2673"
       gradientUnits="userSpaceOnUse"
       gradientTransform="scale(0.99888681,1.0011144)"
       x1="24.714943"
       y1="22.898216"
       x2="151.13554"
       y2="148.33669" />
    <linearGradient
       inkscape:collect="always"
       xlink:href="#linearGradient-2"
       id="linearGradient2675"
       gradientUnits="userSpaceOnUse"
       gradientTransform="scale(0.99888678,1.0011145)"
       x1="102.48342"
       y1="103.26588"
       x2="238.25963"
       y2="231.90547" />
  </defs>
  <sodipodi:namedview
     id="base"
     pagecolor="#ffffff"
     bordercolor="#666666"
     borderopacity="1.0"
     inkscape:pageopacity="0.0"
     inkscape:pageshadow="2"
     inkscape:zoom="0.39519943"
     inkscape:cx="2039.987"
     inkscape:cy="932.09697"
     inkscape:document-units="mm"
     inkscape:current-layer="layer1"
     inkscape:document-rotation="0"
     showgrid="false"
     fit-margin-top="0"
     fit-margin-left="0"
     fit-margin-right="0"
     fit-margin-bottom="0"
     inkscape:window-width="1346"
     inkscape:window-height="1040"
     inkscape:window-x="78"
     inkscape:window-y="0"
     inkscape:window-maximized="0" />
  <metadata
     id="metadata947">
    <rdf:RDF>
      <cc:Work
         rdf:about="">
        <dc:format>image/svg+xml</dc:format>
        <dc:type
           rdf:resource="http://purl.org/dc/dcmitype/StillImage" />
        <dc:title></dc:title>
      </cc:Work>
    </rdf:RDF>
  </metadata>
  <g
     inkscape:label="Layer 1"
     inkscape:groupmode="layer"
     id="layer1"
     transform="translate(99.559625,59.374165)">
    <g
       id="g934"
       transform="matrix(0.19288125,0,0,0.19288125,173.70309,-4.5241523)">
      <path
         d="M 126.91587,0.07227555 C 62.083583,0.07228017 66.132129,28.187465 66.132129,28.187465 l 0.07227,29.127047 h 61.867881 v 8.745341 H 41.630717 c 0,0 -41.4861659,-4.704909 -41.4861659,60.711467 -4.63e-6,65.41635 36.2100509,63.09655 36.2100509,63.09655 h 21.610389 v -30.35573 c 0,0 -1.164855,-36.21005 35.631847,-36.21005 h 61.361942 c 0,0 34.47544,0.5573 34.47544,-33.31903 V 33.969509 c 0,-5e-6 5.23432,-33.89723345 -62.51835,-33.89723345 z M 92.801807,19.65895 c 6.1554,-5e-6 11.130433,4.975035 11.130433,11.130434 1e-5,6.1554 -4.975033,11.130435 -11.130433,11.130435 -6.1554,5e-6 -11.130435,-4.975035 -11.130435,-11.130435 -5e-6,-6.155399 4.975035,-11.130434 11.130435,-11.130434 z"
         fill="url(#linearGradient-1)"
         id="path930"
         style="fill:url(#linearGradient2021)" />
      <path
         d="m 128.7571,254.12627 c 64.8323,0 60.78374,-28.11519 60.78374,-28.11519 l -0.0723,-29.12705 h -61.86787 v -8.74534 h 86.44156 c 0,0 41.48617,4.7049 41.48617,-60.71148 2e-5,-65.416353 -36.21005,-63.096551 -36.21005,-63.096551 h -21.61039 v 30.355724 c 0,0 1.16487,36.210047 -35.63185,36.210047 h -61.36195 c 0,0 -34.475435,-0.55729 -34.475435,33.31906 v 56.01355 c 0,0 -5.234323,33.89723 62.518355,33.89723 v 0 z m 34.11406,-19.58667 c -6.1554,0 -11.13043,-4.97504 -11.13043,-11.13044 0,-6.1554 4.97503,-11.13043 11.13043,-11.13043 6.1554,0 11.13043,4.97503 11.13043,11.13043 3e-5,6.1554 -4.97503,11.13044 -11.13043,11.13044 z"
         fill="url(#linearGradient-2)"
         id="path932"
         style="fill:url(#linearGradient2023)" />
    </g>
    <g
       id="g1593"
       transform="matrix(0.14061043,0,0,0.14061044,9.224165,-4.9682091)">
      <path
         fill="#00599c"
         d="M 302.107,258.262 C 304.508,254.103 306,249.417 306,245.209 V 99.14 c 0,-4.208 -1.49,-8.893 -3.892,-13.052 L 153,172.175 Z"
         id="path1559" />
      <path
         fill="#004482"
         d="m 166.25,341.193 126.5,-73.034 c 3.644,-2.104 6.956,-5.737 9.357,-9.897 L 153,172.175 3.893,258.263 c 2.401,4.159 5.714,7.793 9.357,9.896 l 126.5,73.034 c 7.287,4.208 19.213,4.208 26.5,0 z"
         id="path1561" />
      <path
         fill="#659ad2"
         d="m 302.108,86.087 c -2.402,-4.16 -5.715,-7.793 -9.358,-9.897 L 166.25,3.156 c -7.287,-4.208 -19.213,-4.208 -26.5,0 L 13.25,76.19 C 5.962,80.397 0,90.725 0,99.14 v 146.069 c 0,4.208 1.491,8.894 3.893,13.053 L 153,172.175 Z"
         id="path1563" />
      <g
         id="g1567">
	<path
   fill="#ffffff"
   d="m 153,274.175 c -56.243,0 -102,-45.757 -102,-102 0,-56.243 45.757,-102 102,-102 36.292,0 70.139,19.53 88.331,50.968 l -44.143,25.544 C 188.083,130.951 171.15,121.175 153,121.175 c -28.122,0 -51,22.878 -51,51 0,28.121 22.878,51 51,51 18.152,0 35.085,-9.776 44.191,-25.515 l 44.143,25.543 c -18.192,31.441 -52.04,50.972 -88.334,50.972 z"
   id="path1565" />

</g>
      <g
         id="g1571">
	<polygon
   fill="#ffffff"
   points="255,166.508 243.666,166.508 243.666,155.175 232.334,155.175 232.334,166.508 221,166.508 221,177.841 232.334,177.841 232.334,189.175 243.666,189.175 243.666,177.841 255,177.841 "
   id="polygon1569" />

</g>
      <g
         id="g1575">
	<polygon
   fill="#ffffff"
   points="297.5,166.508 286.166,166.508 286.166,155.175 274.834,155.175 274.834,166.508 263.5,166.508 263.5,177.841 274.834,177.841 274.834,189.175 286.166,189.175 286.166,177.841 297.5,177.841 "
   id="polygon1573" />

</g>
    </g>
    <text
       xml:space="preserve"
       style="font-size:14.1111px;line-height:1.25;font-family:Alegreya;-inkscape-font-specification:Alegreya;stroke-width:0.264583"
       x="-42.468124"
       y="-26.915501"
       id="text1597"><tspan
         sodipodi:role="line"
         id="tspan1595"
         x="-42.468124"
         y="-26.915501"
         style="font-size:14.1111px;stroke-width:0.264583">Salut, c'est quoi ton nom ?</tspan></text>
    <text
       xml:space="preserve"
       style="font-size:14.1111px;line-height:1.25;font-family:Alegreya;-inkscape-font-specification:Alegreya;stroke-width:0.264583"
       x="-86.705833"
       y="62.546375"
       id="text1771"><tspan
         sodipodi:role="line"
         id="tspan1769"
         x="-86.705833"
         y="62.546375"
         style="font-size:14.1111px;stroke-width:0.264583">...de toute façon, je suis c++. </tspan><tspan
         sodipodi:role="line"
         x="-86.705833"
         y="80.185249"
         style="font-size:14.1111px;stroke-width:0.264583"
         id="tspan1773">Alors, euh... quelle est votre meilleure qualité ? </tspan><tspan
         sodipodi:role="line"
         x="-86.705833"
         y="97.824127"
         style="font-size:14.1111px;stroke-width:0.264583"
         id="tspan1775">Pour moi, je dirais que c'est la vitesse.</tspan></text>
    <text
       xml:space="preserve"
       style="font-size:14.1111px;line-height:1.25;font-family:Alegreya;-inkscape-font-specification:Alegreya;stroke-width:0.264583"
       x="-27.09329"
       y="172.74384"
       id="text1597-9"><tspan
         sodipodi:role="line"
         id="tspan1595-5"
         x="-27.09329"
         y="172.74384"
         style="font-size:14.1111px;stroke-width:0.264583">Desole... au revoir </tspan></text>
    <text
       xml:space="preserve"
       style="font-size:14.1111px;line-height:1.25;font-family:Alegreya;-inkscape-font-specification:Alegreya;stroke-width:0.264583"
       x="467.4567"
       y="176.34306"
       id="text1597-9-6"><tspan
         sodipodi:role="line"
         id="tspan1595-5-9"
         x="467.4567"
         y="176.34306"
         style="font-size:14.1111px;stroke-width:0.264583">Python! </tspan></text>
    <g
       id="g1593-7-5"
       transform="matrix(0.14061043,0,0,0.14061044,4.5968389,103.66367)">
      <path
         fill="#00599c"
         d="M 302.107,258.262 C 304.508,254.103 306,249.417 306,245.209 V 99.14 c 0,-4.208 -1.49,-8.893 -3.892,-13.052 L 153,172.175 Z"
         id="path1559-6-9" />
      <path
         fill="#004482"
         d="m 166.25,341.193 126.5,-73.034 c 3.644,-2.104 6.956,-5.737 9.357,-9.897 L 153,172.175 3.893,258.263 c 2.401,4.159 5.714,7.793 9.357,9.896 l 126.5,73.034 c 7.287,4.208 19.213,4.208 26.5,0 z"
         id="path1561-3-3" />
      <path
         fill="#659ad2"
         d="m 302.108,86.087 c -2.402,-4.16 -5.715,-7.793 -9.358,-9.897 L 166.25,3.156 c -7.287,-4.208 -19.213,-4.208 -26.5,0 L 13.25,76.19 C 5.962,80.397 0,90.725 0,99.14 v 146.069 c 0,4.208 1.491,8.894 3.893,13.053 L 153,172.175 Z"
         id="path1563-2-2" />
      <g
         id="g1567-8-2">
        <path
           fill="#ffffff"
           d="m 153,274.175 c -56.243,0 -102,-45.757 -102,-102 0,-56.243 45.757,-102 102,-102 36.292,0 70.139,19.53 88.331,50.968 l -44.143,25.544 C 188.083,130.951 171.15,121.175 153,121.175 c -28.122,0 -51,22.878 -51,51 0,28.121 22.878,51 51,51 18.152,0 35.085,-9.776 44.191,-25.515 l 44.143,25.543 c -18.192,31.441 -52.04,50.972 -88.334,50.972 z"
           id="path1565-7-5" />
      </g>
      <g
         id="g1571-2-9">
        <polygon
           fill="#ffffff"
           points="232.334,155.175 232.334,166.508 221,166.508 221,177.841 232.334,177.841 232.334,189.175 243.666,189.175 243.666,177.841 255,177.841 255,166.508 243.666,166.508 243.666,155.175 "
           id="polygon1569-4-0" />
      </g>
      <g
         id="g1575-3-9">
        <polygon
           fill="#ffffff"
           points="274.834,155.175 274.834,166.508 263.5,166.508 263.5,177.841 274.834,177.841 274.834,189.175 286.166,189.175 286.166,177.841 297.5,177.841 297.5,166.508 286.166,166.508 286.166,155.175 "
           id="polygon1573-5-5" />
      </g>
    </g>
    <g
       id="g1593-7-6"
       transform="matrix(-0.14061043,0,0,0.14061044,45.615151,178.64691)">
      <path
         fill="#00599c"
         d="M 302.107,258.262 C 304.508,254.103 306,249.417 306,245.209 V 99.14 c 0,-4.208 -1.49,-8.893 -3.892,-13.052 L 153,172.175 Z"
         id="path1559-6-5" />
      <path
         fill="#004482"
         d="m 166.25,341.193 126.5,-73.034 c 3.644,-2.104 6.956,-5.737 9.357,-9.897 L 153,172.175 3.893,258.263 c 2.401,4.159 5.714,7.793 9.357,9.896 l 126.5,73.034 c 7.287,4.208 19.213,4.208 26.5,0 z"
         id="path1561-3-33" />
      <path
         fill="#659ad2"
         d="m 302.108,86.087 c -2.402,-4.16 -5.715,-7.793 -9.358,-9.897 L 166.25,3.156 c -7.287,-4.208 -19.213,-4.208 -26.5,0 L 13.25,76.19 C 5.962,80.397 0,90.725 0,99.14 v 146.069 c 0,4.208 1.491,8.894 3.893,13.053 L 153,172.175 Z"
         id="path1563-2-4" />
      <g
         id="g1567-8-3">
        <path
           fill="#ffffff"
           d="m 153,274.175 c -56.243,0 -102,-45.757 -102,-102 0,-56.243 45.757,-102 102,-102 36.292,0 70.139,19.53 88.331,50.968 l -44.143,25.544 C 188.083,130.951 171.15,121.175 153,121.175 c -28.122,0 -51,22.878 -51,51 0,28.121 22.878,51 51,51 18.152,0 35.085,-9.776 44.191,-25.515 l 44.143,25.543 c -18.192,31.441 -52.04,50.972 -88.334,50.972 z"
           id="path1565-7-8" />
      </g>
      <g
         id="g1571-2-4">
        <polygon
           fill="#ffffff"
           points="232.334,166.508 221,166.508 221,177.841 232.334,177.841 232.334,189.175 243.666,189.175 243.666,177.841 255,177.841 255,166.508 243.666,166.508 243.666,155.175 232.334,155.175 "
           id="polygon1569-4-00" />
      </g>
      <g
         id="g1575-3-1">
        <polygon
           fill="#ffffff"
           points="274.834,166.508 263.5,166.508 263.5,177.841 274.834,177.841 274.834,189.175 286.166,189.175 286.166,177.841 297.5,177.841 297.5,166.508 286.166,166.508 286.166,155.175 274.834,155.175 "
           id="polygon1573-5-52" />
      </g>
    </g>
    <g
       id="g934-4-5"
       transform="matrix(0.19288125,0,0,0.19288125,173.51273,99.341183)">
      <path
         d="M 126.91587,0.07227555 C 62.083583,0.07228017 66.132129,28.187465 66.132129,28.187465 l 0.07227,29.127047 h 61.867881 v 8.745341 H 41.630717 c 0,0 -41.4861659,-4.704909 -41.4861659,60.711467 -4.63e-6,65.41635 36.2100509,63.09655 36.2100509,63.09655 h 21.610389 v -30.35573 c 0,0 -1.164855,-36.21005 35.631847,-36.21005 h 61.361942 c 0,0 34.47544,0.5573 34.47544,-33.31903 V 33.969509 c 0,-5e-6 5.23432,-33.89723345 -62.51835,-33.89723345 z M 92.801807,19.65895 c 6.1554,-5e-6 11.130433,4.975035 11.130433,11.130434 1e-5,6.1554 -4.975033,11.130435 -11.130433,11.130435 -6.1554,5e-6 -11.130435,-4.975035 -11.130435,-11.130435 -5e-6,-6.155399 4.975035,-11.130434 11.130435,-11.130434 z"
         fill="url(#linearGradient-1)"
         id="path930-4-3"
         style="fill:url(#linearGradient2021-4-5)" />
      <path
         d="m 128.7571,254.12627 c 64.8323,0 60.78374,-28.11519 60.78374,-28.11519 l -0.0723,-29.12705 h -61.86787 v -8.74534 h 86.44156 c 0,0 41.48617,4.7049 41.48617,-60.71148 2e-5,-65.416353 -36.21005,-63.096551 -36.21005,-63.096551 h -21.61039 v 30.355724 c 0,0 1.16487,36.210047 -35.63185,36.210047 h -61.36195 c 0,0 -34.475435,-0.55729 -34.475435,33.31906 v 56.01355 c 0,0 -5.234323,33.89723 62.518355,33.89723 v 0 z m 34.11406,-19.58667 c -6.1554,0 -11.13043,-4.97504 -11.13043,-11.13044 0,-6.1554 4.97503,-11.13043 11.13043,-11.13043 6.1554,0 11.13043,4.97503 11.13043,11.13043 3e-5,6.1554 -4.97503,11.13044 -11.13043,11.13044 z"
         fill="url(#linearGradient-2)"
         id="path932-2-2"
         style="fill:url(#linearGradient2023-1-6)" />
    </g>
    <g
       id="g934-4-2"
       transform="matrix(0.19288125,0,0,0.19288125,173.51273,179.01087)">
      <path
         d="M 126.91587,0.07227555 C 62.083583,0.07228017 66.132129,28.187465 66.132129,28.187465 l 0.07227,29.127047 h 61.867881 v 8.745341 H 41.630717 c 0,0 -41.4861659,-4.704909 -41.4861659,60.711467 -4.63e-6,65.41635 36.2100509,63.09655 36.2100509,63.09655 h 21.610389 v -30.35573 c 0,0 -1.164855,-36.21005 35.631847,-36.21005 h 61.361942 c 0,0 34.47544,0.5573 34.47544,-33.31903 V 33.969509 c 0,-5e-6 5.23432,-33.89723345 -62.51835,-33.89723345 z M 92.801807,19.65895 c 6.1554,-5e-6 11.130433,4.975035 11.130433,11.130434 1e-5,6.1554 -4.975033,11.130435 -11.130433,11.130435 -6.1554,5e-6 -11.130435,-4.975035 -11.130435,-11.130435 -5e-6,-6.155399 4.975035,-11.130434 11.130435,-11.130434 z"
         fill="url(#linearGradient-1)"
         id="path930-4-5"
         style="fill:url(#linearGradient2021-4-8)" />
      <path
         d="m 128.7571,254.12627 c 64.8323,0 60.78374,-28.11519 60.78374,-28.11519 l -0.0723,-29.12705 h -61.86787 v -8.74534 h 86.44156 c 0,0 41.48617,4.7049 41.48617,-60.71148 2e-5,-65.416353 -36.21005,-63.096551 -36.21005,-63.096551 h -21.61039 v 30.355724 c 0,0 1.16487,36.210047 -35.63185,36.210047 h -61.36195 c 0,0 -34.475435,-0.55729 -34.475435,33.31906 v 56.01355 c 0,0 -5.234323,33.89723 62.518355,33.89723 v 0 z m 34.11406,-19.58667 c -6.1554,0 -11.13043,-4.97504 -11.13043,-11.13044 0,-6.1554 4.97503,-11.13043 11.13043,-11.13043 6.1554,0 11.13043,4.97503 11.13043,11.13043 3e-5,6.1554 -4.97503,11.13044 -11.13043,11.13044 z"
         fill="url(#linearGradient-2)"
         id="path932-2-8"
         style="fill:url(#linearGradient2023-1-69)" />
    </g>
    <g
       id="g934-4-1"
       transform="matrix(0.19288125,0,0,0.19288125,502.23389,172.23471)">
      <path
         d="M 126.91587,0.07227555 C 62.083583,0.07228017 66.132129,28.187465 66.132129,28.187465 l 0.07227,29.127047 h 61.867881 v 8.745341 H 41.630717 c 0,0 -41.4861659,-4.704909 -41.4861659,60.711467 -4.63e-6,65.41635 36.2100509,63.09655 36.2100509,63.09655 h 21.610389 v -30.35573 c 0,0 -1.164855,-36.21005 35.631847,-36.21005 h 61.361942 c 0,0 34.47544,0.5573 34.47544,-33.31903 V 33.969509 c 0,-5e-6 5.23432,-33.89723345 -62.51835,-33.89723345 z M 92.801807,19.65895 c 6.1554,-5e-6 11.130433,4.975035 11.130433,11.130434 1e-5,6.1554 -4.975033,11.130435 -11.130433,11.130435 -6.1554,5e-6 -11.130435,-4.975035 -11.130435,-11.130435 -5e-6,-6.155399 4.975035,-11.130434 11.130435,-11.130434 z"
         fill="url(#linearGradient-1)"
         id="path930-4-1"
         style="fill:url(#linearGradient2021-4-1)" />
      <path
         d="m 128.7571,254.12627 c 64.8323,0 60.78374,-28.11519 60.78374,-28.11519 l -0.0723,-29.12705 h -61.86787 v -8.74534 h 86.44156 c 0,0 41.48617,4.7049 41.48617,-60.71148 2e-5,-65.416353 -36.21005,-63.096551 -36.21005,-63.096551 h -21.61039 v 30.355724 c 0,0 1.16487,36.210047 -35.63185,36.210047 h -61.36195 c 0,0 -34.475435,-0.55729 -34.475435,33.31906 v 56.01355 c 0,0 -5.234323,33.89723 62.518355,33.89723 v 0 z m 34.11406,-19.58667 c -6.1554,0 -11.13043,-4.97504 -11.13043,-11.13044 0,-6.1554 4.97503,-11.13043 11.13043,-11.13043 6.1554,0 11.13043,4.97503 11.13043,11.13043 3e-5,6.1554 -4.97503,11.13044 -11.13043,11.13044 z"
         fill="url(#linearGradient-2)"
         id="path932-2-29"
         style="fill:url(#linearGradient2023-1-8)" />
    </g>
    <path
       style="fill:#ffd040;stroke-width:3;stroke-miterlimit:4;stroke-dasharray:none"
       d="M -98.298886,44.961726 H 221.71886"
       id="path2315" />
    <path
       style="fill:#ffd040;stroke:#000000;stroke-width:2;stroke-miterlimit:4;stroke-dasharray:none;stroke-opacity:1"
       d="M -98.298876,231.08084 H 221.71886"
       id="path2317-3-6" />
    <text
       xml:space="preserve"
       style="font-size:14.1111px;line-height:1.25;font-family:Alegreya;-inkscape-font-specification:Alegreya;stroke-width:0.264583"
       x="275.03571"
       y="-43.920212"
       id="text1601-1"><tspan
         id="tspan1599-5"
         x="275.03571"
         y="-43.920212"
         style="font-size:14.1111px;stroke-width:0.264583"
         sodipodi:role="line">C'est vrai, quelle question stupide. </tspan><tspan
         x="275.03571"
         y="-26.281336"
         style="font-size:14.1111px;stroke-width:0.264583"
         sodipodi:role="line"
         id="tspan1609-7">Je m'excuse, je suis bête. </tspan><tspan
         x="275.03571"
         y="-8.6424618"
         style="font-size:14.1111px;stroke-width:0.264583"
         sodipodi:role="line"
         id="tspan1611-7">Je reconnais le logo maintenant</tspan></text>
    <g
       id="g1593-7-3"
       transform="matrix(0.14061043,0,0,0.14061044,335.2168,-4.4990301)">
      <path
         fill="#00599c"
         d="M 302.107,258.262 C 304.508,254.103 306,249.417 306,245.209 V 99.14 c 0,-4.208 -1.49,-8.893 -3.892,-13.052 L 153,172.175 Z"
         id="path1559-6-99" />
      <path
         fill="#004482"
         d="m 166.25,341.193 126.5,-73.034 c 3.644,-2.104 6.956,-5.737 9.357,-9.897 L 153,172.175 3.893,258.263 c 2.401,4.159 5.714,7.793 9.357,9.896 l 126.5,73.034 c 7.287,4.208 19.213,4.208 26.5,0 z"
         id="path1561-3-4" />
      <path
         fill="#659ad2"
         d="m 302.108,86.087 c -2.402,-4.16 -5.715,-7.793 -9.358,-9.897 L 166.25,3.156 c -7.287,-4.208 -19.213,-4.208 -26.5,0 L 13.25,76.19 C 5.962,80.397 0,90.725 0,99.14 v 146.069 c 0,4.208 1.491,8.894 3.893,13.053 L 153,172.175 Z"
         id="path1563-2-5" />
      <g
         id="g1567-8-4">
        <path
           fill="#ffffff"
           d="m 153,274.175 c -56.243,0 -102,-45.757 -102,-102 0,-56.243 45.757,-102 102,-102 36.292,0 70.139,19.53 88.331,50.968 l -44.143,25.544 C 188.083,130.951 171.15,121.175 153,121.175 c -28.122,0 -51,22.878 -51,51 0,28.121 22.878,51 51,51 18.152,0 35.085,-9.776 44.191,-25.515 l 44.143,25.543 c -18.192,31.441 -52.04,50.972 -88.334,50.972 z"
           id="path1565-7-6" />
      </g>
      <g
         id="g1571-2-5">
        <polygon
           fill="#ffffff"
           points="232.334,166.508 221,166.508 221,177.841 232.334,177.841 232.334,189.175 243.666,189.175 243.666,177.841 255,177.841 255,166.508 243.666,166.508 243.666,155.175 232.334,155.175 "
           id="polygon1569-4-4" />
      </g>
      <g
         id="g1575-3-92">
        <polygon
           fill="#ffffff"
           points="274.834,166.508 263.5,166.508 263.5,177.841 274.834,177.841 274.834,189.175 286.166,189.175 286.166,177.841 297.5,177.841 297.5,166.508 286.166,166.508 286.166,155.175 274.834,155.175 "
           id="polygon1573-5-0" />
      </g>
    </g>
    <g
       id="g934-4-0"
       transform="matrix(0.19288125,0,0,0.19288125,500.9813,-4.9194201)">
      <path
         d="M 126.91587,0.07227555 C 62.083583,0.07228017 66.132129,28.187465 66.132129,28.187465 l 0.07227,29.127047 h 61.867881 v 8.745341 H 41.630717 c 0,0 -41.4861659,-4.704909 -41.4861659,60.711467 -4.63e-6,65.41635 36.2100509,63.09655 36.2100509,63.09655 h 21.610389 v -30.35573 c 0,0 -1.164855,-36.21005 35.631847,-36.21005 h 61.361942 c 0,0 34.47544,0.5573 34.47544,-33.31903 V 33.969509 c 0,-5e-6 5.23432,-33.89723345 -62.51835,-33.89723345 z M 92.801807,19.65895 c 6.1554,-5e-6 11.130433,4.975035 11.130433,11.130434 1e-5,6.1554 -4.975033,11.130435 -11.130433,11.130435 -6.1554,5e-6 -11.130435,-4.975035 -11.130435,-11.130435 -5e-6,-6.155399 4.975035,-11.130434 11.130435,-11.130434 z"
         fill="url(#linearGradient-1)"
         id="path930-4-9"
         style="fill:url(#linearGradient2540)" />
      <path
         d="m 128.7571,254.12627 c 64.8323,0 60.78374,-28.11519 60.78374,-28.11519 l -0.0723,-29.12705 h -61.86787 v -8.74534 h 86.44156 c 0,0 41.48617,4.7049 41.48617,-60.71148 2e-5,-65.416353 -36.21005,-63.096551 -36.21005,-63.096551 h -21.61039 v 30.355724 c 0,0 1.16487,36.210047 -35.63185,36.210047 h -61.36195 c 0,0 -34.475435,-0.55729 -34.475435,33.31906 v 56.01355 c 0,0 -5.234323,33.89723 62.518355,33.89723 v 0 z m 34.11406,-19.58667 c -6.1554,0 -11.13043,-4.97504 -11.13043,-11.13044 0,-6.1554 4.97503,-11.13043 11.13043,-11.13043 6.1554,0 11.13043,4.97503 11.13043,11.13043 3e-5,6.1554 -4.97503,11.13044 -11.13043,11.13044 z"
         fill="url(#linearGradient-2)"
         id="path932-2-1"
         style="fill:url(#linearGradient2542)" />
    </g>
    <g
       id="g1593-7-5-5"
       transform="matrix(0.14061043,0,0,0.14061044,329.5334,99.898185)">
      <path
         fill="#00599c"
         d="M 302.107,258.262 C 304.508,254.103 306,249.417 306,245.209 V 99.14 c 0,-4.208 -1.49,-8.893 -3.892,-13.052 L 153,172.175 Z"
         id="path1559-6-9-8" />
      <path
         fill="#004482"
         d="m 166.25,341.193 126.5,-73.034 c 3.644,-2.104 6.956,-5.737 9.357,-9.897 L 153,172.175 3.893,258.263 c 2.401,4.159 5.714,7.793 9.357,9.896 l 126.5,73.034 c 7.287,4.208 19.213,4.208 26.5,0 z"
         id="path1561-3-3-1" />
      <path
         fill="#659ad2"
         d="m 302.108,86.087 c -2.402,-4.16 -5.715,-7.793 -9.358,-9.897 L 166.25,3.156 c -7.287,-4.208 -19.213,-4.208 -26.5,0 L 13.25,76.19 C 5.962,80.397 0,90.725 0,99.14 v 146.069 c 0,4.208 1.491,8.894 3.893,13.053 L 153,172.175 Z"
         id="path1563-2-2-0" />
      <g
         id="g1567-8-2-3">
        <path
           fill="#ffffff"
           d="m 153,274.175 c -56.243,0 -102,-45.757 -102,-102 0,-56.243 45.757,-102 102,-102 36.292,0 70.139,19.53 88.331,50.968 l -44.143,25.544 C 188.083,130.951 171.15,121.175 153,121.175 c -28.122,0 -51,22.878 -51,51 0,28.121 22.878,51 51,51 18.152,0 35.085,-9.776 44.191,-25.515 l 44.143,25.543 c -18.192,31.441 -52.04,50.972 -88.334,50.972 z"
           id="path1565-7-5-4" />
      </g>
      <g
         id="g1571-2-9-3">
        <polygon
           fill="#ffffff"
           points="255,177.841 255,166.508 243.666,166.508 243.666,155.175 232.334,155.175 232.334,166.508 221,166.508 221,177.841 232.334,177.841 232.334,189.175 243.666,189.175 243.666,177.841 "
           id="polygon1569-4-0-6" />
      </g>
      <g
         id="g1575-3-9-1">
        <polygon
           fill="#ffffff"
           points="297.5,177.841 297.5,166.508 286.166,166.508 286.166,155.175 274.834,155.175 274.834,166.508 263.5,166.508 263.5,177.841 274.834,177.841 274.834,189.175 286.166,189.175 286.166,177.841 "
           id="polygon1573-5-5-7" />
      </g>
    </g>
    <g
       id="g934-4-5-1"
       transform="matrix(0.19288125,0,0,0.19288125,500.45777,100.93165)">
      <path
         d="M 126.91587,0.07227555 C 62.083583,0.07228017 66.132129,28.187465 66.132129,28.187465 l 0.07227,29.127047 h 61.867881 v 8.745341 H 41.630717 c 0,0 -41.4861659,-4.704909 -41.4861659,60.711467 -4.63e-6,65.41635 36.2100509,63.09655 36.2100509,63.09655 h 21.610389 v -30.35573 c 0,0 -1.164855,-36.21005 35.631847,-36.21005 h 61.361942 c 0,0 34.47544,0.5573 34.47544,-33.31903 V 33.969509 c 0,-5e-6 5.23432,-33.89723345 -62.51835,-33.89723345 z M 92.801807,19.65895 c 6.1554,-5e-6 11.130433,4.975035 11.130433,11.130434 1e-5,6.1554 -4.975033,11.130435 -11.130433,11.130435 -6.1554,5e-6 -11.130435,-4.975035 -11.130435,-11.130435 -5e-6,-6.155399 4.975035,-11.130434 11.130435,-11.130434 z"
         fill="url(#linearGradient-1)"
         id="path930-4-3-0"
         style="fill:url(#linearGradient2673)" />
      <path
         d="m 128.7571,254.12627 c 64.8323,0 60.78374,-28.11519 60.78374,-28.11519 l -0.0723,-29.12705 h -61.86787 v -8.74534 h 86.44156 c 0,0 41.48617,4.7049 41.48617,-60.71148 2e-5,-65.416353 -36.21005,-63.096551 -36.21005,-63.096551 h -21.61039 v 30.355724 c 0,0 1.16487,36.210047 -35.63185,36.210047 h -61.36195 c 0,0 -34.475435,-0.55729 -34.475435,33.31906 v 56.01355 c 0,0 -5.234323,33.89723 62.518355,33.89723 v 0 z m 34.11406,-19.58667 c -6.1554,0 -11.13043,-4.97504 -11.13043,-11.13044 0,-6.1554 4.97503,-11.13043 11.13043,-11.13043 6.1554,0 11.13043,4.97503 11.13043,11.13043 3e-5,6.1554 -4.97503,11.13044 -11.13043,11.13044 z"
         fill="url(#linearGradient-2)"
         id="path932-2-2-4"
         style="fill:url(#linearGradient2675)" />
    </g>
    <path
       style="fill:none;stroke:#000000;stroke-width:1.92466;stroke-miterlimit:4;stroke-dasharray:none;stroke-opacity:1"
       d="M -98.298876,231.13033 V -58.411835 H 587.26215 V 231.75033"
       id="path2690" />
    <path
       style="fill:none;stroke:#000000;stroke-width:2;stroke-miterlimit:4;stroke-dasharray:none;stroke-opacity:1"
       d="M -98.298876,231.08084 H 588.60114"
       id="path2694" />
    <path
       style="fill:none;stroke:#000000;stroke-width:1.84672;stroke-miterlimit:4;stroke-dasharray:none;stroke-opacity:1"
       d="M 244.48164,-57.895637 V 231.4792"
       id="path2696" />
    <path
       style="fill:none;stroke:#000000;stroke-width:2;stroke-miterlimit:4;stroke-dasharray:none;stroke-opacity:1"
       d="M -98.298886,46.618637 H 585.92316"
       id="path2698" />
    <path
       style="fill:none;stroke:#000000;stroke-width:2;stroke-miterlimit:4;stroke-dasharray:none;stroke-opacity:1"
       d="M -99.559625,158.57511 H 584.66242"
       id="path2698-9" />
  </g>
</svg>
