<svg version="1.1" xmlns="http://www.w3.org/2000/svg" xmlns:xlink="http://www.w3.org/1999/xlink" width="680" height="106" viewBox="0,0,680,106"><g id="1 cm. Tick Group" fill="none" fill-rule="nonzero" stroke="none" stroke-width="none" stroke-linecap="butt" stroke-linejoin="miter" stroke-miterlimit="10" stroke-dasharray="" stroke-dashoffset="0" font-family="none" font-weight="none" font-size="none" text-anchor="none" style="mix-blend-mode: normal"><path d="M0,0v56.69291" id="1 cm. Tick no. 0" fill="none" stroke="#000000" stroke-width="1"/><text x="4" y="57.69291" id="1 cm. label no. 0" fill="#000000" stroke="none" stroke-width="1" font-family="monospace" font-weight="bold" font-size="7" text-anchor="start">0</text><path d="M37.79528,0v56.69291" id="1 cm. Tick no. 1" fill="none" stroke="#000000" stroke-width="1"/><text x="41.79528" y="57.69291" id="1 cm. label no. 1" fill="#000000" stroke="none" stroke-width="1" font-family="monospace" font-weight="bold" font-size="7" text-anchor="start">1</text><path d="M75.59055,0v56.69291" id="1 cm. Tick no. 2" fill="none" stroke="#000000" stroke-width="1"/><text x="79.59055" y="57.69291" id="1 cm. label no. 2" fill="#000000" stroke="none" stroke-width="1" font-family="monospace" font-weight="bold" font-size="7" text-anchor="start">2</text><path d="M113.38583,0v56.69291" id="1 cm. Tick no. 3" fill="none" stroke="#000000" stroke-width="1"/><text x="117.38583" y="57.69291" id="1 cm. label no. 3" fill="#000000" stroke="none" stroke-width="1" font-family="monospace" font-weight="bold" font-size="7" text-anchor="start">3</text><path d="M151.1811,0v56.69291" id="1 cm. Tick no. 4" fill="none" stroke="#000000" stroke-width="1"/><text x="155.1811" y="57.69291" id="1 cm. label no. 4" fill="#000000" stroke="none" stroke-width="1" font-family="monospace" font-weight="bold" font-size="7" text-anchor="start">4</text><path d="M188.97638,0v56.69291" id="1 cm. Tick no. 5" fill="none" stroke="#000000" stroke-width="1"/><text x="192.97638" y="57.69291" id="1 cm. label no. 5" fill="#000000" stroke="none" stroke-width="1" font-family="monospace" font-weight="bold" font-size="7" text-anchor="start">5</text><path d="M226.77165,0v56.69291" id="1 cm. Tick no. 6" fill="none" stroke="#000000" stroke-width="1"/><text x="230.77165" y="57.69291" id="1 cm. label no. 6" fill="#000000" stroke="none" stroke-width="1" font-family="monospace" font-weight="bold" font-size="7" text-anchor="start">6</text><path d="M264.56693,0v56.69291" id="1 cm. Tick no. 7" fill="none" stroke="#000000" stroke-width="1"/><text x="268.56693" y="57.69291" id="1 cm. label no. 7" fill="#000000" stroke="none" stroke-width="1" font-family="monospace" font-weight="bold" font-size="7" text-anchor="start">7</text><path d="M302.3622,0v56.69291" id="1 cm. Tick no. 8" fill="none" stroke="#000000" stroke-width="1"/><text x="306.3622" y="57.69291" id="1 cm. label no. 8" fill="#000000" stroke="none" stroke-width="1" font-family="monospace" font-weight="bold" font-size="7" text-anchor="start">8</text><path d="M340.15748,0v56.69291" id="1 cm. Tick no. 9" fill="none" stroke="#000000" stroke-width="1"/><text x="344.15748" y="57.69291" id="1 cm. label no. 9" fill="#000000" stroke="none" stroke-width="1" font-family="monospace" font-weight="bold" font-size="7" text-anchor="start">9</text><path d="M377.95276,0v56.69291" id="1 cm. Tick no. 10" fill="none" stroke="#000000" stroke-width="1"/><text x="381.95276" y="57.69291" id="1 cm. label no. 10" fill="#000000" stroke="none" stroke-width="1" font-family="monospace" font-weight="bold" font-size="7" text-anchor="start">10</text><path d="M415.74803,0v56.69291" id="1 cm. Tick no. 11" fill="none" stroke="#000000" stroke-width="1"/><text x="419.74803" y="57.69291" id="1 cm. label no. 11" fill="#000000" stroke="none" stroke-width="1" font-family="monospace" font-weight="bold" font-size="7" text-anchor="start">11</text><path d="M453.54331,0v56.69291" id="1 cm. Tick no. 12" fill="none" stroke="#000000" stroke-width="1"/><text x="457.54331" y="57.69291" id="1 cm. label no. 12" fill="#000000" stroke="none" stroke-width="1" font-family="monospace" font-weight="bold" font-size="7" text-anchor="start">12</text><path d="M491.33858,0v56.69291" id="1 cm. Tick no. 13" fill="none" stroke="#000000" stroke-width="1"/><text x="495.33858" y="57.69291" id="1 cm. label no. 13" fill="#000000" stroke="none" stroke-width="1" font-family="monospace" font-weight="bold" font-size="7" text-anchor="start">13</text><path d="M529.13386,0v56.69291" id="1 cm. Tick no. 14" fill="none" stroke="#000000" stroke-width="1"/><text x="533.13386" y="57.69291" id="1 cm. label no. 14" fill="#000000" stroke="none" stroke-width="1" font-family="monospace" font-weight="bold" font-size="7" text-anchor="start">14</text><path d="M566.92913,0v56.69291" id="1 cm. Tick no. 15" fill="none" stroke="#000000" stroke-width="1"/><text x="570.92913" y="57.69291" id="1 cm. label no. 15" fill="#000000" stroke="none" stroke-width="1" font-family="monospace" font-weight="bold" font-size="7" text-anchor="start">15</text><path d="M604.72441,0v56.69291" id="1 cm. Tick no. 16" fill="none" stroke="#000000" stroke-width="1"/><text x="600.72441" y="57.69291" id="1 cm. label no. 16" fill="#000000" stroke="none" stroke-width="1" font-family="monospace" font-weight="bold" font-size="7" text-anchor="end">16</text></g><g id="1/2 cm. Tick Group" fill="none" fill-rule="nonzero" stroke="#000000" stroke-width="1" stroke-linecap="butt" stroke-linejoin="miter" stroke-miterlimit="10" stroke-dasharray="" stroke-dashoffset="0" font-family="none" font-weight="none" font-size="none" text-anchor="none" style="mix-blend-mode: normal"><path d="M18.89764,0v28.34646" id="1/2 cm. Tick no. 1"/><path d="M56.69291,0v28.34646" id="1/2 cm. Tick no. 3"/><path d="M94.48819,0v28.34646" id="1/2 cm. Tick no. 5"/><path d="M132.28346,0v28.34646" id="1/2 cm. Tick no. 7"/><path d="M170.07874,0v28.34646" id="1/2 cm. Tick no. 9"/><path d="M207.87402,0v28.34646" id="1/2 cm. Tick no. 11"/><path d="M245.66929,0v28.34646" id="1/2 cm. Tick no. 13"/><path d="M283.46457,0v28.34646" id="1/2 cm. Tick no. 15"/><path d="M321.25984,0v28.34646" id="1/2 cm. Tick no. 17"/><path d="M359.05512,0v28.34646" id="1/2 cm. Tick no. 19"/><path d="M396.85039,0v28.34646" id="1/2 cm. Tick no. 21"/><path d="M434.64567,0v28.34646" id="1/2 cm. Tick no. 23"/><path d="M472.44094,0v28.34646" id="1/2 cm. Tick no. 25"/><path d="M510.23622,0v28.34646" id="1/2 cm. Tick no. 27"/><path d="M548.0315,0v28.34646" id="1/2 cm. Tick no. 29"/><path d="M585.82677,0v28.34646" id="1/2 cm. Tick no. 31"/></g><g id="1/4 cm. Tick Group" fill="none" fill-rule="nonzero" stroke="#000000" stroke-width="1" stroke-linecap="butt" stroke-linejoin="miter" stroke-miterlimit="10" stroke-dasharray="" stroke-dashoffset="0" font-family="none" font-weight="none" font-size="none" text-anchor="none" style="mix-blend-mode: normal"><path d="M9.44882,0v14.17323" id="1/4 cm. Tick no. 1"/><path d="M28.34646,0v14.17323" id="1/4 cm. Tick no. 3"/><path d="M47.24409,0v14.17323" id="1/4 cm. Tick no. 5"/><path d="M66.14173,0v14.17323" id="1/4 cm. Tick no. 7"/><path d="M85.03937,0v14.17323" id="1/4 cm. Tick no. 9"/><path d="M103.93701,0v14.17323" id="1/4 cm. Tick no. 11"/><path d="M122.83465,0v14.17323" id="1/4 cm. Tick no. 13"/><path d="M141.73228,0v14.17323" id="1/4 cm. Tick no. 15"/><path d="M160.62992,0v14.17323" id="1/4 cm. Tick no. 17"/><path d="M179.52756,0v14.17323" id="1/4 cm. Tick no. 19"/><path d="M198.4252,0v14.17323" id="1/4 cm. Tick no. 21"/><path d="M217.32283,0v14.17323" id="1/4 cm. Tick no. 23"/><path d="M236.22047,0v14.17323" id="1/4 cm. Tick no. 25"/><path d="M255.11811,0v14.17323" id="1/4 cm. Tick no. 27"/><path d="M274.01575,0v14.17323" id="1/4 cm. Tick no. 29"/><path d="M292.91339,0v14.17323" id="1/4 cm. Tick no. 31"/><path d="M311.81102,0v14.17323" id="1/4 cm. Tick no. 33"/><path d="M330.70866,0v14.17323" id="1/4 cm. Tick no. 35"/><path d="M349.6063,0v14.17323" id="1/4 cm. Tick no. 37"/><path d="M368.50394,0v14.17323" id="1/4 cm. Tick no. 39"/><path d="M387.40157,0v14.17323" id="1/4 cm. Tick no. 41"/><path d="M406.29921,0v14.17323" id="1/4 cm. Tick no. 43"/><path d="M425.19685,0v14.17323" id="1/4 cm. Tick no. 45"/><path d="M444.09449,0v14.17323" id="1/4 cm. Tick no. 47"/><path d="M462.99213,0v14.17323" id="1/4 cm. Tick no. 49"/><path d="M481.88976,0v14.17323" id="1/4 cm. Tick no. 51"/><path d="M500.7874,0v14.17323" id="1/4 cm. Tick no. 53"/><path d="M519.68504,0v14.17323" id="1/4 cm. Tick no. 55"/><path d="M538.58268,0v14.17323" id="1/4 cm. Tick no. 57"/><path d="M557.48031,0v14.17323" id="1/4 cm. Tick no. 59"/><path d="M576.37795,0v14.17323" id="1/4 cm. Tick no. 61"/><path d="M595.27559,0v14.17323" id="1/4 cm. Tick no. 63"/></g><g id="1/8 cm. Tick Group" fill="none" fill-rule="nonzero" stroke="#000000" stroke-width="1" stroke-linecap="butt" stroke-linejoin="miter" stroke-miterlimit="10" stroke-dasharray="" stroke-dashoffset="0" font-family="none" font-weight="none" font-size="none" text-anchor="none" style="mix-blend-mode: normal"><path d="M4.72441,0v7.08661" id="1/8 cm. Tick no. 1"/><path d="M14.17323,0v7.08661" id="1/8 cm. Tick no. 3"/><path d="M23.62205,0v7.08661" id="1/8 cm. Tick no. 5"/><path d="M33.07087,0v7.08661" id="1/8 cm. Tick no. 7"/><path d="M42.51969,0v7.08661" id="1/8 cm. Tick no. 9"/><path d="M51.9685,0v7.08661" id="1/8 cm. Tick no. 11"/><path d="M61.41732,0v7.08661" id="1/8 cm. Tick no. 13"/><path d="M70.86614,0v7.08661" id="1/8 cm. Tick no. 15"/><path d="M80.31496,0v7.08661" id="1/8 cm. Tick no. 17"/><path d="M89.76378,0v7.08661" id="1/8 cm. Tick no. 19"/><path d="M99.2126,0v7.08661" id="1/8 cm. Tick no. 21"/><path d="M108.66142,0v7.08661" id="1/8 cm. Tick no. 23"/><path d="M118.11024,0v7.08661" id="1/8 cm. Tick no. 25"/><path d="M127.55906,0v7.08661" id="1/8 cm. Tick no. 27"/><path d="M137.00787,0v7.08661" id="1/8 cm. Tick no. 29"/><path d="M146.45669,0v7.08661" id="1/8 cm. Tick no. 31"/><path d="M155.90551,0v7.08661" id="1/8 cm. Tick no. 33"/><path d="M165.35433,0v7.08661" id="1/8 cm. Tick no. 35"/><path d="M174.80315,0v7.08661" id="1/8 cm. Tick no. 37"/><path d="M184.25197,0v7.08661" id="1/8 cm. Tick no. 39"/><path d="M193.70079,0v7.08661" id="1/8 cm. Tick no. 41"/><path d="M203.14961,0v7.08661" id="1/8 cm. Tick no. 43"/><path d="M212.59843,0v7.08661" id="1/8 cm. Tick no. 45"/><path d="M222.04724,0v7.08661" id="1/8 cm. Tick no. 47"/><path d="M231.49606,0v7.08661" id="1/8 cm. Tick no. 49"/><path d="M240.94488,0v7.08661" id="1/8 cm. Tick no. 51"/><path d="M250.3937,0v7.08661" id="1/8 cm. Tick no. 53"/><path d="M259.84252,0v7.08661" id="1/8 cm. Tick no. 55"/><path d="M269.29134,0v7.08661" id="1/8 cm. Tick no. 57"/><path d="M278.74016,0v7.08661" id="1/8 cm. Tick no. 59"/><path d="M288.18898,0v7.08661" id="1/8 cm. Tick no. 61"/><path d="M297.6378,0v7.08661" id="1/8 cm. Tick no. 63"/><path d="M307.08661,0v7.08661" id="1/8 cm. Tick no. 65"/><path d="M316.53543,0v7.08661" id="1/8 cm. Tick no. 67"/><path d="M325.98425,0v7.08661" id="1/8 cm. Tick no. 69"/><path d="M335.43307,0v7.08661" id="1/8 cm. Tick no. 71"/><path d="M344.88189,0v7.08661" id="1/8 cm. Tick no. 73"/><path d="M354.33071,0v7.08661" id="1/8 cm. Tick no. 75"/><path d="M363.77953,0v7.08661" id="1/8 cm. Tick no. 77"/><path d="M373.22835,0v7.08661" id="1/8 cm. Tick no. 79"/><path d="M382.67717,0v7.08661" id="1/8 cm. Tick no. 81"/><path d="M392.12598,0v7.08661" id="1/8 cm. Tick no. 83"/><path d="M401.5748,0v7.08661" id="1/8 cm. Tick no. 85"/><path d="M411.02362,0v7.08661" id="1/8 cm. Tick no. 87"/><path d="M420.47244,0v7.08661" id="1/8 cm. Tick no. 89"/><path d="M429.92126,0v7.08661" id="1/8 cm. Tick no. 91"/><path d="M439.37008,0v7.08661" id="1/8 cm. Tick no. 93"/><path d="M448.8189,0v7.08661" id="1/8 cm. Tick no. 95"/><path d="M458.26772,0v7.08661" id="1/8 cm. Tick no. 97"/><path d="M467.71654,0v7.08661" id="1/8 cm. Tick no. 99"/><path d="M477.16535,0v7.08661" id="1/8 cm. Tick no. 101"/><path d="M486.61417,0v7.08661" id="1/8 cm. Tick no. 103"/><path d="M496.06299,0v7.08661" id="1/8 cm. Tick no. 105"/><path d="M505.51181,0v7.08661" id="1/8 cm. Tick no. 107"/><path d="M514.96063,0v7.08661" id="1/8 cm. Tick no. 109"/><path d="M524.40945,0v7.08661" id="1/8 cm. Tick no. 111"/><path d="M533.85827,0v7.08661" id="1/8 cm. Tick no. 113"/><path d="M543.30709,0v7.08661" id="1/8 cm. Tick no. 115"/><path d="M552.75591,0v7.08661" id="1/8 cm. Tick no. 117"/><path d="M562.20472,0v7.08661" id="1/8 cm. Tick no. 119"/><path d="M571.65354,0v7.08661" id="1/8 cm. Tick no. 121"/><path d="M581.10236,0v7.08661" id="1/8 cm. Tick no. 123"/><path d="M590.55118,0v7.08661" id="1/8 cm. Tick no. 125"/><path d="M600,0v7.08661" id="1/8 cm. Tick no. 127"/></g></svg>