<?xml version="1.0" encoding="UTF-8" standalone="no"?>
<svg
   xmlns:dc="http://purl.org/dc/elements/1.1/"
   xmlns:cc="http://creativecommons.org/ns#"
   xmlns:rdf="http://www.w3.org/1999/02/22-rdf-syntax-ns#"
   xmlns:svg="http://www.w3.org/2000/svg"
   xmlns="http://www.w3.org/2000/svg"
   xmlns:sodipodi="http://sodipodi.sourceforge.net/DTD/sodipodi-0.dtd"
   xmlns:inkscape="http://www.inkscape.org/namespaces/inkscape"
   width="105.53993mm"
   height="135.69778mm"
   viewBox="0 0 105.53994 135.69779"
   version="1.1"
   id="svg1459"
   inkscape:version="1.0.2-2 (e86c870879, 2021-01-15)"
   sodipodi:docname="scale20-1.svg">
  <defs
     id="defs1453" />
  <sodipodi:namedview
     id="base"
     pagecolor="#ffffff"
     bordercolor="#666666"
     borderopacity="1.0"
     inkscape:pageopacity="0.0"
     inkscape:pageshadow="2"
     inkscape:zoom="3.6600115"
     inkscape:cx="282.62012"
     inkscape:cy="105.81374"
     inkscape:document-units="mm"
     inkscape:current-layer="layer1"
     inkscape:document-rotation="0"
     showgrid="false"
     fit-margin-top="0"
     fit-margin-left="0"
     fit-margin-right="0"
     fit-margin-bottom="0"
     inkscape:window-width="1920"
     inkscape:window-height="1017"
     inkscape:window-x="-8"
     inkscape:window-y="-8"
     inkscape:window-maximized="1" />
  <metadata
     id="metadata1456">
    <rdf:RDF>
      <cc:Work
         rdf:about="">
        <dc:format>image/svg+xml</dc:format>
        <dc:type
           rdf:resource="http://purl.org/dc/dcmitype/StillImage" />
        <dc:title />
      </cc:Work>
    </rdf:RDF>
  </metadata>
  <g
     inkscape:label="Layer 1"
     inkscape:groupmode="layer"
     id="layer1"
     transform="translate(3.639701,3.3105871)">
    <path
       id="rect1105"
       style="fill:#366e9c;fill-opacity:1;stroke-width:1"
       d="m 48.715772,1.4044966 a 7.4560998,7.4560998 0 0 1 7.43675,7.4563924 7.4560998,7.4560998 0 0 1 -4.27467,6.742741 v 109.38609 h 25.772071 v 3.69848 h 3.59823 v 3.699 H 16.144642 v -3.699 h 3.59874 v -3.69848 h 25.77207 V 15.60363 a 7.4560998,7.4560998 0 0 1 -4.27519,-6.742741 7.4560998,7.4560998 0 0 1 7.45639,-7.4563924 7.4560998,7.4560998 0 0 1 0.0191,0 z m 0.0165,4.5899006 a 2.866268,2.866268 0 0 0 -5.1e-4,0 2.866268,2.866268 0 0 0 -0.0351,0 2.866268,2.866268 0 0 0 -2.86649,2.8664918 2.866268,2.866268 0 0 0 2.86649,2.865975 2.866268,2.866268 0 0 0 2.86597,-2.865975 2.866268,2.866268 0 0 0 -2.83032,-2.8664918 z" />
    <g
       id="g1182"
       transform="matrix(-1,0,0,1,-79.695208,-31.264195)">
      <path
         style="fill:none;fill-opacity:1;stroke:#000000;stroke-width:1;stroke-opacity:1"
         d="m -165.06276,31.651485 -16.30841,33.589688 30.31423,-0.02959 -15.66677,-33.360989 z"
         id="path1154"
         sodipodi:nodetypes="ccccc" />
      <path
         style="fill:#ffd040;fill-opacity:1;stroke-width:1"
         d="m -154.12426,72.372773 4.43177,-7.675563 h -33.10466 l 4.43177,7.675563 z"
         id="path1125" />
    </g>
    <g
       id="g1178"
       transform="matrix(-1,0,0,1,-47.953221,37.378676)">
      <path
         style="fill:none;fill-opacity:1;stroke:#000000;stroke-width:1;stroke-opacity:1"
         d="m -62.019188,34.24688 -16.30841,33.589688 30.31423,-0.02959 -15.66677,-33.360989 z"
         id="path1154-2"
         sodipodi:nodetypes="ccccc" />
      <path
         style="fill:#ffd040;fill-opacity:1;stroke-width:1"
         d="m -51.115157,74.979552 4.43177,-7.675563 h -33.10466 l 4.43177,7.675563 z"
         id="path1125-3" />
    </g>
    <rect
       style="fill:#366e9c;fill-opacity:1;stroke-width:1.27607"
       id="rect1150"
       width="105.59634"
       height="5"
       x="-62.452839"
       y="57.770962"
       transform="matrix(-0.70710678,0.70710678,0.70710678,0.70710678,0,0)" />
    <text
       xml:space="preserve"
       style="font-size:25.4px;line-height:1.25;font-family:Alegreya;-inkscape-font-specification:Alegreya;fill:#366e9c;fill-opacity:1;stroke-width:0.264583"
       x="82.034294"
       y="31.99612"
       id="text2143-8"><tspan
         sodipodi:role="line"
         id="tspan2141-2"
         x="82.034294"
         y="31.99612"
         style="font-size:28.2222px;fill:#366e9c;fill-opacity:1;stroke-width:0.264583">1</tspan></text>
    <text
       xml:space="preserve"
       style="font-size:25.4px;line-height:1.25;font-family:Alegreya;-inkscape-font-specification:Alegreya;fill:#366e9c;fill-opacity:1;stroke-width:0.264583"
       x="-2.0643969"
       y="103.08652"
       id="text2143-8-3"><tspan
         sodipodi:role="line"
         id="tspan2141-2-5"
         x="-2.0643969"
         y="103.08652"
         style="font-size:28.2222px;fill:#366e9c;fill-opacity:1;stroke-width:0.264583">2.0</tspan></text>
    <rect
       style="fill:#366e9c;fill-opacity:1;stroke:none;stroke-width:1.40422;stroke-opacity:1"
       id="rect1232"
       width="18.108427"
       height="31.400785"
       x="39.642178"
       y="94.128281" />
  </g>
</svg>
