<?xml version="1.0" encoding="UTF-8" standalone="no"?>
<svg
   xmlns:dc="http://purl.org/dc/elements/1.1/"
   xmlns:cc="http://creativecommons.org/ns#"
   xmlns:rdf="http://www.w3.org/1999/02/22-rdf-syntax-ns#"
   xmlns:svg="http://www.w3.org/2000/svg"
   xmlns="http://www.w3.org/2000/svg"
   xmlns:xlink="http://www.w3.org/1999/xlink"
   xmlns:sodipodi="http://sodipodi.sourceforge.net/DTD/sodipodi-0.dtd"
   xmlns:inkscape="http://www.inkscape.org/namespaces/inkscape"
   width="210mm"
   height="297mm"
   viewBox="0 0 210 297"
   version="1.1"
   id="svg2726"
   inkscape:version="1.0.2-2 (e86c870879, 2021-01-15)"
   sodipodi:docname="toTheMoon.svg">
  <defs
     id="defs2720">
    <linearGradient
       x1="24.714942"
       y1="22.898217"
       x2="151.13554"
       y2="148.33669"
       id="linearGradient-1"
       gradientTransform="scale(0.99888681,1.0011144)"
       gradientUnits="userSpaceOnUse">
      <stop
         stop-color="#387EB8"
         offset="0%"
         id="stop918" />
      <stop
         stop-color="#366994"
         offset="100%"
         id="stop920" />
    </linearGradient>
    <linearGradient
       x1="102.48342"
       y1="103.26588"
       x2="238.25963"
       y2="231.90547"
       id="linearGradient-2"
       gradientTransform="scale(0.99888678,1.0011145)"
       gradientUnits="userSpaceOnUse"
       xlink:href="#linearGradient-1">
      <stop
         stop-color="#FFE052"
         offset="0%"
         id="stop923" />
      <stop
         stop-color="#FFC331"
         offset="100%"
         id="stop925" />
    </linearGradient>
  </defs>
  <sodipodi:namedview
     id="base"
     pagecolor="#ffffff"
     bordercolor="#666666"
     borderopacity="1.0"
     inkscape:pageopacity="0.0"
     inkscape:pageshadow="2"
     inkscape:zoom="0.2794482"
     inkscape:cx="393.6524"
     inkscape:cy="-18.631815"
     inkscape:document-units="mm"
     inkscape:current-layer="layer1"
     inkscape:document-rotation="0"
     showgrid="false"
     inkscape:window-width="1346"
     inkscape:window-height="1040"
     inkscape:window-x="156"
     inkscape:window-y="0"
     inkscape:window-maximized="0" />
  <metadata
     id="metadata2723">
    <rdf:RDF>
      <cc:Work
         rdf:about="">
        <dc:format>image/svg+xml</dc:format>
        <dc:type
           rdf:resource="http://purl.org/dc/dcmitype/StillImage" />
        <dc:title></dc:title>
      </cc:Work>
    </rdf:RDF>
  </metadata>
  <g
     inkscape:label="Layer 1"
     inkscape:groupmode="layer"
     id="layer1">
    <g
       id="g3395"
       transform="matrix(0.15033605,0.08679656,-0.08679656,0.15033605,21.426524,190.49031)">
      <g
         id="g3293">
	<g
   id="g3291">
		<path
   d="M 409.187,341.213 348.76,268.91 c 3.398,-21.557 5.348,-42.122 5.348,-58.808 0,-60.717 -26.209,-115.059 -48.194,-149.954 C 283.65,24.811 262.174,3.135 261.269,2.23 259.846,0.802 257.914,0 255.898,0 c -2.016,0 -3.948,0.802 -5.372,2.229 -0.904,0.906 -22.381,22.58 -44.645,57.918 -21.986,34.896 -48.194,89.239 -48.194,149.954 0,16.737 1.964,37.38 5.382,59.012 l -60.255,72.098 c -3.581,4.282 -4.443,10.133 -2.248,15.269 l 6.729,15.747 c 1.55,3.626 4.419,6.431 8.078,7.9 1.783,0.715 3.648,1.071 5.508,1.071 1.96,0 3.913,-0.396 5.755,-1.183 l 57.321,-24.157 c 5.645,16.492 11.396,29.191 17.133,37.805 3.369,5.058 9.053,8.077 15.205,8.077 h 79.209 c 6.153,0 11.836,-3.019 15.205,-8.077 5.738,-8.616 11.49,-21.318 17.135,-37.813 L 385.33,380 c 1.887,0.806 3.849,1.188 5.781,1.188 5.736,0 11.203,-3.362 13.597,-8.961 l 6.728,-15.747 c 2.193,-5.134 1.331,-10.984 -2.249,-15.267 z M 255.898,18.722 c 6.316,7.036 17.474,20.206 29.541,37.881 h -59.082 c 12.068,-17.675 23.225,-30.845 29.541,-37.881 z m -134.81,347.162 -6.467,-15.134 51.884,-62.082 c 3.481,18.013 7.842,36.101 12.81,52.677 z m 176.988,19.368 c -0.548,0.823 -1.51,1.313 -2.573,1.313 h -79.209 c -1.063,0 -2.026,-0.491 -2.573,-1.313 -4.697,-7.052 -9.685,-17.999 -14.601,-31.989 h 113.558 c -4.917,13.989 -9.905,24.936 -14.602,31.989 z m 19.54,-47.167 H 194.18 c -12.447,-41.203 -21.316,-94.1 -21.316,-127.984 0,-55.1 23.228,-105.052 43.654,-138.321 h 78.758 c 20.426,33.267 43.655,83.22 43.655,138.321 0.001,33.886 -8.868,86.783 -21.315,127.984 z m 73.296,27.799 -58.429,-24.546 c 4.985,-16.635 9.359,-34.792 12.846,-52.868 l 52.05,62.281 z"
   id="path3289" />

	</g>

</g>
      <g
         id="g3299">
	<g
   id="g3297">
		<path
   d="m 256,107.068 c -16.991,0 -30.815,13.823 -30.815,30.815 0,16.991 13.823,30.814 30.816,30.814 16.991,0 30.814,-13.823 30.814,-30.814 0,-16.992 -13.823,-30.815 -30.815,-30.815 z m 0,46.452 c -8.623,0 -15.638,-7.016 -15.638,-15.637 0,-8.621 7.015,-15.637 15.638,-15.637 8.623,0 15.637,7.016 15.637,15.637 0,8.621 -7.014,15.637 -15.637,15.637 z"
   id="path3295" />

	</g>

</g>
      <g
         id="g3305">
	<g
   id="g3303">
		<path
   d="M 298.135,101.704 C 288.471,90.45 275.003,83.632 260.212,82.507 c -14.791,-1.124 -29.135,3.577 -40.39,13.241 -11.254,9.664 -18.072,23.132 -19.197,37.923 -1.124,14.791 3.578,29.135 13.241,40.389 9.664,11.255 23.132,18.074 37.923,19.198 1.438,0.109 2.872,0.163 4.299,0.163 13.253,0 25.932,-4.681 36.091,-13.405 11.255,-9.664 18.072,-23.132 19.197,-37.923 1.124,-14.79 -3.577,-29.134 -13.241,-40.389 z m -1.893,39.239 c -0.818,10.749 -5.772,20.537 -13.951,27.56 -8.178,7.022 -18.601,10.435 -29.351,9.623 -10.749,-0.818 -20.537,-5.771 -27.56,-13.951 -7.023,-8.178 -10.441,-18.603 -9.623,-29.352 0.818,-10.749 5.772,-20.537 13.951,-27.56 7.383,-6.34 16.596,-9.742 26.227,-9.742 1.037,0 2.08,0.039 3.124,0.119 10.749,0.818 20.537,5.771 27.56,13.95 7.022,8.18 10.44,18.604 9.623,29.353 z"
   id="path3301" />

	</g>

</g>
      <g
         id="g3311">
	<g
   id="g3309">
		<path
   d="m 289.78,411.353 c -4.191,0 -7.589,3.397 -7.589,7.589 v 85.471 c 0,4.192 3.398,7.589 7.589,7.589 4.191,0 7.589,-3.397 7.589,-7.589 v -85.471 c 0,-4.192 -3.398,-7.589 -7.589,-7.589 z"
   id="path3307" />

	</g>

</g>
      <g
         id="g3317">
	<g
   id="g3315">
		<path
   d="m 255.392,411.353 c -4.191,0 -7.589,3.397 -7.589,7.589 v 50.724 c 0,4.192 3.398,7.589 7.589,7.589 4.191,0 7.589,-3.397 7.589,-7.589 v -50.724 c 0,-4.192 -3.398,-7.589 -7.589,-7.589 z"
   id="path3313" />

	</g>

</g>
      <g
         id="g3323">
	<g
   id="g3321">
		<path
   d="m 221.003,411.353 c -4.191,0 -7.589,3.397 -7.589,7.589 v 85.471 c 0,4.192 3.398,7.589 7.589,7.589 4.191,0 7.589,-3.397 7.589,-7.589 v -85.471 c -0.001,-4.192 -3.398,-7.589 -7.589,-7.589 z"
   id="path3319" />

	</g>

</g>
      <g
         id="g3325">
</g>
      <g
         id="g3327">
</g>
      <g
         id="g3329">
</g>
      <g
         id="g3331">
</g>
      <g
         id="g3333">
</g>
      <g
         id="g3335">
</g>
      <g
         id="g3337">
</g>
      <g
         id="g3339">
</g>
      <g
         id="g3341">
</g>
      <g
         id="g3343">
</g>
      <g
         id="g3345">
</g>
      <g
         id="g3347">
</g>
      <g
         id="g3349">
</g>
      <g
         id="g3351">
</g>
      <g
         id="g3353">
</g>
    </g>
    <g
       id="g3712">
      <g
         id="g3652"
         transform="translate(-87.676742,132.77507)">
        <g
           id="g934"
           transform="matrix(0.46872551,0,0,0.46872551,171.55499,-123.87096)">
          <path
             d="M 126.91587,0.07227555 C 62.083583,0.07228017 66.132129,28.187465 66.132129,28.187465 l 0.07227,29.127047 h 61.867881 v 8.745341 H 41.630717 c 0,0 -41.4861659,-4.704909 -41.4861659,60.711467 -4.63e-6,65.41635 36.2100509,63.09655 36.2100509,63.09655 h 21.610389 v -30.35573 c 0,0 -1.164855,-36.21005 35.631847,-36.21005 h 61.361942 c 0,0 34.47544,0.5573 34.47544,-33.31903 V 33.969509 c 0,-5e-6 5.23432,-33.89723345 -62.51835,-33.89723345 z M 92.801807,19.65895 c 6.1554,-5e-6 11.130433,4.975035 11.130433,11.130434 1e-5,6.1554 -4.975033,11.130435 -11.130433,11.130435 -6.1554,5e-6 -11.130435,-4.975035 -11.130435,-11.130435 -5e-6,-6.155399 4.975035,-11.130434 11.130435,-11.130434 z"
             fill="url(#linearGradient-1)"
             id="path930"
             style="fill:#3771a2;fill-opacity:0.402941" />
          <path
             d="m 128.7571,254.12627 c 64.8323,0 60.78374,-28.11519 60.78374,-28.11519 l -0.0723,-29.12705 h -61.86787 v -8.74534 h 86.44156 c 0,0 41.48617,4.7049 41.48617,-60.71148 2e-5,-65.416353 -36.21005,-63.096551 -36.21005,-63.096551 h -21.61039 v 30.355724 c 0,0 1.16487,36.210047 -35.63185,36.210047 h -61.36195 c 0,0 -34.475435,-0.55729 -34.475435,33.31906 v 56.01355 c 0,0 -5.234323,33.89723 62.518355,33.89723 v 0 z m 34.11406,-19.58667 c -6.1554,0 -11.13043,-4.97504 -11.13043,-11.13044 0,-6.1554 4.97503,-11.13043 11.13043,-11.13043 6.1554,0 11.13043,4.97503 11.13043,11.13043 3e-5,6.1554 -4.97503,11.13044 -11.13043,11.13044 z"
             fill="url(#linearGradient-2)"
             id="path932"
             style="fill:#ffd140;fill-opacity:0.397059" />
        </g>
      </g>
      <g
         id="g3557"
         transform="matrix(0.26458333,0,0,0.26458333,77.123466,1.8037758)"
         style="stroke-width:5.66929;stroke-miterlimit:4;stroke-dasharray:none">
        <g
           id="g3401"
           style="stroke-width:5.66929;stroke-miterlimit:4;stroke-dasharray:none">
	<g
   id="g3399"
   style="stroke-width:5.66929;stroke-miterlimit:4;stroke-dasharray:none">
		<path
   d="M 252,0 C 113.048,0 0,113.048 0,252 0,390.952 113.048,504 252,504 390.952,504 504,390.952 504,252 504,113.048 390.952,0 252,0 Z m 0,496 C 117.456,496 8,386.544 8,252 8,117.456 117.456,8 252,8 386.544,8 496,117.456 496,252 496,386.544 386.544,496 252,496 Z"
   id="path3397"
   style="stroke-width:5.66929;stroke-miterlimit:4;stroke-dasharray:none" />

	</g>

</g>
        <g
           id="g3407"
           style="stroke-width:5.66929;stroke-miterlimit:4;stroke-dasharray:none">
	<g
   id="g3405"
   style="stroke-width:5.66929;stroke-miterlimit:4;stroke-dasharray:none">
		<path
   d="m 161.276,153.216 c -28.62,0 -51.9,23.284 -51.9,51.9 0,28.616 23.284,51.896 51.9,51.896 28.616,0 51.896,-23.28 51.896,-51.896 0,-28.62 -23.28,-51.9 -51.896,-51.9 z m 0,95.8 c -24.208,0 -43.9,-19.692 -43.9,-43.896 0,-24.208 19.696,-43.9 43.9,-43.9 24.204,0 43.896,19.692 43.896,43.9 0,24.204 -19.692,43.896 -43.896,43.896 z"
   id="path3403"
   style="stroke-width:5.66929;stroke-miterlimit:4;stroke-dasharray:none" />

	</g>

</g>
        <g
           id="g3413"
           style="stroke-width:5.66929;stroke-miterlimit:4;stroke-dasharray:none">
	<g
   id="g3411"
   style="stroke-width:5.66929;stroke-miterlimit:4;stroke-dasharray:none">
		<path
   d="m 267.736,275.64 c -19.596,0 -35.536,15.944 -35.536,35.536 0,19.592 15.944,35.532 35.536,35.532 19.588,0 35.524,-15.94 35.528,-35.532 0,-19.596 -15.94,-35.536 -35.528,-35.536 z m 0,63.068 c -15.184,0 -27.536,-12.352 -27.536,-27.532 0,-15.184 12.352,-27.536 27.536,-27.536 15.176,0 27.524,12.352 27.528,27.536 0,15.184 -12.352,27.532 -27.528,27.532 z"
   id="path3409"
   style="stroke-width:5.66929;stroke-miterlimit:4;stroke-dasharray:none" />

	</g>

</g>
        <g
           id="g3419"
           style="stroke-width:5.66929;stroke-miterlimit:4;stroke-dasharray:none">
	<g
   id="g3417"
   style="stroke-width:5.66929;stroke-miterlimit:4;stroke-dasharray:none">
		<path
   d="m 283.292,411.244 c -2.208,0 -4,1.792 -4,4 0,9.364 -12.608,17.28 -27.532,17.28 -14.928,0 -27.536,-7.912 -27.536,-17.28 0,-2.208 -1.792,-4 -4,-4 -2.208,0 -4,1.792 -4,4 0,14.176 15.612,25.28 35.536,25.28 19.924,0 35.532,-11.108 35.532,-25.28 0,-2.208 -1.792,-4 -4,-4 z"
   id="path3415"
   style="stroke-width:5.66929;stroke-miterlimit:4;stroke-dasharray:none" />

	</g>

</g>
        <g
           id="g3425"
           style="stroke-width:5.66929;stroke-miterlimit:4;stroke-dasharray:none">
	<g
   id="g3423"
   style="stroke-width:5.66929;stroke-miterlimit:4;stroke-dasharray:none">
		<path
   d="m 411.336,104.688 c -10.5,-10.496 -24.684,-12.764 -32.28,-5.172 -1.56,1.564 -1.56,4.096 0,5.66 1.564,1.56 4.096,1.56 5.66,0 4.28,-4.28 13.884,-1.912 20.968,5.168 7.084,7.08 9.452,16.684 5.168,20.968 -1.564,1.564 -1.564,4.096 0,5.66 0.78,0.776 1.804,1.168 2.828,1.168 1.024,0 2.048,-0.388 2.824,-1.172 7.604,-7.608 5.332,-21.784 -5.168,-32.28 z"
   id="path3421"
   style="stroke-width:5.66929;stroke-miterlimit:4;stroke-dasharray:none" />

	</g>

</g>
        <g
           id="g3431"
           style="stroke-width:5.66929;stroke-miterlimit:4;stroke-dasharray:none">
	<g
   id="g3429"
   style="stroke-width:5.66929;stroke-miterlimit:4;stroke-dasharray:none">
		<path
   d="m 179.564,71.484 c -4.2,-4.2 -10.152,-6.056 -16.732,-5.24 -6.22,0.772 -12.328,3.884 -17.2,8.756 -10.32,10.332 -11.9,25.552 -3.516,33.932 0.78,0.776 1.804,1.168 2.828,1.168 1.024,0 2.052,-0.388 2.828,-1.164 1.564,-1.564 1.564,-4.096 0,-5.66 -5.264,-5.26 -3.684,-15.404 3.52,-22.616 3.62,-3.624 8.068,-5.92 12.532,-6.476 4.072,-0.516 7.668,0.54 10.084,2.956 1.564,1.564 4.092,1.564 5.656,0 1.564,-1.564 1.564,-4.092 0,-5.656 z"
   id="path3427"
   style="stroke-width:5.66929;stroke-miterlimit:4;stroke-dasharray:none" />

	</g>

</g>
        <g
           id="g3437"
           style="stroke-width:5.66929;stroke-miterlimit:4;stroke-dasharray:none">
	<g
   id="g3435"
   style="stroke-width:5.66929;stroke-miterlimit:4;stroke-dasharray:none">
		<path
   d="m 79.524,72.204 c -4.028,-3.344 -9.628,-4.088 -15.768,-2.108 -5.504,1.776 -10.908,5.62 -15.22,10.824 -4.312,5.2 -7.084,11.224 -7.808,16.964 -0.808,6.4 0.972,11.764 5.004,15.104 0.744,0.616 1.648,0.916 2.548,0.916 1.148,0 2.292,-0.496 3.092,-1.452 1.408,-1.7 1.168,-4.22 -0.532,-5.632 -2.496,-2.064 -2.428,-5.856 -2.168,-7.936 0.528,-4.188 2.724,-8.872 6.028,-12.86 3.304,-3.988 7.5,-7.02 11.516,-8.316 1.988,-0.648 5.704,-1.416 8.204,0.656 1.696,1.408 4.224,1.176 5.632,-0.528 1.408,-1.7 1.172,-4.22 -0.528,-5.632 z"
   id="path3433"
   style="stroke-width:5.66929;stroke-miterlimit:4;stroke-dasharray:none" />

	</g>

</g>
        <g
           id="g3443"
           style="stroke-width:5.66929;stroke-miterlimit:4;stroke-dasharray:none">
	<g
   id="g3441"
   style="stroke-width:5.66929;stroke-miterlimit:4;stroke-dasharray:none">
		<path
   d="m 409.608,445.132 c -1.212,-1.848 -3.692,-2.364 -5.54,-1.152 -1.848,1.212 -2.364,3.692 -1.152,5.54 1.78,2.712 0.596,6.32 -0.264,8.228 -1.74,3.848 -5.22,7.68 -9.552,10.52 -4.328,2.84 -9.232,4.5 -13.452,4.56 -2.1,-0.008 -5.876,-0.328 -7.652,-3.04 -1.208,-1.848 -3.684,-2.364 -5.536,-1.156 -1.852,1.208 -2.368,3.688 -1.156,5.536 2.816,4.304 7.816,6.66 14.1,6.66 0.116,0 0.236,-0.004 0.352,-0.004 5.788,-0.08 12.084,-2.164 17.728,-5.868 5.652,-3.704 10.076,-8.644 12.456,-13.916 2.656,-5.88 2.536,-11.528 -0.332,-15.908 z"
   id="path3439"
   style="stroke-width:5.66929;stroke-miterlimit:4;stroke-dasharray:none" />

	</g>

</g>
        <g
           id="g3449"
           style="stroke-width:5.66929;stroke-miterlimit:4;stroke-dasharray:none">
	<g
   id="g3447"
   style="stroke-width:5.66929;stroke-miterlimit:4;stroke-dasharray:none">
		<path
   d="M 371.696,13.988 C 365.788,10.7 359.34,9.076 353.588,9.42 c -6.436,0.376 -11.384,3.104 -13.932,7.68 -1.072,1.932 -0.376,4.364 1.552,5.44 1.932,1.072 4.364,0.376 5.44,-1.552 1.576,-2.832 5.32,-3.46 7.408,-3.584 4.208,-0.236 9.224,1.056 13.748,3.572 9.516,5.304 13.508,13.74 11.14,17.996 -1.076,1.932 -0.384,4.364 1.548,5.44 0.612,0.34 1.28,0.504 1.94,0.504 1.404,0 2.768,-0.744 3.5,-2.052 4.992,-8.964 -1.26,-21.648 -14.236,-28.876 z"
   id="path3445"
   style="stroke-width:5.66929;stroke-miterlimit:4;stroke-dasharray:none" />

	</g>

</g>
        <g
           id="g3455"
           style="stroke-width:5.66929;stroke-miterlimit:4;stroke-dasharray:none">
	<g
   id="g3453"
   style="stroke-width:5.66929;stroke-miterlimit:4;stroke-dasharray:none">
		<path
   d="m 338.58,137.604 c -17.324,0 -31.412,14.092 -31.412,31.416 0,17.324 14.092,31.412 31.412,31.412 17.324,0 31.416,-14.088 31.416,-31.412 0,-17.324 -14.092,-31.416 -31.416,-31.416 z m 0,54.832 c -12.912,0 -23.412,-10.504 -23.412,-23.412 0,-12.912 10.504,-23.416 23.412,-23.416 12.912,0 23.416,10.504 23.416,23.416 0,12.912 -10.504,23.412 -23.416,23.412 z"
   id="path3451"
   style="stroke-width:5.66929;stroke-miterlimit:4;stroke-dasharray:none" />

	</g>

</g>
        <g
           id="g3461"
           style="stroke-width:5.66929;stroke-miterlimit:4;stroke-dasharray:none">
	<g
   id="g3459"
   style="stroke-width:5.66929;stroke-miterlimit:4;stroke-dasharray:none">
		<path
   d="m 419.928,328.332 c -3.74,-3.74 -8.828,-5.716 -14.712,-5.716 -8.44,0 -17.316,4.036 -24.356,11.076 -5.768,5.764 -9.576,12.872 -10.72,20.008 -1.224,7.612 0.684,14.38 5.36,19.056 3.736,3.74 8.824,5.716 14.708,5.716 8.44,0 17.316,-4.036 24.356,-11.08 5.768,-5.764 9.576,-12.872 10.72,-20.008 1.224,-7.608 -0.684,-14.376 -5.356,-19.052 z m -2.544,17.788 c -0.884,5.484 -3.892,11.032 -8.48,15.62 -5.468,5.468 -12.456,8.732 -18.696,8.732 -2.592,0 -6.264,-0.584 -9.052,-3.372 -2.816,-2.812 -3.924,-7.12 -3.12,-12.128 0.884,-5.488 3.892,-11.036 8.48,-15.62 5.468,-5.468 12.456,-8.732 18.7,-8.732 2.592,0 6.268,0.584 9.052,3.372 2.812,2.812 3.92,7.12 3.116,12.128 z"
   id="path3457"
   style="stroke-width:5.66929;stroke-miterlimit:4;stroke-dasharray:none" />

	</g>

</g>
        <g
           id="g3467"
           style="stroke-width:5.66929;stroke-miterlimit:4;stroke-dasharray:none">
	<g
   id="g3465"
   style="stroke-width:5.66929;stroke-miterlimit:4;stroke-dasharray:none">
		<path
   d="m 140.952,353.7 c -1.144,-7.136 -4.952,-14.244 -10.72,-20.008 -7.036,-7.04 -15.916,-11.076 -24.356,-11.076 -5.884,0 -10.972,1.976 -14.708,5.716 -4.676,4.68 -6.58,11.444 -5.36,19.056 1.144,7.132 4.952,14.24 10.72,20.008 7.036,7.04 15.912,11.076 24.352,11.076 5.884,0 10.972,-1.972 14.712,-5.716 4.676,-4.676 6.58,-11.444 5.36,-19.056 z m -11.016,13.404 c -2.788,2.788 -6.46,3.372 -9.052,3.372 -6.24,0 -13.228,-3.264 -18.696,-8.732 -4.588,-4.588 -7.6,-10.132 -8.48,-15.62 -0.804,-5.008 0.304,-9.316 3.12,-12.132 2.784,-2.788 6.456,-3.372 9.048,-3.372 6.24,0 13.232,3.264 18.7,8.732 4.588,4.588 7.6,10.132 8.48,15.62 0.8,5.012 -0.304,9.316 -3.12,12.132 z"
   id="path3463"
   style="stroke-width:5.66929;stroke-miterlimit:4;stroke-dasharray:none" />

	</g>

</g>
        <g
           id="g3469"
           style="stroke-width:5.66929;stroke-miterlimit:4;stroke-dasharray:none">
</g>
        <g
           id="g3471"
           style="stroke-width:5.66929;stroke-miterlimit:4;stroke-dasharray:none">
</g>
        <g
           id="g3473"
           style="stroke-width:5.66929;stroke-miterlimit:4;stroke-dasharray:none">
</g>
        <g
           id="g3475"
           style="stroke-width:5.66929;stroke-miterlimit:4;stroke-dasharray:none">
</g>
        <g
           id="g3477"
           style="stroke-width:5.66929;stroke-miterlimit:4;stroke-dasharray:none">
</g>
        <g
           id="g3479"
           style="stroke-width:5.66929;stroke-miterlimit:4;stroke-dasharray:none">
</g>
        <g
           id="g3481"
           style="stroke-width:5.66929;stroke-miterlimit:4;stroke-dasharray:none">
</g>
        <g
           id="g3483"
           style="stroke-width:5.66929;stroke-miterlimit:4;stroke-dasharray:none">
</g>
        <g
           id="g3485"
           style="stroke-width:5.66929;stroke-miterlimit:4;stroke-dasharray:none">
</g>
        <g
           id="g3487"
           style="stroke-width:5.66929;stroke-miterlimit:4;stroke-dasharray:none">
</g>
        <g
           id="g3489"
           style="stroke-width:5.66929;stroke-miterlimit:4;stroke-dasharray:none">
</g>
        <g
           id="g3491"
           style="stroke-width:5.66929;stroke-miterlimit:4;stroke-dasharray:none">
</g>
        <g
           id="g3493"
           style="stroke-width:5.66929;stroke-miterlimit:4;stroke-dasharray:none">
</g>
        <g
           id="g3495"
           style="stroke-width:5.66929;stroke-miterlimit:4;stroke-dasharray:none">
</g>
        <g
           id="g3497"
           style="stroke-width:5.66929;stroke-miterlimit:4;stroke-dasharray:none">
</g>
      </g>
    </g>
  </g>
</svg>
