<?xml version="1.0" encoding="UTF-8" standalone="no"?>
<svg
   xmlns:dc="http://purl.org/dc/elements/1.1/"
   xmlns:cc="http://creativecommons.org/ns#"
   xmlns:rdf="http://www.w3.org/1999/02/22-rdf-syntax-ns#"
   xmlns:svg="http://www.w3.org/2000/svg"
   xmlns="http://www.w3.org/2000/svg"
   xmlns:sodipodi="http://sodipodi.sourceforge.net/DTD/sodipodi-0.dtd"
   xmlns:inkscape="http://www.inkscape.org/namespaces/inkscape"
   width="100.65546mm"
   height="55.487274mm"
   viewBox="0 0 100.65546 55.487274"
   version="1.1"
   id="svg8"
   inkscape:version="1.0.2-2 (e86c870879, 2021-01-15)"
   sodipodi:docname="variable-living-space.svg">
  <defs
     id="defs2" />
  <sodipodi:namedview
     id="base"
     pagecolor="#ffffff"
     bordercolor="#666666"
     borderopacity="1.0"
     inkscape:pageopacity="0.0"
     inkscape:pageshadow="2"
     inkscape:zoom="1.1177928"
     inkscape:cx="179.65626"
     inkscape:cy="-78.457815"
     inkscape:document-units="mm"
     inkscape:current-layer="layer1"
     inkscape:document-rotation="0"
     showgrid="false"
     fit-margin-top="0"
     fit-margin-left="0"
     fit-margin-right="0"
     fit-margin-bottom="0"
     inkscape:window-width="1346"
     inkscape:window-height="1040"
     inkscape:window-x="26"
     inkscape:window-y="0"
     inkscape:window-maximized="0" />
  <metadata
     id="metadata5">
    <rdf:RDF>
      <cc:Work
         rdf:about="">
        <dc:format>image/svg+xml</dc:format>
        <dc:type
           rdf:resource="http://purl.org/dc/dcmitype/StillImage" />
        <dc:title></dc:title>
      </cc:Work>
    </rdf:RDF>
  </metadata>
  <g
     inkscape:label="Layer 1"
     inkscape:groupmode="layer"
     id="layer1"
     transform="translate(-58.442766,-99.195003)">
    <g
       id="g936"
       transform="matrix(1.0583333,0,0,1.0583333,84.818707,98.073997)">
      <path
         style="fill:#ffd444;fill-opacity:1"
         d="m 10,26 v 9 h 38 v -9 c 0,-2.757 2.243,-5 5,-5 V 15.072 C 53,13.376 51.624,12 49.928,12 H 8.072 C 6.376,12 5,13.376 5,15.072 V 21 c 2.757,0 5,2.243 5,5 z"
         id="path833" />
      <path
         style="fill:#ffe65e;fill-opacity:1"
         d="m 5,21 c -2.757,0 -5,2.243 -5,5 0,2.757 2.243,5 5,5 v 15 h 5 V 26 C 10,23.243 7.757,21 5,21 Z"
         id="path835" />
      <path
         style="fill:#ffe65e;fill-opacity:1"
         d="m 48,26 v 20 h 5 V 31 c 2.757,0 5,-2.243 5,-5 0,-2.757 -2.243,-5 -5,-5 -2.757,0 -5,2.243 -5,5 z"
         id="path837" />
      <rect
         x="10"
         y="35"
         style="fill:#ffd444;fill-opacity:1"
         width="38"
         height="9"
         id="rect839" />
      <rect
         x="10"
         y="30"
         style="fill:#f3a92c;fill-opacity:1"
         width="38"
         height="5"
         id="rect841" />
      <path
         style="fill:none;stroke:#f3a92c;stroke-width:2;stroke-linecap:round;stroke-miterlimit:10;stroke-opacity:1"
         d="m 37.5,22.5 v 0 c -0.828,-0.828 -0.828,-2.172 0,-3 v 0 c 0.828,-0.828 2.172,-0.828 3,0 v 0 c 0.828,0.828 0.828,2.172 0,3 v 0 c -0.828,0.828 -2.172,0.828 -3,0 z"
         id="path843" />
      <line
         style="fill:none;stroke:#f3a92c;stroke-width:2;stroke-linecap:round;stroke-miterlimit:10;stroke-opacity:1"
         x1="42"
         y1="24"
         x2="40.5"
         y2="22.5"
         id="line845" />
      <line
         style="fill:none;stroke:#f3a92c;stroke-width:2;stroke-linecap:round;stroke-miterlimit:10;stroke-opacity:1"
         x1="42"
         y1="18"
         x2="40.5"
         y2="19.5"
         id="line847" />
      <line
         style="fill:none;stroke:#f3a92c;stroke-width:2;stroke-linecap:round;stroke-miterlimit:10;stroke-opacity:1"
         x1="36"
         y1="18"
         x2="37.5"
         y2="19.5"
         id="line849" />
      <line
         style="fill:none;stroke:#f3a92c;stroke-width:2;stroke-linecap:round;stroke-miterlimit:10;stroke-opacity:1"
         x1="36"
         y1="24"
         x2="37.5"
         y2="22.5"
         id="line851" />
      <path
         style="fill:none;fill-opacity:1;stroke:#f3a92c;stroke-width:2;stroke-linecap:round;stroke-miterlimit:10;stroke-opacity:1"
         d="m 17.5,22.5 v 0 c -0.828,-0.828 -0.828,-2.172 0,-3 v 0 c 0.828,-0.828 2.172,-0.828 3,0 v 0 c 0.828,0.828 0.828,2.172 0,3 v 0 c -0.828,0.828 -2.172,0.828 -3,0 z"
         id="path853" />
      <line
         style="fill:none;stroke:#f3a92c;stroke-width:2;stroke-linecap:round;stroke-miterlimit:10;stroke-opacity:1"
         x1="22"
         y1="24"
         x2="20.5"
         y2="22.5"
         id="line855" />
      <line
         style="fill:none;stroke:#f3a92c;stroke-width:2;stroke-linecap:round;stroke-miterlimit:10;stroke-opacity:1"
         x1="22"
         y1="18"
         x2="20.5"
         y2="19.5"
         id="line857" />
      <line
         style="fill:none;stroke:#f3a92c;stroke-width:2;stroke-linecap:round;stroke-miterlimit:10;stroke-opacity:1"
         x1="16"
         y1="18"
         x2="17.5"
         y2="19.5"
         id="line859" />
      <line
         style="fill:none;stroke:#f3a92c;stroke-width:2;stroke-linecap:round;stroke-miterlimit:10;stroke-opacity:1"
         x1="16"
         y1="24"
         x2="17.5"
         y2="22.5"
         id="line861" />
      <path
         style="fill:#ffd444;fill-opacity:1"
         d="m 54,25 c -0.552,0 -1,0.448 -1,1 v 5 c 0.712,0 1.386,-0.154 2,-0.424 V 26 c 0,-0.552 -0.448,-1 -1,-1 z"
         id="path863" />
      <path
         style="fill:#ffd444;fill-opacity:1"
         d="M 5,31 V 26 C 5,25.448 4.552,25 4,25 3.448,25 3,25.448 3,26 v 4.576 C 3.614,30.846 4.288,31 5,31 Z"
         id="path865" />
      <g
         id="g867">
</g>
      <g
         id="g869">
</g>
      <g
         id="g871">
</g>
      <g
         id="g873">
</g>
      <g
         id="g875">
</g>
      <g
         id="g877">
</g>
      <g
         id="g879">
</g>
      <g
         id="g881">
</g>
      <g
         id="g883">
</g>
      <g
         id="g885">
</g>
      <g
         id="g887">
</g>
      <g
         id="g889">
</g>
      <g
         id="g891">
</g>
      <g
         id="g893">
</g>
      <g
         id="g895">
</g>
    </g>
    <g
       id="g958"
       transform="matrix(0.1272145,0,0,0.1272145,44.590761,99.195003)">
	<path
   style="fill:#f7b239"
   d="m 266.458,111.354 v 92.09 c 0,3.31 -2.68,6 -6,6 -3.31,0 -6,-2.69 -6,-6 v -92.09 c 0,-3.31 2.69,-6 6,-6 3.32,0 6,2.69 6,6 z"
   id="path938" />

	<path
   style="fill:#e5a030"
   d="m 266.458,111.354 v 43.5 h -12 v -43.5 c 0,-3.31 2.69,-6 6,-6 3.32,0 6,2.69 6,6 z"
   id="path940" />

	<rect
   x="212.08501"
   y="114.021"
   style="fill:#808080"
   width="12"
   height="310.66699"
   id="rect942" />

	<path
   style="fill:#808080"
   d="m 218.085,51.354 c -3.313,0 -6,-2.686 -6,-6 V 6 c 0,-3.314 2.687,-6 6,-6 3.314,0 6,2.686 6,6 v 39.354 c 0,3.314 -2.686,6 -6,6 z"
   id="path944" />

	<path
   style="fill:#666666"
   d="m 224.085,111.354 v 43.5 h -12 v -43.5 c 0,-3.31 2.69,-6 6,-6 3.32,0 6,2.69 6,6 z"
   id="path946" />

	<path
   style="fill:#376f9e;fill-opacity:1"
   d="m 327.283,133.36 c 0,-60.308 -48.889,-109.198 -109.197,-109.198 -60.308,0 -109.198,48.889 -109.198,109.198 h 218.395"
   id="path948" />

	<path
   style="fill:#a5a5a5"
   d="m 219.452,24.17 c 0.004,0 0.013,0 0.016,0 -0.004,10e-4 -0.011,0 -0.016,0 m -0.215,-0.002 c 0.015,0 0.03,0 0.045,0 -0.015,0 -0.03,0 -0.045,0 m -0.202,-0.002 c 0.022,0 0.04,0 0.062,0.001 -0.02,-0.001 -0.041,-0.001 -0.062,-0.001 m -0.193,-0.001 c 0.022,0 0.045,0 0.067,0 -0.022,0 -0.045,0 -0.067,0 m -0.191,-0.002 c 0.026,0 0.046,0 0.071,0 -0.024,0.001 -0.048,0.001 -0.071,0 m -0.189,0 c 0.022,0 0.047,0 0.069,0 -0.023,0 -0.046,0 -0.069,0 m -0.189,-0.001 c 0.018,0 0.04,0 0.059,0 -0.019,0 -0.039,0 -0.059,0"
   id="path950" />

	<path
   style="fill:#1a537f;fill-opacity:1"
   d="m 218.085,24.162 c -60.308,0 -109.198,48.889 -109.198,109.198 h 49 c 0,-51.885 36.186,-95.316 84.697,-106.436 -7.444,-1.707 -15.178,-2.654 -23.116,-2.753 -0.004,0 -0.013,0 -0.016,0 -0.057,-10e-4 -0.114,-10e-4 -0.171,-0.002 -0.015,0 -0.03,0 -0.045,0 -0.047,0 -0.093,-0.001 -0.139,-0.001 -0.022,0 -0.04,0 -0.062,-10e-4 -0.042,0 -0.084,-0.001 -0.126,-0.001 -0.022,0 -0.045,0 -0.067,0 -0.04,0 -0.08,0 -0.12,-0.001 -0.026,0 -0.046,0 -0.071,0 -0.04,0 -0.079,0 -0.12,-10e-4 -0.022,0 -0.047,0 -0.069,0 -0.043,0 -0.087,0 -0.13,0 -0.018,0 -0.04,0 -0.059,0 -0.062,-0.002 -0.125,-0.002 -0.188,-0.002 v 0"
   id="path952" />

	<path
   style="fill:#f7b239"
   d="M 280.516,436.17 H 155.655 l 5.11,-11.785 c 2.816,-6.495 9.22,-10.698 16.3,-10.698 h 82.041 c 7.08,0 13.483,4.203 16.3,10.698 l 5.11,11.785"
   id="path954" />

	<path
   style="fill:#e5a030"
   d="m 192.071,413.688 h -15.006 c -7.08,0 -13.484,4.203 -16.3,10.698 l -5.11,11.785 h 26.667 l 9.749,-22.483"
   id="path956" />

</g>
    <g
       id="g1060"
       transform="matrix(0.05548714,0,0,0.05548714,138.67896,121.111)">
      <g
         id="g996">
	<path
   style="fill:#3cb44a"
   d="m 309.462,124.65 c -8.387,8.398 -12.653,20.045 -13.324,33.708 -13.271,0.166 -24.126,4.983 -32.139,12.93 v -68.129 c 0,-22.054 10.774,-40 32.83,-40 20.594,2.734 38.164,-1.133 49.695,-12.617 C 358.07,39.01 361.922,21.44 359.133,0.862 338.57,-1.904 321,1.909 309.461,13.487 301.073,21.886 296.807,33.532 296.137,47.195 265.697,47.575 248,72.52 248,103.158 v 24.498 c -10.259,-10.492 -24.529,-17.094 -40.127,-17.291 -0.664,-13.67 -4.947,-25.325 -13.326,-33.73 -11.531,-11.547 -29.102,-15.398 -49.679,-12.61 -2.774,20.563 1.046,38.133 12.617,49.672 11.516,11.5 29.093,15.336 49.68,12.633 22.055,0 40.835,17.945 40.835,40 v 65.326 c -10.259,-10.492 -24.529,-17.094 -40.127,-17.291 -0.664,-13.67 -4.947,-25.325 -13.326,-33.73 -11.531,-11.547 -29.102,-15.398 -49.679,-12.61 -2.774,20.563 1.046,38.133 12.617,49.672 11.516,11.5 29.093,15.336 49.68,12.633 22.055,0 40.835,17.945 40.835,40 V 312 h 16 v -97.678 c 0,-22.054 10.775,-40 32.829,-40 0,0.002 0,0.005 0,0.005 20.594,2.745 38.172,-1.13 49.696,-12.615 11.546,-11.531 15.398,-29.102 12.609,-49.679 -20.563,-2.773 -38.133,1.047 -49.672,12.617 z"
   id="path978" />

	<g
   id="g984">
		<path
   style="fill:#0e9247"
   d="m 264,103.158 c 0,-22.055 10.773,-40 32.83,-40 v -0.005 h 0.013 -0.001 c 20.587,2.739 38.162,-1.136 49.683,-12.618 11.545,-11.53 15.396,-29.099 12.61,-49.674 L 308.71,51.287 c -3.001,3 -7.071,4.686 -11.314,4.686 H 296 l 10e-4,0.014 v 0 C 269.949,55.987 256,77.106 256,103.159 v 78.722 c 2.233,-3.93 4.888,-7.507 8,-10.592 z"
   id="path980" />

		<path
   style="fill:#0e9247"
   d="m 359.134,112.038 -50.425,50.426 c -3,3.001 -7.07,4.687 -11.314,4.687 h -1.394 C 269.949,167.151 256,188.27 256,214.323 V 312 h 8 v -97.678 c 0,-22.055 10.774,-40 32.829,-40 l 10e-4,0.007 h 0.014 l -10e-4,0.001 c 20.586,2.738 38.162,-1.137 49.682,-12.619 11.544,-11.529 15.396,-29.098 12.609,-49.673 z"
   id="path982" />

	</g>

	<path
   style="fill:#376f9e;fill-opacity:1"
   d="M 360,312 H 152 c -4.4,0 -8,3.6 -8,8 v 32 c 0,4.4 3.6,8 8,8 h 8 l 21.868,138.495 c 1.227,7.777 7.93,13.505 15.804,13.505 H 240 h 16 58.328 c 7.873,0 14.576,-5.728 15.804,-13.505 L 352,360 h 8 c 4.4,0 8,-3.6 8,-8 v -32 c 0,-4.4 -3.6,-8 -8,-8 z"
   id="path986" />

	<path
   style="fill:#25516e;fill-opacity:1"
   d="m 352,336 c 0,4.418 -3.582,8 -8,8 H 168 c -8.837,0 -16,7.163 -16,16 H 312 L 292.658,482.495 C 291.43,490.272 284.728,496 276.854,496 h -95.381 l 0.395,2.495 c 1.228,7.777 7.931,13.505 15.805,13.505 h 116.655 c 7.874,0 14.576,-5.728 15.804,-13.505 L 352,360 h 8 c 4.418,0 8,-3.582 8,-8 v -32 c -8.837,0 -16,7.163 -16,16 z"
   id="path988" />

	<g
   id="g994">
		<path
   style="fill:#0e9247"
   d="m 207.999,119.159 0.002,-0.022 h -1.395 c -4.243,0 -8.313,-1.686 -11.313,-4.686 L 144.868,64.025 c -2.787,20.575 1.064,38.143 12.61,49.674 11.52,11.482 29.095,15.357 49.682,12.618 h -0.001 0.005 v 0.013 c 22.055,0 40.835,17.945 40.835,40 v -25.862 c -8.675,-12.825 -23.506,-21.307 -40,-21.309 z"
   id="path990" />

		<path
   style="fill:#0e9247"
   d="m 207.999,223.159 0.002,-0.022 h -1.395 c -4.243,0 -8.313,-1.686 -11.313,-4.686 l -50.425,-50.426 c -2.787,20.575 1.064,38.143 12.61,49.674 11.52,11.482 29.095,15.357 49.682,12.618 h -0.001 0.005 v 0.013 c 22.055,0 40.835,17.945 40.835,40 v -25.862 c -8.675,-12.825 -23.506,-21.307 -40,-21.309 z"
   id="path992" />

	</g>

</g>
      <g
         id="g998">
</g>
      <g
         id="g1000">
</g>
      <g
         id="g1002">
</g>
      <g
         id="g1004">
</g>
      <g
         id="g1006">
</g>
      <g
         id="g1008">
</g>
      <g
         id="g1010">
</g>
      <g
         id="g1012">
</g>
      <g
         id="g1014">
</g>
      <g
         id="g1016">
</g>
      <g
         id="g1018">
</g>
      <g
         id="g1020">
</g>
      <g
         id="g1022">
</g>
      <g
         id="g1024">
</g>
      <g
         id="g1026">
</g>
    </g>
    <rect
       style="fill:#1a537f;fill-opacity:1;stroke:none;stroke-width:0.855567;stroke-opacity:1"
       id="rect2343"
       width="30.377115"
       height="11.948332"
       x="100.37838"
       y="101.60412" />
    <text
       xml:space="preserve"
       style="font-size:7.05556px;line-height:1.25;font-family:Alegreya;-inkscape-font-specification:Alegreya;stroke-width:0.264583;fill:#ffffff;fill-opacity:1;"
       x="103.23113"
       y="109.81975"
       id="text2341"><tspan
         sodipodi:role="line"
         id="tspan2339"
         x="103.23113"
         y="109.81975"
         style="stroke-width:0.264583;fill:#ffffff;fill-opacity:1;">Variable</tspan></text>
    <path
       style="fill:#1a537f;fill-opacity:1;stroke:#1a537f;stroke-width:1;stroke-opacity:1"
       d="m 115.39202,113.43144 -0.35505,16.69526"
       id="path2345"
       sodipodi:nodetypes="cc" />
    <path
       style="fill:none;fill-opacity:1;stroke:#1a537f;stroke-width:1;stroke-opacity:1"
       d="m 114.95328,129.92271 -9.14767,5.2339 -0.4734,13.25529 -3.22357,1.42021"
       id="path2347"
       sodipodi:nodetypes="cccc" />
    <path
       style="fill:none;fill-opacity:1;stroke:#1a537f;stroke-width:1;stroke-opacity:1"
       d="m 115.1102,129.8861 -3.2687,5.62556 -0.7101,12.90024 1.05036,2.61851"
       id="path2349"
       sodipodi:nodetypes="cccc" />
    <path
       style="fill:none;fill-opacity:1;stroke:#1a537f;stroke-width:1;stroke-opacity:1"
       d="m 114.87209,119.67197 -12.74564,-2.43985 -11.234164,1.54763"
       id="path2351" />
    <path
       style="fill:none;fill-opacity:1;stroke:#1a537f;stroke-width:1;stroke-opacity:1"
       d="m 140.456,120.86808 -13.58251,-2.60722 -11.23416,1.54763"
       id="path2351-6"
       sodipodi:nodetypes="ccc" />
    <path
       style="fill:none;fill-opacity:1;stroke:#1a537f;stroke-width:1;stroke-opacity:1"
       d="m 111.1314,148.4119 -0.81296,2.73931"
       id="path2373"
       sodipodi:nodetypes="cc" />
    <path
       style="fill:none;fill-opacity:1;stroke:#1a537f;stroke-width:1;stroke-opacity:1"
       d="m 105.33221,148.4119 -2.24071,2.68435"
       id="path2375"
       sodipodi:nodetypes="cc" />
    <path
       style="fill:none;fill-opacity:1;stroke:#1a537f;stroke-width:1;stroke-opacity:1"
       d="m 137.16858,120.42194 3.385,-1.39732"
       id="path2377"
       sodipodi:nodetypes="cc" />
    <path
       style="fill:none;fill-opacity:1;stroke:#1a537f;stroke-width:1;stroke-opacity:1"
       d="m 94.408259,118.31088 -3.682215,-1.06701"
       id="path2379"
       sodipodi:nodetypes="cc" />
  </g>
</svg>
