<?xml version="1.0" encoding="UTF-8" standalone="no"?>
<svg
   xmlns:dc="http://purl.org/dc/elements/1.1/"
   xmlns:cc="http://creativecommons.org/ns#"
   xmlns:rdf="http://www.w3.org/1999/02/22-rdf-syntax-ns#"
   xmlns:svg="http://www.w3.org/2000/svg"
   xmlns="http://www.w3.org/2000/svg"
   xmlns:sodipodi="http://sodipodi.sourceforge.net/DTD/sodipodi-0.dtd"
   xmlns:inkscape="http://www.inkscape.org/namespaces/inkscape"
   width="151.40649mm"
   height="125.14195mm"
   viewBox="0 0 151.40649 125.14195"
   version="1.1"
   id="svg8"
   inkscape:version="1.0.2-2 (e86c870879, 2021-01-15)"
   sodipodi:docname="warning.svg">
  <defs
     id="defs2" />
  <sodipodi:namedview
     id="base"
     pagecolor="#ffffff"
     bordercolor="#666666"
     borderopacity="1.0"
     inkscape:pageopacity="0.0"
     inkscape:pageshadow="2"
     inkscape:zoom="0.79039886"
     inkscape:cx="257.17712"
     inkscape:cy="355.51735"
     inkscape:document-units="mm"
     inkscape:current-layer="layer1"
     inkscape:document-rotation="0"
     showgrid="false"
     fit-margin-top="0"
     fit-margin-left="0"
     fit-margin-right="0"
     fit-margin-bottom="0"
     inkscape:window-width="1346"
     inkscape:window-height="1040"
     inkscape:window-x="208"
     inkscape:window-y="0"
     inkscape:window-maximized="0" />
  <metadata
     id="metadata5">
    <rdf:RDF>
      <cc:Work
         rdf:about="">
        <dc:format>image/svg+xml</dc:format>
        <dc:type
           rdf:resource="http://purl.org/dc/dcmitype/StillImage" />
        <dc:title></dc:title>
      </cc:Work>
    </rdf:RDF>
  </metadata>
  <g
     inkscape:label="Layer 1"
     inkscape:groupmode="layer"
     id="layer1"
     transform="translate(12.522242,-0.14494333)">
    <g
       id="g1702">
      <g
         id="g1666"
         transform="matrix(0.26458333,0,0,0.26458333,1.1527746,-7.9476024)">
        <g
           id="g1606">
	<path
   style="fill:#666666"
   d="M 417.297,363.067 232.809,43.523 c -2.895,-5.015 -7.057,-8.561 -11.743,-10.66 v -2.277 l -12.349,0.055 c -8.138,0.52 -16.064,4.813 -20.723,12.882 L 3.505,363.067 c -9.959,17.249 2.49,38.811 22.407,38.811 H 394.89 c 19.918,0 32.366,-21.562 22.407,-38.811 z"
   id="path1596" />

	<path
   style="fill:#2e2f2e;fill-opacity:1"
   d="M 15.166,363.067 199.655,43.523 c 9.959,-17.249 34.856,-17.249 44.815,0 l 184.489,319.544 c 9.959,17.249 -2.49,38.811 -22.407,38.811 H 37.574 c -19.918,0 -32.367,-21.562 -22.408,-38.811 z"
   id="path1598" />

	<polygon
   style="fill:#ffe959;fill-opacity:1"
   points="395.939,369.878 48.184,369.878 222.062,68.712 "
   id="polygon1600" />

	<circle
   style="fill:#2e2f2e;fill-opacity:1"
   cx="222.062"
   cy="323.81799"
   r="24"
   id="circle1602" />

	<path
   style="fill:#2e2f2e;fill-opacity:1"
   d="m 222.062,148.818 v 0 c -12.982,0 -23.251,10.992 -22.367,23.944 l 6.348,93.091 c 0.574,8.424 7.576,14.965 16.02,14.965 v 0 c 8.444,0 15.445,-6.54 16.02,-14.965 l 6.348,-93.091 c 0.881,-12.951 -9.387,-23.944 -22.369,-23.944 z"
   id="path1604" />

</g>
        <g
           id="g1608">
</g>
        <g
           id="g1610">
</g>
        <g
           id="g1612">
</g>
        <g
           id="g1614">
</g>
        <g
           id="g1616">
</g>
        <g
           id="g1618">
</g>
        <g
           id="g1620">
</g>
        <g
           id="g1622">
</g>
        <g
           id="g1624">
</g>
        <g
           id="g1626">
</g>
        <g
           id="g1628">
</g>
        <g
           id="g1630">
</g>
        <g
           id="g1632">
</g>
        <g
           id="g1634">
</g>
        <g
           id="g1636">
</g>
      </g>
      <text
         xml:space="preserve"
         style="font-size:14.1111px;line-height:1.25;font-family:Alegreya;-inkscape-font-specification:Alegreya;stroke-width:0.264583"
         x="21.539845"
         y="110.06624"
         id="text1670"><tspan
           sodipodi:role="line"
           id="tspan1668"
           x="21.539845"
           y="110.06624"
           style="font-size:14.1111px;stroke-width:0.264583">Pas de soucis</tspan></text>
      <text
         xml:space="preserve"
         style="font-size:11.2889px;line-height:1.25;font-family:Alegreya;-inkscape-font-specification:Alegreya;stroke-width:0.264583"
         x="-12.781887"
         y="122.61143"
         id="text1674"><tspan
           sodipodi:role="line"
           id="tspan1672"
           x="-12.781887"
           y="122.61143"
           style="font-size:11.2889px;stroke-width:0.264583">Je l'expliquerai plus tard en détail</tspan></text>
    </g>
  </g>
</svg>
